G04*
G04 #@! TF.GenerationSoftware,Altium Limited,Altium Designer,25.2.1 (25)*
G04*
G04 Layer_Physical_Order=6*
G04 Layer_Color=16711680*
%FSLAX44Y44*%
%MOMM*%
G71*
G04*
G04 #@! TF.SameCoordinates,1675D247-2589-475D-A358-125397F96DBE*
G04*
G04*
G04 #@! TF.FilePolarity,Positive*
G04*
G01*
G75*
%ADD50R,0.7000X4.2000*%
%ADD51R,0.7000X3.2000*%
%ADD102C,0.1524*%
%ADD103C,0.2032*%
%ADD104C,0.1270*%
%ADD108O,1.8500X1.8600*%
%ADD109O,1.8600X1.8500*%
%ADD110C,2.5650*%
%ADD111C,1.5000*%
%ADD112C,1.8750*%
%ADD113C,3.1500*%
%ADD114C,2.7750*%
%ADD115C,1.0500*%
%ADD116C,3.3000*%
G04:AMPARAMS|DCode=117|XSize=2.775mm|YSize=2.775mm|CornerRadius=0.3469mm|HoleSize=0mm|Usage=FLASHONLY|Rotation=270.000|XOffset=0mm|YOffset=0mm|HoleType=Round|Shape=RoundedRectangle|*
%AMROUNDEDRECTD117*
21,1,2.7750,2.0812,0,0,270.0*
21,1,2.0812,2.7750,0,0,270.0*
1,1,0.6938,-1.0406,-1.0406*
1,1,0.6938,-1.0406,1.0406*
1,1,0.6938,1.0406,1.0406*
1,1,0.6938,1.0406,-1.0406*
%
%ADD117ROUNDEDRECTD117*%
%ADD118C,0.4500*%
%ADD119C,1.0000*%
%ADD120C,2.0000*%
G36*
X1313628Y349861D02*
Y335168D01*
X1309165Y330706D01*
X1307895Y331223D01*
Y332890D01*
X1307921D01*
X1307604Y334488D01*
X1306698Y335843D01*
X1305344Y336748D01*
X1303746Y337066D01*
Y337040D01*
X1301079D01*
Y337066D01*
X1299481Y336748D01*
X1298126Y335843D01*
X1297299Y334606D01*
X1296679Y334417D01*
X1295891Y334312D01*
X1294676Y335124D01*
X1293078Y335442D01*
Y335415D01*
X1290411D01*
Y335442D01*
X1288813Y335124D01*
X1287458Y334218D01*
X1286553Y332864D01*
X1286235Y331266D01*
X1285404Y330340D01*
X1271887D01*
X1271311Y331731D01*
X1269964Y333078D01*
X1268203Y333807D01*
X1266298D01*
X1264537Y333078D01*
X1263190Y331731D01*
X1262460Y329970D01*
Y328065D01*
X1263190Y326304D01*
X1263712Y325782D01*
X1263161Y325231D01*
X1262431Y323470D01*
Y321565D01*
X1263161Y319804D01*
X1264172Y318794D01*
X1263654Y317544D01*
X1253728D01*
X1252650Y317330D01*
X1251737Y316719D01*
X1249654Y314636D01*
X1249653Y314636D01*
X1241294Y306276D01*
X1151355D01*
X1150402Y307229D01*
X1150670Y308714D01*
X1151213Y308939D01*
X1152561Y310287D01*
X1153290Y312047D01*
Y313953D01*
X1152561Y315713D01*
X1151213Y317061D01*
X1149453Y317790D01*
X1147547D01*
X1145787Y317061D01*
X1145250Y316524D01*
X1144713Y317061D01*
X1142953Y317790D01*
X1141047D01*
X1139287Y317061D01*
X1137939Y315713D01*
X1137210Y313953D01*
Y312047D01*
X1137939Y310287D01*
X1139287Y308939D01*
X1140656Y308372D01*
Y305147D01*
X1140870Y304070D01*
X1141481Y303156D01*
X1146724Y297913D01*
X1147638Y297302D01*
X1148715Y297088D01*
X1243933D01*
X1245011Y297302D01*
X1245924Y297913D01*
X1256367Y308356D01*
X1264122D01*
X1264689Y306987D01*
X1264954Y306722D01*
X1264167Y305934D01*
X1263438Y304174D01*
Y302268D01*
X1264167Y300508D01*
X1264715Y299959D01*
X1264190Y299434D01*
X1263461Y297674D01*
Y295768D01*
X1264190Y294008D01*
X1264861Y293337D01*
X1264463Y292940D01*
X1263903Y291588D01*
X1087439D01*
Y291606D01*
X1085342Y291330D01*
X1083388Y290520D01*
X1081710Y289233D01*
X1080423Y287555D01*
X1079613Y285601D01*
X1079507Y284794D01*
X1078226D01*
X1078120Y285601D01*
X1077310Y287555D01*
X1076023Y289233D01*
X1074345Y290520D01*
X1072391Y291330D01*
X1070294Y291606D01*
Y291606D01*
X1069074Y291726D01*
X1065900Y294900D01*
X1051400Y309400D01*
X1050528Y309982D01*
X1049500Y310187D01*
X1027500D01*
X1026472Y309982D01*
X1025600Y309400D01*
X1014445Y298245D01*
X1013863Y297373D01*
X1013658Y296345D01*
Y292129D01*
X1012287Y291561D01*
X1010939Y290213D01*
X1010210Y288453D01*
Y286547D01*
X1010939Y284787D01*
X1012287Y283439D01*
X1014047Y282710D01*
X1015953D01*
X1017713Y283439D01*
X1018250Y283976D01*
X1018787Y283439D01*
X1020547Y282710D01*
X1022453D01*
X1024213Y283439D01*
X1025561Y284787D01*
X1026290Y286547D01*
Y288453D01*
X1025561Y290213D01*
X1024213Y291561D01*
X1022842Y292129D01*
Y293654D01*
X1030191Y301003D01*
X1045529D01*
X1046208Y299733D01*
X1045914Y299293D01*
X1045586Y297646D01*
X1045914Y295998D01*
X1046847Y294601D01*
X1046869Y294623D01*
X1046870Y294623D01*
X1048216Y293276D01*
X1049092Y292356D01*
X1049092Y292356D01*
X1050489Y291423D01*
X1052137Y291095D01*
X1053784Y291423D01*
X1055181Y292356D01*
X1056160Y291653D01*
X1060639Y287174D01*
X1060639Y287174D01*
X1064621Y283192D01*
X1065492Y282609D01*
X1066520Y282405D01*
X1069195D01*
Y280688D01*
X1069177D01*
X1069453Y278591D01*
X1070263Y276637D01*
X1071550Y274959D01*
X1073228Y273672D01*
X1075182Y272862D01*
X1077279Y272586D01*
Y272604D01*
X1080454D01*
Y272586D01*
X1082551Y272862D01*
X1084505Y273672D01*
X1086183Y274959D01*
X1087470Y276637D01*
X1088280Y278591D01*
X1088556Y280688D01*
X1088538D01*
Y282405D01*
X1263325D01*
X1263826Y281135D01*
X1262832Y280141D01*
X1262103Y278381D01*
Y276475D01*
X1262832Y274715D01*
X1263361Y274186D01*
X1262817Y273641D01*
X1262087Y271881D01*
Y269975D01*
X1262817Y268215D01*
X1264164Y266867D01*
X1265925Y266138D01*
X1267830D01*
X1269591Y266867D01*
X1270938Y268215D01*
X1271501Y269573D01*
X1301445D01*
X1309684Y261334D01*
Y248195D01*
X1308425Y247945D01*
X1306965Y246969D01*
X1305990Y245509D01*
X1305648Y243788D01*
X1305680D01*
Y240486D01*
X1305648D01*
X1305990Y238764D01*
X1306965Y237304D01*
X1308200Y236479D01*
X1308613Y235095D01*
X1298833Y225316D01*
X930998D01*
Y225331D01*
X928918Y225057D01*
X926979Y224254D01*
X925315Y222977D01*
X924037Y221312D01*
X923234Y219373D01*
X922003Y219588D01*
Y222736D01*
X922018D01*
X921744Y224816D01*
X920941Y226755D01*
X919664Y228419D01*
X917999Y229697D01*
X916060Y230500D01*
X913980Y230774D01*
Y230759D01*
X910678D01*
Y230774D01*
X908598Y230500D01*
X906659Y229697D01*
X904995Y228419D01*
X903717Y226755D01*
X903126Y225326D01*
X901814Y225478D01*
X901698Y226183D01*
X901698D01*
X901424Y228263D01*
X900621Y230202D01*
X899344Y231867D01*
X897679Y233144D01*
X895741Y233947D01*
X893660Y234221D01*
Y234206D01*
X890358D01*
Y234221D01*
X888278Y233947D01*
X886339Y233144D01*
X884675Y231867D01*
X883397Y230202D01*
X882594Y228263D01*
X882490Y227468D01*
X881209D01*
X881104Y228263D01*
X880301Y230202D01*
X879024Y231867D01*
X877359Y233144D01*
X875421Y233947D01*
X873340Y234221D01*
Y234206D01*
X870038D01*
Y234221D01*
X867958Y233947D01*
X866019Y233144D01*
X864355Y231867D01*
X863077Y230202D01*
X862274Y228263D01*
X862170Y227468D01*
X860889D01*
X860784Y228263D01*
X859981Y230202D01*
X858704Y231867D01*
X857039Y233144D01*
X855100Y233947D01*
X853020Y234221D01*
Y234206D01*
X849718D01*
Y234221D01*
X847638Y233947D01*
X845699Y233144D01*
X844035Y231867D01*
X842757Y230202D01*
X841954Y228263D01*
X841850Y227468D01*
X840569D01*
X840464Y228263D01*
X839661Y230202D01*
X838384Y231867D01*
X836719Y233144D01*
X834781Y233947D01*
X832700Y234221D01*
Y234206D01*
X829398D01*
Y234221D01*
X827318Y233947D01*
X825379Y233144D01*
X823715Y231867D01*
X822437Y230202D01*
X821634Y228263D01*
X821360Y226183D01*
X820450Y225316D01*
X813471D01*
X812393Y225102D01*
X811480Y224491D01*
X681231Y94242D01*
X680620Y93329D01*
X680406Y92251D01*
Y57270D01*
X675230D01*
Y14039D01*
X654770D01*
Y57270D01*
X649594D01*
Y83083D01*
X809667Y243156D01*
X823096D01*
Y243141D01*
X825176Y243415D01*
X827115Y244218D01*
X828780Y245495D01*
X830057Y247160D01*
X830860Y249099D01*
X830872Y249186D01*
X832152D01*
X832350Y247684D01*
X833153Y245745D01*
X834431Y244080D01*
X836095Y242803D01*
X838034Y242000D01*
X840114Y241726D01*
Y241741D01*
X843416D01*
Y241726D01*
X845497Y242000D01*
X847435Y242803D01*
X849100Y244080D01*
X850377Y245745D01*
X851180Y247684D01*
X851285Y248478D01*
X852566D01*
X852670Y247684D01*
X853473Y245745D01*
X854751Y244080D01*
X856415Y242803D01*
X858354Y242000D01*
X860434Y241726D01*
Y241741D01*
X863736D01*
Y241726D01*
X865816Y242000D01*
X867755Y242803D01*
X869420Y244080D01*
X870697Y245745D01*
X871500Y247684D01*
X871605Y248478D01*
X872886D01*
X872990Y247684D01*
X873793Y245745D01*
X875071Y244080D01*
X876735Y242803D01*
X878674Y242000D01*
X880754Y241726D01*
Y241741D01*
X884056D01*
Y241726D01*
X886136Y242000D01*
X888075Y242803D01*
X889740Y244080D01*
X891017Y245745D01*
X891820Y247684D01*
X891925Y248478D01*
X893206D01*
X893310Y247684D01*
X894113Y245745D01*
X895391Y244080D01*
X897055Y242803D01*
X898994Y242000D01*
X901074Y241726D01*
Y241741D01*
X904376D01*
Y241726D01*
X906457Y242000D01*
X908395Y242803D01*
X910060Y244080D01*
X911337Y245745D01*
X912140Y247684D01*
X912245Y248478D01*
X913526D01*
X913630Y247684D01*
X914433Y245745D01*
X915711Y244080D01*
X917375Y242803D01*
X919314Y242000D01*
X921394Y241726D01*
Y241741D01*
X924696D01*
Y241726D01*
X926777Y242000D01*
X928715Y242803D01*
X930380Y244080D01*
X931657Y245745D01*
X932460Y247684D01*
X932565Y248478D01*
X933846D01*
X933950Y247684D01*
X934753Y245745D01*
X936031Y244080D01*
X937695Y242803D01*
X939634Y242000D01*
X941714Y241726D01*
Y241741D01*
X945016D01*
Y241726D01*
X947096Y242000D01*
X949035Y242803D01*
X950700Y244080D01*
X951977Y245745D01*
X952780Y247684D01*
X952978Y249186D01*
X954259D01*
X954270Y249099D01*
X955073Y247160D01*
X956351Y245495D01*
X958015Y244218D01*
X959954Y243415D01*
X962034Y243141D01*
Y243156D01*
X1226372D01*
X1226939Y241787D01*
X1228287Y240439D01*
X1230047Y239710D01*
X1231953D01*
X1233713Y240439D01*
X1235061Y241787D01*
X1235790Y243547D01*
Y245453D01*
X1235061Y247213D01*
X1234524Y247750D01*
X1235061Y248287D01*
X1235790Y250047D01*
Y251953D01*
X1235061Y253713D01*
X1233713Y255061D01*
X1231953Y255790D01*
X1230047D01*
X1228287Y255061D01*
X1226939Y253713D01*
X1226372Y252344D01*
X963199D01*
Y254677D01*
X963214D01*
X962940Y256758D01*
X962137Y258696D01*
X960860Y260361D01*
X959195Y261638D01*
X957256Y262441D01*
X955176Y262715D01*
Y262700D01*
X951874D01*
Y262715D01*
X949794Y262441D01*
X947855Y261638D01*
X946191Y260361D01*
X944913Y258696D01*
X944110Y256758D01*
X942879Y256972D01*
Y260403D01*
X942894D01*
X942620Y262483D01*
X941817Y264422D01*
X940540Y266087D01*
X938875Y267364D01*
X936936Y268167D01*
X934856Y268441D01*
Y268426D01*
X931554D01*
Y268441D01*
X929474Y268167D01*
X927535Y267364D01*
X925871Y266087D01*
X924593Y264422D01*
X923790Y262483D01*
X923686Y261688D01*
X922405D01*
X922300Y262483D01*
X921497Y264422D01*
X920220Y266087D01*
X918555Y267364D01*
X916617Y268167D01*
X914536Y268441D01*
Y268426D01*
X911234D01*
Y268441D01*
X909154Y268167D01*
X907215Y267364D01*
X905551Y266087D01*
X904273Y264422D01*
X903470Y262483D01*
X903366Y261688D01*
X902085D01*
X901980Y262483D01*
X901177Y264422D01*
X899900Y266087D01*
X898235Y267364D01*
X896296Y268167D01*
X894216Y268441D01*
Y268426D01*
X890914D01*
Y268441D01*
X888834Y268167D01*
X886895Y267364D01*
X885231Y266087D01*
X883953Y264422D01*
X883150Y262483D01*
X883046Y261688D01*
X881765D01*
X881660Y262483D01*
X880857Y264422D01*
X879580Y266087D01*
X877915Y267364D01*
X875976Y268167D01*
X873896Y268441D01*
Y268426D01*
X870594D01*
Y268441D01*
X868514Y268167D01*
X866575Y267364D01*
X864911Y266087D01*
X863633Y264422D01*
X862830Y262483D01*
X862726Y261688D01*
X861445D01*
X861340Y262483D01*
X860537Y264422D01*
X859260Y266087D01*
X857595Y267364D01*
X855657Y268167D01*
X853576Y268441D01*
Y268426D01*
X850274D01*
Y268441D01*
X848194Y268167D01*
X846255Y267364D01*
X844591Y266087D01*
X843313Y264422D01*
X842510Y262483D01*
X842406Y261688D01*
X841125D01*
X841020Y262483D01*
X840217Y264422D01*
X838940Y266087D01*
X837275Y267364D01*
X835337Y268167D01*
X833256Y268441D01*
Y268426D01*
X829954D01*
Y268441D01*
X827874Y268167D01*
X825935Y267364D01*
X824271Y266087D01*
X822993Y264422D01*
X822190Y262483D01*
X821916Y260403D01*
X821931D01*
Y252344D01*
X807028D01*
X805950Y252130D01*
X805037Y251519D01*
X641231Y87713D01*
X640620Y86800D01*
X640406Y85722D01*
Y57270D01*
X635230D01*
Y14039D01*
X624770D01*
Y57270D01*
X615230D01*
Y14039D01*
X604770D01*
Y57270D01*
X599594D01*
Y65583D01*
X797062Y263050D01*
X797062Y263050D01*
X891195Y357184D01*
X1306305D01*
X1313628Y349861D01*
D02*
G37*
G36*
X582500Y289401D02*
X581230Y288747D01*
X579920Y289290D01*
X578015D01*
X576254Y288561D01*
X574907Y287213D01*
X574178Y285453D01*
Y283547D01*
X574907Y281787D01*
X576254Y280439D01*
X578015Y279710D01*
X579920D01*
X581230Y280252D01*
X582500Y279599D01*
Y261500D01*
X556000Y235000D01*
X505774D01*
X504713Y236061D01*
X502953Y236790D01*
X501047D01*
X499287Y236061D01*
X498770Y235544D01*
X497500Y236070D01*
Y245000D01*
X545000D01*
X546748Y246748D01*
X548047Y246210D01*
X549953D01*
X551713Y246939D01*
X553061Y248287D01*
X553790Y250047D01*
Y251953D01*
X553252Y253252D01*
X565000Y265000D01*
Y297713D01*
X582500D01*
Y289401D01*
D02*
G37*
G36*
X513960Y14039D02*
X495000D01*
Y57488D01*
X496270Y57956D01*
X497287Y56939D01*
X499047Y56210D01*
X500953D01*
X502713Y56939D01*
X504061Y58287D01*
X504790Y60047D01*
Y61953D01*
X504061Y63713D01*
X502713Y65061D01*
X500953Y65790D01*
X499047D01*
X497287Y65061D01*
X497104Y64878D01*
X486471Y75512D01*
Y200000D01*
X490847D01*
X491547Y199710D01*
X493453D01*
X494153Y200000D01*
X513960D01*
Y14039D01*
D02*
G37*
G36*
X1609802Y85140D02*
X1263650D01*
X1262659Y84943D01*
X1261819Y84381D01*
X1252929Y75491D01*
X1252367Y74651D01*
X1252170Y73660D01*
Y14039D01*
X1244770D01*
Y57270D01*
X1235230D01*
Y57270D01*
X1234770D01*
Y57270D01*
X1225230D01*
Y14039D01*
X1204770D01*
Y57270D01*
X1195230D01*
Y57270D01*
X1194770D01*
Y57270D01*
X1185230D01*
Y14039D01*
X1164770D01*
Y57270D01*
X1155230D01*
Y57270D01*
X1154770D01*
Y57270D01*
X1145230D01*
Y14039D01*
X1124770D01*
Y57270D01*
X1115230D01*
Y57270D01*
X1114770D01*
Y57270D01*
X1105230D01*
Y14039D01*
X1084770D01*
Y57270D01*
X1075230D01*
Y57270D01*
X1074770D01*
Y57270D01*
X1065230D01*
Y14039D01*
X1044770D01*
Y57270D01*
X1035230D01*
Y57270D01*
X1034770D01*
Y57270D01*
X1025230D01*
Y14039D01*
X1004770D01*
Y57270D01*
X995230D01*
Y57270D01*
X994770D01*
Y57270D01*
X985230D01*
Y14039D01*
X964770D01*
Y57270D01*
X955230D01*
Y57270D01*
X954770D01*
Y57270D01*
X945230D01*
Y14039D01*
X934770D01*
Y57270D01*
X925230D01*
Y14039D01*
X914770D01*
Y57270D01*
X905230D01*
Y57270D01*
X904770D01*
Y57270D01*
X895230D01*
Y14039D01*
X874770D01*
Y57270D01*
X865230D01*
Y57270D01*
X864770D01*
Y57270D01*
X855230D01*
Y14039D01*
X834770D01*
Y57270D01*
X825230D01*
Y57270D01*
X824770D01*
Y57270D01*
X815230D01*
Y14039D01*
X794770D01*
Y57270D01*
X785230D01*
Y57270D01*
X784770D01*
Y57270D01*
X775230D01*
Y14039D01*
X764770D01*
Y57270D01*
X755230D01*
Y57270D01*
X754770D01*
Y57270D01*
X745230D01*
Y14039D01*
X734770D01*
Y57270D01*
X729594D01*
Y92612D01*
X744472Y107489D01*
X745548Y106770D01*
X745210Y105953D01*
Y104047D01*
X745939Y102287D01*
X747287Y100939D01*
X749047Y100210D01*
X750953D01*
X752713Y100939D01*
X754061Y102287D01*
X754790Y104047D01*
Y105953D01*
X754061Y107713D01*
X752713Y109061D01*
X750953Y109790D01*
X749047D01*
X748230Y109452D01*
X747511Y110528D01*
X815138Y178156D01*
X821540D01*
Y178141D01*
X823621Y178415D01*
X825559Y179218D01*
X827224Y180495D01*
X828501Y182160D01*
X829304Y184099D01*
X830535Y183884D01*
Y175597D01*
X830520D01*
X830794Y173517D01*
X831597Y171578D01*
X832875Y169914D01*
X834539Y168636D01*
X836478Y167833D01*
X838558Y167559D01*
Y167574D01*
X841860D01*
Y167559D01*
X843941Y167833D01*
X845879Y168636D01*
X847544Y169914D01*
X848821Y171578D01*
X849624Y173517D01*
X849729Y174312D01*
X851010D01*
X851114Y173517D01*
X851917Y171578D01*
X853195Y169914D01*
X854859Y168636D01*
X856798Y167833D01*
X858878Y167559D01*
Y167574D01*
X862180D01*
Y167559D01*
X864260Y167833D01*
X866199Y168636D01*
X867864Y169914D01*
X869141Y171578D01*
X869944Y173517D01*
X870049Y174312D01*
X871330D01*
X871434Y173517D01*
X872237Y171578D01*
X873515Y169914D01*
X875179Y168636D01*
X877118Y167833D01*
X879198Y167559D01*
Y167574D01*
X882500D01*
Y167559D01*
X884581Y167833D01*
X886519Y168636D01*
X888184Y169914D01*
X889461Y171578D01*
X890264Y173517D01*
X890369Y174312D01*
X891650D01*
X891754Y173517D01*
X892557Y171578D01*
X893835Y169914D01*
X895499Y168636D01*
X897438Y167833D01*
X899518Y167559D01*
Y167574D01*
X902820D01*
Y167559D01*
X904901Y167833D01*
X906839Y168636D01*
X908504Y169914D01*
X909781Y171578D01*
X910584Y173517D01*
X910711Y174483D01*
X911992D01*
X912074Y173860D01*
X912877Y171922D01*
X914155Y170257D01*
X915819Y168980D01*
X917758Y168177D01*
X919838Y167903D01*
Y167917D01*
X923140D01*
Y167903D01*
X925220Y168177D01*
X927159Y168980D01*
X928824Y170257D01*
X930101Y171922D01*
X930904Y173860D01*
X931178Y175940D01*
X931163D01*
Y183884D01*
X932394Y184099D01*
X933197Y182160D01*
X934475Y180495D01*
X936139Y179218D01*
X938078Y178415D01*
X940158Y178141D01*
Y178156D01*
X1219372D01*
X1219939Y176787D01*
X1221287Y175439D01*
X1223047Y174710D01*
X1224953D01*
X1226713Y175439D01*
X1228061Y176787D01*
X1228790Y178547D01*
Y180453D01*
X1228061Y182213D01*
X1227524Y182750D01*
X1228061Y183287D01*
X1228790Y185047D01*
Y186953D01*
X1228061Y188713D01*
X1226713Y190061D01*
X1224953Y190790D01*
X1223047D01*
X1221287Y190061D01*
X1219939Y188713D01*
X1219372Y187344D01*
X941184D01*
X941064Y188260D01*
X940261Y190198D01*
X938984Y191863D01*
X937319Y193140D01*
X935380Y193943D01*
X933300Y194217D01*
Y194202D01*
X929998D01*
Y194217D01*
X927918Y193943D01*
X925979Y193140D01*
X924315Y191863D01*
X923037Y190198D01*
X922234Y188260D01*
X920987Y188446D01*
X920744Y190291D01*
X919941Y192230D01*
X918664Y193895D01*
X916999Y195172D01*
X915061Y195975D01*
X912980Y196249D01*
Y196234D01*
X909678D01*
Y196249D01*
X907598Y195975D01*
X905659Y195172D01*
X903995Y193895D01*
X902717Y192230D01*
X901914Y190291D01*
X901810Y189496D01*
X900529D01*
X900424Y190291D01*
X899621Y192230D01*
X898344Y193895D01*
X896679Y195172D01*
X894741Y195975D01*
X892660Y196249D01*
Y196234D01*
X889358D01*
Y196249D01*
X887278Y195975D01*
X885339Y195172D01*
X883675Y193895D01*
X882397Y192230D01*
X881594Y190291D01*
X881490Y189496D01*
X880209D01*
X880104Y190291D01*
X879301Y192230D01*
X878024Y193895D01*
X876359Y195172D01*
X874420Y195975D01*
X872340Y196249D01*
Y196234D01*
X869038D01*
Y196249D01*
X866958Y195975D01*
X865019Y195172D01*
X863355Y193895D01*
X862077Y192230D01*
X861274Y190291D01*
X861170Y189496D01*
X859889D01*
X859784Y190291D01*
X858981Y192230D01*
X857704Y193895D01*
X856039Y195172D01*
X854100Y195975D01*
X852020Y196249D01*
Y196234D01*
X848718D01*
Y196249D01*
X846638Y195975D01*
X844699Y195172D01*
X843035Y193895D01*
X841757Y192230D01*
X840954Y190291D01*
X840850Y189496D01*
X839569D01*
X839464Y190291D01*
X838661Y192230D01*
X837384Y193895D01*
X835719Y195172D01*
X833781Y195975D01*
X831700Y196249D01*
Y196234D01*
X828398D01*
Y196249D01*
X826318Y195975D01*
X824379Y195172D01*
X822715Y193895D01*
X821437Y192230D01*
X820634Y190291D01*
X820360Y188211D01*
X819449Y187344D01*
X812499D01*
X811421Y187130D01*
X810508Y186519D01*
X721231Y97242D01*
X720620Y96329D01*
X720406Y95251D01*
Y57270D01*
X715230D01*
Y14039D01*
X694770D01*
Y57270D01*
X689594D01*
Y89612D01*
X816111Y216128D01*
X822540D01*
Y216113D01*
X824621Y216387D01*
X826559Y217190D01*
X828224Y218468D01*
X829501Y220132D01*
X830304Y222071D01*
X831535Y221856D01*
Y215261D01*
X831520D01*
X831794Y213181D01*
X832597Y211242D01*
X833875Y209578D01*
X835539Y208300D01*
X837478Y207497D01*
X839558Y207223D01*
Y207238D01*
X842860D01*
Y207223D01*
X844940Y207497D01*
X846879Y208300D01*
X848544Y209578D01*
X849821Y211242D01*
X850624Y213181D01*
X850729Y213976D01*
X852010D01*
X852114Y213181D01*
X852917Y211242D01*
X854195Y209578D01*
X855859Y208300D01*
X857798Y207497D01*
X859878Y207223D01*
Y207238D01*
X863180D01*
Y207223D01*
X865260Y207497D01*
X867199Y208300D01*
X868864Y209578D01*
X870141Y211242D01*
X870944Y213181D01*
X871049Y213976D01*
X872330D01*
X872434Y213181D01*
X873237Y211242D01*
X874515Y209578D01*
X876179Y208300D01*
X878118Y207497D01*
X880198Y207223D01*
Y207238D01*
X883500D01*
Y207223D01*
X885581Y207497D01*
X887519Y208300D01*
X889184Y209578D01*
X890461Y211242D01*
X891264Y213181D01*
X891369Y213976D01*
X892650D01*
X892754Y213181D01*
X893557Y211242D01*
X894835Y209578D01*
X896499Y208300D01*
X898438Y207497D01*
X900518Y207223D01*
Y207238D01*
X903820D01*
Y207223D01*
X905900Y207497D01*
X907839Y208300D01*
X909504Y209578D01*
X910781Y211242D01*
X911584Y213181D01*
X911827Y215026D01*
X913074Y215212D01*
X913877Y213274D01*
X915155Y211609D01*
X916819Y210332D01*
X918758Y209529D01*
X920838Y209255D01*
Y209270D01*
X924140D01*
Y209255D01*
X926220Y209529D01*
X928159Y210332D01*
X929824Y211609D01*
X931101Y213274D01*
X931904Y215212D01*
X932025Y216128D01*
X1301473D01*
X1302551Y216342D01*
X1303464Y216953D01*
X1318047Y231536D01*
X1318658Y232449D01*
X1318872Y233527D01*
Y263973D01*
X1318658Y265051D01*
X1318047Y265964D01*
X1306076Y277936D01*
X1305162Y278546D01*
X1304084Y278761D01*
X1272091D01*
X1271576Y280031D01*
X1272558Y281014D01*
X1273288Y282774D01*
Y284680D01*
X1272558Y286440D01*
X1272035Y286964D01*
X1272585Y287514D01*
X1273314Y289274D01*
Y291180D01*
X1272585Y292940D01*
X1271915Y293610D01*
X1272312Y294008D01*
X1272886Y295394D01*
X1313094D01*
X1334684Y273805D01*
Y209000D01*
Y204838D01*
X1333100Y204523D01*
X1331640Y203548D01*
X1330665Y202088D01*
X1330322Y200366D01*
X1330354D01*
Y197064D01*
X1330322D01*
X1330665Y195342D01*
X1331640Y193883D01*
X1333100Y192907D01*
X1334122Y192704D01*
X1334376Y191358D01*
X1307390Y164372D01*
X1272128D01*
X1271561Y165741D01*
X1270213Y167089D01*
X1268453Y167818D01*
X1266547D01*
X1264787Y167089D01*
X1263439Y165741D01*
X1262710Y163981D01*
Y162075D01*
X1263439Y160315D01*
X1263976Y159778D01*
X1263439Y159241D01*
X1262710Y157481D01*
Y155575D01*
X1263439Y153815D01*
X1264787Y152467D01*
X1266547Y151738D01*
X1268453D01*
X1270213Y152467D01*
X1271561Y153815D01*
X1272128Y155184D01*
X1310029D01*
X1311107Y155398D01*
X1312020Y156009D01*
X1343047Y187036D01*
X1343047Y187036D01*
X1343658Y187949D01*
X1343872Y189027D01*
Y276444D01*
X1343658Y277522D01*
X1343047Y278435D01*
X1317725Y303758D01*
X1316811Y304368D01*
X1315734Y304583D01*
X1272848D01*
X1272288Y305934D01*
X1272023Y306199D01*
X1272811Y306987D01*
X1273540Y308747D01*
Y310653D01*
X1272811Y312413D01*
X1272274Y312950D01*
X1272811Y313487D01*
X1273540Y315247D01*
Y317153D01*
X1272811Y318913D01*
X1271842Y319882D01*
X1272368Y321152D01*
X1311439D01*
X1312517Y321366D01*
X1313430Y321977D01*
X1321991Y330538D01*
X1322602Y331451D01*
X1322816Y332529D01*
Y352500D01*
X1322602Y353578D01*
X1321991Y354491D01*
X1310935Y365547D01*
X1310022Y366158D01*
X1308944Y366372D01*
X888556D01*
X887478Y366158D01*
X886565Y365547D01*
X789523Y268506D01*
X789523Y268506D01*
X591231Y70213D01*
X590620Y69300D01*
X590406Y68222D01*
Y57270D01*
X585230D01*
Y14039D01*
X574770D01*
Y57270D01*
X569592D01*
Y71404D01*
X603940Y105752D01*
X605210Y105226D01*
Y104047D01*
X605939Y102287D01*
X607287Y100939D01*
X609047Y100210D01*
X610953D01*
X612713Y100939D01*
X614061Y102287D01*
X614790Y104047D01*
Y105953D01*
X614061Y107713D01*
X612713Y109061D01*
X610953Y109790D01*
X609774D01*
X609248Y111060D01*
X687863Y189675D01*
X881094Y382906D01*
X885805Y387617D01*
X886387Y388489D01*
X886592Y389517D01*
Y397210D01*
X886953D01*
X888713Y397939D01*
X890061Y399287D01*
X890790Y401047D01*
Y402953D01*
X890061Y404713D01*
X888713Y406061D01*
X886953Y406790D01*
X885047D01*
X883287Y406061D01*
X882000Y404774D01*
X880713Y406061D01*
X878953Y406790D01*
X877047D01*
X875287Y406061D01*
X873939Y404713D01*
X873210Y402953D01*
Y401047D01*
X873939Y399287D01*
X875287Y397939D01*
X877047Y397210D01*
X877408D01*
Y392208D01*
X874600Y389400D01*
X681369Y196169D01*
X561195Y75995D01*
X560613Y75123D01*
X560408Y74095D01*
Y57270D01*
X555230D01*
Y14039D01*
X547090D01*
X547090Y84000D01*
X547073Y84084D01*
X547084Y84170D01*
X547003Y85409D01*
X546937Y85656D01*
X546920Y85910D01*
X546278Y88306D01*
X546128Y88610D01*
X546019Y88930D01*
X544780Y91078D01*
X544556Y91333D01*
X544368Y91614D01*
X542614Y93368D01*
X542333Y93556D01*
X542078Y93780D01*
X539930Y95020D01*
X539609Y95128D01*
X539306Y95278D01*
X536910Y95920D01*
X536572Y95942D01*
X536240Y96008D01*
X533760D01*
X533428Y95942D01*
X533090Y95920D01*
X530694Y95278D01*
X530390Y95128D01*
X530070Y95020D01*
X527922Y93779D01*
X527667Y93556D01*
X527386Y93368D01*
X525632Y91614D01*
X525444Y91333D01*
X525220Y91078D01*
X524692Y90163D01*
X523052Y89862D01*
X522816Y90054D01*
Y218834D01*
X527193Y223210D01*
X528807D01*
X529917Y222100D01*
X530831Y221490D01*
X531909Y221275D01*
X534342D01*
X534685Y220448D01*
X536448Y218685D01*
X538753Y217730D01*
X541247D01*
X543552Y218685D01*
X545315Y220448D01*
X546270Y222753D01*
Y225247D01*
X545315Y227552D01*
X543552Y229315D01*
X541247Y230270D01*
X538753D01*
X536448Y229315D01*
X534685Y227552D01*
X534418Y226907D01*
X533075D01*
X532790Y227193D01*
Y228953D01*
X532061Y230713D01*
X531083Y231691D01*
X531606Y232961D01*
X537265D01*
X537287Y232939D01*
X539047Y232210D01*
X540953D01*
X542713Y232939D01*
X542735Y232961D01*
X556000D01*
X556000Y232961D01*
X556780Y233116D01*
X557442Y233558D01*
X583942Y260058D01*
X584384Y260720D01*
X584539Y261500D01*
Y279599D01*
X584478Y279908D01*
X584442Y280221D01*
X584400Y280296D01*
X584384Y280379D01*
X584209Y280641D01*
X584056Y280917D01*
X583989Y280970D01*
X583942Y281041D01*
X583680Y281216D01*
X583433Y281412D01*
X582163Y282066D01*
X582081Y282089D01*
X582010Y282136D01*
X581701Y282198D01*
X581398Y282285D01*
X581313Y282275D01*
X581230Y282292D01*
X581180Y282282D01*
X579953Y282790D01*
X578047D01*
X577809Y282691D01*
X576455Y283379D01*
X576217Y283953D01*
Y285047D01*
X576636Y286058D01*
X577409Y286832D01*
X578420Y287251D01*
X579515D01*
X580450Y286863D01*
X580533Y286847D01*
X580607Y286805D01*
X580921Y286770D01*
X581230Y286708D01*
X581313Y286725D01*
X581398Y286715D01*
X581701Y286802D01*
X582010Y286863D01*
X582081Y286911D01*
X582163Y286934D01*
X583433Y287588D01*
X583680Y287784D01*
X583942Y287959D01*
X583989Y288030D01*
X584056Y288083D01*
X584209Y288358D01*
X584384Y288620D01*
X584401Y288704D01*
X584442Y288778D01*
X584478Y289092D01*
X584539Y289401D01*
Y297713D01*
X584384Y298494D01*
X583942Y299155D01*
X583280Y299597D01*
X582500Y299753D01*
X571043D01*
X570953Y299790D01*
X569047D01*
X568957Y299753D01*
X565000D01*
X564220Y299597D01*
X563558Y299155D01*
X563116Y298494D01*
X562961Y297713D01*
Y265845D01*
X551810Y254694D01*
X551368Y254032D01*
X551213Y253252D01*
X551368Y252472D01*
X551751Y251547D01*
Y250453D01*
X551332Y249442D01*
X550558Y248668D01*
X549547Y248249D01*
X548453D01*
X547528Y248632D01*
X546748Y248787D01*
X545968Y248632D01*
X545306Y248190D01*
X544155Y247039D01*
X497500D01*
X496720Y246884D01*
X496058Y246442D01*
X495616Y245780D01*
X495461Y245000D01*
Y236070D01*
X495616Y235290D01*
X496058Y234628D01*
X496720Y234186D01*
X497990Y233660D01*
X498770Y233505D01*
X499550Y233660D01*
X500212Y234102D01*
X500442Y234332D01*
X501453Y234751D01*
X502547D01*
X503558Y234332D01*
X504332Y233558D01*
X504994Y233116D01*
X505774Y232961D01*
X524394D01*
X524917Y231691D01*
X523939Y230713D01*
X523210Y228953D01*
Y227193D01*
X518009Y221991D01*
X517398Y221078D01*
X517184Y220000D01*
Y200554D01*
X515914Y200429D01*
X515844Y200780D01*
X515402Y201442D01*
X514740Y201884D01*
X513960Y202039D01*
X497808D01*
X497103Y203095D01*
X497290Y203547D01*
Y205453D01*
X496561Y207213D01*
X495213Y208561D01*
X493453Y209290D01*
X491547D01*
X489787Y208561D01*
X488439Y207213D01*
X487710Y205453D01*
Y203547D01*
X487897Y203095D01*
X487192Y202039D01*
X486471D01*
X485690Y201884D01*
X485029Y201442D01*
X484587Y200780D01*
X484431Y200000D01*
Y152347D01*
X483161Y151821D01*
X465965Y169017D01*
X466270Y169753D01*
Y172247D01*
X465315Y174552D01*
X463552Y176315D01*
X461247Y177270D01*
X458753D01*
X456448Y176315D01*
X454685Y174552D01*
X453730Y172247D01*
Y169753D01*
X454685Y167448D01*
X456448Y165685D01*
X458753Y164730D01*
X461247D01*
X461983Y165035D01*
X479184Y147833D01*
Y141458D01*
X478011Y140972D01*
X465965Y153017D01*
X466270Y153753D01*
Y156247D01*
X465315Y158552D01*
X463552Y160315D01*
X461247Y161270D01*
X458753D01*
X456448Y160315D01*
X454685Y158552D01*
X453730Y156247D01*
Y153753D01*
X454685Y151448D01*
X456448Y149685D01*
X458753Y148730D01*
X461247D01*
X461983Y149035D01*
X475184Y135834D01*
Y130458D01*
X474011Y129972D01*
X465965Y138017D01*
X466270Y138753D01*
Y141247D01*
X465315Y143552D01*
X463552Y145315D01*
X461247Y146270D01*
X458753D01*
X456448Y145315D01*
X454685Y143552D01*
X453730Y141247D01*
Y138753D01*
X454685Y136448D01*
X456448Y134685D01*
X458753Y133730D01*
X461247D01*
X461983Y134035D01*
X471184Y124833D01*
Y119458D01*
X470011Y118972D01*
X465965Y123017D01*
X466270Y123753D01*
Y126247D01*
X465315Y128552D01*
X463552Y130315D01*
X461247Y131270D01*
X458753D01*
X456448Y130315D01*
X454685Y128552D01*
X453730Y126247D01*
Y123753D01*
X454685Y121448D01*
X456448Y119685D01*
X458753Y118730D01*
X461247D01*
X461983Y119035D01*
X467184Y113834D01*
Y112360D01*
X465914Y112107D01*
X465315Y113552D01*
X463552Y115315D01*
X461247Y116270D01*
X458753D01*
X456448Y115315D01*
X454685Y113552D01*
X453730Y111247D01*
Y108753D01*
X454685Y106448D01*
X456448Y104685D01*
X458753Y103730D01*
X461247D01*
X461768Y103946D01*
X463184Y102530D01*
Y65167D01*
X458009Y59991D01*
X457398Y59078D01*
X457184Y58000D01*
Y57270D01*
X455230D01*
Y14039D01*
X446143D01*
X445039Y15000D01*
Y72000D01*
X444884Y72780D01*
X444442Y73442D01*
X443780Y73884D01*
X443000Y74039D01*
X432547D01*
X432061Y75212D01*
X449024Y92175D01*
X452801D01*
X453787Y91189D01*
X455547Y90460D01*
X457453D01*
X459213Y91189D01*
X460561Y92537D01*
X461290Y94297D01*
Y96203D01*
X460561Y97963D01*
X459213Y99311D01*
X457453Y100040D01*
X455547D01*
X453787Y99311D01*
X452801Y98325D01*
X447750D01*
X447750Y98325D01*
X446573Y98091D01*
X445576Y97424D01*
X445575Y97424D01*
X418360Y70209D01*
X417090Y70735D01*
Y74958D01*
X416893Y75949D01*
X416331Y76789D01*
X408739Y84381D01*
X407899Y84943D01*
X406908Y85140D01*
X2590D01*
Y911810D01*
X1609802D01*
X1609802Y85140D01*
D02*
G37*
G36*
X443000Y15000D02*
X427000D01*
Y70151D01*
X428849Y72000D01*
X443000D01*
Y15000D01*
D02*
G37*
%LPC*%
G36*
X1068453Y335790D02*
X1066547D01*
X1064787Y335061D01*
X1064250Y334524D01*
X1063713Y335061D01*
X1061953Y335790D01*
X1060047D01*
X1058287Y335061D01*
X1056939Y333713D01*
X1056210Y331953D01*
Y330047D01*
X1056939Y328287D01*
X1058287Y326939D01*
X1059656Y326372D01*
Y319527D01*
X1059870Y318449D01*
X1060481Y317536D01*
X1068008Y310009D01*
X1068921Y309398D01*
X1069999Y309184D01*
X1104029D01*
X1105107Y309398D01*
X1106020Y310009D01*
X1117063Y321051D01*
X1178122D01*
X1178689Y319682D01*
X1180037Y318335D01*
X1181797Y317605D01*
X1183703D01*
X1185463Y318335D01*
X1186811Y319682D01*
X1187540Y321443D01*
Y323348D01*
X1186811Y325109D01*
X1186274Y325645D01*
X1186811Y326182D01*
X1187540Y327943D01*
Y329848D01*
X1186811Y331609D01*
X1185463Y332956D01*
X1183703Y333685D01*
X1181797D01*
X1180037Y332956D01*
X1178689Y331609D01*
X1178122Y330239D01*
X1114424D01*
X1113346Y330025D01*
X1112432Y329415D01*
X1101389Y318372D01*
X1072638D01*
X1068844Y322166D01*
Y326372D01*
X1070213Y326939D01*
X1071561Y328287D01*
X1072290Y330047D01*
Y331953D01*
X1071561Y333713D01*
X1070213Y335061D01*
X1068453Y335790D01*
D02*
G37*
G36*
X958453Y332290D02*
X956547D01*
X954787Y331561D01*
X953439Y330213D01*
X953187Y329605D01*
X951813D01*
X951561Y330213D01*
X950213Y331561D01*
X948453Y332290D01*
X946547D01*
X944787Y331561D01*
X943439Y330213D01*
X943187Y329605D01*
X941813D01*
X941561Y330213D01*
X940213Y331561D01*
X938453Y332290D01*
X936547D01*
X934787Y331561D01*
X933439Y330213D01*
X932710Y328453D01*
Y326547D01*
X933439Y324787D01*
X934787Y323439D01*
X935395Y323187D01*
Y321813D01*
X934787Y321561D01*
X933439Y320213D01*
X932710Y318453D01*
Y316547D01*
X933439Y314787D01*
X934787Y313439D01*
X935395Y313187D01*
Y311813D01*
X934787Y311561D01*
X933439Y310213D01*
X932710Y308453D01*
Y306547D01*
X933439Y304787D01*
X934787Y303439D01*
X936547Y302710D01*
X938453D01*
X940213Y303439D01*
X941561Y304787D01*
X941813Y305395D01*
X943187D01*
X943439Y304787D01*
X944787Y303439D01*
X946547Y302710D01*
X948453D01*
X950213Y303439D01*
X951561Y304787D01*
X951813Y305395D01*
X953187D01*
X953439Y304787D01*
X954787Y303439D01*
X956547Y302710D01*
X958453D01*
X960213Y303439D01*
X961561Y304787D01*
X962290Y306547D01*
Y308453D01*
X961561Y310213D01*
X960213Y311561D01*
X959605Y311813D01*
Y313187D01*
X960213Y313439D01*
X961561Y314787D01*
X962290Y316547D01*
Y318453D01*
X961561Y320213D01*
X960213Y321561D01*
X959605Y321813D01*
Y323187D01*
X960213Y323439D01*
X961561Y324787D01*
X962290Y326547D01*
Y328453D01*
X961561Y330213D01*
X960213Y331561D01*
X958453Y332290D01*
D02*
G37*
G36*
X782953Y908790D02*
X781047D01*
X779287Y908061D01*
X777939Y906713D01*
X777210Y904953D01*
Y903047D01*
X777939Y901287D01*
X779287Y899939D01*
X781047Y899210D01*
X782953D01*
X784713Y899939D01*
X786061Y901287D01*
X786790Y903047D01*
Y904953D01*
X786061Y906713D01*
X784713Y908061D01*
X782953Y908790D01*
D02*
G37*
G36*
X727953D02*
X726047D01*
X724287Y908061D01*
X722939Y906713D01*
X722210Y904953D01*
Y903047D01*
X722939Y901287D01*
X724287Y899939D01*
X726047Y899210D01*
X727953D01*
X729713Y899939D01*
X731061Y901287D01*
X731790Y903047D01*
Y904953D01*
X731061Y906713D01*
X729713Y908061D01*
X727953Y908790D01*
D02*
G37*
G36*
X671953D02*
X670047D01*
X668287Y908061D01*
X666939Y906713D01*
X666210Y904953D01*
Y903047D01*
X666939Y901287D01*
X668287Y899939D01*
X670047Y899210D01*
X671953D01*
X673713Y899939D01*
X675061Y901287D01*
X675790Y903047D01*
Y904953D01*
X675061Y906713D01*
X673713Y908061D01*
X671953Y908790D01*
D02*
G37*
G36*
X616953D02*
X615047D01*
X613287Y908061D01*
X611939Y906713D01*
X611210Y904953D01*
Y903047D01*
X611939Y901287D01*
X613287Y899939D01*
X615047Y899210D01*
X616953D01*
X618713Y899939D01*
X620061Y901287D01*
X620790Y903047D01*
Y904953D01*
X620061Y906713D01*
X618713Y908061D01*
X616953Y908790D01*
D02*
G37*
G36*
X343510Y902405D02*
X343510Y902405D01*
X184330D01*
X183153Y902171D01*
X182156Y901504D01*
X182155Y901504D01*
X166336Y885684D01*
X165669Y884687D01*
X165435Y883510D01*
X165435Y883510D01*
Y845029D01*
X164449Y844043D01*
X163720Y842283D01*
Y840377D01*
X164449Y838617D01*
X165797Y837269D01*
X167557Y836540D01*
X169463D01*
X171223Y837269D01*
X172571Y838617D01*
X173300Y840377D01*
Y842283D01*
X172571Y844043D01*
X171585Y845029D01*
Y882236D01*
X185604Y896255D01*
X342236D01*
X345720Y892771D01*
Y891377D01*
X346449Y889617D01*
X347797Y888269D01*
X349557Y887540D01*
X351463D01*
X353223Y888269D01*
X354571Y889617D01*
X355300Y891377D01*
Y893283D01*
X354571Y895043D01*
X353223Y896391D01*
X351463Y897120D01*
X350069D01*
X345685Y901504D01*
X344687Y902171D01*
X343510Y902405D01*
D02*
G37*
G36*
X388463Y896120D02*
X386557D01*
X384797Y895391D01*
X383449Y894043D01*
X382720Y892283D01*
Y890377D01*
X383449Y888617D01*
X384435Y887631D01*
Y871604D01*
X344336Y831504D01*
X343669Y830507D01*
X343435Y829330D01*
X343435Y829330D01*
Y806029D01*
X342449Y805043D01*
X341720Y803283D01*
Y801377D01*
X342449Y799617D01*
X343797Y798269D01*
X345557Y797540D01*
X347463D01*
X349223Y798269D01*
X350571Y799617D01*
X351300Y801377D01*
Y803283D01*
X350571Y805043D01*
X349585Y806029D01*
Y828056D01*
X389684Y868156D01*
X389684Y868156D01*
X390351Y869153D01*
X390585Y870330D01*
Y870845D01*
X391855Y871371D01*
X392287Y870939D01*
X394047Y870210D01*
X395953D01*
X397713Y870939D01*
X398831Y872057D01*
X400278D01*
X400421Y871712D01*
X402184Y869949D01*
X404489Y868994D01*
X406983D01*
X409288Y869949D01*
X411052Y871712D01*
X412006Y874017D01*
Y876511D01*
X411052Y878816D01*
X409288Y880579D01*
X406983Y881534D01*
X404489D01*
X402184Y880579D01*
X400421Y878816D01*
X400169Y878207D01*
X398567D01*
X397713Y879061D01*
X395953Y879790D01*
X394047D01*
X392287Y879061D01*
X391855Y878629D01*
X390585Y879155D01*
Y887631D01*
X391571Y888617D01*
X392300Y890377D01*
Y892283D01*
X391571Y894043D01*
X390223Y895391D01*
X388463Y896120D01*
D02*
G37*
G36*
X1381906Y898593D02*
X1361094D01*
X1358749Y898126D01*
X1356762Y896798D01*
X1355434Y894811D01*
X1354967Y892466D01*
Y871654D01*
X1355434Y869309D01*
X1356762Y867322D01*
X1358749Y865994D01*
X1361094Y865527D01*
X1381906D01*
X1384251Y865994D01*
X1386238Y867322D01*
X1387566Y869309D01*
X1388033Y871654D01*
Y892466D01*
X1387566Y894811D01*
X1386238Y896798D01*
X1384251Y898126D01*
X1381906Y898593D01*
D02*
G37*
G36*
X756378Y867952D02*
X754472D01*
X752712Y867222D01*
X751364Y865875D01*
X750635Y864115D01*
Y862209D01*
X751364Y860448D01*
X752712Y859101D01*
X754472Y858372D01*
X756378D01*
X758138Y859101D01*
X759486Y860448D01*
X760215Y862209D01*
Y864115D01*
X759486Y865875D01*
X758138Y867222D01*
X756378Y867952D01*
D02*
G37*
G36*
X810953Y867790D02*
X809047D01*
X807287Y867061D01*
X805939Y865713D01*
X805210Y863953D01*
Y862047D01*
X805939Y860287D01*
X807287Y858939D01*
X809047Y858210D01*
X810953D01*
X812713Y858939D01*
X814061Y860287D01*
X814790Y862047D01*
Y863953D01*
X814061Y865713D01*
X812713Y867061D01*
X810953Y867790D01*
D02*
G37*
G36*
X699953D02*
X698047D01*
X696287Y867061D01*
X694939Y865713D01*
X694210Y863953D01*
Y862047D01*
X694939Y860287D01*
X696287Y858939D01*
X698047Y858210D01*
X699953D01*
X701713Y858939D01*
X703061Y860287D01*
X703790Y862047D01*
Y863953D01*
X703061Y865713D01*
X701713Y867061D01*
X699953Y867790D01*
D02*
G37*
G36*
X644953D02*
X643047D01*
X641287Y867061D01*
X639939Y865713D01*
X639210Y863953D01*
Y862047D01*
X639939Y860287D01*
X641287Y858939D01*
X643047Y858210D01*
X644953D01*
X646713Y858939D01*
X648061Y860287D01*
X648790Y862047D01*
Y863953D01*
X648061Y865713D01*
X646713Y867061D01*
X644953Y867790D01*
D02*
G37*
G36*
X845953Y863790D02*
X844047D01*
X842287Y863061D01*
X840939Y861713D01*
X840210Y859953D01*
Y858047D01*
X840939Y856287D01*
X841925Y855301D01*
Y851513D01*
X841448Y851315D01*
X839685Y849552D01*
X838730Y847247D01*
Y844753D01*
X839685Y842448D01*
X841448Y840685D01*
X843753Y839730D01*
X846247D01*
X848552Y840685D01*
X850315Y842448D01*
X851270Y844753D01*
Y847247D01*
X850315Y849552D01*
X848552Y851315D01*
X848075Y851513D01*
Y855301D01*
X849061Y856287D01*
X849790Y858047D01*
Y859953D01*
X849061Y861713D01*
X847713Y863061D01*
X845953Y863790D01*
D02*
G37*
G36*
X1572781Y862430D02*
X1569179D01*
X1565645Y861727D01*
X1562316Y860348D01*
X1559321Y858347D01*
X1556773Y855799D01*
X1554772Y852804D01*
X1553393Y849475D01*
X1552690Y845941D01*
Y842339D01*
X1553393Y838805D01*
X1554772Y835477D01*
X1556773Y832481D01*
X1559321Y829933D01*
X1562316Y827932D01*
X1565645Y826553D01*
X1569179Y825850D01*
X1572781D01*
X1576315Y826553D01*
X1579644Y827932D01*
X1582639Y829933D01*
X1585187Y832481D01*
X1587188Y835477D01*
X1588567Y838805D01*
X1589270Y842339D01*
Y845941D01*
X1588567Y849475D01*
X1587188Y852804D01*
X1585187Y855799D01*
X1582639Y858347D01*
X1579644Y860348D01*
X1576315Y861727D01*
X1572781Y862430D01*
D02*
G37*
G36*
X1488781D02*
X1485179D01*
X1481645Y861727D01*
X1478316Y860348D01*
X1475321Y858347D01*
X1472773Y855799D01*
X1470772Y852804D01*
X1469393Y849475D01*
X1468690Y845941D01*
Y842339D01*
X1469393Y838805D01*
X1470772Y835477D01*
X1472773Y832481D01*
X1475321Y829933D01*
X1478316Y827932D01*
X1481645Y826553D01*
X1485179Y825850D01*
X1488781D01*
X1492315Y826553D01*
X1495644Y827932D01*
X1498639Y829933D01*
X1501187Y832481D01*
X1503188Y835477D01*
X1504567Y838805D01*
X1505270Y842339D01*
Y845941D01*
X1504567Y849475D01*
X1503188Y852804D01*
X1501187Y855799D01*
X1498639Y858347D01*
X1495644Y860348D01*
X1492315Y861727D01*
X1488781Y862430D01*
D02*
G37*
G36*
X1373117Y851475D02*
X1369883D01*
X1366712Y850844D01*
X1363725Y849607D01*
X1361036Y847810D01*
X1358750Y845524D01*
X1356953Y842835D01*
X1355716Y839848D01*
X1355085Y836677D01*
Y833443D01*
X1355716Y830272D01*
X1356953Y827285D01*
X1358750Y824596D01*
X1361036Y822310D01*
X1363725Y820513D01*
X1366712Y819276D01*
X1369883Y818645D01*
X1373117D01*
X1376288Y819276D01*
X1379275Y820513D01*
X1381964Y822310D01*
X1384250Y824596D01*
X1386047Y827285D01*
X1387284Y830272D01*
X1387915Y833443D01*
Y836677D01*
X1387284Y839848D01*
X1386047Y842835D01*
X1384250Y845524D01*
X1381964Y847810D01*
X1379275Y849607D01*
X1376288Y850844D01*
X1373117Y851475D01*
D02*
G37*
G36*
X373953Y810790D02*
X372047D01*
X370287Y810061D01*
X368939Y808713D01*
X368210Y806953D01*
Y805729D01*
X366940Y805476D01*
X366477Y806594D01*
X365130Y807941D01*
X363369Y808670D01*
X361464D01*
X359703Y807941D01*
X358356Y806594D01*
X357626Y804833D01*
Y802928D01*
X358356Y801167D01*
X359633Y799890D01*
Y796392D01*
X359448Y796315D01*
X357685Y794552D01*
X356730Y792247D01*
Y789753D01*
X357685Y787448D01*
X359448Y785685D01*
X361753Y784730D01*
X364247D01*
X366552Y785685D01*
X368315Y787448D01*
X369270Y789753D01*
Y792247D01*
X368315Y794552D01*
X366552Y796315D01*
X365783Y796634D01*
Y800473D01*
X366477Y801167D01*
X367206Y802928D01*
Y804151D01*
X368476Y804404D01*
X368939Y803287D01*
X370287Y801939D01*
X372047Y801210D01*
X373441D01*
X375925Y798726D01*
Y796513D01*
X375448Y796315D01*
X373685Y794552D01*
X372730Y792247D01*
Y789753D01*
X373685Y787448D01*
X375448Y785685D01*
X377753Y784730D01*
X380247D01*
X382552Y785685D01*
X384315Y787448D01*
X385270Y789753D01*
Y792247D01*
X384315Y794552D01*
X382552Y796315D01*
X382075Y796513D01*
Y800000D01*
X382075Y800000D01*
X381841Y801177D01*
X381174Y802174D01*
X377790Y805559D01*
Y806953D01*
X377061Y808713D01*
X375713Y810061D01*
X373953Y810790D01*
D02*
G37*
G36*
X1373117Y804475D02*
X1369883D01*
X1366712Y803844D01*
X1363725Y802607D01*
X1361036Y800810D01*
X1358750Y798524D01*
X1356953Y795835D01*
X1355716Y792848D01*
X1355085Y789677D01*
Y786443D01*
X1355716Y783272D01*
X1356953Y780285D01*
X1358750Y777596D01*
X1361036Y775310D01*
X1363725Y773513D01*
X1366712Y772276D01*
X1369883Y771645D01*
X1373117D01*
X1376288Y772276D01*
X1379275Y773513D01*
X1381964Y775310D01*
X1384250Y777596D01*
X1386047Y780285D01*
X1387284Y783272D01*
X1387915Y786443D01*
Y789677D01*
X1387284Y792848D01*
X1386047Y795835D01*
X1384250Y798524D01*
X1381964Y800810D01*
X1379275Y802607D01*
X1376288Y803844D01*
X1373117Y804475D01*
D02*
G37*
G36*
X1572597Y787555D02*
X1569363D01*
X1566192Y786924D01*
X1563205Y785687D01*
X1560516Y783890D01*
X1558230Y781604D01*
X1556433Y778915D01*
X1555196Y775928D01*
X1554565Y772757D01*
Y769523D01*
X1555196Y766352D01*
X1556433Y763365D01*
X1558230Y760676D01*
X1560516Y758390D01*
X1563205Y756593D01*
X1566192Y755356D01*
X1569363Y754725D01*
X1572597D01*
X1575768Y755356D01*
X1578755Y756593D01*
X1581444Y758390D01*
X1583730Y760676D01*
X1585527Y763365D01*
X1586764Y766352D01*
X1587395Y769523D01*
Y772757D01*
X1586764Y775928D01*
X1585527Y778915D01*
X1583730Y781604D01*
X1581444Y783890D01*
X1578755Y785687D01*
X1575768Y786924D01*
X1572597Y787555D01*
D02*
G37*
G36*
X1530597D02*
X1527363D01*
X1524192Y786924D01*
X1521205Y785687D01*
X1518516Y783890D01*
X1516230Y781604D01*
X1514433Y778915D01*
X1513196Y775928D01*
X1512565Y772757D01*
Y769523D01*
X1513196Y766352D01*
X1514433Y763365D01*
X1516230Y760676D01*
X1518516Y758390D01*
X1521205Y756593D01*
X1524192Y755356D01*
X1527363Y754725D01*
X1530597D01*
X1533768Y755356D01*
X1536755Y756593D01*
X1539444Y758390D01*
X1541730Y760676D01*
X1543527Y763365D01*
X1544764Y766352D01*
X1545395Y769523D01*
Y772757D01*
X1544764Y775928D01*
X1543527Y778915D01*
X1541730Y781604D01*
X1539444Y783890D01*
X1536755Y785687D01*
X1533768Y786924D01*
X1530597Y787555D01*
D02*
G37*
G36*
X1488597D02*
X1485363D01*
X1482192Y786924D01*
X1479205Y785687D01*
X1476516Y783890D01*
X1474230Y781604D01*
X1472433Y778915D01*
X1471196Y775928D01*
X1470565Y772757D01*
Y769523D01*
X1471196Y766352D01*
X1472433Y763365D01*
X1474230Y760676D01*
X1476516Y758390D01*
X1479205Y756593D01*
X1482192Y755356D01*
X1485363Y754725D01*
X1488597D01*
X1491768Y755356D01*
X1494755Y756593D01*
X1497444Y758390D01*
X1499730Y760676D01*
X1501527Y763365D01*
X1502764Y766352D01*
X1503395Y769523D01*
Y772757D01*
X1502764Y775928D01*
X1501527Y778915D01*
X1499730Y781604D01*
X1497444Y783890D01*
X1494755Y785687D01*
X1491768Y786924D01*
X1488597Y787555D01*
D02*
G37*
G36*
X27500Y767142D02*
X24422Y766737D01*
X21554Y765548D01*
X19091Y763659D01*
X17201Y761196D01*
X16013Y758328D01*
X15608Y755250D01*
Y755150D01*
X16013Y752072D01*
X17201Y749204D01*
X19091Y746741D01*
X21554Y744852D01*
X24422Y743663D01*
X27500Y743258D01*
X30578Y743663D01*
X33446Y744852D01*
X35909Y746741D01*
X37799Y749204D01*
X38986Y752072D01*
X39392Y755150D01*
Y755250D01*
X38986Y758328D01*
X37799Y761196D01*
X35909Y763659D01*
X33446Y765548D01*
X30578Y766737D01*
X27500Y767142D01*
D02*
G37*
G36*
Y741742D02*
X24422Y741337D01*
X21554Y740148D01*
X19091Y738259D01*
X17201Y735796D01*
X16013Y732928D01*
X15608Y729850D01*
Y729750D01*
X16013Y726672D01*
X17201Y723804D01*
X19091Y721341D01*
X21554Y719452D01*
X24422Y718263D01*
X27500Y717858D01*
X30578Y718263D01*
X33446Y719452D01*
X35909Y721341D01*
X37799Y723804D01*
X38986Y726672D01*
X39392Y729750D01*
Y729850D01*
X38986Y732928D01*
X37799Y735796D01*
X35909Y738259D01*
X33446Y740148D01*
X30578Y741337D01*
X27500Y741742D01*
D02*
G37*
G36*
X583625Y746290D02*
X579875D01*
X576196Y745558D01*
X572731Y744123D01*
X569613Y742039D01*
X566961Y739387D01*
X564877Y736269D01*
X563442Y732804D01*
X562710Y729125D01*
Y725375D01*
X563442Y721696D01*
X564877Y718231D01*
X566961Y715113D01*
X569613Y712461D01*
X572731Y710377D01*
X576196Y708942D01*
X579875Y708210D01*
X583625D01*
X587304Y708942D01*
X590769Y710377D01*
X593887Y712461D01*
X596539Y715113D01*
X598623Y718231D01*
X600058Y721696D01*
X600790Y725375D01*
Y729125D01*
X600058Y732804D01*
X598623Y736269D01*
X596539Y739387D01*
X593887Y742039D01*
X590769Y744123D01*
X587304Y745558D01*
X583625Y746290D01*
D02*
G37*
G36*
X1290125Y746290D02*
X1286375D01*
X1282696Y745558D01*
X1279231Y744123D01*
X1276113Y742039D01*
X1273461Y739387D01*
X1271377Y736269D01*
X1269942Y732804D01*
X1269210Y729125D01*
Y725375D01*
X1269942Y721696D01*
X1271377Y718231D01*
X1273461Y715113D01*
X1276113Y712461D01*
X1279231Y710377D01*
X1282696Y708942D01*
X1285876Y708309D01*
X1285751Y707039D01*
X1038500D01*
X1038500Y707039D01*
X1037720Y706884D01*
X1037058Y706442D01*
X1037058Y706442D01*
X867655Y537039D01*
X829512D01*
X829472Y537031D01*
X829431Y537038D01*
X829082Y536954D01*
X828732Y536884D01*
X828697Y536861D01*
X828657Y536851D01*
X828368Y536641D01*
X828070Y536442D01*
X828047Y536408D01*
X828014Y536383D01*
X827827Y536078D01*
X827628Y535780D01*
X827620Y535740D01*
X827598Y535705D01*
X827131Y534435D01*
X827075Y534081D01*
X827005Y533730D01*
X827013Y533690D01*
X827007Y533649D01*
X827090Y533301D01*
X827160Y532950D01*
X827183Y532915D01*
X827193Y532875D01*
X827403Y532585D01*
X827602Y532288D01*
X828332Y531558D01*
X828751Y530547D01*
Y529453D01*
X828332Y528442D01*
X827558Y527668D01*
X826547Y527249D01*
X825453D01*
X824442Y527668D01*
X823668Y528442D01*
X823249Y529453D01*
Y530547D01*
X823668Y531558D01*
X824398Y532288D01*
X824597Y532585D01*
X824807Y532875D01*
X824817Y532915D01*
X824840Y532950D01*
X824910Y533300D01*
X824994Y533649D01*
X824987Y533690D01*
X824995Y533730D01*
X824925Y534081D01*
X824870Y534435D01*
X824402Y535705D01*
X824380Y535740D01*
X824372Y535780D01*
X824173Y536078D01*
X823986Y536383D01*
X823953Y536408D01*
X823930Y536442D01*
X823632Y536641D01*
X823343Y536851D01*
X823303Y536861D01*
X823269Y536884D01*
X822918Y536954D01*
X822569Y537038D01*
X822529Y537031D01*
X822488Y537039D01*
X723725Y537039D01*
X722945Y536884D01*
X722283Y536442D01*
X722156Y536252D01*
X721178Y535274D01*
X720167Y534855D01*
X719073D01*
X718062Y535274D01*
X717083Y536252D01*
X716956Y536442D01*
X716295Y536884D01*
X715514Y537039D01*
X711285D01*
Y538225D01*
X710556Y539986D01*
X709209Y541333D01*
X707448Y542062D01*
X705542D01*
X703782Y541333D01*
X702434Y539986D01*
X701705Y538225D01*
Y537039D01*
X629512Y537039D01*
X629472Y537031D01*
X629431Y537038D01*
X629083Y536954D01*
X628732Y536884D01*
X628697Y536861D01*
X628657Y536851D01*
X628368Y536641D01*
X628070Y536442D01*
X628047Y536408D01*
X628014Y536383D01*
X627827Y536078D01*
X627628Y535780D01*
X627620Y535740D01*
X627598Y535705D01*
X627131Y534435D01*
X627075Y534082D01*
X627005Y533730D01*
X627013Y533689D01*
X627006Y533649D01*
X627090Y533301D01*
X627160Y532950D01*
X627183Y532915D01*
X627193Y532875D01*
X627403Y532586D01*
X627602Y532288D01*
X628332Y531558D01*
X628751Y530547D01*
Y529453D01*
X628332Y528442D01*
X627558Y527668D01*
X626547Y527249D01*
X625453D01*
X624442Y527668D01*
X623668Y528442D01*
X623249Y529453D01*
Y530547D01*
X623668Y531558D01*
X624398Y532288D01*
X624597Y532586D01*
X624807Y532875D01*
X624817Y532915D01*
X624840Y532950D01*
X624910Y533301D01*
X624994Y533649D01*
X624987Y533690D01*
X624995Y533730D01*
X624925Y534081D01*
X624869Y534435D01*
X624402Y535705D01*
X624380Y535740D01*
X624372Y535780D01*
X624173Y536078D01*
X623986Y536383D01*
X623953Y536408D01*
X623930Y536442D01*
X623632Y536641D01*
X623343Y536851D01*
X623303Y536861D01*
X623268Y536884D01*
X622917Y536954D01*
X622569Y537038D01*
X622528Y537031D01*
X622488Y537039D01*
X607774D01*
X607774Y537039D01*
X606994Y536884D01*
X606332Y536442D01*
X606332Y536442D01*
X605558Y535668D01*
X604547Y535249D01*
X603453D01*
X602442Y535668D01*
X601668Y536442D01*
X601006Y536884D01*
X600226Y537039D01*
X581774D01*
X581774Y537039D01*
X580994Y536884D01*
X580332Y536442D01*
X580332Y536442D01*
X579558Y535668D01*
X578547Y535249D01*
X577453D01*
X576442Y535668D01*
X575668Y536442D01*
X575006Y536884D01*
X574226Y537039D01*
X567000D01*
X567000Y537039D01*
X566220Y536884D01*
X565558Y536442D01*
X565558Y536442D01*
X555114Y525998D01*
X554271Y526166D01*
X552923Y527514D01*
X551163Y528243D01*
X549257D01*
X547497Y527514D01*
X546149Y526166D01*
X546146Y526159D01*
X544726Y526048D01*
X543713Y527061D01*
X541953Y527790D01*
X540047D01*
X538287Y527061D01*
X536939Y525713D01*
X536210Y523953D01*
Y522047D01*
X536939Y520287D01*
X538287Y518939D01*
X540047Y518210D01*
X541953D01*
X543713Y518939D01*
X545061Y520287D01*
X545064Y520294D01*
X546484Y520405D01*
X547104Y519784D01*
X547314Y518198D01*
X436058Y406942D01*
X435616Y406280D01*
X435461Y405500D01*
Y327557D01*
X435500Y327360D01*
Y327160D01*
X435577Y326974D01*
X435616Y326777D01*
X435728Y326610D01*
X435804Y326424D01*
X435947Y326282D01*
X436058Y326115D01*
X436225Y326004D01*
X436367Y325862D01*
X436553Y325785D01*
X436720Y325673D01*
X436917Y325634D01*
X436960Y325353D01*
Y324647D01*
X436917Y324366D01*
X436720Y324327D01*
X436553Y324215D01*
X436367Y324138D01*
X436225Y323996D01*
X436058Y323885D01*
X435947Y323718D01*
X435804Y323576D01*
X435728Y323390D01*
X435616Y323223D01*
X435577Y323026D01*
X435500Y322840D01*
Y322640D01*
X435461Y322443D01*
Y253000D01*
X435616Y252220D01*
X436058Y251558D01*
X436720Y251116D01*
X437500Y250961D01*
X443442D01*
X444047Y250710D01*
X445953D01*
X446558Y250961D01*
X450942D01*
X451547Y250710D01*
X453453D01*
X454058Y250961D01*
X458442D01*
X459047Y250710D01*
X460953D01*
X461558Y250961D01*
X465942D01*
X466547Y250710D01*
X468453D01*
X469058Y250961D01*
X480000D01*
X480780Y251116D01*
X481442Y251558D01*
X481884Y252220D01*
X482039Y253000D01*
Y258683D01*
X482000Y258880D01*
Y259081D01*
X481923Y259267D01*
X481884Y259464D01*
X481772Y259631D01*
X481696Y259816D01*
X481553Y259958D01*
X481442Y260125D01*
X481275Y260237D01*
X481133Y260379D01*
X479863Y261227D01*
X479677Y261304D01*
X479510Y261416D01*
X479313Y261455D01*
X479128Y261532D01*
X478927D01*
X478730Y261571D01*
X478533Y261532D01*
X478332D01*
X478147Y261455D01*
X477950Y261416D01*
X477547Y261249D01*
X476453D01*
X475442Y261668D01*
X474668Y262442D01*
X474249Y263453D01*
Y264547D01*
X474668Y265558D01*
X475442Y266332D01*
X476453Y266751D01*
X477547D01*
X477950Y266584D01*
X478147Y266545D01*
X478332Y266468D01*
X478533D01*
X478730Y266429D01*
X478927Y266468D01*
X479128D01*
X479313Y266545D01*
X479510Y266584D01*
X479677Y266696D01*
X479863Y266772D01*
X481133Y267621D01*
X481275Y267763D01*
X481442Y267875D01*
X481553Y268042D01*
X481696Y268184D01*
X481772Y268369D01*
X481884Y268536D01*
X481923Y268733D01*
X482000Y268919D01*
Y269120D01*
X482039Y269317D01*
Y273316D01*
X482342Y274047D01*
Y275953D01*
X482039Y276684D01*
Y280510D01*
X482000Y280707D01*
Y280908D01*
X481923Y281094D01*
X481884Y281291D01*
X481772Y281458D01*
X481696Y281643D01*
X481553Y281785D01*
X481442Y281952D01*
X481275Y282064D01*
X481133Y282206D01*
X480086Y282906D01*
X479900Y282982D01*
X479733Y283094D01*
X479536Y283133D01*
X479351Y283210D01*
X479150D01*
X478953Y283249D01*
X477453D01*
X476442Y283668D01*
X475668Y284442D01*
X475249Y285453D01*
Y286547D01*
X475668Y287558D01*
X476442Y288332D01*
X477453Y288751D01*
X478953D01*
X479150Y288790D01*
X479351D01*
X479536Y288867D01*
X479733Y288906D01*
X479900Y289018D01*
X480086Y289095D01*
X481133Y289794D01*
X481275Y289936D01*
X481442Y290048D01*
X481553Y290215D01*
X481696Y290357D01*
X481772Y290542D01*
X481884Y290709D01*
X481923Y290906D01*
X482000Y291092D01*
Y291293D01*
X482039Y291490D01*
Y404155D01*
X545902Y468018D01*
X546344Y468680D01*
X546499Y469460D01*
Y469547D01*
X546918Y470558D01*
X547692Y471332D01*
X548703Y471751D01*
X548790D01*
X549570Y471906D01*
X550232Y472348D01*
X580845Y502961D01*
X595764D01*
X596544Y503116D01*
X597206Y503558D01*
X597648Y504220D01*
X597803Y505000D01*
Y505391D01*
X598222Y506402D01*
X598996Y507176D01*
X599907Y507554D01*
X600569Y507996D01*
X601011Y508657D01*
X601166Y509438D01*
Y509580D01*
X601585Y510591D01*
X602359Y511365D01*
X603370Y511783D01*
X604464D01*
X605475Y511365D01*
X606249Y510591D01*
X606668Y509580D01*
Y508485D01*
X606173Y507290D01*
X605948Y506954D01*
X605793Y506173D01*
X605815Y506060D01*
X605745Y505791D01*
X605028Y504900D01*
X604823Y504790D01*
X604047D01*
X602287Y504061D01*
X600939Y502713D01*
X600210Y500953D01*
Y499047D01*
X600939Y497287D01*
X601476Y496750D01*
X600939Y496213D01*
X600210Y494453D01*
Y492547D01*
X600939Y490787D01*
X602287Y489439D01*
X604047Y488710D01*
X605953D01*
X607713Y489439D01*
X609061Y490787D01*
X609790Y492547D01*
Y494453D01*
X609061Y496213D01*
X608524Y496750D01*
X609061Y497287D01*
X609790Y499047D01*
Y500953D01*
X609484Y501691D01*
X610333Y502961D01*
X633667D01*
X634516Y501691D01*
X634210Y500953D01*
Y499047D01*
X634939Y497287D01*
X636287Y495939D01*
X638047Y495210D01*
X639953D01*
X641713Y495939D01*
X643061Y497287D01*
X643790Y499047D01*
Y500953D01*
X643484Y501691D01*
X644333Y502961D01*
X779527D01*
X780014Y501787D01*
X779939Y501713D01*
X779210Y499953D01*
Y498047D01*
X779939Y496287D01*
X781184Y495042D01*
Y438167D01*
X735963Y392946D01*
X734610Y393388D01*
X734061Y394713D01*
X732713Y396061D01*
X730953Y396790D01*
X729047D01*
X727287Y396061D01*
X725939Y394713D01*
X725210Y392953D01*
Y391193D01*
X704333Y370316D01*
X603958D01*
X602713Y371561D01*
X600953Y372290D01*
X599047D01*
X597287Y371561D01*
X595939Y370213D01*
X595210Y368453D01*
Y366547D01*
X595939Y364787D01*
X596476Y364250D01*
X595939Y363713D01*
X595210Y361953D01*
Y360047D01*
X595939Y358287D01*
X597287Y356939D01*
X599047Y356210D01*
X599919D01*
X600843Y355121D01*
Y353216D01*
X601572Y351455D01*
X602001Y351026D01*
X601394Y350419D01*
X600664Y348658D01*
Y346753D01*
X601394Y344992D01*
X602741Y343645D01*
X604502Y342915D01*
X606407D01*
X608168Y343645D01*
X609515Y344992D01*
X610244Y346753D01*
Y348658D01*
X609515Y350419D01*
X609086Y350848D01*
X609694Y351455D01*
X610423Y353216D01*
Y355121D01*
X609694Y356882D01*
X609565Y357011D01*
X610051Y358184D01*
X708000D01*
X709078Y358398D01*
X709991Y359009D01*
X785991Y435009D01*
X786602Y435922D01*
X786816Y437000D01*
Y495042D01*
X788061Y496287D01*
X788790Y498047D01*
Y499953D01*
X788061Y501713D01*
X787987Y501787D01*
X788473Y502961D01*
X885000D01*
X885000Y502961D01*
X885780Y503116D01*
X886442Y503558D01*
X886442Y503558D01*
X1053345Y670461D01*
X1374155Y670461D01*
X1437961Y606655D01*
X1437961Y538165D01*
X1437961Y538165D01*
X1438116Y537385D01*
X1438558Y536723D01*
X1438558Y536723D01*
X1546359Y428922D01*
X1547021Y428480D01*
X1547801Y428325D01*
X1548547D01*
X1549558Y427906D01*
X1550332Y427132D01*
X1550751Y426121D01*
Y425027D01*
X1550332Y424016D01*
X1549308Y422992D01*
X1548866Y422330D01*
X1548711Y421550D01*
Y418198D01*
X1548711Y418198D01*
X1548866Y417418D01*
X1549308Y416756D01*
X1549308Y416756D01*
X1550332Y415732D01*
X1550751Y414721D01*
Y413627D01*
X1550332Y412616D01*
X1549558Y411842D01*
X1548317Y411328D01*
X1548016Y411268D01*
X1547673Y411039D01*
X1546000D01*
X1545220Y410884D01*
X1544558Y410442D01*
X1544116Y409780D01*
X1543961Y409000D01*
X1543961Y400000D01*
X1544116Y399220D01*
X1544558Y398558D01*
X1545220Y398116D01*
X1546000Y397961D01*
X1560000Y397961D01*
X1560780Y398116D01*
X1561442Y398558D01*
X1561884Y399220D01*
X1562039Y400000D01*
Y499155D01*
X1569442Y506558D01*
X1569884Y507220D01*
X1570039Y508000D01*
Y539000D01*
X1569884Y539780D01*
X1569442Y540442D01*
X1568780Y540884D01*
X1568000Y541039D01*
X1496845D01*
X1493039Y544845D01*
Y612000D01*
X1492884Y612780D01*
X1492442Y613442D01*
X1399442Y706442D01*
X1398780Y706884D01*
X1398000Y707039D01*
X1290749D01*
X1290624Y708309D01*
X1293804Y708942D01*
X1297269Y710377D01*
X1300387Y712461D01*
X1303039Y715113D01*
X1305123Y718231D01*
X1306558Y721696D01*
X1307290Y725375D01*
Y729125D01*
X1306558Y732804D01*
X1305123Y736269D01*
X1303039Y739387D01*
X1300387Y742039D01*
X1297269Y744123D01*
X1293804Y745558D01*
X1290125Y746290D01*
D02*
G37*
G36*
X565953Y664790D02*
X564047D01*
X562287Y664061D01*
X560939Y662713D01*
X560210Y660953D01*
Y659047D01*
X560939Y657287D01*
X562287Y655939D01*
X564047Y655210D01*
X565953D01*
X567713Y655939D01*
X569061Y657287D01*
X569790Y659047D01*
Y660953D01*
X569061Y662713D01*
X567713Y664061D01*
X565953Y664790D01*
D02*
G37*
G36*
X553453D02*
X551547D01*
X549787Y664061D01*
X548439Y662713D01*
X547710Y660953D01*
Y659047D01*
X548439Y657287D01*
X549476Y656250D01*
X548439Y655213D01*
X547710Y653453D01*
Y651547D01*
X548439Y649787D01*
X549787Y648439D01*
X551547Y647710D01*
X553453D01*
X555213Y648439D01*
X556561Y649787D01*
X557290Y651547D01*
Y653453D01*
X556561Y655213D01*
X555524Y656250D01*
X556561Y657287D01*
X557290Y659047D01*
Y660953D01*
X556561Y662713D01*
X555213Y664061D01*
X553453Y664790D01*
D02*
G37*
G36*
X540953D02*
X539047D01*
X537287Y664061D01*
X535939Y662713D01*
X535210Y660953D01*
Y659047D01*
X535939Y657287D01*
X536976Y656250D01*
X535939Y655213D01*
X535210Y653453D01*
Y651547D01*
X535939Y649787D01*
X537287Y648439D01*
X539047Y647710D01*
X540953D01*
X542713Y648439D01*
X544061Y649787D01*
X544790Y651547D01*
Y653453D01*
X544061Y655213D01*
X543024Y656250D01*
X544061Y657287D01*
X544790Y659047D01*
Y660953D01*
X544061Y662713D01*
X542713Y664061D01*
X540953Y664790D01*
D02*
G37*
G36*
X528453D02*
X526547D01*
X524787Y664061D01*
X523439Y662713D01*
X522710Y660953D01*
Y659047D01*
X523439Y657287D01*
X524476Y656250D01*
X523439Y655213D01*
X522710Y653453D01*
Y651547D01*
X523439Y649787D01*
X524787Y648439D01*
X526547Y647710D01*
X528453D01*
X530213Y648439D01*
X531561Y649787D01*
X532290Y651547D01*
Y653453D01*
X531561Y655213D01*
X530524Y656250D01*
X531561Y657287D01*
X532290Y659047D01*
Y660953D01*
X531561Y662713D01*
X530213Y664061D01*
X528453Y664790D01*
D02*
G37*
G36*
X1296953Y651790D02*
X1295047D01*
X1293287Y651061D01*
X1291939Y649713D01*
X1291210Y647953D01*
Y646047D01*
X1291939Y644287D01*
X1293287Y642939D01*
X1295047Y642210D01*
X1296953D01*
X1298713Y642939D01*
X1300061Y644287D01*
X1300790Y646047D01*
Y647953D01*
X1300061Y649713D01*
X1298713Y651061D01*
X1296953Y651790D01*
D02*
G37*
G36*
X1270953Y650790D02*
X1269047D01*
X1267287Y650061D01*
X1265939Y648713D01*
X1265210Y646953D01*
Y645047D01*
X1265939Y643287D01*
X1266226Y643000D01*
X1265939Y642713D01*
X1265210Y640953D01*
Y639047D01*
X1265939Y637287D01*
X1267287Y635939D01*
X1269047Y635210D01*
X1270953D01*
X1272713Y635939D01*
X1274061Y637287D01*
X1274790Y639047D01*
Y640953D01*
X1274061Y642713D01*
X1273774Y643000D01*
X1274061Y643287D01*
X1274790Y645047D01*
Y646953D01*
X1274061Y648713D01*
X1272713Y650061D01*
X1270953Y650790D01*
D02*
G37*
G36*
X1296953Y636790D02*
X1295047D01*
X1293287Y636061D01*
X1291939Y634713D01*
X1291210Y632953D01*
Y631047D01*
X1291939Y629287D01*
X1293287Y627939D01*
X1295047Y627210D01*
X1296953D01*
X1298713Y627939D01*
X1300061Y629287D01*
X1300790Y631047D01*
Y632953D01*
X1300061Y634713D01*
X1298713Y636061D01*
X1296953Y636790D01*
D02*
G37*
G36*
X809953Y635790D02*
X808047D01*
X806287Y635061D01*
X804939Y633713D01*
X804210Y631953D01*
Y630047D01*
X804939Y628287D01*
X806287Y626939D01*
X808047Y626210D01*
X809953D01*
X811713Y626939D01*
X813061Y628287D01*
X813790Y630047D01*
Y631953D01*
X813061Y633713D01*
X811713Y635061D01*
X809953Y635790D01*
D02*
G37*
G36*
X602453Y638490D02*
X600547D01*
X598787Y637761D01*
X597439Y636413D01*
X596872Y635044D01*
X577228D01*
X576150Y634830D01*
X575237Y634219D01*
X573154Y632136D01*
X573154Y632136D01*
X439509Y498491D01*
X435162Y494145D01*
X434231Y495075D01*
X434148Y495179D01*
X434148Y495179D01*
X432483Y496457D01*
X430545Y497260D01*
X428465Y497534D01*
X426384Y497260D01*
X424446Y496457D01*
X422781Y495179D01*
X421893Y494271D01*
X420457Y492834D01*
X420446Y492845D01*
X419169Y491180D01*
X418366Y489241D01*
X418092Y487161D01*
X418366Y485081D01*
X419169Y483142D01*
X420446Y481478D01*
X420457Y481488D01*
X420457Y481488D01*
X421481Y480463D01*
X413536Y472518D01*
X413536Y472518D01*
X412089Y471072D01*
X412089Y471072D01*
X411048Y470030D01*
X411048Y470030D01*
X411005Y469988D01*
X410395Y469074D01*
X410180Y467996D01*
Y280192D01*
X353333Y223344D01*
X221378D01*
X220811Y224713D01*
X219463Y226061D01*
X217703Y226790D01*
X215797D01*
X214037Y226061D01*
X212689Y224713D01*
X211960Y222953D01*
Y221047D01*
X212689Y219287D01*
X213226Y218750D01*
X212689Y218213D01*
X211960Y216453D01*
Y214547D01*
X212689Y212787D01*
X214037Y211439D01*
X215797Y210710D01*
X217703D01*
X219463Y211439D01*
X220811Y212787D01*
X221378Y214156D01*
X355972D01*
X357050Y214370D01*
X357963Y214981D01*
X418544Y275561D01*
X419154Y276475D01*
X419368Y277552D01*
Y465357D01*
X427006Y472994D01*
X427006Y472994D01*
X428802Y474790D01*
X428802Y474790D01*
X428812Y474780D01*
X430090Y476445D01*
X430892Y478383D01*
X431166Y480463D01*
X430892Y482544D01*
X430090Y484482D01*
X429937Y484681D01*
X429933Y484702D01*
X429711Y485034D01*
X430651Y485914D01*
X431143Y485536D01*
X433082Y484733D01*
X435162Y484459D01*
X437243Y484733D01*
X439181Y485536D01*
X440846Y486814D01*
X440835Y486824D01*
X446006Y491994D01*
X446006Y491994D01*
X579867Y625856D01*
X596872D01*
X597439Y624487D01*
X598787Y623139D01*
X600547Y622410D01*
X602453D01*
X604213Y623139D01*
X605561Y624487D01*
X606290Y626247D01*
Y628153D01*
X605561Y629913D01*
X605024Y630450D01*
X605561Y630987D01*
X606290Y632747D01*
Y634653D01*
X605561Y636413D01*
X604213Y637761D01*
X602453Y638490D01*
D02*
G37*
G36*
X1538350Y641892D02*
X1538250D01*
X1535172Y641487D01*
X1532304Y640298D01*
X1529841Y638409D01*
X1527952Y635946D01*
X1526763Y633078D01*
X1526358Y630000D01*
X1526763Y626922D01*
X1527952Y624054D01*
X1529841Y621591D01*
X1532304Y619701D01*
X1535172Y618513D01*
X1538250Y618108D01*
X1538350D01*
X1541428Y618513D01*
X1544296Y619701D01*
X1546759Y621591D01*
X1548649Y624054D01*
X1549836Y626922D01*
X1550242Y630000D01*
X1549836Y633078D01*
X1548649Y635946D01*
X1546759Y638409D01*
X1544296Y640298D01*
X1541428Y641487D01*
X1538350Y641892D01*
D02*
G37*
G36*
X33453Y602290D02*
X31547D01*
X29787Y601561D01*
X28750Y600524D01*
X27713Y601561D01*
X25953Y602290D01*
X24047D01*
X22287Y601561D01*
X20939Y600213D01*
X20210Y598453D01*
Y596547D01*
X20939Y594787D01*
X21976Y593750D01*
X20939Y592713D01*
X20210Y590953D01*
Y589047D01*
X20939Y587287D01*
X21976Y586250D01*
X20939Y585213D01*
X20210Y583453D01*
Y581547D01*
X20939Y579787D01*
X21976Y578750D01*
X20939Y577713D01*
X20210Y575953D01*
Y574047D01*
X20939Y572287D01*
X21976Y571250D01*
X20939Y570213D01*
X20210Y568453D01*
Y566547D01*
X20939Y564787D01*
X22287Y563439D01*
X24047Y562710D01*
X25953D01*
X27713Y563439D01*
X28750Y564476D01*
X29787Y563439D01*
X31547Y562710D01*
X33453D01*
X33718Y562820D01*
X33939Y562287D01*
X35287Y560939D01*
X37047Y560210D01*
X38441D01*
X43825Y554826D01*
X43826Y554826D01*
X44823Y554159D01*
X46000Y553925D01*
X46000Y553925D01*
X63012D01*
X63538Y552655D01*
X62435Y551552D01*
X61480Y549247D01*
Y546753D01*
X62435Y544448D01*
X64198Y542685D01*
X66503Y541730D01*
X68997D01*
X71302Y542685D01*
X73065Y544448D01*
X73267Y544934D01*
X78378D01*
X78439Y544787D01*
X79787Y543439D01*
X81547Y542710D01*
X83453D01*
X85213Y543439D01*
X86561Y544787D01*
X87290Y546547D01*
X88560Y547179D01*
X88977Y546889D01*
Y546280D01*
X89706Y544520D01*
X91053Y543172D01*
X92814Y542443D01*
X94720D01*
X96480Y543172D01*
X97828Y544520D01*
X98557Y546280D01*
Y548186D01*
X97828Y549946D01*
X96480Y551294D01*
X94720Y552023D01*
X93326D01*
X86174Y559174D01*
X85177Y559841D01*
X84000Y560075D01*
X84000Y560075D01*
X47274D01*
X42790Y564559D01*
Y565953D01*
X42061Y567713D01*
X40713Y569061D01*
X38953Y569790D01*
X37047D01*
X36782Y569680D01*
X36561Y570213D01*
X35524Y571250D01*
X36561Y572287D01*
X37290Y574047D01*
Y575953D01*
X36561Y577713D01*
X35524Y578750D01*
X36561Y579787D01*
X37290Y581547D01*
Y583453D01*
X36561Y585213D01*
X35524Y586250D01*
X36561Y587287D01*
X37290Y589047D01*
Y590953D01*
X36561Y592713D01*
X35524Y593750D01*
X36561Y594787D01*
X37290Y596547D01*
Y598453D01*
X36561Y600213D01*
X35213Y601561D01*
X33453Y602290D01*
D02*
G37*
G36*
X570743Y602837D02*
X568837D01*
X567077Y602108D01*
X565729Y600760D01*
X565000Y599000D01*
Y597094D01*
X565729Y595334D01*
X567077Y593987D01*
X568837Y593257D01*
X570743D01*
X572503Y593987D01*
X573851Y595334D01*
X574580Y597094D01*
Y599000D01*
X573851Y600760D01*
X572503Y602108D01*
X570743Y602837D01*
D02*
G37*
G36*
X395953Y609790D02*
X394047D01*
X392287Y609061D01*
X390939Y607713D01*
X390210Y605953D01*
Y604047D01*
X390939Y602287D01*
X391976Y601250D01*
X390939Y600213D01*
X390210Y598453D01*
Y596547D01*
X390939Y594787D01*
X392287Y593439D01*
X394047Y592710D01*
X395953D01*
X397713Y593439D01*
X399061Y594787D01*
X399790Y596547D01*
Y598453D01*
X399061Y600213D01*
X398024Y601250D01*
X399061Y602287D01*
X399790Y604047D01*
Y605953D01*
X399061Y607713D01*
X397713Y609061D01*
X395953Y609790D01*
D02*
G37*
G36*
X383453D02*
X381547D01*
X379787Y609061D01*
X378439Y607713D01*
X377710Y605953D01*
Y604047D01*
X378439Y602287D01*
X379476Y601250D01*
X378439Y600213D01*
X377710Y598453D01*
Y596547D01*
X378439Y594787D01*
X379787Y593439D01*
X381547Y592710D01*
X383453D01*
X385213Y593439D01*
X386561Y594787D01*
X387290Y596547D01*
Y598453D01*
X386561Y600213D01*
X385524Y601250D01*
X386561Y602287D01*
X387290Y604047D01*
Y605953D01*
X386561Y607713D01*
X385213Y609061D01*
X383453Y609790D01*
D02*
G37*
G36*
X671953Y607714D02*
X670047D01*
X668287Y606984D01*
X666939Y605637D01*
X666371Y604265D01*
X590190D01*
X589162Y604061D01*
X588291Y603478D01*
X583290Y598478D01*
X582708Y597606D01*
X582503Y596578D01*
Y581422D01*
X582708Y580394D01*
X583290Y579522D01*
X586967Y575845D01*
X587839Y575263D01*
X588867Y575058D01*
X596371D01*
X596939Y573687D01*
X598287Y572339D01*
X600047Y571610D01*
X601953D01*
X603713Y572339D01*
X605061Y573687D01*
X605790Y575447D01*
Y577353D01*
X605061Y579113D01*
X604524Y579650D01*
X605061Y580187D01*
X605790Y581947D01*
Y583853D01*
X605061Y585613D01*
X603713Y586961D01*
X601953Y587690D01*
X600047D01*
X598287Y586961D01*
X596939Y585613D01*
X596371Y584242D01*
X591687D01*
Y593887D01*
X592881Y595082D01*
X666371D01*
X666939Y593710D01*
X668287Y592363D01*
X670047Y591634D01*
X671953D01*
X673713Y592363D01*
X675061Y593710D01*
X675790Y595471D01*
Y597376D01*
X675061Y599137D01*
X674524Y599674D01*
X675061Y600210D01*
X675790Y601971D01*
Y603876D01*
X675061Y605637D01*
X673713Y606984D01*
X671953Y607714D01*
D02*
G37*
G36*
X1511953Y596790D02*
X1510047D01*
X1508287Y596061D01*
X1506939Y594713D01*
X1506210Y592953D01*
Y591047D01*
X1506939Y589287D01*
X1508287Y587939D01*
X1510047Y587210D01*
X1511953D01*
X1513713Y587939D01*
X1515061Y589287D01*
X1515790Y591047D01*
Y592953D01*
X1515061Y594713D01*
X1513713Y596061D01*
X1511953Y596790D01*
D02*
G37*
G36*
X1304953Y591790D02*
X1303047D01*
X1301287Y591061D01*
X1299939Y589713D01*
X1299210Y587953D01*
Y586047D01*
X1299939Y584287D01*
X1301287Y582939D01*
X1303047Y582210D01*
X1304953D01*
X1306713Y582939D01*
X1308061Y584287D01*
X1308790Y586047D01*
Y587953D01*
X1308061Y589713D01*
X1306713Y591061D01*
X1304953Y591790D01*
D02*
G37*
G36*
X79953Y584790D02*
X78047D01*
X76287Y584061D01*
X74939Y582713D01*
X74210Y580953D01*
Y579047D01*
X74939Y577287D01*
X76287Y575939D01*
X78047Y575210D01*
X79953D01*
X81713Y575939D01*
X83061Y577287D01*
X83790Y579047D01*
Y580953D01*
X83061Y582713D01*
X81713Y584061D01*
X79953Y584790D01*
D02*
G37*
G36*
X693953Y580790D02*
X692047D01*
X690287Y580061D01*
X688939Y578713D01*
X688210Y576953D01*
Y575047D01*
X688939Y573287D01*
X690287Y571939D01*
X692047Y571210D01*
X693953D01*
X694440Y571412D01*
X695412Y570440D01*
X695210Y569953D01*
Y568047D01*
X695939Y566287D01*
X697287Y564939D01*
X699047Y564210D01*
X700953D01*
X702713Y564939D01*
X704061Y566287D01*
X704790Y568047D01*
Y569953D01*
X704061Y571713D01*
X702713Y573061D01*
X700953Y573790D01*
X699047D01*
X698560Y573588D01*
X697588Y574560D01*
X697790Y575047D01*
Y576953D01*
X697061Y578713D01*
X695713Y580061D01*
X693953Y580790D01*
D02*
G37*
G36*
X1512953Y580790D02*
X1511047D01*
X1509287Y580061D01*
X1507939Y578713D01*
X1507210Y576953D01*
Y575047D01*
X1507939Y573287D01*
X1509287Y571939D01*
X1509895Y571687D01*
Y570313D01*
X1509287Y570061D01*
X1507939Y568713D01*
X1507210Y566953D01*
Y565047D01*
X1507939Y563287D01*
X1509287Y561939D01*
X1511047Y561210D01*
X1512953D01*
X1514713Y561939D01*
X1516061Y563287D01*
X1516790Y565047D01*
Y566953D01*
X1516061Y568713D01*
X1514713Y570061D01*
X1514105Y570313D01*
Y571687D01*
X1514713Y571939D01*
X1516061Y573287D01*
X1516790Y575047D01*
Y576953D01*
X1516061Y578713D01*
X1514713Y580061D01*
X1512953Y580790D01*
D02*
G37*
G36*
X648203Y574990D02*
X646297D01*
X644537Y574261D01*
X643189Y572913D01*
X642622Y571544D01*
X623699D01*
X622621Y571330D01*
X621708Y570719D01*
X619625Y568636D01*
X619625Y568636D01*
X600913Y549924D01*
X540628D01*
X540061Y551293D01*
X538713Y552641D01*
X536953Y553370D01*
X535047D01*
X533287Y552641D01*
X531939Y551293D01*
X531210Y549533D01*
Y547627D01*
X531939Y545867D01*
X532476Y545330D01*
X531939Y544793D01*
X531210Y543033D01*
Y541127D01*
X531939Y539367D01*
X533287Y538019D01*
X535047Y537290D01*
X536953D01*
X538713Y538019D01*
X540061Y539367D01*
X540628Y540736D01*
X603552D01*
X604630Y540950D01*
X605543Y541561D01*
X626339Y562356D01*
X642622D01*
X643189Y560987D01*
X644537Y559639D01*
X646297Y558910D01*
X648203D01*
X649963Y559639D01*
X651311Y560987D01*
X652040Y562747D01*
Y564653D01*
X651311Y566413D01*
X650774Y566950D01*
X651311Y567487D01*
X652040Y569247D01*
Y571153D01*
X651311Y572913D01*
X649963Y574261D01*
X648203Y574990D01*
D02*
G37*
G36*
X355953Y567342D02*
X354047D01*
X352287Y566613D01*
X350939Y565265D01*
X350210Y563505D01*
Y561599D01*
X350939Y559839D01*
X352287Y558491D01*
X354047Y557762D01*
X355953D01*
X357713Y558491D01*
X359061Y559839D01*
X359790Y561599D01*
Y563505D01*
X359061Y565265D01*
X357713Y566613D01*
X355953Y567342D01*
D02*
G37*
G36*
X560953Y573790D02*
X559047D01*
X557287Y573061D01*
X555939Y571713D01*
X555210Y569953D01*
Y568047D01*
X555619Y567060D01*
X555058Y565814D01*
X554900Y565729D01*
X553287Y565061D01*
X551939Y563713D01*
X551210Y561953D01*
Y560047D01*
X551939Y558287D01*
X553287Y556939D01*
X555047Y556210D01*
X556953D01*
X558713Y556939D01*
X560061Y558287D01*
X560790Y560047D01*
Y561953D01*
X560381Y562940D01*
X560942Y564186D01*
X561100Y564271D01*
X562713Y564939D01*
X564061Y566287D01*
X564790Y568047D01*
Y569953D01*
X564061Y571713D01*
X562713Y573061D01*
X560953Y573790D01*
D02*
G37*
G36*
X1296953Y562790D02*
X1295047D01*
X1293287Y562061D01*
X1291939Y560713D01*
X1291210Y558953D01*
Y557047D01*
X1291939Y555287D01*
X1293287Y553939D01*
X1295047Y553210D01*
X1296953D01*
X1298713Y553939D01*
X1300061Y555287D01*
X1300790Y557047D01*
Y558953D01*
X1300061Y560713D01*
X1298713Y562061D01*
X1296953Y562790D01*
D02*
G37*
G36*
X805953Y561790D02*
X804047D01*
X802287Y561061D01*
X800939Y559713D01*
X800210Y557953D01*
Y556047D01*
X800939Y554287D01*
X801226Y554000D01*
X800939Y553713D01*
X800210Y551953D01*
Y550047D01*
X800939Y548287D01*
X802287Y546939D01*
X804047Y546210D01*
X805953D01*
X807713Y546939D01*
X809061Y548287D01*
X809790Y550047D01*
Y551953D01*
X809061Y553713D01*
X808774Y554000D01*
X809061Y554287D01*
X809790Y556047D01*
Y557953D01*
X809061Y559713D01*
X807713Y561061D01*
X805953Y561790D01*
D02*
G37*
G36*
X1511953Y554790D02*
X1510047D01*
X1508287Y554061D01*
X1506939Y552713D01*
X1506210Y550953D01*
Y549047D01*
X1506939Y547287D01*
X1508287Y545939D01*
X1510047Y545210D01*
X1511953D01*
X1513713Y545939D01*
X1515061Y547287D01*
X1515790Y549047D01*
Y550953D01*
X1515061Y552713D01*
X1513713Y554061D01*
X1511953Y554790D01*
D02*
G37*
G36*
X1266953Y549790D02*
X1265047D01*
X1263287Y549061D01*
X1261939Y547713D01*
X1261210Y545953D01*
Y544047D01*
X1261939Y542287D01*
X1263287Y540939D01*
X1265047Y540210D01*
X1266953D01*
X1268713Y540939D01*
X1270061Y542287D01*
X1270790Y544047D01*
Y545953D01*
X1270061Y547713D01*
X1268713Y549061D01*
X1266953Y549790D01*
D02*
G37*
G36*
X1296953Y547790D02*
X1295047D01*
X1293287Y547061D01*
X1291939Y545713D01*
X1291210Y543953D01*
Y542047D01*
X1291939Y540287D01*
X1293287Y538939D01*
X1295047Y538210D01*
X1296953D01*
X1298713Y538939D01*
X1300061Y540287D01*
X1300790Y542047D01*
Y543953D01*
X1300061Y545713D01*
X1298713Y547061D01*
X1296953Y547790D01*
D02*
G37*
G36*
X1217953Y544790D02*
X1216047D01*
X1214287Y544061D01*
X1212939Y542713D01*
X1212210Y540953D01*
Y539047D01*
X1212939Y537287D01*
X1214287Y535939D01*
X1216047Y535210D01*
X1217953D01*
X1219713Y535939D01*
X1221061Y537287D01*
X1221790Y539047D01*
Y540953D01*
X1221061Y542713D01*
X1219713Y544061D01*
X1217953Y544790D01*
D02*
G37*
G36*
X223953Y547790D02*
X222047D01*
X220287Y547061D01*
X218939Y545713D01*
X218210Y543953D01*
Y542047D01*
X218939Y540287D01*
X220166Y539060D01*
X220101Y538364D01*
X219895Y537727D01*
X218287Y537061D01*
X216939Y535713D01*
X216210Y533953D01*
Y532047D01*
X216939Y530287D01*
X218287Y528939D01*
X220047Y528210D01*
X221953D01*
X223713Y528939D01*
X225061Y530287D01*
X225790Y532047D01*
Y533953D01*
X225061Y535713D01*
X223834Y536940D01*
X223899Y537636D01*
X224105Y538273D01*
X225713Y538939D01*
X227061Y540287D01*
X227790Y542047D01*
Y543953D01*
X227061Y545713D01*
X225713Y547061D01*
X223953Y547790D01*
D02*
G37*
G36*
X1296953Y536790D02*
X1295047D01*
X1293287Y536061D01*
X1291939Y534713D01*
X1291210Y532953D01*
Y531047D01*
X1291939Y529287D01*
X1293287Y527939D01*
X1295047Y527210D01*
X1296953D01*
X1298713Y527939D01*
X1300061Y529287D01*
X1300790Y531047D01*
Y532953D01*
X1300061Y534713D01*
X1298713Y536061D01*
X1296953Y536790D01*
D02*
G37*
G36*
X1271953D02*
X1270047D01*
X1268287Y536061D01*
X1266939Y534713D01*
X1266210Y532953D01*
Y531047D01*
X1266939Y529287D01*
X1268287Y527939D01*
X1270047Y527210D01*
X1271953D01*
X1273713Y527939D01*
X1275061Y529287D01*
X1275790Y531047D01*
Y532953D01*
X1275061Y534713D01*
X1273713Y536061D01*
X1271953Y536790D01*
D02*
G37*
G36*
X370953Y609790D02*
X369047D01*
X367287Y609061D01*
X365939Y607713D01*
X365210Y605953D01*
Y604047D01*
X365939Y602287D01*
X366976Y601250D01*
X365939Y600213D01*
X365210Y598453D01*
Y596547D01*
X365939Y594787D01*
X366925Y593801D01*
Y542274D01*
X359441Y534790D01*
X358047D01*
X356287Y534061D01*
X354939Y532713D01*
X354210Y530953D01*
Y529047D01*
X354939Y527287D01*
X356287Y525939D01*
X358047Y525210D01*
X359953D01*
X361713Y525939D01*
X363061Y527287D01*
X363790Y529047D01*
Y530441D01*
X372174Y538826D01*
X372841Y539823D01*
X373075Y541000D01*
X373075Y541000D01*
Y593801D01*
X374061Y594787D01*
X374790Y596547D01*
Y598453D01*
X374061Y600213D01*
X373024Y601250D01*
X374061Y602287D01*
X374790Y604047D01*
Y605953D01*
X374061Y607713D01*
X372713Y609061D01*
X370953Y609790D01*
D02*
G37*
G36*
X252953Y533790D02*
X251047D01*
X249287Y533061D01*
X247939Y531713D01*
X247210Y529953D01*
Y528047D01*
X247939Y526287D01*
X248845Y525382D01*
X248318Y524112D01*
X227034D01*
X225790Y525356D01*
X224029Y526085D01*
X222124D01*
X220363Y525356D01*
X219016Y524009D01*
X218286Y522248D01*
Y520343D01*
X219016Y518582D01*
X219368Y518230D01*
X218842Y516960D01*
X193814D01*
X192713Y518061D01*
X190953Y518790D01*
X189047D01*
X187287Y518061D01*
X185939Y516713D01*
X185210Y514953D01*
Y513047D01*
X185939Y511287D01*
X187287Y509939D01*
X189047Y509210D01*
X190953D01*
X192713Y509939D01*
X194061Y511287D01*
X194078Y511328D01*
X243665D01*
X244766Y510227D01*
X246526Y509498D01*
X248432D01*
X250192Y510227D01*
X251540Y511575D01*
X252269Y513335D01*
Y515241D01*
X251540Y517001D01*
X251332Y517209D01*
X251857Y518479D01*
X269986D01*
X280210Y508255D01*
Y506495D01*
X280939Y504735D01*
X281950Y503724D01*
X280939Y502713D01*
X280210Y500953D01*
Y499047D01*
X280939Y497287D01*
X281976Y496250D01*
X280939Y495213D01*
X280210Y493453D01*
Y491547D01*
X280939Y489787D01*
X281976Y488750D01*
X280939Y487713D01*
X280210Y485953D01*
Y484047D01*
X280939Y482287D01*
X282287Y480939D01*
X284047Y480210D01*
X285953D01*
X287713Y480939D01*
X289061Y482287D01*
X289313Y482895D01*
X290687D01*
X290939Y482287D01*
X292287Y480939D01*
X294047Y480210D01*
X295953D01*
X297713Y480939D01*
X299061Y482287D01*
X299790Y484047D01*
Y485953D01*
X299061Y487713D01*
X298024Y488750D01*
X299061Y489787D01*
X299790Y491547D01*
Y493453D01*
X299061Y495213D01*
X298024Y496250D01*
X299061Y497287D01*
X299790Y499047D01*
Y500953D01*
X299061Y502713D01*
X298050Y503724D01*
X299061Y504735D01*
X299790Y506495D01*
Y508401D01*
X299061Y510161D01*
X297713Y511509D01*
X295953Y512238D01*
X294047D01*
X292287Y511509D01*
X290939Y510161D01*
X290687Y509553D01*
X289313D01*
X289061Y510161D01*
X287713Y511509D01*
X285953Y512238D01*
X284193D01*
X273144Y523287D01*
X272230Y523897D01*
X271153Y524112D01*
X255682D01*
X255156Y525382D01*
X256061Y526287D01*
X256790Y528047D01*
Y529953D01*
X256061Y531713D01*
X254713Y533061D01*
X252953Y533790D01*
D02*
G37*
G36*
X355953Y503790D02*
X354047D01*
X352287Y503061D01*
X350939Y501713D01*
X350210Y499953D01*
Y498047D01*
X350939Y496287D01*
X352287Y494939D01*
X354047Y494210D01*
X355953D01*
X357713Y494939D01*
X359061Y496287D01*
X359790Y498047D01*
Y499953D01*
X359061Y501713D01*
X357713Y503061D01*
X355953Y503790D01*
D02*
G37*
G36*
X908453Y502290D02*
X906547D01*
X904787Y501561D01*
X903439Y500213D01*
X902710Y498453D01*
Y496547D01*
X903439Y494787D01*
X904787Y493439D01*
X906547Y492710D01*
X908453D01*
X910213Y493439D01*
X911561Y494787D01*
X912290Y496547D01*
Y498453D01*
X911561Y500213D01*
X910213Y501561D01*
X908453Y502290D01*
D02*
G37*
G36*
X38953Y500790D02*
X37047D01*
X35287Y500061D01*
X33939Y498713D01*
X33210Y496953D01*
Y495047D01*
X33939Y493287D01*
X35287Y491939D01*
X37047Y491210D01*
X38953D01*
X40713Y491939D01*
X42061Y493287D01*
X42790Y495047D01*
Y496953D01*
X42061Y498713D01*
X40713Y500061D01*
X38953Y500790D01*
D02*
G37*
G36*
X295000Y607039D02*
X272500D01*
X271720Y606884D01*
X271058Y606442D01*
X270616Y605780D01*
X270461Y605000D01*
Y601558D01*
X270210Y600953D01*
Y599047D01*
X270461Y598442D01*
Y594058D01*
X270210Y593453D01*
Y591547D01*
X270461Y590942D01*
Y563500D01*
X270461Y563500D01*
X270616Y562720D01*
X271058Y562058D01*
X307961Y525155D01*
Y488774D01*
X307961Y488774D01*
X308116Y487994D01*
X308210Y487854D01*
X308751Y486547D01*
Y485453D01*
X308210Y484146D01*
X308116Y484006D01*
X307961Y483226D01*
Y478345D01*
X295655Y466039D01*
X238473D01*
X237987Y467212D01*
X238061Y467287D01*
X238790Y469047D01*
Y470953D01*
X238061Y472713D01*
X236713Y474061D01*
X234953Y474790D01*
X233047D01*
X231287Y474061D01*
X229939Y472713D01*
X229210Y470953D01*
Y469047D01*
X229939Y467287D01*
X230013Y467212D01*
X229527Y466039D01*
X193606D01*
X193083Y467309D01*
X194061Y468287D01*
X194790Y470047D01*
Y470640D01*
X196060Y471166D01*
X196287Y470939D01*
X198047Y470210D01*
X199953D01*
X201713Y470939D01*
X203061Y472287D01*
X203790Y474047D01*
Y475953D01*
X203061Y477713D01*
X201713Y479061D01*
X199953Y479790D01*
X198047D01*
X196287Y479061D01*
X194939Y477713D01*
X194210Y475953D01*
Y475360D01*
X192940Y474834D01*
X192713Y475061D01*
X190953Y475790D01*
X189047D01*
X187287Y475061D01*
X186000Y473774D01*
X184713Y475061D01*
X182953Y475790D01*
X181047D01*
X179287Y475061D01*
X178000Y473774D01*
X176713Y475061D01*
X174953Y475790D01*
X173047D01*
X171353Y475088D01*
X171114Y475204D01*
X170304Y475874D01*
X170790Y477047D01*
Y478953D01*
X170061Y480713D01*
X168713Y482061D01*
X166953Y482790D01*
X165047D01*
X163287Y482061D01*
X161939Y480713D01*
X161210Y478953D01*
Y477047D01*
X161939Y475287D01*
X162726Y474500D01*
X161939Y473713D01*
X161210Y471953D01*
Y470047D01*
X161939Y468287D01*
X162917Y467309D01*
X162393Y466039D01*
X40000D01*
X39220Y465884D01*
X38558Y465442D01*
X38116Y464780D01*
X37961Y464000D01*
Y452500D01*
X38116Y451720D01*
X38558Y451058D01*
X39220Y450616D01*
X40000Y450461D01*
X210027Y450461D01*
X210723Y449191D01*
X210210Y447953D01*
Y446047D01*
X210939Y444287D01*
X212287Y442939D01*
X214047Y442210D01*
X215953D01*
X217713Y442939D01*
X219061Y444287D01*
X219790Y446047D01*
Y447953D01*
X219277Y449191D01*
X219973Y450461D01*
X262027D01*
X262723Y449191D01*
X262210Y447953D01*
Y446047D01*
X262939Y444287D01*
X264287Y442939D01*
X266047Y442210D01*
X267953D01*
X269713Y442939D01*
X271061Y444287D01*
X271790Y446047D01*
Y447953D01*
X271277Y449191D01*
X271973Y450461D01*
X307500D01*
X350000D01*
X350000Y450461D01*
X350780Y450616D01*
X351442Y451058D01*
X351442Y451058D01*
X358942Y458558D01*
X359384Y459220D01*
X359539Y460000D01*
Y472500D01*
X359384Y473280D01*
X358942Y473942D01*
X358280Y474384D01*
X357500Y474539D01*
X334345D01*
X330039Y478845D01*
X330039Y536000D01*
X330039Y536000D01*
X329884Y536780D01*
X329442Y537442D01*
X314949Y551935D01*
X314287Y552377D01*
X313507Y552533D01*
X313223Y552476D01*
X311870D01*
X310859Y552895D01*
X310086Y553669D01*
X309667Y554680D01*
Y556032D01*
X309723Y556316D01*
X309568Y557096D01*
X309126Y557758D01*
X309126Y557758D01*
X297039Y569845D01*
X297039Y605000D01*
X296884Y605780D01*
X296442Y606442D01*
X295780Y606884D01*
X295000Y607039D01*
D02*
G37*
G36*
X919703Y499790D02*
X917797D01*
X916037Y499061D01*
X914689Y497713D01*
X913960Y495953D01*
Y494047D01*
X914689Y492287D01*
X915726Y491250D01*
X914689Y490213D01*
X913960Y488453D01*
Y486547D01*
X914689Y484787D01*
X915726Y483750D01*
X914689Y482713D01*
X913960Y480953D01*
Y479047D01*
X914689Y477287D01*
X915726Y476250D01*
X914689Y475213D01*
X913960Y473453D01*
Y471547D01*
X914689Y469787D01*
X915916Y468560D01*
X915840Y467997D01*
X915527Y467290D01*
X914047D01*
X912287Y466561D01*
X910939Y465213D01*
X910210Y463453D01*
Y461547D01*
X910939Y459787D01*
X911976Y458750D01*
X910939Y457713D01*
X910210Y455953D01*
Y454047D01*
X910939Y452287D01*
X912287Y450939D01*
X914047Y450210D01*
X915953D01*
X917713Y450939D01*
X919061Y452287D01*
X919790Y454047D01*
Y455953D01*
X919061Y457713D01*
X918024Y458750D01*
X919061Y459787D01*
X919790Y461547D01*
Y463453D01*
X919061Y465213D01*
X917834Y466440D01*
X917910Y467003D01*
X918223Y467710D01*
X919703D01*
X921463Y468439D01*
X922811Y469787D01*
X923540Y471547D01*
Y473453D01*
X922811Y475213D01*
X921774Y476250D01*
X922811Y477287D01*
X923540Y479047D01*
Y480953D01*
X922811Y482713D01*
X921774Y483750D01*
X922811Y484787D01*
X923540Y486547D01*
Y488453D01*
X922811Y490213D01*
X921774Y491250D01*
X922811Y492287D01*
X923540Y494047D01*
Y495953D01*
X922811Y497713D01*
X921463Y499061D01*
X919703Y499790D01*
D02*
G37*
G36*
X565247Y475270D02*
X562753D01*
X560448Y474315D01*
X558685Y472552D01*
X557730Y470247D01*
Y467753D01*
X558685Y465448D01*
X560448Y463685D01*
X562753Y462730D01*
X563701D01*
X564227Y461460D01*
X546057Y443290D01*
X544297D01*
X542537Y442561D01*
X541189Y441213D01*
X540460Y439453D01*
Y437547D01*
X541189Y435787D01*
X542537Y434439D01*
X544297Y433710D01*
X546203D01*
X547889Y434408D01*
X547939Y434287D01*
X549287Y432939D01*
X551047Y432210D01*
X552953D01*
X554713Y432939D01*
X556061Y434287D01*
X556790Y436047D01*
Y437807D01*
X572166Y453184D01*
X594577D01*
X595921Y451840D01*
X597682Y451111D01*
X599587D01*
X600475Y450518D01*
Y450349D01*
X601204Y448589D01*
X601352Y448441D01*
X600691Y447451D01*
X600251Y447522D01*
X599453Y447853D01*
X597547D01*
X595787Y447123D01*
X594440Y445776D01*
X593710Y444015D01*
Y442110D01*
X594440Y440349D01*
X595284Y439505D01*
X594464Y438686D01*
X593735Y436925D01*
Y436161D01*
X591348Y433774D01*
X590738Y432860D01*
X590523Y431782D01*
Y414661D01*
X590738Y413583D01*
X591348Y412669D01*
X607871Y396147D01*
X608784Y395536D01*
X609862Y395322D01*
X621160D01*
X622009Y394052D01*
X621796Y393539D01*
Y391633D01*
X622525Y389873D01*
X623062Y389336D01*
X621939Y388213D01*
X621210Y386453D01*
Y384547D01*
X621939Y382787D01*
X623287Y381439D01*
X625047Y380710D01*
X626953D01*
X628713Y381439D01*
X630061Y382787D01*
X630790Y384547D01*
Y386453D01*
X630061Y388213D01*
X629524Y388750D01*
X630647Y389873D01*
X631376Y391633D01*
Y393539D01*
X631163Y394052D01*
X632012Y395322D01*
X676695D01*
X693210Y378807D01*
Y377047D01*
X693939Y375287D01*
X695287Y373939D01*
X697047Y373210D01*
X698953D01*
X700713Y373939D01*
X702061Y375287D01*
X702790Y377047D01*
Y378953D01*
X702061Y380713D01*
X701774Y381000D01*
X703061Y382287D01*
X703790Y384047D01*
Y385953D01*
X703061Y387713D01*
X701713Y389061D01*
X699953Y389790D01*
X698193D01*
X682991Y404991D01*
X682078Y405602D01*
X681000Y405816D01*
X613236D01*
X607348Y411704D01*
X607646Y413202D01*
X608166Y413417D01*
X609513Y414764D01*
X610243Y416525D01*
Y418430D01*
X609513Y420191D01*
X608626Y421078D01*
X608770Y421222D01*
X609499Y422982D01*
Y424888D01*
X608783Y426617D01*
X608920Y426841D01*
X609557Y427657D01*
X621539D01*
X621666Y427632D01*
X626596D01*
X627119Y427736D01*
X630881D01*
X631404Y427632D01*
X635386D01*
X637210Y425807D01*
Y424047D01*
X637939Y422287D01*
X639287Y420939D01*
X641047Y420210D01*
X642953D01*
X644713Y420939D01*
X646061Y422287D01*
X646790Y424047D01*
Y425953D01*
X646061Y427713D01*
X644713Y429061D01*
X642953Y429790D01*
X641193D01*
X638543Y432439D01*
X638447Y433412D01*
X638556Y433521D01*
X639285Y435281D01*
Y437187D01*
X638556Y438947D01*
X637208Y440295D01*
X635448Y441024D01*
X633542D01*
X631782Y440295D01*
X630434Y438947D01*
X630380Y438816D01*
X608795D01*
X608459Y439225D01*
X608314Y440540D01*
X609558Y441784D01*
X623600D01*
X624678Y441999D01*
X625592Y442609D01*
X632017Y449035D01*
X632753Y448730D01*
X635247D01*
X637552Y449685D01*
X639315Y451448D01*
X640270Y453753D01*
Y456247D01*
X639315Y458552D01*
X637552Y460315D01*
X635247Y461270D01*
X632753D01*
X630448Y460315D01*
X628685Y458552D01*
X627730Y456247D01*
Y453753D01*
X628035Y453017D01*
X622434Y447416D01*
X609949D01*
X609331Y448578D01*
X609326Y448590D01*
X610055Y450349D01*
Y452255D01*
X609325Y454015D01*
X608277Y455064D01*
X608754Y455541D01*
X609483Y457302D01*
Y459207D01*
X608754Y460968D01*
X607407Y462315D01*
X605646Y463045D01*
X603741D01*
X603343Y463310D01*
Y463452D01*
X602614Y465213D01*
X602214Y465613D01*
X602887Y466285D01*
X603616Y468046D01*
Y469951D01*
X602887Y471712D01*
X601539Y473059D01*
X599779Y473789D01*
X597873D01*
X596113Y473059D01*
X594869Y471815D01*
X577959D01*
X576713Y473061D01*
X574953Y473790D01*
X573047D01*
X571287Y473061D01*
X570716Y472490D01*
X569315Y472552D01*
X567552Y474315D01*
X565247Y475270D01*
D02*
G37*
G36*
X579448Y439213D02*
X577542D01*
X575782Y438484D01*
X574689Y437391D01*
X574367Y437714D01*
X572606Y438443D01*
X570700D01*
X568940Y437714D01*
X567593Y436367D01*
X566940Y434790D01*
X565047D01*
X563287Y434061D01*
X561939Y432713D01*
X561210Y430953D01*
Y429047D01*
X561939Y427287D01*
X563287Y425939D01*
X565047Y425210D01*
X566953D01*
X568713Y425939D01*
X570061Y427287D01*
X570714Y428863D01*
X572606D01*
X574367Y429593D01*
X575459Y430685D01*
X575782Y430362D01*
X577542Y429633D01*
X579448D01*
X581209Y430362D01*
X582556Y431710D01*
X583285Y433470D01*
Y435376D01*
X582556Y437136D01*
X581209Y438484D01*
X579448Y439213D01*
D02*
G37*
G36*
X292953Y437790D02*
X291047D01*
X289287Y437061D01*
X287939Y435713D01*
X287210Y433953D01*
Y432047D01*
X287939Y430287D01*
X289287Y428939D01*
X291047Y428210D01*
X292953D01*
X294713Y428939D01*
X296061Y430287D01*
X296790Y432047D01*
Y433953D01*
X296061Y435713D01*
X294713Y437061D01*
X292953Y437790D01*
D02*
G37*
G36*
X242505D02*
X240599D01*
X238839Y437061D01*
X237491Y435713D01*
X236762Y433953D01*
Y432047D01*
X237491Y430287D01*
X238839Y428939D01*
X240599Y428210D01*
X242505D01*
X244265Y428939D01*
X245613Y430287D01*
X246342Y432047D01*
Y433953D01*
X245613Y435713D01*
X244265Y437061D01*
X242505Y437790D01*
D02*
G37*
G36*
X1298183Y435274D02*
X1296277D01*
X1294516Y434544D01*
X1293169Y433197D01*
X1292440Y431437D01*
Y429531D01*
X1293169Y427771D01*
X1294516Y426423D01*
X1296277Y425694D01*
X1298183D01*
X1299943Y426423D01*
X1301291Y427771D01*
X1302020Y429531D01*
Y431437D01*
X1301291Y433197D01*
X1299943Y434544D01*
X1298183Y435274D01*
D02*
G37*
G36*
X828453Y434790D02*
X826547D01*
X824787Y434061D01*
X823439Y432713D01*
X822710Y430953D01*
Y429047D01*
X823439Y427287D01*
X824787Y425939D01*
X826547Y425210D01*
X828453D01*
X830213Y425939D01*
X831561Y427287D01*
X832290Y429047D01*
Y430953D01*
X831561Y432713D01*
X830213Y434061D01*
X828453Y434790D01*
D02*
G37*
G36*
X675953D02*
X674047D01*
X672287Y434061D01*
X670939Y432713D01*
X670210Y430953D01*
Y429047D01*
X670939Y427287D01*
X672287Y425939D01*
X674047Y425210D01*
X675953D01*
X677713Y425939D01*
X679061Y427287D01*
X679790Y429047D01*
Y430953D01*
X679061Y432713D01*
X677713Y434061D01*
X675953Y434790D01*
D02*
G37*
G36*
X1590484Y444516D02*
X1587406Y444110D01*
X1584538Y442923D01*
X1582075Y441033D01*
X1580185Y438570D01*
X1578997Y435702D01*
X1578592Y432624D01*
Y432524D01*
X1578997Y429446D01*
X1580185Y426578D01*
X1582075Y424115D01*
X1584538Y422225D01*
X1587406Y421037D01*
X1590484Y420632D01*
X1593562Y421037D01*
X1596430Y422225D01*
X1598893Y424115D01*
X1600782Y426578D01*
X1601970Y429446D01*
X1602376Y432524D01*
Y432624D01*
X1601970Y435702D01*
X1600782Y438570D01*
X1598893Y441033D01*
X1596430Y442923D01*
X1593562Y444110D01*
X1590484Y444516D01*
D02*
G37*
G36*
X716953Y423790D02*
X715047D01*
X713287Y423061D01*
X711939Y421713D01*
X711210Y419953D01*
Y418047D01*
X711939Y416287D01*
X713287Y414939D01*
X715047Y414210D01*
X716953D01*
X718713Y414939D01*
X720061Y416287D01*
X720790Y418047D01*
Y419953D01*
X720061Y421713D01*
X718713Y423061D01*
X716953Y423790D01*
D02*
G37*
G36*
X691953Y417976D02*
X690047D01*
X688287Y417247D01*
X686939Y415899D01*
X686210Y414139D01*
Y412233D01*
X686939Y410473D01*
X688287Y409125D01*
X690047Y408396D01*
X690261Y408076D01*
X690210Y407953D01*
Y406047D01*
X690939Y404287D01*
X692287Y402939D01*
X694047Y402210D01*
X695953D01*
X697713Y402939D01*
X699061Y404287D01*
X699790Y406047D01*
Y407953D01*
X699061Y409713D01*
X697713Y411061D01*
X695953Y411790D01*
X695739Y412110D01*
X695790Y412233D01*
Y414139D01*
X695061Y415899D01*
X693713Y417247D01*
X691953Y417976D01*
D02*
G37*
G36*
X707953Y406790D02*
X706047D01*
X704287Y406061D01*
X702939Y404713D01*
X702210Y402953D01*
Y401047D01*
X702939Y399287D01*
X704287Y397939D01*
X706047Y397210D01*
X707953D01*
X709713Y397939D01*
X711061Y399287D01*
X711790Y401047D01*
Y402953D01*
X711061Y404713D01*
X709713Y406061D01*
X707953Y406790D01*
D02*
G37*
G36*
X1590484Y419116D02*
X1587406Y418711D01*
X1584538Y417523D01*
X1582075Y415633D01*
X1580185Y413170D01*
X1578997Y410302D01*
X1578592Y407224D01*
Y407124D01*
X1578997Y404046D01*
X1580185Y401178D01*
X1582075Y398715D01*
X1584538Y396825D01*
X1587406Y395638D01*
X1590484Y395232D01*
X1593562Y395638D01*
X1596430Y396825D01*
X1598893Y398715D01*
X1600782Y401178D01*
X1601970Y404046D01*
X1602376Y407124D01*
Y407224D01*
X1601970Y410302D01*
X1600782Y413170D01*
X1598893Y415633D01*
X1596430Y417523D01*
X1593562Y418711D01*
X1590484Y419116D01*
D02*
G37*
G36*
X390953Y414790D02*
X389047D01*
X387287Y414061D01*
X385939Y412713D01*
X385210Y410953D01*
Y409047D01*
X385939Y407287D01*
X387184Y406042D01*
Y403620D01*
X386448Y403315D01*
X384685Y401552D01*
X383730Y399247D01*
Y396753D01*
X384685Y394448D01*
X386448Y392685D01*
X388753Y391730D01*
X391247D01*
X393552Y392685D01*
X395315Y394448D01*
X396270Y396753D01*
Y399247D01*
X395315Y401552D01*
X393552Y403315D01*
X392816Y403620D01*
Y406042D01*
X394061Y407287D01*
X394790Y409047D01*
Y410953D01*
X394061Y412713D01*
X392713Y414061D01*
X390953Y414790D01*
D02*
G37*
G36*
X278953Y356790D02*
X277047D01*
X275287Y356061D01*
X273939Y354713D01*
X273210Y352953D01*
Y351047D01*
X273939Y349287D01*
X275287Y347939D01*
X277047Y347210D01*
X278953D01*
X280713Y347939D01*
X282061Y349287D01*
X282790Y351047D01*
Y352953D01*
X282061Y354713D01*
X280713Y356061D01*
X278953Y356790D01*
D02*
G37*
G36*
X47269Y366665D02*
X44131D01*
X41101Y365853D01*
X38384Y364284D01*
X36166Y362066D01*
X34597Y359349D01*
X33785Y356319D01*
Y353181D01*
X34597Y350151D01*
X36166Y347434D01*
X38384Y345216D01*
X41101Y343647D01*
X44131Y342835D01*
X47269D01*
X50299Y343647D01*
X53016Y345216D01*
X55234Y347434D01*
X56803Y350151D01*
X57615Y353181D01*
Y356319D01*
X56803Y359349D01*
X55234Y362066D01*
X53016Y364284D01*
X50299Y365853D01*
X47269Y366665D01*
D02*
G37*
G36*
X115013Y370115D02*
X111987D01*
X109018Y369524D01*
X106222Y368366D01*
X103705Y366685D01*
X101565Y364545D01*
X99884Y362028D01*
X98726Y359232D01*
X98135Y356263D01*
Y353237D01*
X98726Y350268D01*
X99884Y347472D01*
X101565Y344955D01*
X103705Y342815D01*
X106222Y341134D01*
X109018Y339975D01*
X111987Y339385D01*
X115013D01*
X117982Y339975D01*
X120778Y341134D01*
X123295Y342815D01*
X125435Y344955D01*
X127116Y347472D01*
X128275Y350268D01*
X128865Y353237D01*
Y356263D01*
X128275Y359232D01*
X127116Y362028D01*
X125435Y364545D01*
X123295Y366685D01*
X120778Y368366D01*
X117982Y369524D01*
X115013Y370115D01*
D02*
G37*
G36*
X139953Y324790D02*
X138047D01*
X136287Y324061D01*
X135500Y323274D01*
X134713Y324061D01*
X132953Y324790D01*
X131047D01*
X129287Y324061D01*
X127939Y322713D01*
X127210Y320953D01*
Y319047D01*
X127939Y317287D01*
X129287Y315939D01*
X131047Y315210D01*
X132953D01*
X134713Y315939D01*
X135500Y316726D01*
X136287Y315939D01*
X138047Y315210D01*
X139953D01*
X141713Y315939D01*
X143061Y317287D01*
X143790Y319047D01*
Y320953D01*
X143061Y322713D01*
X141713Y324061D01*
X139953Y324790D01*
D02*
G37*
G36*
X657953Y323790D02*
X656047D01*
X654287Y323061D01*
X653000Y321774D01*
X651713Y323061D01*
X649953Y323790D01*
X648047D01*
X646287Y323061D01*
X645000Y321774D01*
X643713Y323061D01*
X641953Y323790D01*
X640047D01*
X638287Y323061D01*
X636939Y321713D01*
X636210Y319953D01*
Y318047D01*
X636939Y316287D01*
X638287Y314939D01*
X640047Y314210D01*
X641953D01*
X643713Y314939D01*
X645000Y316226D01*
X646287Y314939D01*
X648047Y314210D01*
X649953D01*
X651713Y314939D01*
X653000Y316226D01*
X654287Y314939D01*
X656047Y314210D01*
X657953D01*
X659713Y314939D01*
X661061Y316287D01*
X661790Y318047D01*
Y319953D01*
X661061Y321713D01*
X659713Y323061D01*
X657953Y323790D01*
D02*
G37*
G36*
X182953Y320790D02*
X181047D01*
X179287Y320061D01*
X177939Y318713D01*
X177210Y316953D01*
Y315193D01*
X171833Y309816D01*
X163249D01*
X162973Y310395D01*
X162860Y311086D01*
X164061Y312287D01*
X164790Y314047D01*
Y315953D01*
X164061Y317713D01*
X162713Y319061D01*
X160953Y319790D01*
X159047D01*
X157287Y319061D01*
X155939Y317713D01*
X155210Y315953D01*
Y314047D01*
X155939Y312287D01*
X157140Y311086D01*
X157027Y310395D01*
X156750Y309816D01*
X128000D01*
X126922Y309602D01*
X126009Y308991D01*
X123807Y306790D01*
X122047D01*
X120287Y306061D01*
X118939Y304713D01*
X118210Y302953D01*
Y301047D01*
X118939Y299287D01*
X120287Y297939D01*
X122047Y297210D01*
X123953D01*
X125713Y297939D01*
X127061Y299287D01*
X127790Y301047D01*
Y302807D01*
X129166Y304184D01*
X173000D01*
X174078Y304398D01*
X174991Y305009D01*
X181193Y311210D01*
X182953D01*
X184713Y311939D01*
X185958Y313184D01*
X363768D01*
X366443Y310509D01*
X367357Y309898D01*
X368434Y309684D01*
X391114D01*
X391400Y309347D01*
X391815Y308414D01*
X391210Y306953D01*
Y305193D01*
X376599Y290582D01*
X375523Y291301D01*
X375966Y292371D01*
Y294277D01*
X375237Y296037D01*
X373889Y297385D01*
X372129Y298114D01*
X370223D01*
X370060Y298046D01*
X366537Y301569D01*
Y302953D01*
X365807Y304713D01*
X364460Y306061D01*
X362700Y306790D01*
X360794D01*
X359033Y306061D01*
X357686Y304713D01*
X356957Y302953D01*
Y301047D01*
X357686Y299287D01*
X359033Y297939D01*
X360794Y297210D01*
X362700D01*
X362863Y297278D01*
X366386Y293755D01*
Y292371D01*
X367115Y290611D01*
X368463Y289263D01*
X370223Y288534D01*
X372129D01*
X373199Y288977D01*
X373918Y287901D01*
X370834Y284816D01*
X365958D01*
X364713Y286061D01*
X362953Y286790D01*
X361047D01*
X359287Y286061D01*
X357939Y284713D01*
X357210Y282953D01*
Y281047D01*
X357939Y279287D01*
X359287Y277939D01*
X361047Y277210D01*
X362953D01*
X364713Y277939D01*
X365958Y279184D01*
X372000D01*
X373078Y279398D01*
X373991Y280009D01*
X395193Y301210D01*
X396953D01*
X398713Y301939D01*
X400061Y303287D01*
X400790Y305047D01*
Y306953D01*
X400061Y308713D01*
X399524Y309250D01*
X400061Y309787D01*
X400790Y311547D01*
Y313453D01*
X400061Y315213D01*
X398713Y316561D01*
X396953Y317290D01*
X395047D01*
X393287Y316561D01*
X392042Y315316D01*
X369601D01*
X366926Y317991D01*
X366012Y318602D01*
X364934Y318816D01*
X185958D01*
X184713Y320061D01*
X182953Y320790D01*
D02*
G37*
G36*
X198953Y311790D02*
X197047D01*
X195287Y311061D01*
X193939Y309713D01*
X193210Y307953D01*
Y306047D01*
X193939Y304287D01*
X195287Y302939D01*
X197047Y302210D01*
X198953D01*
X200713Y302939D01*
X202061Y304287D01*
X202790Y306047D01*
Y307953D01*
X202061Y309713D01*
X200713Y311061D01*
X198953Y311790D01*
D02*
G37*
G36*
X1590500Y315492D02*
X1587422Y315086D01*
X1584554Y313899D01*
X1582091Y312009D01*
X1580202Y309546D01*
X1579014Y306678D01*
X1578608Y303600D01*
Y303500D01*
X1579014Y300422D01*
X1580202Y297554D01*
X1582091Y295091D01*
X1584554Y293202D01*
X1587422Y292013D01*
X1590500Y291608D01*
X1593578Y292013D01*
X1596446Y293202D01*
X1598909Y295091D01*
X1600798Y297554D01*
X1601987Y300422D01*
X1602392Y303500D01*
Y303600D01*
X1601987Y306678D01*
X1600798Y309546D01*
X1598909Y312009D01*
X1596446Y313899D01*
X1593578Y315086D01*
X1590500Y315492D01*
D02*
G37*
G36*
X277953Y287790D02*
X276047D01*
X274287Y287061D01*
X272939Y285713D01*
X272210Y283953D01*
Y282047D01*
X272939Y280287D01*
X274287Y278939D01*
X276047Y278210D01*
X277953D01*
X279713Y278939D01*
X281061Y280287D01*
X281790Y282047D01*
Y283953D01*
X281061Y285713D01*
X279713Y287061D01*
X277953Y287790D01*
D02*
G37*
G36*
X265953D02*
X264047D01*
X262287Y287061D01*
X260939Y285713D01*
X260210Y283953D01*
Y282047D01*
X260939Y280287D01*
X262287Y278939D01*
X264047Y278210D01*
X265953D01*
X267713Y278939D01*
X269061Y280287D01*
X269790Y282047D01*
Y283953D01*
X269061Y285713D01*
X267713Y287061D01*
X265953Y287790D01*
D02*
G37*
G36*
X374953Y277790D02*
X373047D01*
X371287Y277061D01*
X369939Y275713D01*
X369210Y273953D01*
Y272047D01*
X369939Y270287D01*
X371287Y268939D01*
X373047Y268210D01*
X374953D01*
X376713Y268939D01*
X378061Y270287D01*
X378790Y272047D01*
Y273953D01*
X378061Y275713D01*
X376713Y277061D01*
X374953Y277790D01*
D02*
G37*
G36*
X38022Y282290D02*
X35378D01*
X32825Y281606D01*
X30535Y280284D01*
X28666Y278415D01*
X27344Y276125D01*
X26660Y273572D01*
Y270928D01*
X27344Y268375D01*
X28666Y266085D01*
X30535Y264216D01*
X32825Y262894D01*
X35378Y262210D01*
X38022D01*
X40575Y262894D01*
X42865Y264216D01*
X44734Y266085D01*
X46056Y268375D01*
X46740Y270928D01*
Y273572D01*
X46056Y276125D01*
X44734Y278415D01*
X42865Y280284D01*
X40575Y281606D01*
X38022Y282290D01*
D02*
G37*
G36*
X1590500Y273642D02*
X1587422Y273237D01*
X1584554Y272048D01*
X1582091Y270159D01*
X1580202Y267696D01*
X1579014Y264828D01*
X1578608Y261750D01*
Y261650D01*
X1579014Y258572D01*
X1580202Y255704D01*
X1582091Y253241D01*
X1584554Y251352D01*
X1587422Y250163D01*
X1590500Y249758D01*
X1593578Y250163D01*
X1596446Y251352D01*
X1598909Y253241D01*
X1600798Y255704D01*
X1601987Y258572D01*
X1602392Y261650D01*
Y261750D01*
X1601987Y264828D01*
X1600798Y267696D01*
X1598909Y270159D01*
X1596446Y272048D01*
X1593578Y273237D01*
X1590500Y273642D01*
D02*
G37*
G36*
Y248242D02*
X1587422Y247836D01*
X1584554Y246649D01*
X1582091Y244759D01*
X1580202Y242296D01*
X1579014Y239428D01*
X1578608Y236350D01*
Y236250D01*
X1579014Y233172D01*
X1580202Y230304D01*
X1582091Y227841D01*
X1584554Y225951D01*
X1587422Y224764D01*
X1590500Y224358D01*
X1593578Y224764D01*
X1596446Y225951D01*
X1598909Y227841D01*
X1600798Y230304D01*
X1601987Y233172D01*
X1602392Y236250D01*
Y236350D01*
X1601987Y239428D01*
X1600798Y242296D01*
X1598909Y244759D01*
X1596446Y246649D01*
X1593578Y247836D01*
X1590500Y248242D01*
D02*
G37*
G36*
X445953Y189790D02*
X444047D01*
X442287Y189061D01*
X440939Y187713D01*
X440687Y187105D01*
X439313D01*
X439061Y187713D01*
X437713Y189061D01*
X435953Y189790D01*
X434047D01*
X432287Y189061D01*
X430939Y187713D01*
X430210Y185953D01*
Y184047D01*
X430939Y182287D01*
X432287Y180939D01*
X432895Y180687D01*
Y179313D01*
X432287Y179061D01*
X430939Y177713D01*
X430210Y175953D01*
Y174047D01*
X430939Y172287D01*
X432287Y170939D01*
X432895Y170687D01*
Y169313D01*
X432287Y169061D01*
X430939Y167713D01*
X430210Y165953D01*
Y164047D01*
X430939Y162287D01*
X432287Y160939D01*
X432895Y160687D01*
Y159313D01*
X432287Y159061D01*
X430939Y157713D01*
X430210Y155953D01*
Y154047D01*
X430939Y152287D01*
X432287Y150939D01*
X432895Y150687D01*
Y149313D01*
X432287Y149061D01*
X430939Y147713D01*
X430210Y145953D01*
Y144047D01*
X430939Y142287D01*
X432287Y140939D01*
X432895Y140687D01*
Y139313D01*
X432287Y139061D01*
X430939Y137713D01*
X430210Y135953D01*
Y134047D01*
X430939Y132287D01*
X432287Y130939D01*
X432895Y130687D01*
Y129313D01*
X432287Y129061D01*
X430939Y127713D01*
X430210Y125953D01*
Y124047D01*
X430939Y122287D01*
X432287Y120939D01*
X432895Y120687D01*
Y119313D01*
X432287Y119061D01*
X430939Y117713D01*
X430210Y115953D01*
Y114047D01*
X430939Y112287D01*
X432287Y110939D01*
X432895Y110687D01*
Y109313D01*
X432287Y109061D01*
X430939Y107713D01*
X430210Y105953D01*
Y104047D01*
X430939Y102287D01*
X432287Y100939D01*
X434047Y100210D01*
X435953D01*
X437713Y100939D01*
X439061Y102287D01*
X439313Y102895D01*
X440687D01*
X440939Y102287D01*
X442287Y100939D01*
X444047Y100210D01*
X445953D01*
X447713Y100939D01*
X449061Y102287D01*
X449790Y104047D01*
Y105953D01*
X449061Y107713D01*
X447713Y109061D01*
X447105Y109313D01*
Y110687D01*
X447713Y110939D01*
X449061Y112287D01*
X449790Y114047D01*
Y115953D01*
X449061Y117713D01*
X447713Y119061D01*
X447105Y119313D01*
Y120687D01*
X447713Y120939D01*
X449061Y122287D01*
X449790Y124047D01*
Y125953D01*
X449061Y127713D01*
X447713Y129061D01*
X447105Y129313D01*
Y130687D01*
X447713Y130939D01*
X449061Y132287D01*
X449790Y134047D01*
Y135953D01*
X449061Y137713D01*
X447713Y139061D01*
X447105Y139313D01*
Y140687D01*
X447713Y140939D01*
X449061Y142287D01*
X449790Y144047D01*
Y145953D01*
X449061Y147713D01*
X447713Y149061D01*
X447105Y149313D01*
Y150687D01*
X447713Y150939D01*
X449061Y152287D01*
X449790Y154047D01*
Y155953D01*
X449061Y157713D01*
X447713Y159061D01*
X447105Y159313D01*
Y160687D01*
X447713Y160939D01*
X449061Y162287D01*
X449790Y164047D01*
Y165953D01*
X449061Y167713D01*
X447713Y169061D01*
X447105Y169313D01*
Y170687D01*
X447713Y170939D01*
X449061Y172287D01*
X449790Y174047D01*
Y175953D01*
X449061Y177713D01*
X447713Y179061D01*
X447105Y179313D01*
Y180687D01*
X447713Y180939D01*
X449061Y182287D01*
X449790Y184047D01*
Y185953D01*
X449061Y187713D01*
X447713Y189061D01*
X445953Y189790D01*
D02*
G37*
G36*
X47269Y201665D02*
X44131D01*
X41101Y200853D01*
X38384Y199284D01*
X36166Y197066D01*
X34597Y194349D01*
X33785Y191319D01*
Y188181D01*
X34597Y185151D01*
X36166Y182434D01*
X38384Y180216D01*
X41101Y178647D01*
X44131Y177835D01*
X47269D01*
X50299Y178647D01*
X53016Y180216D01*
X55234Y182434D01*
X56803Y185151D01*
X57615Y188181D01*
Y191319D01*
X56803Y194349D01*
X55234Y197066D01*
X53016Y199284D01*
X50299Y200853D01*
X47269Y201665D01*
D02*
G37*
G36*
X115013Y205115D02*
X111987D01*
X109018Y204524D01*
X106222Y203366D01*
X103705Y201685D01*
X101565Y199545D01*
X99884Y197028D01*
X98726Y194232D01*
X98135Y191263D01*
Y188237D01*
X98726Y185268D01*
X99884Y182472D01*
X101565Y179955D01*
X103705Y177815D01*
X106222Y176134D01*
X109018Y174975D01*
X111987Y174385D01*
X115013D01*
X117982Y174975D01*
X120778Y176134D01*
X123295Y177815D01*
X125435Y179955D01*
X127116Y182472D01*
X128275Y185268D01*
X128865Y188237D01*
Y191263D01*
X128275Y194232D01*
X127116Y197028D01*
X125435Y199545D01*
X123295Y201685D01*
X120778Y203366D01*
X117982Y204524D01*
X115013Y205115D01*
D02*
G37*
G36*
X583625Y209790D02*
X579875D01*
X576196Y209058D01*
X572731Y207623D01*
X569613Y205539D01*
X566961Y202887D01*
X564877Y199769D01*
X563442Y196304D01*
X562710Y192625D01*
Y188875D01*
X563442Y185196D01*
X564877Y181731D01*
X566961Y178613D01*
X569613Y175961D01*
X572731Y173877D01*
X576196Y172442D01*
X579875Y171710D01*
X583625D01*
X587304Y172442D01*
X590769Y173877D01*
X593887Y175961D01*
X596539Y178613D01*
X598623Y181731D01*
X600058Y185196D01*
X600790Y188875D01*
Y192625D01*
X600058Y196304D01*
X598623Y199769D01*
X596539Y202887D01*
X593887Y205539D01*
X590769Y207623D01*
X587304Y209058D01*
X583625Y209790D01*
D02*
G37*
G36*
X1290125Y209790D02*
X1286375D01*
X1282696Y209058D01*
X1279231Y207623D01*
X1276113Y205539D01*
X1273461Y202887D01*
X1271377Y199769D01*
X1269942Y196304D01*
X1269210Y192625D01*
Y188875D01*
X1269942Y185196D01*
X1271377Y181731D01*
X1273461Y178613D01*
X1276113Y175961D01*
X1279231Y173877D01*
X1282696Y172442D01*
X1286375Y171710D01*
X1290125D01*
X1293804Y172442D01*
X1297269Y173877D01*
X1300387Y175961D01*
X1303039Y178613D01*
X1305123Y181731D01*
X1306558Y185196D01*
X1307290Y188875D01*
Y192625D01*
X1306558Y196304D01*
X1305123Y199769D01*
X1303039Y202887D01*
X1300387Y205539D01*
X1297269Y207623D01*
X1293804Y209058D01*
X1290125Y209790D01*
D02*
G37*
G36*
X542247Y127270D02*
X539753D01*
X537448Y126315D01*
X535685Y124552D01*
X535380Y123816D01*
X532958D01*
X531713Y125061D01*
X529953Y125790D01*
X528047D01*
X526287Y125061D01*
X524939Y123713D01*
X524210Y121953D01*
Y120047D01*
X524939Y118287D01*
X526287Y116939D01*
X528047Y116210D01*
X529953D01*
X531713Y116939D01*
X532958Y118184D01*
X535380D01*
X535685Y117448D01*
X537448Y115685D01*
X539753Y114730D01*
X542247D01*
X544552Y115685D01*
X546315Y117448D01*
X547270Y119753D01*
Y122247D01*
X546315Y124552D01*
X544552Y126315D01*
X542247Y127270D01*
D02*
G37*
%LPD*%
G36*
X1491000Y612000D02*
Y544000D01*
X1496000Y539000D01*
X1568000D01*
Y508000D01*
X1560000Y500000D01*
Y400000D01*
X1546000Y400000D01*
X1546000Y409000D01*
X1548412D01*
X1548796Y409384D01*
X1548953D01*
X1550713Y410113D01*
X1552061Y411461D01*
X1552790Y413221D01*
Y415127D01*
X1552061Y416887D01*
X1550750Y418198D01*
Y421550D01*
X1552061Y422861D01*
X1552790Y424621D01*
Y426527D01*
X1552061Y428287D01*
X1550713Y429635D01*
X1548953Y430364D01*
X1547801D01*
X1440000Y538165D01*
X1440000Y607500D01*
X1375000Y672500D01*
X1052500Y672500D01*
X885000Y505000D01*
X608318D01*
X607832Y506173D01*
X607978Y506319D01*
X608707Y508080D01*
Y509985D01*
X607978Y511746D01*
X606630Y513093D01*
X604870Y513823D01*
X602964D01*
X601204Y513093D01*
X599856Y511746D01*
X599127Y509985D01*
Y509438D01*
X597841Y508905D01*
X596493Y507557D01*
X595764Y505797D01*
Y505000D01*
X580000D01*
X548790Y473790D01*
X548297D01*
X546537Y473061D01*
X545189Y471713D01*
X544460Y469953D01*
Y469460D01*
X480000Y405000D01*
Y291490D01*
X478953Y290790D01*
X477047D01*
X475287Y290061D01*
X473939Y288713D01*
X473210Y286953D01*
Y285047D01*
X473939Y283287D01*
X475287Y281939D01*
X477047Y281210D01*
X478953D01*
X480000Y280510D01*
Y269317D01*
X478730Y268468D01*
X477953Y268790D01*
X476047D01*
X474287Y268061D01*
X472939Y266713D01*
X472210Y264953D01*
Y263047D01*
X472939Y261287D01*
X474287Y259939D01*
X476047Y259210D01*
X477953D01*
X478730Y259532D01*
X480000Y258683D01*
Y253000D01*
X437500D01*
Y322443D01*
X438770Y322695D01*
X438939Y322287D01*
X440287Y320939D01*
X442047Y320210D01*
X443953D01*
X445713Y320939D01*
X447061Y322287D01*
X447790Y324047D01*
Y325953D01*
X447061Y327713D01*
X445713Y329061D01*
X443953Y329790D01*
X442047D01*
X440287Y329061D01*
X438939Y327713D01*
X438770Y327305D01*
X437500Y327557D01*
Y405500D01*
X550663Y518663D01*
X551163D01*
X552923Y519392D01*
X554271Y520740D01*
X555000Y522500D01*
Y523000D01*
X567000Y535000D01*
X574226D01*
X575287Y533939D01*
X577047Y533210D01*
X578953D01*
X580713Y533939D01*
X581774Y535000D01*
X592026D01*
X600226D01*
X601287Y533939D01*
X603047Y533210D01*
X604953D01*
X606713Y533939D01*
X607774Y535000D01*
X614736D01*
X622488D01*
X622956Y533730D01*
X621939Y532713D01*
X621210Y530953D01*
Y529047D01*
X621939Y527287D01*
X623287Y525939D01*
X625047Y525210D01*
X626953D01*
X628713Y525939D01*
X630061Y527287D01*
X630790Y529047D01*
Y530953D01*
X630061Y532713D01*
X629044Y533730D01*
X629512Y535000D01*
X702252Y535000D01*
X702434Y534559D01*
X703782Y533212D01*
X705542Y532482D01*
X707448D01*
X709209Y533212D01*
X710556Y534559D01*
X710739Y535000D01*
X715514D01*
X715559Y534892D01*
X716906Y533545D01*
X718667Y532816D01*
X720573D01*
X722333Y533545D01*
X723680Y534892D01*
X723725Y535000D01*
X822488Y535000D01*
X822956Y533730D01*
X821939Y532713D01*
X821210Y530953D01*
Y529047D01*
X821939Y527287D01*
X823287Y525939D01*
X825047Y525210D01*
X826953D01*
X828713Y525939D01*
X830061Y527287D01*
X830790Y529047D01*
Y530953D01*
X830061Y532713D01*
X829044Y533730D01*
X829512Y535000D01*
X868500D01*
X1038500Y705000D01*
X1398000D01*
X1491000Y612000D01*
D02*
G37*
%LPC*%
G36*
X1483953Y602790D02*
X1482047D01*
X1480287Y602061D01*
X1478939Y600713D01*
X1478210Y598953D01*
Y597047D01*
X1478939Y595287D01*
X1480287Y593939D01*
X1482047Y593210D01*
X1483953D01*
X1485713Y593939D01*
X1487061Y595287D01*
X1487790Y597047D01*
Y598953D01*
X1487061Y600713D01*
X1485713Y602061D01*
X1483953Y602790D01*
D02*
G37*
G36*
Y580790D02*
X1482047D01*
X1480287Y580061D01*
X1478939Y578713D01*
X1478210Y576953D01*
Y575047D01*
X1478939Y573287D01*
X1480287Y571939D01*
X1480895Y571687D01*
Y570313D01*
X1480287Y570061D01*
X1478939Y568713D01*
X1478210Y566953D01*
Y565047D01*
X1478939Y563287D01*
X1480287Y561939D01*
X1482047Y561210D01*
X1483953D01*
X1485713Y561939D01*
X1487061Y563287D01*
X1487790Y565047D01*
Y566953D01*
X1487061Y568713D01*
X1485713Y570061D01*
X1485105Y570313D01*
Y571687D01*
X1485713Y571939D01*
X1487061Y573287D01*
X1487790Y575047D01*
Y576953D01*
X1487061Y578713D01*
X1485713Y580061D01*
X1483953Y580790D01*
D02*
G37*
G36*
Y548790D02*
X1482047D01*
X1480287Y548061D01*
X1478939Y546713D01*
X1478210Y544953D01*
Y543047D01*
X1478939Y541287D01*
X1480287Y539939D01*
X1482047Y539210D01*
X1483953D01*
X1485713Y539939D01*
X1487061Y541287D01*
X1487790Y543047D01*
Y544953D01*
X1487061Y546713D01*
X1485713Y548061D01*
X1483953Y548790D01*
D02*
G37*
G36*
X578953Y517790D02*
X577047D01*
X575287Y517061D01*
X573939Y515713D01*
X573210Y513953D01*
Y512047D01*
X573939Y510287D01*
X575287Y508939D01*
X577047Y508210D01*
X578953D01*
X580713Y508939D01*
X582061Y510287D01*
X582790Y512047D01*
Y513953D01*
X582061Y515713D01*
X580713Y517061D01*
X578953Y517790D01*
D02*
G37*
%LPD*%
G36*
X295000Y569000D02*
X307684Y556316D01*
X307628Y556180D01*
Y554274D01*
X308357Y552514D01*
X309704Y551166D01*
X311465Y550437D01*
X313370D01*
X313507Y550493D01*
X328000Y536000D01*
X328000Y478000D01*
X333500Y472500D01*
X357500D01*
Y460000D01*
X350000Y452500D01*
X307500D01*
X40000Y452500D01*
Y464000D01*
X296500D01*
X310000Y477500D01*
Y483226D01*
X310061Y483287D01*
X310790Y485047D01*
Y486953D01*
X310061Y488713D01*
X310000Y488774D01*
Y526000D01*
X272500Y563500D01*
Y605000D01*
X295000D01*
X295000Y569000D01*
D02*
G37*
D50*
X990000Y35000D02*
D03*
X980000D02*
D03*
X1000000D02*
D03*
X960000D02*
D03*
X970000D02*
D03*
X1040000D02*
D03*
X1030000D02*
D03*
X1050000D02*
D03*
X1020000D02*
D03*
X1010000D02*
D03*
X880000D02*
D03*
X890000D02*
D03*
X900000D02*
D03*
X860000D02*
D03*
X870000D02*
D03*
X930000D02*
D03*
X940000D02*
D03*
X950000D02*
D03*
X910000D02*
D03*
X920000D02*
D03*
X1180000D02*
D03*
X1200000D02*
D03*
X1190000D02*
D03*
X1150000D02*
D03*
X1170000D02*
D03*
X1160000D02*
D03*
X1240000D02*
D03*
X1230000D02*
D03*
X1250000D02*
D03*
X1210000D02*
D03*
X1220000D02*
D03*
X1080000D02*
D03*
X1090000D02*
D03*
X1060000D02*
D03*
X850000D02*
D03*
X1070000D02*
D03*
X1130000D02*
D03*
X1140000D02*
D03*
X1110000D02*
D03*
X1100000D02*
D03*
X1120000D02*
D03*
X580000D02*
D03*
X570000D02*
D03*
X590000D02*
D03*
X550000D02*
D03*
X520000D02*
D03*
X560000D02*
D03*
X630000D02*
D03*
X640000D02*
D03*
X600000D02*
D03*
X620000D02*
D03*
X610000D02*
D03*
X450000D02*
D03*
X460000D02*
D03*
X430000D02*
D03*
X440000D02*
D03*
X510000D02*
D03*
X500000D02*
D03*
X480000D02*
D03*
X470000D02*
D03*
X490000D02*
D03*
X770000D02*
D03*
X790000D02*
D03*
X780000D02*
D03*
X750000D02*
D03*
X740000D02*
D03*
X760000D02*
D03*
X830000D02*
D03*
X820000D02*
D03*
X840000D02*
D03*
X810000D02*
D03*
X800000D02*
D03*
X670000D02*
D03*
X660000D02*
D03*
X680000D02*
D03*
X650000D02*
D03*
X720000D02*
D03*
X730000D02*
D03*
X700000D02*
D03*
X690000D02*
D03*
X710000D02*
D03*
D51*
X420000Y40000D02*
D03*
D102*
X431474Y488821D02*
G03*
X438844Y488815I3688J3676D01*
G01*
X429632Y490663D02*
G03*
X427297Y490663I-1167J-1167D01*
G01*
X424962Y488329D02*
G03*
X424962Y485994I1167J-1167D01*
G01*
X426816Y484140D02*
G03*
X426811Y484145I-3688J-3676D01*
G01*
X426811Y476782D02*
G03*
X427331Y483538I-3682J3682D01*
G01*
X433995Y491330D02*
G03*
X436330Y491330I1167J1167D01*
G01*
X432146Y493178D02*
G03*
X424783Y493178I-3682J-3682D01*
G01*
X422448Y490843D02*
G03*
X422448Y483479I3682J-3682D01*
G01*
X424288Y481639D02*
G03*
X424291Y481636I1265J1249D01*
G01*
X424296Y479296D02*
G03*
X424291Y481636I-1167J1167D01*
G01*
X1310849Y245439D02*
G03*
X1312500Y247090I0J1651D01*
G01*
X1310147Y245439D02*
G03*
X1308496Y243788I0J-1651D01*
G01*
Y240486D02*
G03*
X1310147Y238835I1651J0D01*
G01*
X1312500Y237184D02*
G03*
X1310849Y238835I-1651J0D01*
G01*
X930998Y218944D02*
G03*
X929347Y217293I0J-1651D01*
G01*
X924140Y212086D02*
G03*
X929347Y217293I0J5207D01*
G01*
X915631D02*
G03*
X920838Y212086I5207J0D01*
G01*
X915631Y222736D02*
G03*
X913980Y224387I-1651J0D01*
G01*
X910678D02*
G03*
X909027Y222736I0J-1651D01*
G01*
X903820Y210054D02*
G03*
X909027Y215261I0J5207D01*
G01*
X895311D02*
G03*
X900518Y210054I5207J0D01*
G01*
X895311Y226183D02*
G03*
X893660Y227834I-1651J0D01*
G01*
X890358D02*
G03*
X888707Y226183I0J-1651D01*
G01*
X883500Y210054D02*
G03*
X888707Y215261I0J5207D01*
G01*
X874991D02*
G03*
X880198Y210054I5207J0D01*
G01*
X874991Y226183D02*
G03*
X873340Y227834I-1651J0D01*
G01*
X870038D02*
G03*
X868387Y226183I0J-1651D01*
G01*
X863180Y210054D02*
G03*
X868387Y215261I0J5207D01*
G01*
X854671D02*
G03*
X859878Y210054I5207J0D01*
G01*
X854671Y226183D02*
G03*
X853020Y227834I-1651J0D01*
G01*
X849718D02*
G03*
X848067Y226183I0J-1651D01*
G01*
X842860Y210054D02*
G03*
X848067Y215261I0J5207D01*
G01*
X834351D02*
G03*
X839558Y210054I5207J0D01*
G01*
X834351Y226183D02*
G03*
X832700Y227834I-1651J0D01*
G01*
X829398D02*
G03*
X827747Y226183I0J-1651D01*
G01*
X822540Y218944D02*
G03*
X827747Y224151I0J5207D01*
G01*
X930998Y222500D02*
G03*
X925791Y217293I0J-5207D01*
G01*
X924140Y215642D02*
G03*
X925791Y217293I0J1651D01*
G01*
X919187D02*
G03*
X920838Y215642I1651J0D01*
G01*
X919187Y222736D02*
G03*
X913980Y227943I-5207J0D01*
G01*
X910678D02*
G03*
X905471Y222736I0J-5207D01*
G01*
X903820Y213610D02*
G03*
X905471Y215261I0J1651D01*
G01*
X898867D02*
G03*
X900518Y213610I1651J0D01*
G01*
X898867Y226183D02*
G03*
X893660Y231390I-5207J0D01*
G01*
X890358D02*
G03*
X885151Y226183I0J-5207D01*
G01*
X883500Y213610D02*
G03*
X885151Y215261I0J1651D01*
G01*
X878547D02*
G03*
X880198Y213610I1651J0D01*
G01*
X878547Y226183D02*
G03*
X873340Y231390I-5207J0D01*
G01*
X870038D02*
G03*
X864831Y226183I0J-5207D01*
G01*
X863180Y213610D02*
G03*
X864831Y215261I0J1651D01*
G01*
X858227D02*
G03*
X859878Y213610I1651J0D01*
G01*
X858227Y226183D02*
G03*
X853020Y231390I-5207J0D01*
G01*
X849718D02*
G03*
X844511Y226183I0J-5207D01*
G01*
X842860Y213610D02*
G03*
X844511Y215261I0J1651D01*
G01*
X837907D02*
G03*
X839558Y213610I1651J0D01*
G01*
X837907Y226183D02*
G03*
X832700Y231390I-5207J0D01*
G01*
X829398D02*
G03*
X824191Y226183I0J-5207D01*
G01*
X822540Y222500D02*
G03*
X824191Y224151I0J1651D01*
G01*
X934951Y186179D02*
G03*
X940158Y180972I5207J0D01*
G01*
X934951Y186179D02*
G03*
X933300Y187830I-1651J0D01*
G01*
X929998D02*
G03*
X928347Y186179I0J-1651D01*
G01*
X923140Y170734D02*
G03*
X928347Y175940I0J5207D01*
G01*
X914631D02*
G03*
X919838Y170734I5207J0D01*
G01*
X914631Y188211D02*
G03*
X912980Y189862I-1651J0D01*
G01*
X909678D02*
G03*
X908027Y188211I0J-1651D01*
G01*
X902820Y170390D02*
G03*
X908027Y175597I0J5207D01*
G01*
X894311D02*
G03*
X899518Y170390I5207J0D01*
G01*
X894311Y188211D02*
G03*
X892660Y189862I-1651J0D01*
G01*
X889358D02*
G03*
X887707Y188211I0J-1651D01*
G01*
X882500Y170390D02*
G03*
X887707Y175597I0J5207D01*
G01*
X873991D02*
G03*
X879198Y170390I5207J0D01*
G01*
X873991Y188211D02*
G03*
X872340Y189862I-1651J0D01*
G01*
X869038D02*
G03*
X867387Y188211I0J-1651D01*
G01*
X862180Y170390D02*
G03*
X867387Y175597I0J5207D01*
G01*
X853671D02*
G03*
X858878Y170390I5207J0D01*
G01*
X853671Y188211D02*
G03*
X852020Y189862I-1651J0D01*
G01*
X848718D02*
G03*
X847067Y188211I0J-1651D01*
G01*
X841860Y170390D02*
G03*
X847067Y175597I0J5207D01*
G01*
X833351D02*
G03*
X838558Y170390I5207J0D01*
G01*
X833351Y188211D02*
G03*
X831700Y189862I-1651J0D01*
G01*
X828398D02*
G03*
X826747Y188211I0J-1651D01*
G01*
X821540Y180972D02*
G03*
X826747Y186179I0J5207D01*
G01*
X938507D02*
G03*
X940158Y184528I1651J0D01*
G01*
X938507Y186179D02*
G03*
X933300Y191386I-5207J0D01*
G01*
X929998D02*
G03*
X924791Y186179I0J-5207D01*
G01*
X923140Y174289D02*
G03*
X924791Y175940I0J1651D01*
G01*
X918187D02*
G03*
X919838Y174289I1651J0D01*
G01*
X918187Y188211D02*
G03*
X912980Y193418I-5207J0D01*
G01*
X909678D02*
G03*
X904471Y188211I0J-5207D01*
G01*
X902820Y173946D02*
G03*
X904471Y175597I0J1651D01*
G01*
X897867D02*
G03*
X899518Y173946I1651J0D01*
G01*
X897867Y188211D02*
G03*
X892660Y193418I-5207J0D01*
G01*
X889358D02*
G03*
X884151Y188211I0J-5207D01*
G01*
X882500Y173946D02*
G03*
X884151Y175597I0J1651D01*
G01*
X877547D02*
G03*
X879198Y173946I1651J0D01*
G01*
X877547Y188211D02*
G03*
X872340Y193418I-5207J0D01*
G01*
X869038D02*
G03*
X863831Y188211I0J-5207D01*
G01*
X862180Y173946D02*
G03*
X863831Y175597I0J1651D01*
G01*
X857227D02*
G03*
X858878Y173946I1651J0D01*
G01*
X857227Y188211D02*
G03*
X852020Y193418I-5207J0D01*
G01*
X848718D02*
G03*
X843511Y188211I0J-5207D01*
G01*
X841860Y173946D02*
G03*
X843511Y175597I0J1651D01*
G01*
X836907D02*
G03*
X838558Y173946I1651J0D01*
G01*
X836907Y188211D02*
G03*
X831700Y193418I-5207J0D01*
G01*
X828398D02*
G03*
X823191Y188211I0J-5207D01*
G01*
X821540Y184528D02*
G03*
X823191Y186179I0J1651D01*
G01*
X956827Y251179D02*
G03*
X962034Y245972I5207J0D01*
G01*
X956827Y254677D02*
G03*
X955176Y256328I-1651J0D01*
G01*
X951874D02*
G03*
X950223Y254677I0J-1651D01*
G01*
X945016Y244557D02*
G03*
X950223Y249764I0J5207D01*
G01*
X936507D02*
G03*
X941714Y244557I5207J0D01*
G01*
X936507Y260403D02*
G03*
X934856Y262054I-1651J0D01*
G01*
X931554D02*
G03*
X929903Y260403I0J-1651D01*
G01*
X924696Y244557D02*
G03*
X929903Y249764I0J5207D01*
G01*
X916187D02*
G03*
X921394Y244557I5207J0D01*
G01*
X916187Y260403D02*
G03*
X914536Y262054I-1651J0D01*
G01*
X911234D02*
G03*
X909583Y260403I0J-1651D01*
G01*
X904376Y244557D02*
G03*
X909583Y249764I0J5207D01*
G01*
X895867D02*
G03*
X901074Y244557I5207J0D01*
G01*
X895867Y260403D02*
G03*
X894216Y262054I-1651J0D01*
G01*
X890914D02*
G03*
X889263Y260403I0J-1651D01*
G01*
X884056Y244557D02*
G03*
X889263Y249764I0J5207D01*
G01*
X875547D02*
G03*
X880754Y244557I5207J0D01*
G01*
X875547Y260403D02*
G03*
X873896Y262054I-1651J0D01*
G01*
X870594D02*
G03*
X868943Y260403I0J-1651D01*
G01*
X863736Y244557D02*
G03*
X868943Y249764I0J5207D01*
G01*
X855227D02*
G03*
X860434Y244557I5207J0D01*
G01*
X855227Y260403D02*
G03*
X853576Y262054I-1651J0D01*
G01*
X850274D02*
G03*
X848623Y260403I0J-1651D01*
G01*
X843416Y244557D02*
G03*
X848623Y249764I0J5207D01*
G01*
X834907D02*
G03*
X840114Y244557I5207J0D01*
G01*
X834907Y260403D02*
G03*
X833256Y262054I-1651J0D01*
G01*
X829954D02*
G03*
X828303Y260403I0J-1651D01*
G01*
X823096Y245972D02*
G03*
X828303Y251179I0J5207D01*
G01*
X960383D02*
G03*
X962034Y249528I1651J0D01*
G01*
X960383Y254677D02*
G03*
X955176Y259884I-5207J0D01*
G01*
X951874D02*
G03*
X946667Y254677I0J-5207D01*
G01*
X945016Y248113D02*
G03*
X946667Y249764I0J1651D01*
G01*
X940063D02*
G03*
X941714Y248113I1651J0D01*
G01*
X940063Y260403D02*
G03*
X934856Y265610I-5207J0D01*
G01*
X931554D02*
G03*
X926347Y260403I0J-5207D01*
G01*
X924696Y248113D02*
G03*
X926347Y249764I0J1651D01*
G01*
X919743D02*
G03*
X921394Y248113I1651J0D01*
G01*
X919743Y260403D02*
G03*
X914536Y265610I-5207J0D01*
G01*
X911234D02*
G03*
X906027Y260403I0J-5207D01*
G01*
X904376Y248113D02*
G03*
X906027Y249764I0J1651D01*
G01*
X899423D02*
G03*
X901074Y248113I1651J0D01*
G01*
X899423Y260403D02*
G03*
X894216Y265610I-5207J0D01*
G01*
X890914D02*
G03*
X885707Y260403I0J-5207D01*
G01*
X884056Y248113D02*
G03*
X885707Y249764I0J1651D01*
G01*
X879103D02*
G03*
X880754Y248113I1651J0D01*
G01*
X879103Y260403D02*
G03*
X873896Y265610I-5207J0D01*
G01*
X870594D02*
G03*
X865387Y260403I0J-5207D01*
G01*
X863736Y248113D02*
G03*
X865387Y249764I0J1651D01*
G01*
X858783D02*
G03*
X860434Y248113I1651J0D01*
G01*
X858783Y260403D02*
G03*
X853576Y265610I-5207J0D01*
G01*
X850274D02*
G03*
X845067Y260403I0J-5207D01*
G01*
X843416Y248113D02*
G03*
X845067Y249764I0J1651D01*
G01*
X838463D02*
G03*
X840114Y248113I1651J0D01*
G01*
X838463Y260403D02*
G03*
X833256Y265610I-5207J0D01*
G01*
X829954D02*
G03*
X824747Y260403I0J-5207D01*
G01*
X823096Y249528D02*
G03*
X824747Y251179I0J1651D01*
G01*
X1287553Y327524D02*
G03*
X1289077Y329048I0J1524D01*
G01*
X1290411Y332599D02*
G03*
X1289077Y331266I0J-1333D01*
G01*
X1294411D02*
G03*
X1293078Y332599I-1333J0D01*
G01*
X1294411Y329366D02*
G03*
X1295745Y328032I1333J0D01*
G01*
X1298412D02*
G03*
X1299745Y329366I0J1333D01*
G01*
X1301079Y334224D02*
G03*
X1299745Y332890I0J-1333D01*
G01*
X1305079D02*
G03*
X1303746Y334224I-1333J0D01*
G01*
X1305079Y329048D02*
G03*
X1306603Y327524I1524J0D01*
G01*
X1335849Y202017D02*
G03*
X1337500Y203668I0J1651D01*
G01*
X1334822Y202017D02*
G03*
X1333171Y200366I0J-1651D01*
G01*
Y197064D02*
G03*
X1334822Y195413I1651J0D01*
G01*
X1337500Y193762D02*
G03*
X1335849Y195413I-1651J0D01*
G01*
X128000Y307000D02*
X173000D01*
X123000Y302000D02*
X128000Y307000D01*
X708000Y361000D02*
X784000Y437000D01*
Y499000D01*
X368434Y312500D02*
X396000D01*
X364934Y316000D02*
X368434Y312500D01*
X182000Y316000D02*
X364934D01*
X362000Y282000D02*
X372000D01*
X396000Y306000D01*
X552000Y437000D02*
X571000Y456000D01*
X444015Y493985D02*
X444015D01*
X438844Y488815D02*
X444015Y493985D01*
X429632Y490663D02*
X431474Y488821D01*
X429632Y490663D02*
X429632Y490663D01*
X427297D02*
X427297D01*
X424962Y488329D02*
X427297Y490663D01*
X424962Y488329D02*
Y488329D01*
X424962Y485994D02*
X425056Y485900D01*
X425056D02*
X426810Y484145D01*
X426816Y484140D02*
X427331Y483625D01*
Y483538D02*
Y483625D01*
X426811Y476782D02*
X426811D01*
X425014Y474986D02*
X426811Y476782D01*
X425014Y474986D02*
X425014D01*
X436330Y491330D02*
X441500Y496500D01*
X436330Y491330D02*
X436330D01*
X432240Y493084D02*
X433995Y491330D01*
X432146Y493178D02*
X432240Y493084D01*
X432146Y493178D02*
X432146Y493178D01*
X424783Y493178D02*
Y493178D01*
X422448Y490843D02*
X424783Y493178D01*
X422448Y483479D02*
X424288Y481639D01*
X424296Y479296D02*
Y479296D01*
X422500Y477500D02*
X424296Y479296D01*
X444015Y493985D02*
X578701Y628672D01*
X416595Y466566D02*
X425014Y474986D01*
X441500Y496500D02*
X575145Y630145D01*
X415527Y470527D02*
X422500Y477500D01*
X412996Y279025D02*
Y467996D01*
X416552Y466523D02*
X416595Y466566D01*
X355972Y216972D02*
X416552Y277552D01*
X413039Y468039D02*
X414080Y469080D01*
X354499Y220528D02*
X412996Y279025D01*
X413039Y468039D02*
Y468039D01*
X412996Y467996D02*
X413039Y468039D01*
X416552Y277552D02*
Y466523D01*
X416595Y466566D02*
Y466566D01*
X414080Y469080D02*
Y469080D01*
X415527Y470527D01*
X415527D01*
X575145Y630145D02*
Y630145D01*
X577228Y632228D01*
X578701Y628672D02*
Y628672D01*
X577228Y632228D02*
X598676D01*
X578701Y628672D02*
X598676D01*
X600931Y633131D02*
X601500Y633700D01*
X599579Y633131D02*
X600931D01*
X598676Y628672D02*
X599579Y627769D01*
X600931D01*
X601500Y627200D01*
X598676Y632228D02*
X599579Y633131D01*
X606349Y436000D02*
X634261D01*
X634495Y436234D01*
X631300Y430552D02*
X631404Y430448D01*
X636552D01*
X642000Y425000D01*
X599287Y443063D02*
X606349Y436000D01*
X605380Y430473D02*
X621641D01*
X621666Y430448D01*
X626596D01*
X626700Y430552D01*
X631300D01*
X609862Y398138D02*
X677862D01*
X612069Y403000D02*
X681000D01*
X593340Y414661D02*
Y431782D01*
Y414661D02*
X609862Y398138D01*
X571000Y456000D02*
X598535D01*
X598634Y455901D01*
X569250Y462500D02*
X598553D01*
X545250Y438500D02*
X569250Y462500D01*
X564000Y469000D02*
X574000D01*
X538824Y547108D02*
X602079D01*
X538824Y543552D02*
X603552D01*
X621616Y566645D02*
Y566645D01*
X625172Y565172D02*
Y565172D01*
X621616Y566645D02*
X623699Y568728D01*
X603552Y543552D02*
X625172Y565172D01*
Y565172D02*
X644426D01*
X602079Y547108D02*
X621616Y566645D01*
X623699Y568728D02*
X644426D01*
X574001Y468999D02*
X598825D01*
X574000Y469000D02*
X574001Y468999D01*
X537921Y542649D02*
X538824Y543552D01*
X536000Y542080D02*
X536569Y542649D01*
X537921Y548011D02*
X538824Y547108D01*
X536569Y542649D02*
X537921D01*
X536569Y548011D02*
X537921D01*
X536000Y548580D02*
X536569Y548011D01*
X598825Y468999D02*
X598826Y468999D01*
X390000Y398000D02*
Y410000D01*
X598891Y416178D02*
X612069Y403000D01*
X598891Y416178D02*
Y429483D01*
X600000Y367500D02*
X705500D01*
X600000Y361000D02*
X708000D01*
X795070Y265042D02*
X890029Y360000D01*
X791515Y266514D02*
X888556Y363556D01*
X1307471Y360000D02*
X1316444Y351027D01*
X1311439Y323968D02*
X1320000Y332529D01*
X890029Y360000D02*
X1307471D01*
X888556Y363556D02*
X1308944D01*
X1320000Y352500D01*
X1271057Y301766D02*
X1315734D01*
X1271069Y298211D02*
X1314261D01*
X1268227Y303221D02*
X1268797Y302652D01*
X1270172D02*
X1271057Y301766D01*
X1268797Y302652D02*
X1270172D01*
X1268251Y296721D02*
X1269056D01*
X1270527Y297669D02*
X1271069Y298211D01*
X1269056Y296721D02*
X1270004Y297669D01*
X1270527D01*
X1268814Y271497D02*
X1269705Y272389D01*
X1302611D01*
X1312500Y262500D01*
X1267698Y277428D02*
X1268646Y276480D01*
X1266893Y277428D02*
X1267698D01*
X1267447Y271497D02*
X1268814D01*
X1316056Y233527D02*
Y263973D01*
X1268646Y276480D02*
X1269177D01*
X1304084Y275945D02*
X1316056Y263973D01*
X1269713Y275945D02*
X1304084D01*
X1269177Y276480D02*
X1269713Y275945D01*
X1253728Y314728D02*
X1265926D01*
X1242460Y303460D02*
X1251645Y312645D01*
X1255201Y311172D02*
Y311172D01*
X1251645Y312645D02*
X1253728Y314728D01*
X1251645Y312645D02*
Y312645D01*
X1243933Y299904D02*
X1255201Y311172D01*
X1148715Y299904D02*
X1243933D01*
X1150188Y303460D02*
X1242460D01*
X1255201Y311172D02*
X1265926D01*
X1315734Y301766D02*
X1341056Y276444D01*
X1314261Y298211D02*
X1337500Y274971D01*
X1341056Y189027D02*
Y276444D01*
X1180829Y328326D02*
X1182181D01*
X1114424Y327423D02*
X1179926D01*
X1182181Y328326D02*
X1182750Y328895D01*
X1179926Y327423D02*
X1180829Y328326D01*
Y322965D02*
X1182181D01*
X1115896Y323867D02*
X1179926D01*
X1182181Y322965D02*
X1182750Y322395D01*
X1179926Y323867D02*
X1180829Y322965D01*
X1104029Y312000D02*
X1115896Y323867D01*
X1102556Y315556D02*
X1114424Y327423D01*
X1069999Y312000D02*
X1104029D01*
X499817Y61183D02*
X500000Y61000D01*
X482000Y76000D02*
X496817Y61183D01*
X482000Y76000D02*
Y149000D01*
X496817Y61183D02*
X499817D01*
X460000Y58000D02*
X466000Y64000D01*
Y103696D01*
X460000Y35000D02*
Y58000D01*
X490000Y35000D02*
Y63000D01*
X478000Y75000D02*
Y137000D01*
Y75000D02*
X490000Y63000D01*
X474000Y63000D02*
X479607Y57393D01*
X474000Y63000D02*
Y126000D01*
X479607Y35393D02*
Y57393D01*
Y35393D02*
X480000Y35000D01*
X460000Y140000D02*
X474000Y126000D01*
X646778Y55722D02*
Y84249D01*
X808501Y245972D01*
X640000Y52500D02*
X643222Y55722D01*
X650000Y35000D02*
Y52500D01*
X643222Y55722D02*
Y85722D01*
X646778Y55722D02*
X650000Y52500D01*
X643222Y85722D02*
X807028Y249528D01*
X460000Y171000D02*
X482000Y149000D01*
X68000Y547750D02*
X82250D01*
X82500Y547500D01*
X67750Y548000D02*
X68000Y547750D01*
X645329Y569631D02*
X646681D01*
X647250Y570200D01*
X644426Y568728D02*
X645329Y569631D01*
X644426Y565172D02*
X645329Y564269D01*
X646681D02*
X647250Y563700D01*
X645329Y564269D02*
X646681D01*
X1312500Y247090D02*
Y250545D01*
X1310147Y245439D02*
X1310849D01*
X1308496Y240486D02*
Y243788D01*
X1310147Y238835D02*
X1310849D01*
X1312500Y236422D02*
Y237184D01*
Y250545D02*
Y262500D01*
Y235000D02*
Y236422D01*
X941012Y218944D02*
X1301473D01*
X941012Y222500D02*
X1300000D01*
X930998Y218944D02*
X941012D01*
X929347Y217293D02*
Y217293D01*
X920838Y212086D02*
X924140D01*
X915631Y217293D02*
Y222736D01*
X910678Y224387D02*
X913980D01*
X909027Y215261D02*
Y222736D01*
X900518Y210054D02*
X903820D01*
X895311Y215261D02*
Y226183D01*
X890358Y227834D02*
X893660D01*
X888707Y215261D02*
Y226183D01*
X880198Y210054D02*
X883500D01*
X874991Y215261D02*
Y226183D01*
X870038Y227834D02*
X873340D01*
X868387Y215261D02*
Y226183D01*
X859878Y210054D02*
X863180D01*
X854671Y215261D02*
Y226183D01*
X849718Y227834D02*
X853020D01*
X848067Y215261D02*
Y226183D01*
X839558Y210054D02*
X842860D01*
X834351Y215261D02*
Y226183D01*
X829398Y227834D02*
X832700D01*
X827747Y224151D02*
Y226183D01*
X820000Y218944D02*
X822540D01*
X930998Y222500D02*
X941012D01*
X925791Y217293D02*
Y217293D01*
X920838Y215642D02*
X924140D01*
X919187Y217293D02*
Y222736D01*
X910678Y227943D02*
X913980D01*
X905471Y215261D02*
Y222736D01*
X900518Y213610D02*
X903820D01*
X898867Y215261D02*
Y226183D01*
X890358Y231390D02*
X893660D01*
X885151Y215261D02*
Y226183D01*
X880198Y213610D02*
X883500D01*
X878547Y215261D02*
Y226183D01*
X870038Y231390D02*
X873340D01*
X864831Y215261D02*
Y226183D01*
X859878Y213610D02*
X863180D01*
X858227Y215261D02*
Y226183D01*
X849718Y231390D02*
X853020D01*
X844511Y215261D02*
Y226183D01*
X839558Y213610D02*
X842860D01*
X837907Y215261D02*
Y226183D01*
X829398Y231390D02*
X832700D01*
X824191Y224151D02*
Y226183D01*
X820000Y222500D02*
X822540D01*
X814944Y218944D02*
X820000D01*
X813471Y222500D02*
X820000D01*
X955806Y180972D02*
X1221176D01*
X955806Y184528D02*
X1221176D01*
X940158Y180972D02*
X955806D01*
X934951Y186179D02*
Y186179D01*
X929998Y187830D02*
X933300D01*
X928347Y175940D02*
Y186179D01*
X919838Y170734D02*
X923140D01*
X914631Y175940D02*
Y188211D01*
X909678Y189862D02*
X912980D01*
X908027Y175597D02*
Y188211D01*
X899518Y170390D02*
X902820D01*
X894311Y175597D02*
Y188211D01*
X889358Y189862D02*
X892660D01*
X887707Y175597D02*
Y188211D01*
X879198Y170390D02*
X882500D01*
X873991Y175597D02*
Y188211D01*
X869038Y189862D02*
X872340D01*
X867387Y175597D02*
Y188211D01*
X858878Y170390D02*
X862180D01*
X853671Y175597D02*
Y188211D01*
X848718Y189862D02*
X852020D01*
X847067Y175597D02*
Y188211D01*
X838558Y170390D02*
X841860D01*
X833351Y175597D02*
Y188211D01*
X828398Y189862D02*
X831700D01*
X826747Y186179D02*
Y188211D01*
X819000Y180972D02*
X821540D01*
X940158Y184528D02*
X955806D01*
X938507Y186179D02*
Y186179D01*
X929998Y191386D02*
X933300D01*
X924791Y175940D02*
Y186179D01*
X919838Y174289D02*
X923140D01*
X918187Y175940D02*
Y188211D01*
X909678Y193418D02*
X912980D01*
X904471Y175597D02*
Y188211D01*
X899518Y173946D02*
X902820D01*
X897867Y175597D02*
Y188211D01*
X889358Y193418D02*
X892660D01*
X884151Y175597D02*
Y188211D01*
X879198Y173946D02*
X882500D01*
X877547Y175597D02*
Y188211D01*
X869038Y193418D02*
X872340D01*
X863831Y175597D02*
Y188211D01*
X858878Y173946D02*
X862180D01*
X857227Y175597D02*
Y188211D01*
X848718Y193418D02*
X852020D01*
X843511Y175597D02*
Y188211D01*
X838558Y173946D02*
X841860D01*
X836907Y175597D02*
Y188211D01*
X828398Y193418D02*
X831700D01*
X823191Y186179D02*
Y188211D01*
X819000Y184528D02*
X821540D01*
X813972Y180972D02*
X819000D01*
X812499Y184528D02*
X819000D01*
X808501Y245972D02*
X820556D01*
X807028Y249528D02*
X820556D01*
X962034Y245972D02*
X977556D01*
X956827Y251179D02*
Y254677D01*
X951874Y256328D02*
X955176D01*
X950223Y249764D02*
Y254677D01*
X941714Y244557D02*
X945016D01*
X936507Y249764D02*
Y260403D01*
X931554Y262054D02*
X934856D01*
X929903Y249764D02*
Y260403D01*
X921394Y244557D02*
X924696D01*
X916187Y249764D02*
Y260403D01*
X911234Y262054D02*
X914536D01*
X909583Y249764D02*
Y260403D01*
X901074Y244557D02*
X904376D01*
X895867Y249764D02*
Y260403D01*
X890914Y262054D02*
X894216D01*
X889263Y249764D02*
Y260403D01*
X880754Y244557D02*
X884056D01*
X875547Y249764D02*
Y260403D01*
X870594Y262054D02*
X873896D01*
X868943Y249764D02*
Y260403D01*
X860434Y244557D02*
X863736D01*
X855227Y249764D02*
Y260403D01*
X850274Y262054D02*
X853576D01*
X848623Y249764D02*
Y260403D01*
X840114Y244557D02*
X843416D01*
X834907Y249764D02*
Y260403D01*
X829954Y262054D02*
X833256D01*
X828303Y251179D02*
Y260403D01*
X820556Y245972D02*
X823096D01*
X962034Y249528D02*
X977556D01*
X960383Y251179D02*
Y254677D01*
X951874Y259884D02*
X955176D01*
X946667Y249764D02*
Y254677D01*
X941714Y248113D02*
X945016D01*
X940063Y249764D02*
Y260403D01*
X931554Y265610D02*
X934856D01*
X926347Y249764D02*
Y260403D01*
X921394Y248113D02*
X924696D01*
X919743Y249764D02*
Y260403D01*
X911234Y265610D02*
X914536D01*
X906027Y249764D02*
Y260403D01*
X901074Y248113D02*
X904376D01*
X899423Y249764D02*
Y260403D01*
X890914Y265610D02*
X894216D01*
X885707Y249764D02*
Y260403D01*
X880754Y248113D02*
X884056D01*
X879103Y249764D02*
Y260403D01*
X870594Y265610D02*
X873896D01*
X865387Y249764D02*
Y260403D01*
X860434Y248113D02*
X863736D01*
X858783Y249764D02*
Y260403D01*
X850274Y265610D02*
X853576D01*
X845067Y249764D02*
Y260403D01*
X840114Y248113D02*
X843416D01*
X838463Y249764D02*
Y260403D01*
X829954Y265610D02*
X833256D01*
X824747Y251179D02*
Y260403D01*
X820556Y249528D02*
X823096D01*
X977556Y245972D02*
X1228176D01*
X977556Y249528D02*
X1228176D01*
X1230431Y250431D02*
X1231000Y251000D01*
X1229079Y250431D02*
X1230431D01*
X1228176Y249528D02*
X1229079Y250431D01*
Y245069D02*
X1230431D01*
X1231000Y244500D01*
X1228176Y245972D02*
X1229079Y245069D01*
X1221176Y180972D02*
X1222079Y180069D01*
X1223431Y185431D02*
X1224000Y186000D01*
X726778Y93778D02*
X813972Y180972D01*
X1221176Y184528D02*
X1222079Y185431D01*
X723222Y95251D02*
X812499Y184528D01*
X1222079Y185431D02*
X1223431D01*
X1222079Y180069D02*
X1223431D01*
X1224000Y179500D01*
X723222Y55722D02*
Y95251D01*
X726778Y55722D02*
Y93778D01*
Y55722D02*
X730000Y52500D01*
X720000D02*
X723222Y55722D01*
X1341056Y189027D02*
X1341056D01*
X1267500Y156528D02*
X1268069Y157097D01*
X1269421D02*
X1270324Y158000D01*
X1268069Y157097D02*
X1269421D01*
X1310029Y158000D02*
X1341056Y189027D01*
X1270324Y158000D02*
X1310029D01*
X1268069Y162459D02*
X1269421D01*
X1270324Y161556D02*
X1308556D01*
X1337500Y190500D01*
X1267500Y163028D02*
X1268069Y162459D01*
X1269421D02*
X1270324Y161556D01*
X1284580Y327524D02*
X1287553D01*
X1289077Y329048D02*
Y331266D01*
X1290411Y332599D02*
X1293078D01*
X1294411Y329366D02*
Y331266D01*
X1295745Y328032D02*
X1298412D01*
X1299745Y329366D02*
Y332890D01*
X1301079Y334224D02*
X1303746D01*
X1305079Y329048D02*
Y332890D01*
X1306603Y327524D02*
X1309966D01*
X1311842Y329400D01*
X1270067Y327524D02*
X1284580D01*
X1311842Y329400D02*
X1316444Y334002D01*
X1268056Y329018D02*
X1269004Y328070D01*
X1269521D01*
X1270067Y327524D01*
X1267251Y329018D02*
X1268056D01*
X1337500Y203668D02*
Y209000D01*
X1334822Y202017D02*
X1335849D01*
X1333171Y197064D02*
Y200366D01*
X1334822Y195413D02*
X1335849D01*
X1337500Y193000D02*
Y193762D01*
Y209000D02*
Y274971D01*
Y190500D02*
Y193000D01*
X596778Y66749D02*
X795070Y265042D01*
X593222Y68222D02*
X791515Y266514D01*
X795070Y265042D02*
Y265042D01*
X791515Y266514D02*
Y266514D01*
X605600Y444600D02*
X623600D01*
X634000Y455000D01*
X1147028Y306620D02*
X1150188Y303460D01*
X1143472Y305147D02*
X1148715Y299904D01*
X1143472Y305147D02*
Y310176D01*
X1147028D02*
X1147931Y311079D01*
Y312431D02*
X1148500Y313000D01*
X1147028Y306620D02*
Y310176D01*
X1147931Y311079D02*
Y312431D01*
X1142569Y311079D02*
Y312431D01*
Y311079D02*
X1143472Y310176D01*
X1142000Y313000D02*
X1142569Y312431D01*
X460000Y109696D02*
X466000Y103696D01*
X460000Y155000D02*
X478000Y137000D01*
X520000Y35000D02*
Y220000D01*
X528000Y228000D01*
X529000Y121000D02*
X541000D01*
X528000Y228000D02*
X531909Y224091D01*
X539909D01*
X540000Y224000D01*
X460000Y125000D02*
X470000Y115000D01*
Y35000D02*
Y115000D01*
X460000Y109696D02*
Y110000D01*
X247335Y514144D02*
X247479Y514288D01*
X190144Y514144D02*
X247335D01*
X190000Y514000D02*
X190144Y514144D01*
X271153Y521295D02*
X285000Y507448D01*
X223076Y521295D02*
X271153D01*
X681000Y403000D02*
X699000Y385000D01*
X1301473Y218944D02*
X1316056Y233527D01*
X1300000Y222500D02*
X1312500Y235000D01*
X593222Y55722D02*
Y68222D01*
X596778Y55722D02*
Y66749D01*
X686778Y90778D02*
X814944Y218944D01*
X683222Y92251D02*
X813471Y222500D01*
X1316444Y334002D02*
Y351027D01*
X1320000Y332529D02*
Y352500D01*
X1270053Y323968D02*
X1311439D01*
X1267791Y323087D02*
X1269172D01*
X1267222Y322518D02*
X1267791Y323087D01*
X1269172D02*
X1270053Y323968D01*
X1071472Y315556D02*
X1102556D01*
X1066028Y321000D02*
Y328176D01*
Y321000D02*
X1071472Y315556D01*
X1066028Y328176D02*
X1066931Y329079D01*
Y330431D01*
X1062472Y319527D02*
X1069999Y312000D01*
X1062472Y319527D02*
Y328176D01*
X1061569Y329079D02*
Y330431D01*
Y329079D02*
X1062472Y328176D01*
X1061000Y331000D02*
X1061569Y330431D01*
X1066931D02*
X1067500Y331000D01*
X590000Y52500D02*
X593222Y55722D01*
X590000Y35000D02*
Y52500D01*
X596778Y55722D02*
X600000Y52500D01*
Y35000D02*
Y52500D01*
X1268181Y315630D02*
X1268750Y316200D01*
X1266829Y315630D02*
X1268181D01*
X1265926Y314728D02*
X1266829Y315630D01*
Y310269D02*
X1268181D01*
X1265926Y311172D02*
X1266829Y310269D01*
X1268181D02*
X1268750Y309700D01*
X640000Y35000D02*
Y52500D01*
X683222Y55722D02*
Y92251D01*
X686778Y55722D02*
Y90778D01*
X1266877Y270928D02*
X1267447Y271497D01*
X690000Y35000D02*
Y52500D01*
X686778Y55722D02*
X690000Y52500D01*
X680000Y35000D02*
Y52500D01*
X683222Y55722D01*
X730000Y35000D02*
Y52500D01*
X720000Y35000D02*
Y52500D01*
X173000Y307000D02*
X182000Y316000D01*
X677862Y398138D02*
X698000Y378000D01*
X593340Y431782D02*
X596592Y435035D01*
X596782D01*
X597720Y435972D01*
X598525D01*
X598500Y443063D02*
X599287D01*
X705500Y367500D02*
X730000Y392000D01*
Y392000D01*
X219574Y220528D02*
X354499D01*
X219574Y216972D02*
X355972D01*
X216750Y222000D02*
X217319Y221431D01*
X218671D01*
X217319Y216069D02*
X218671D01*
X219574Y216972D01*
X216750Y215500D02*
X217319Y216069D01*
X218671Y221431D02*
X219574Y220528D01*
X370799Y293324D02*
X371176D01*
X362123Y302000D02*
X370799Y293324D01*
X361747Y302000D02*
X362123D01*
D103*
X609747Y57858D02*
X612889Y61000D01*
X609747Y35253D02*
Y57858D01*
Y35253D02*
X610000Y35000D01*
X359000Y530000D02*
X370000Y541000D01*
Y597500D01*
X1248500Y60832D02*
Y61500D01*
X1250000Y35000D02*
Y59332D01*
X1248500Y60832D02*
X1250000Y59332D01*
X450000Y35000D02*
Y62000D01*
X550000Y35000D02*
Y61500D01*
X580000Y58500D02*
X582500Y61000D01*
X580000Y35000D02*
Y58500D01*
X630000D02*
X632500Y61000D01*
X630000Y35000D02*
Y58500D01*
X657500Y61000D02*
X660000Y58500D01*
Y35000D02*
Y58500D01*
X670000D02*
X672500Y61000D01*
X670000Y35000D02*
Y58500D01*
X710000D02*
X712500Y61000D01*
X710000Y35000D02*
Y58500D01*
X697500Y61000D02*
X700000Y58500D01*
Y35000D02*
Y58500D01*
X732500Y61000D02*
X732972Y60528D01*
X737472D01*
X740000Y58000D01*
Y35000D02*
Y58000D01*
X770000Y35000D02*
Y61500D01*
X810000Y35000D02*
Y61500D01*
X800000Y35000D02*
Y61500D01*
X850000Y35000D02*
Y61500D01*
X840000Y35000D02*
Y61500D01*
X920000Y35000D02*
Y61500D01*
Y35000D02*
X920000Y35000D01*
X890000D02*
Y61500D01*
X880000Y35000D02*
Y61500D01*
X940000Y35000D02*
Y61500D01*
X980000Y35000D02*
Y61500D01*
X970000Y35000D02*
Y61500D01*
X1020000Y35000D02*
Y61500D01*
X1010000Y35000D02*
Y61500D01*
X1060000Y35000D02*
Y61500D01*
X1050000Y35000D02*
Y61500D01*
X1090000Y35000D02*
Y61500D01*
X1100000Y35000D02*
Y61500D01*
X1140000Y35000D02*
Y61500D01*
X1130000Y35000D02*
Y61500D01*
X1170000Y35000D02*
Y61500D01*
X1180000Y35000D02*
Y61500D01*
X1220000Y35000D02*
Y61500D01*
X1210000Y35000D02*
Y61500D01*
X84000Y557000D02*
X93767Y547233D01*
X46000Y557000D02*
X84000D01*
X38000Y565000D02*
X46000Y557000D01*
X395000Y875000D02*
X395132Y875132D01*
X405604D02*
X405736Y875264D01*
X395132Y875132D02*
X405604D01*
X373000Y806000D02*
X379000Y800000D01*
Y791000D02*
Y800000D01*
X362416Y803880D02*
X362708Y803589D01*
Y791292D02*
Y803589D01*
Y791292D02*
X363000Y791000D01*
X845000Y846000D02*
Y859000D01*
Y846000D02*
X845000Y846000D01*
X447750Y95250D02*
X456500D01*
X420000Y67500D02*
X447750Y95250D01*
X420000Y40000D02*
Y67500D01*
X168510Y841330D02*
Y883510D01*
X184330Y899330D01*
X343510D01*
X350510Y892330D01*
X387510Y870330D02*
Y891330D01*
X346510Y829330D02*
X387510Y870330D01*
X346510Y802330D02*
Y829330D01*
D104*
X1056419Y295193D02*
G03*
X1054174Y295193I-1123J-1123D01*
G01*
X1051014Y294278D02*
G03*
X1053259Y294278I1123J1123D01*
G01*
X1048769Y298768D02*
G03*
X1048769Y296523I1123J-1123D01*
G01*
X1049684Y299683D02*
G03*
X1049684Y301928I-1123J1123D01*
G01*
X1075692Y283504D02*
G03*
X1070294Y288901I-5397J0D01*
G01*
X1075692Y280688D02*
G03*
X1077279Y279101I1587J0D01*
G01*
X1080454D02*
G03*
X1082042Y280688I0J1587D01*
G01*
X1087439Y288901D02*
G03*
X1082042Y283504I0J-5397D01*
G01*
X1071882D02*
G03*
X1070294Y285091I-1587J0D01*
G01*
X1071882Y280688D02*
G03*
X1077279Y275291I5397J0D01*
G01*
X1080454D02*
G03*
X1085852Y280688I0J5397D01*
G01*
X1087439Y285091D02*
G03*
X1085852Y283504I0J-1587D01*
G01*
X685963Y191575D02*
X879194Y384806D01*
X683269Y194269D02*
X876500Y387500D01*
X879194Y384806D02*
X883905Y389517D01*
X566905Y72517D02*
X685963Y191575D01*
X876500Y387500D02*
X880095Y391095D01*
X563095Y74095D02*
X683269Y194269D01*
X883905Y389517D02*
Y399641D01*
X563095Y56109D02*
Y74095D01*
X566905Y56109D02*
Y72517D01*
X880095Y391095D02*
Y399641D01*
X591769Y597769D02*
X668781D01*
X585190Y596578D02*
X590190Y601579D01*
X589000Y595000D02*
X591769Y597769D01*
X590190Y601579D02*
X668781D01*
X585190Y581422D02*
Y596578D01*
X589000Y583000D02*
Y595000D01*
X668781Y597769D02*
X670126Y596424D01*
X668781Y601579D02*
X670126Y602924D01*
Y596424D02*
X671000D01*
X670126Y602924D02*
X671000D01*
X589000Y583000D02*
X590445Y581555D01*
X588867Y577745D02*
X598781D01*
X590445Y581555D02*
X598781D01*
X585190Y581422D02*
X588867Y577745D01*
X1089979Y285091D02*
X1266259D01*
X1089979Y288901D02*
X1266325D01*
X1266259Y285091D02*
X1267624Y283727D01*
X1266325Y288901D02*
X1267650Y290227D01*
X598781Y577745D02*
X600126Y576400D01*
X601000D01*
X600126Y582900D02*
X601000D01*
X598781Y581555D02*
X600126Y582900D01*
X1062089Y289523D02*
X1062538Y289074D01*
X1056419Y295193D02*
X1062089Y289523D01*
X1053259Y294278D02*
X1054174Y295193D01*
X1051014Y294278D02*
X1051014Y294278D01*
X1048769Y296523D02*
X1051014Y294278D01*
X1048769Y296523D02*
X1048769Y296523D01*
Y298768D02*
X1049684Y299683D01*
Y301928D02*
X1049684Y301928D01*
X1047922Y303690D02*
X1049684Y301928D01*
X1042690Y303690D02*
X1047922D01*
X1062538Y289074D02*
X1064000Y287612D01*
Y293000D02*
X1068099Y288901D01*
X1070294D01*
X1075692Y280688D02*
Y283504D01*
X1077279Y279101D02*
X1080454D01*
X1082042Y280688D02*
Y283504D01*
X1087439Y288901D02*
X1089979D01*
X1064000Y287612D02*
X1066520Y285091D01*
X1070294D01*
X1071882Y280688D02*
Y283504D01*
X1077279Y275291D02*
X1080454D01*
X1085852Y280688D02*
Y283504D01*
X1087439Y285091D02*
X1089979D01*
X1029078Y303690D02*
X1042690D01*
X1049500Y307500D02*
X1064000Y293000D01*
X1027500Y307500D02*
X1049500D01*
X1016345Y296345D02*
X1027500Y307500D01*
X1020155Y289719D02*
Y294767D01*
X1016345Y289719D02*
Y296345D01*
X1020155Y294767D02*
X1029078Y303690D01*
X1020155Y289719D02*
X1021500Y288374D01*
X1015000Y287500D02*
Y288374D01*
X1016345Y289719D01*
X1021500Y287500D02*
Y288374D01*
X1267624Y283727D02*
X1268498D01*
X1267650Y290227D02*
X1268524D01*
X883905Y399641D02*
X886000Y401736D01*
Y402000D01*
X878000Y401736D02*
Y402000D01*
Y401736D02*
X880095Y399641D01*
X566905Y56109D02*
X567135Y55879D01*
Y37865D02*
Y55879D01*
Y37865D02*
X570000Y35000D01*
X562865Y55879D02*
X563095Y56109D01*
X562865Y37865D02*
Y55879D01*
X560000Y35000D02*
X562865Y37865D01*
D108*
X1590484Y407174D02*
D03*
Y432574D02*
D03*
X1590500Y236300D02*
D03*
Y261700D02*
D03*
Y303550D02*
D03*
Y328950D02*
D03*
X27500Y755200D02*
D03*
Y729800D02*
D03*
D109*
X1538300Y630000D02*
D03*
X1563700D02*
D03*
D110*
X113500Y189750D02*
D03*
Y354750D02*
D03*
D111*
X36700Y272250D02*
D03*
D112*
X45700Y189750D02*
D03*
Y354750D02*
D03*
D113*
X1570980Y844140D02*
D03*
X1486980D02*
D03*
D114*
X1570980Y729140D02*
D03*
X1528980D02*
D03*
X1486980D02*
D03*
X1570980Y771140D02*
D03*
X1528980D02*
D03*
X1486980D02*
D03*
X1371500Y788060D02*
D03*
Y835060D02*
D03*
D115*
X1280950Y660350D02*
D03*
X1268250Y257650D02*
D03*
X602130Y257650D02*
D03*
X614830Y660350D02*
D03*
D116*
X1288250Y727250D02*
D03*
X581750Y190750D02*
D03*
Y727250D02*
D03*
X1288250Y190750D02*
D03*
D117*
X1371500Y882060D02*
D03*
D118*
X612889Y61000D02*
D03*
X359000Y530000D02*
D03*
X540000Y554580D02*
D03*
X532000D02*
D03*
X532250Y536580D02*
D03*
X540000D02*
D03*
X392473Y838615D02*
D03*
X1550000Y403500D02*
D03*
X1172500Y170000D02*
D03*
X1122500D02*
D03*
X1070000D02*
D03*
X1022500D02*
D03*
X972500D02*
D03*
X395000Y195000D02*
D03*
X435000D02*
D03*
X530000Y192500D02*
D03*
X555000Y187500D02*
D03*
X560000Y177500D02*
D03*
X605000D02*
D03*
X615000Y195000D02*
D03*
X852500Y240000D02*
D03*
X892500D02*
D03*
X1055000Y455000D02*
D03*
X1205000Y605000D02*
D03*
X1177500Y575000D02*
D03*
X1130000Y527500D02*
D03*
X1082500Y480000D02*
D03*
X37500Y797500D02*
D03*
Y857500D02*
D03*
X97500Y887500D02*
D03*
X37500D02*
D03*
X327500Y757500D02*
D03*
X272500D02*
D03*
X197500D02*
D03*
X275000Y680000D02*
D03*
X560000Y597500D02*
D03*
X527500D02*
D03*
X497500D02*
D03*
X447500D02*
D03*
X422500Y560000D02*
D03*
X472500D02*
D03*
Y542500D02*
D03*
X417500Y530000D02*
D03*
X525000D02*
D03*
X520000Y500000D02*
D03*
X500000D02*
D03*
Y480000D02*
D03*
X440000Y450000D02*
D03*
X470000D02*
D03*
X427000Y380000D02*
D03*
X100000D02*
D03*
X72270Y405000D02*
D03*
X45000D02*
D03*
Y380000D02*
D03*
X150000Y445000D02*
D03*
X180000D02*
D03*
Y420000D02*
D03*
X305000Y365000D02*
D03*
X345000Y350000D02*
D03*
X400000Y292500D02*
D03*
X430000Y265000D02*
D03*
X522500Y435000D02*
D03*
X900000Y590000D02*
D03*
X722270Y690000D02*
D03*
X622270D02*
D03*
X647270Y729630D02*
D03*
X772270Y690000D02*
D03*
X672270D02*
D03*
X1122500Y370000D02*
D03*
X1092500D02*
D03*
X1062500D02*
D03*
X1149500Y370500D02*
D03*
X1179500D02*
D03*
X1209500D02*
D03*
X1149500Y403000D02*
D03*
X1179500D02*
D03*
X1209500D02*
D03*
X1210000Y427500D02*
D03*
X1180000D02*
D03*
X1150000D02*
D03*
X1123000Y427000D02*
D03*
X1102500Y400000D02*
D03*
X1005000Y402500D02*
D03*
X1027500Y427500D02*
D03*
X1197500Y202500D02*
D03*
X1247500D02*
D03*
X1172500Y147500D02*
D03*
X1222500D02*
D03*
Y120000D02*
D03*
X1172500D02*
D03*
X1122500Y147500D02*
D03*
Y120000D02*
D03*
X1070000D02*
D03*
X1022500D02*
D03*
X972500D02*
D03*
X1147500Y192500D02*
D03*
X1070000D02*
D03*
X1022500Y195000D02*
D03*
X972500D02*
D03*
X922500Y147500D02*
D03*
X1070000D02*
D03*
X1022500D02*
D03*
X972500D02*
D03*
X875000D02*
D03*
X760000Y150000D02*
D03*
X790000Y175000D02*
D03*
X682500Y212500D02*
D03*
X667500Y197500D02*
D03*
X652500Y182500D02*
D03*
X585000Y70000D02*
D03*
X635000Y85000D02*
D03*
X615000Y70000D02*
D03*
X635000D02*
D03*
X655000D02*
D03*
Y82500D02*
D03*
X675000Y85000D02*
D03*
Y70000D02*
D03*
X695000D02*
D03*
Y85000D02*
D03*
X715000D02*
D03*
Y70000D02*
D03*
X1547270Y729630D02*
D03*
X1572270Y679630D02*
D03*
Y479630D02*
D03*
Y379630D02*
D03*
Y279630D02*
D03*
X1547270Y229630D02*
D03*
X1572270Y179630D02*
D03*
X1547270Y129630D02*
D03*
X1522270Y679630D02*
D03*
X1497270Y629630D02*
D03*
Y429630D02*
D03*
X1522270Y279630D02*
D03*
X1497270Y229630D02*
D03*
X1522270Y179630D02*
D03*
X1497270Y129630D02*
D03*
X1447270Y729630D02*
D03*
X1472270Y679630D02*
D03*
X1447270Y429630D02*
D03*
Y329630D02*
D03*
X1472270Y279630D02*
D03*
X1447270Y229630D02*
D03*
X1472270Y179630D02*
D03*
X1447270Y129630D02*
D03*
X1397270Y729630D02*
D03*
Y629630D02*
D03*
X1422270Y579630D02*
D03*
X1397270Y529630D02*
D03*
X1422270Y479630D02*
D03*
X1397270Y429630D02*
D03*
Y329630D02*
D03*
X1422270Y279630D02*
D03*
X1397270Y229630D02*
D03*
X1422270Y179630D02*
D03*
X1397270Y129630D02*
D03*
X1347270Y729630D02*
D03*
Y629630D02*
D03*
X1372270Y579630D02*
D03*
X1347270Y529630D02*
D03*
X1372270Y479630D02*
D03*
X1347270Y429630D02*
D03*
Y329630D02*
D03*
X1372270Y279630D02*
D03*
X1347270Y229630D02*
D03*
X1372270Y179630D02*
D03*
X1347270Y129630D02*
D03*
X1322270Y879630D02*
D03*
Y479630D02*
D03*
X1297270Y229630D02*
D03*
X1272270Y879630D02*
D03*
X1247270Y229630D02*
D03*
X1222270Y879630D02*
D03*
Y479630D02*
D03*
X1197270Y229630D02*
D03*
X1222270Y79630D02*
D03*
X1172270Y879630D02*
D03*
Y779630D02*
D03*
X1147270Y729630D02*
D03*
X1172270Y479630D02*
D03*
Y279630D02*
D03*
X1147270Y229630D02*
D03*
X1172270Y79630D02*
D03*
X1122270Y879630D02*
D03*
Y779630D02*
D03*
X1097270Y729630D02*
D03*
Y329630D02*
D03*
X1122270Y279630D02*
D03*
X1097270Y229630D02*
D03*
X1122270Y79630D02*
D03*
X1072270Y879630D02*
D03*
Y779630D02*
D03*
X1047270Y729630D02*
D03*
Y329630D02*
D03*
Y229630D02*
D03*
X1072270Y79630D02*
D03*
X1022270Y879630D02*
D03*
Y779630D02*
D03*
X997270Y729630D02*
D03*
Y229630D02*
D03*
X1022270Y79630D02*
D03*
X972270Y879630D02*
D03*
Y779630D02*
D03*
X947270Y729630D02*
D03*
X972270Y679630D02*
D03*
X947270Y629630D02*
D03*
X972270Y579630D02*
D03*
Y279630D02*
D03*
X947270Y229630D02*
D03*
X972270Y79630D02*
D03*
X922270Y879630D02*
D03*
Y779630D02*
D03*
X897270Y729630D02*
D03*
X922270Y679630D02*
D03*
X897270Y629630D02*
D03*
X922270Y79630D02*
D03*
X872270Y879630D02*
D03*
Y779630D02*
D03*
X847270Y729630D02*
D03*
X872270Y679630D02*
D03*
Y479630D02*
D03*
Y79630D02*
D03*
X822270Y879630D02*
D03*
Y779630D02*
D03*
X797270Y729630D02*
D03*
X822270Y679630D02*
D03*
Y479630D02*
D03*
Y79630D02*
D03*
X772270Y879630D02*
D03*
Y779630D02*
D03*
Y579630D02*
D03*
X747270Y429630D02*
D03*
X772270Y79630D02*
D03*
X722270Y879630D02*
D03*
Y779630D02*
D03*
X697270Y729630D02*
D03*
X722270Y479630D02*
D03*
X697270Y229630D02*
D03*
X672270Y779630D02*
D03*
X622270D02*
D03*
X572270D02*
D03*
X547270Y729630D02*
D03*
X572270Y379630D02*
D03*
X522270Y879630D02*
D03*
Y379630D02*
D03*
Y279630D02*
D03*
X472270Y879630D02*
D03*
Y779630D02*
D03*
X447270Y729630D02*
D03*
X472270Y679630D02*
D03*
Y579630D02*
D03*
X447270Y529630D02*
D03*
X472270Y479630D02*
D03*
Y179630D02*
D03*
X422270Y879630D02*
D03*
Y779630D02*
D03*
X397270Y729630D02*
D03*
X422270Y679630D02*
D03*
Y579630D02*
D03*
X397270Y429630D02*
D03*
X372270Y779630D02*
D03*
X347270Y729630D02*
D03*
X372270Y679630D02*
D03*
X347270Y429630D02*
D03*
Y229630D02*
D03*
X372270Y179630D02*
D03*
X347270Y129630D02*
D03*
X322270Y879630D02*
D03*
Y779630D02*
D03*
X297270Y729630D02*
D03*
X322270Y679630D02*
D03*
X297270Y229630D02*
D03*
X322270Y179630D02*
D03*
X297270Y129630D02*
D03*
X247270Y729630D02*
D03*
X272270Y379630D02*
D03*
X247270Y229630D02*
D03*
X272270Y179630D02*
D03*
X247270Y129630D02*
D03*
X222270Y579630D02*
D03*
Y379630D02*
D03*
Y279630D02*
D03*
Y179630D02*
D03*
X197270Y129630D02*
D03*
X172270Y279630D02*
D03*
Y179630D02*
D03*
X147270Y129630D02*
D03*
X122270Y879630D02*
D03*
Y679630D02*
D03*
X97270Y629630D02*
D03*
Y129630D02*
D03*
X72270Y879630D02*
D03*
X47270Y829630D02*
D03*
X72270Y679630D02*
D03*
X47270Y429630D02*
D03*
X72270Y379630D02*
D03*
X47270Y129630D02*
D03*
X5000Y87500D02*
D03*
X4926Y127500D02*
D03*
Y107500D02*
D03*
Y507500D02*
D03*
Y487500D02*
D03*
Y427500D02*
D03*
Y447500D02*
D03*
Y467500D02*
D03*
Y367500D02*
D03*
Y387500D02*
D03*
Y407500D02*
D03*
Y307500D02*
D03*
Y327500D02*
D03*
Y347500D02*
D03*
Y247500D02*
D03*
Y227500D02*
D03*
Y207500D02*
D03*
Y287500D02*
D03*
Y267500D02*
D03*
Y167500D02*
D03*
Y187500D02*
D03*
Y147500D02*
D03*
Y887500D02*
D03*
Y867500D02*
D03*
Y807500D02*
D03*
Y827500D02*
D03*
Y847500D02*
D03*
Y747500D02*
D03*
Y767500D02*
D03*
Y787500D02*
D03*
Y687500D02*
D03*
Y707500D02*
D03*
Y727500D02*
D03*
Y627500D02*
D03*
Y607500D02*
D03*
Y587500D02*
D03*
Y667500D02*
D03*
Y647500D02*
D03*
Y547500D02*
D03*
Y567500D02*
D03*
Y527500D02*
D03*
X67426Y909500D02*
D03*
X47426D02*
D03*
X4926D02*
D03*
X27426D02*
D03*
X447425D02*
D03*
X427425D02*
D03*
X367426D02*
D03*
X387425D02*
D03*
X407425D02*
D03*
X307426D02*
D03*
X327426D02*
D03*
X347425D02*
D03*
X247426D02*
D03*
X267426D02*
D03*
X287426D02*
D03*
X187426D02*
D03*
X167426D02*
D03*
X147426D02*
D03*
X227426D02*
D03*
X207426D02*
D03*
X107426D02*
D03*
X127426D02*
D03*
X87426D02*
D03*
X827425D02*
D03*
X807425D02*
D03*
X767425D02*
D03*
X707425D02*
D03*
X647425D02*
D03*
X567425D02*
D03*
X547425D02*
D03*
X527425D02*
D03*
X607425D02*
D03*
X587425D02*
D03*
X487425D02*
D03*
X507425D02*
D03*
X467425D02*
D03*
X1207425D02*
D03*
X1187425D02*
D03*
X1127425D02*
D03*
X1147425D02*
D03*
X1167425D02*
D03*
X1067425D02*
D03*
X1087425D02*
D03*
X1107425D02*
D03*
X1007425D02*
D03*
X1027425D02*
D03*
X1047425D02*
D03*
X947425D02*
D03*
X927425D02*
D03*
X907425D02*
D03*
X987425D02*
D03*
X967425D02*
D03*
X867425D02*
D03*
X887425D02*
D03*
X847425D02*
D03*
X1587425D02*
D03*
X1567425D02*
D03*
X1507425D02*
D03*
X1527425D02*
D03*
X1547425D02*
D03*
X1447425D02*
D03*
X1467425D02*
D03*
X1487425D02*
D03*
X1387425D02*
D03*
X1407425D02*
D03*
X1427425D02*
D03*
X1327425D02*
D03*
X1307425D02*
D03*
X1287425D02*
D03*
X1367425D02*
D03*
X1347425D02*
D03*
X1247425D02*
D03*
X1267425D02*
D03*
X1227425D02*
D03*
X1607500Y867500D02*
D03*
Y887500D02*
D03*
X1607425Y909500D02*
D03*
X1607500Y487500D02*
D03*
Y507500D02*
D03*
Y567500D02*
D03*
Y547500D02*
D03*
Y527500D02*
D03*
Y627500D02*
D03*
Y607500D02*
D03*
Y587500D02*
D03*
Y687500D02*
D03*
Y667500D02*
D03*
Y647500D02*
D03*
Y747500D02*
D03*
Y767500D02*
D03*
Y787500D02*
D03*
Y707500D02*
D03*
Y727500D02*
D03*
Y827500D02*
D03*
Y807500D02*
D03*
Y847500D02*
D03*
Y107500D02*
D03*
Y127500D02*
D03*
Y187500D02*
D03*
Y167500D02*
D03*
Y147500D02*
D03*
Y247500D02*
D03*
Y227500D02*
D03*
Y207500D02*
D03*
Y307500D02*
D03*
Y287500D02*
D03*
Y267500D02*
D03*
Y367500D02*
D03*
Y387500D02*
D03*
Y407500D02*
D03*
Y327500D02*
D03*
Y347500D02*
D03*
Y447500D02*
D03*
Y427500D02*
D03*
Y467500D02*
D03*
X1249750Y70000D02*
D03*
X1255500Y81500D02*
D03*
X1587500Y87500D02*
D03*
X1567500D02*
D03*
X1507500D02*
D03*
X1527500D02*
D03*
X1547500D02*
D03*
X1447500D02*
D03*
X1467500D02*
D03*
X1487500D02*
D03*
X1387500D02*
D03*
X1407500D02*
D03*
X1427500D02*
D03*
X1327500D02*
D03*
X1307500D02*
D03*
X1287500D02*
D03*
X1367500D02*
D03*
X1347500D02*
D03*
X1267500D02*
D03*
X1607500D02*
D03*
X405000D02*
D03*
X365000D02*
D03*
X385000D02*
D03*
X285000D02*
D03*
X265000D02*
D03*
X345000D02*
D03*
X325000D02*
D03*
X305000D02*
D03*
X205000D02*
D03*
X225000D02*
D03*
X245000D02*
D03*
X145000D02*
D03*
X165000D02*
D03*
X185000D02*
D03*
X85000D02*
D03*
X105000D02*
D03*
X125000D02*
D03*
X65000D02*
D03*
X45000D02*
D03*
X25000D02*
D03*
X706495Y537272D02*
D03*
X700000Y569000D02*
D03*
X719620Y537606D02*
D03*
X603917Y509033D02*
D03*
X600554Y504844D02*
D03*
X605000Y500000D02*
D03*
Y493500D02*
D03*
X639000Y500000D02*
D03*
X627000Y487948D02*
D03*
X626000Y530000D02*
D03*
X467500Y255500D02*
D03*
X460000D02*
D03*
X452500D02*
D03*
X445000D02*
D03*
X373167Y318735D02*
D03*
X396000Y306000D02*
D03*
X396000Y312500D02*
D03*
X1267000Y554000D02*
D03*
X1268000Y504000D02*
D03*
Y485000D02*
D03*
Y467000D02*
D03*
X552000Y437000D02*
D03*
X602061Y607621D02*
D03*
X602000Y614000D02*
D03*
X578165Y411446D02*
D03*
X1292332Y446000D02*
D03*
X1256502Y325650D02*
D03*
X605633Y354169D02*
D03*
X604577Y486219D02*
D03*
X579152Y614075D02*
D03*
X579000Y621000D02*
D03*
X578368Y595628D02*
D03*
X604398Y563882D02*
D03*
X604457Y385905D02*
D03*
X578881Y385928D02*
D03*
X578617Y360550D02*
D03*
X625374Y354275D02*
D03*
X1304000Y587000D02*
D03*
X1291461Y576390D02*
D03*
X601500Y627200D02*
D03*
Y633700D02*
D03*
X578000Y513000D02*
D03*
X579000Y486000D02*
D03*
X634495Y436234D02*
D03*
X637500Y442500D02*
D03*
X605380Y430473D02*
D03*
X629000Y425000D02*
D03*
X635000Y392500D02*
D03*
X600681Y398293D02*
D03*
X600000Y477500D02*
D03*
X604650Y464754D02*
D03*
X598634Y455901D02*
D03*
X598553Y462500D02*
D03*
X604693Y458255D02*
D03*
X569790Y598047D02*
D03*
X556000Y561000D02*
D03*
X599835Y557452D02*
D03*
X602500Y320000D02*
D03*
X602212Y281246D02*
D03*
X602500Y300000D02*
D03*
X604209Y340905D02*
D03*
X605454Y347705D02*
D03*
X626000Y335000D02*
D03*
Y278000D02*
D03*
X578495Y434423D02*
D03*
X626712Y557713D02*
D03*
X627000Y552000D02*
D03*
X604000Y538000D02*
D03*
X626000Y576000D02*
D03*
X574000Y469000D02*
D03*
X571653Y433653D02*
D03*
X578062Y442948D02*
D03*
X566000Y430000D02*
D03*
X536000Y548580D02*
D03*
Y542080D02*
D03*
X578000Y538000D02*
D03*
X652750Y558900D02*
D03*
X579000Y570000D02*
D03*
X579087Y563646D02*
D03*
X578335Y640157D02*
D03*
X626000Y634000D02*
D03*
Y627000D02*
D03*
Y608000D02*
D03*
X625689Y582575D02*
D03*
X626000Y385500D02*
D03*
X390000Y410000D02*
D03*
X625028Y377020D02*
D03*
X600000Y376000D02*
D03*
Y361000D02*
D03*
Y367500D02*
D03*
X579000Y341000D02*
D03*
X600000Y335000D02*
D03*
X578744Y322477D02*
D03*
X578719Y303581D02*
D03*
X578968Y284500D02*
D03*
X626000Y316000D02*
D03*
Y297000D02*
D03*
X594000Y266000D02*
D03*
X1245000Y371000D02*
D03*
Y335000D02*
D03*
X1256502Y274850D02*
D03*
X1266893Y277428D02*
D03*
X1291398Y424904D02*
D03*
X1244383Y468489D02*
D03*
Y449722D02*
D03*
X1292097Y462233D02*
D03*
X1291718Y481233D02*
D03*
X1244254Y487535D02*
D03*
X1244037Y506336D02*
D03*
X1243371Y589016D02*
D03*
X1244625Y563593D02*
D03*
X1269470Y563813D02*
D03*
X1266506Y576456D02*
D03*
X1292000Y624000D02*
D03*
Y602000D02*
D03*
X1244000Y313000D02*
D03*
X1268000Y338000D02*
D03*
X1292000Y370000D02*
D03*
X1268000Y371000D02*
D03*
X1243000Y398000D02*
D03*
X1268000D02*
D03*
X1292000Y405000D02*
D03*
X1270000Y408000D02*
D03*
X1244000D02*
D03*
X1291494Y519286D02*
D03*
X1280985Y538099D02*
D03*
X1266039Y627374D02*
D03*
X1270000Y615000D02*
D03*
X1266000Y602000D02*
D03*
X1293000Y317000D02*
D03*
X892000Y398000D02*
D03*
X872000D02*
D03*
Y406000D02*
D03*
X1268000Y427000D02*
D03*
X1244000Y428000D02*
D03*
X892000Y406000D02*
D03*
X1268000Y450000D02*
D03*
X1297230Y430484D02*
D03*
X1291000Y500000D02*
D03*
X1269000Y523000D02*
D03*
X1245227Y525646D02*
D03*
X1216971Y506656D02*
D03*
X1231000Y625000D02*
D03*
X1215000Y620000D02*
D03*
X1291000Y551000D02*
D03*
X1266000Y545000D02*
D03*
X1255877Y538159D02*
D03*
X1272000Y589000D02*
D03*
X1256502Y300250D02*
D03*
X1286000Y266000D02*
D03*
X1279998Y287550D02*
D03*
X1292070Y307980D02*
D03*
X1279977Y312988D02*
D03*
X1261000Y266000D02*
D03*
X1272750Y265459D02*
D03*
X1226500Y256000D02*
D03*
X1235500D02*
D03*
Y239500D02*
D03*
X1226500D02*
D03*
X1219500Y191000D02*
D03*
X1228500D02*
D03*
Y174500D02*
D03*
X1219500D02*
D03*
X1263000Y168028D02*
D03*
X1272000D02*
D03*
Y151528D02*
D03*
X1263000D02*
D03*
X1178250Y333895D02*
D03*
X1187250D02*
D03*
Y317395D02*
D03*
X1178250D02*
D03*
X1182750Y328895D02*
D03*
Y322395D02*
D03*
X1154000Y317000D02*
D03*
Y309250D02*
D03*
X1136000Y309000D02*
D03*
Y317000D02*
D03*
X1072500Y335500D02*
D03*
Y326500D02*
D03*
X1056000D02*
D03*
Y335500D02*
D03*
X1010000Y292000D02*
D03*
Y283000D02*
D03*
X1026500D02*
D03*
Y292000D02*
D03*
X490000Y77000D02*
D03*
X480000Y65000D02*
D03*
X1248500Y61500D02*
D03*
X550000D02*
D03*
X770000D02*
D03*
X810000D02*
D03*
X800000D02*
D03*
X850000D02*
D03*
X840000D02*
D03*
X890000D02*
D03*
X880000D02*
D03*
X940000D02*
D03*
X980000D02*
D03*
X970000D02*
D03*
X1020000D02*
D03*
X1010000D02*
D03*
X1060000D02*
D03*
X1050000D02*
D03*
X1090000D02*
D03*
X1100000D02*
D03*
X1140000D02*
D03*
X1130000D02*
D03*
X1170000D02*
D03*
X1180000D02*
D03*
X1220000D02*
D03*
X1210000D02*
D03*
X1230000D02*
D03*
X1200000D02*
D03*
X1190000D02*
D03*
X1160000D02*
D03*
X1150000D02*
D03*
X1120000D02*
D03*
X1110000D02*
D03*
X1080000D02*
D03*
X1070000D02*
D03*
X1030000D02*
D03*
X1040000D02*
D03*
X990000D02*
D03*
X1000000D02*
D03*
X960000D02*
D03*
X950000D02*
D03*
X920000D02*
D03*
X900000D02*
D03*
X870000D02*
D03*
X860000D02*
D03*
X820000D02*
D03*
X830000D02*
D03*
X790000D02*
D03*
X750000D02*
D03*
X780000D02*
D03*
X717500Y61000D02*
D03*
X732500D02*
D03*
X557500D02*
D03*
X582500D02*
D03*
X632500D02*
D03*
X657500D02*
D03*
X672500D02*
D03*
X712500D02*
D03*
X697500D02*
D03*
X637670Y61115D02*
D03*
X605750Y60750D02*
D03*
X450000Y62000D02*
D03*
X560000Y569000D02*
D03*
X362228Y562694D02*
D03*
X396000Y559000D02*
D03*
X377000D02*
D03*
X312418Y555227D02*
D03*
X327425Y559783D02*
D03*
X260805Y527328D02*
D03*
X257707Y476347D02*
D03*
X243000Y569000D02*
D03*
X248000Y554000D02*
D03*
X93767Y547233D02*
D03*
X123000Y554000D02*
D03*
X90000Y702000D02*
D03*
X83000D02*
D03*
X76000D02*
D03*
X409910Y847990D02*
D03*
X429910D02*
D03*
X449910D02*
D03*
X469910D02*
D03*
X489910D02*
D03*
X774000Y635000D02*
D03*
X1416000Y761000D02*
D03*
Y781000D02*
D03*
Y801000D02*
D03*
Y821000D02*
D03*
Y841000D02*
D03*
X1262500Y807500D02*
D03*
X1277500D02*
D03*
X1270000D02*
D03*
X855549Y880368D02*
D03*
X939000Y462000D02*
D03*
Y451000D02*
D03*
X893000Y481000D02*
D03*
X885500Y480750D02*
D03*
X872000Y468000D02*
D03*
Y463000D02*
D03*
X899000D02*
D03*
X887000D02*
D03*
X872000Y458000D02*
D03*
X864000Y487000D02*
D03*
X396000Y182000D02*
D03*
Y146000D02*
D03*
Y128000D02*
D03*
Y110000D02*
D03*
Y164000D02*
D03*
X394000Y280000D02*
D03*
Y286000D02*
D03*
X362000Y309000D02*
D03*
X71000Y564000D02*
D03*
X82500Y547500D02*
D03*
X140530Y573750D02*
D03*
X122530D02*
D03*
X107530Y578000D02*
D03*
X196000Y576000D02*
D03*
X196181Y558502D02*
D03*
X250000Y505000D02*
D03*
X214000Y303000D02*
D03*
X205000D02*
D03*
X265000Y260000D02*
D03*
X277000D02*
D03*
X352000Y322000D02*
D03*
X443000Y325000D02*
D03*
X478000Y286000D02*
D03*
X540000Y214210D02*
D03*
X502000Y232000D02*
D03*
X505000Y267000D02*
D03*
X729000Y605000D02*
D03*
X1511000Y592000D02*
D03*
X1512000Y576000D02*
D03*
Y566000D02*
D03*
X1511000Y550000D02*
D03*
X666500Y591500D02*
D03*
X355000Y562552D02*
D03*
X550210Y523453D02*
D03*
X541000Y523000D02*
D03*
X641750Y575000D02*
D03*
X605504Y571713D02*
D03*
X666895Y479894D02*
D03*
X675250Y608000D02*
D03*
X671000Y596424D02*
D03*
Y602924D02*
D03*
X675250Y591500D02*
D03*
X666250Y607750D02*
D03*
X676000Y583000D02*
D03*
X604693Y588736D02*
D03*
X601000Y576400D02*
D03*
Y582900D02*
D03*
X1329000Y632500D02*
D03*
X1320000Y647500D02*
D03*
X1233000Y515561D02*
D03*
X1217000Y540000D02*
D03*
X784000Y499000D02*
D03*
X1296000Y532000D02*
D03*
Y543000D02*
D03*
Y632000D02*
D03*
Y647000D02*
D03*
Y558000D02*
D03*
X1329000Y576000D02*
D03*
Y558000D02*
D03*
X1320000Y543000D02*
D03*
Y531000D02*
D03*
X641000Y347000D02*
D03*
X656000Y352000D02*
D03*
X649000Y319000D02*
D03*
X641000D02*
D03*
X657000D02*
D03*
X486000Y691000D02*
D03*
X1547000Y303550D02*
D03*
Y262000D02*
D03*
Y236000D02*
D03*
X1548000Y425574D02*
D03*
Y414174D02*
D03*
X1550000Y436500D02*
D03*
X1485000Y608500D02*
D03*
Y587000D02*
D03*
Y555000D02*
D03*
Y533500D02*
D03*
X1483000Y544000D02*
D03*
Y566000D02*
D03*
Y576000D02*
D03*
Y598000D02*
D03*
X1589000Y602000D02*
D03*
X1564000Y652000D02*
D03*
X1562000Y664000D02*
D03*
X395000Y875000D02*
D03*
X1231000Y251000D02*
D03*
Y244500D02*
D03*
X1224000Y179500D02*
D03*
Y186000D02*
D03*
X750000Y105000D02*
D03*
X1267500Y163028D02*
D03*
Y156528D02*
D03*
X373000Y806000D02*
D03*
X362416Y803880D02*
D03*
X354071Y804930D02*
D03*
X598826Y468999D02*
D03*
X1148500Y313000D02*
D03*
X1142000D02*
D03*
X500000Y61000D02*
D03*
X490000Y91000D02*
D03*
Y84000D02*
D03*
Y98000D02*
D03*
X529000Y121000D02*
D03*
X528000Y228000D02*
D03*
X456500Y95250D02*
D03*
X355000Y499000D02*
D03*
X234000Y470000D02*
D03*
X223000Y508000D02*
D03*
X241552Y433000D02*
D03*
X430000Y68000D02*
D03*
X440000D02*
D03*
Y62000D02*
D03*
X430000D02*
D03*
X1021500Y287500D02*
D03*
X1015000D02*
D03*
X827500Y430000D02*
D03*
X947500Y327500D02*
D03*
X957500Y317500D02*
D03*
X1061000Y331000D02*
D03*
X1067500D02*
D03*
X957500Y327500D02*
D03*
X937500Y317500D02*
D03*
Y327500D02*
D03*
X947500Y317500D02*
D03*
X1266877Y270928D02*
D03*
X1267251Y329018D02*
D03*
X1267222Y322518D02*
D03*
X1268498Y283727D02*
D03*
X947500Y307500D02*
D03*
X937500D02*
D03*
X957500D02*
D03*
X565000Y685000D02*
D03*
X552500D02*
D03*
X540000D02*
D03*
X527500D02*
D03*
X675000Y430000D02*
D03*
X642000Y425000D02*
D03*
X809000Y522000D02*
D03*
X1564000Y535000D02*
D03*
X918750Y495000D02*
D03*
Y487500D02*
D03*
Y480000D02*
D03*
Y472500D02*
D03*
X915000Y455000D02*
D03*
Y462500D02*
D03*
X908455Y472968D02*
D03*
X907500Y497500D02*
D03*
X602000Y620000D02*
D03*
Y641000D02*
D03*
X817000Y567000D02*
D03*
Y578000D02*
D03*
X809563Y585633D02*
D03*
X190000Y471000D02*
D03*
X182000D02*
D03*
X174000D02*
D03*
X166000D02*
D03*
Y478000D02*
D03*
X565000Y660000D02*
D03*
X552500D02*
D03*
X540000D02*
D03*
X527500D02*
D03*
X570000Y295000D02*
D03*
Y287500D02*
D03*
Y280000D02*
D03*
Y272500D02*
D03*
X1271000Y532000D02*
D03*
X716000Y419000D02*
D03*
X691000Y413186D02*
D03*
X886000Y402000D02*
D03*
X878000D02*
D03*
X1270000Y640000D02*
D03*
Y646000D02*
D03*
X501000Y241000D02*
D03*
X540000Y237000D02*
D03*
X549000Y251000D02*
D03*
X492500Y204500D02*
D03*
X805000Y551000D02*
D03*
Y557000D02*
D03*
X374000Y273000D02*
D03*
X265000Y283000D02*
D03*
X277000D02*
D03*
X160000Y315000D02*
D03*
X198000Y307000D02*
D03*
X278000Y352000D02*
D03*
X132000Y320000D02*
D03*
X139000D02*
D03*
X38000Y496000D02*
D03*
X32500Y567500D02*
D03*
Y575000D02*
D03*
Y582500D02*
D03*
Y590000D02*
D03*
Y597500D02*
D03*
X25000Y567500D02*
D03*
Y575000D02*
D03*
Y582500D02*
D03*
Y590000D02*
D03*
Y597500D02*
D03*
X38000Y565000D02*
D03*
X693000Y576000D02*
D03*
X500000Y187000D02*
D03*
Y194500D02*
D03*
X492500D02*
D03*
Y187000D02*
D03*
X610000Y105000D02*
D03*
X60000Y718000D02*
D03*
X445000Y185000D02*
D03*
Y175000D02*
D03*
Y165000D02*
D03*
Y155000D02*
D03*
Y145000D02*
D03*
Y135000D02*
D03*
Y125000D02*
D03*
Y115000D02*
D03*
Y105000D02*
D03*
X435000D02*
D03*
Y115000D02*
D03*
Y125000D02*
D03*
Y135000D02*
D03*
Y145000D02*
D03*
Y155000D02*
D03*
Y165000D02*
D03*
Y175000D02*
D03*
Y185000D02*
D03*
X275000Y592500D02*
D03*
Y600000D02*
D03*
X345000Y465000D02*
D03*
X342552Y485000D02*
D03*
X605453Y417478D02*
D03*
X527500Y652500D02*
D03*
X540000D02*
D03*
X552500D02*
D03*
X395000Y597500D02*
D03*
X382500D02*
D03*
X370000Y605000D02*
D03*
X395000D02*
D03*
X382500D02*
D03*
X370000Y597500D02*
D03*
X396000Y804000D02*
D03*
X658000Y271750D02*
D03*
X120000Y149000D02*
D03*
X108000D02*
D03*
X784000Y561000D02*
D03*
X477000Y264000D02*
D03*
X477552Y275000D02*
D03*
X579000Y278000D02*
D03*
Y272000D02*
D03*
X247479Y514288D02*
D03*
X285000Y507448D02*
D03*
X295000D02*
D03*
X199000Y508448D02*
D03*
X223076Y521295D02*
D03*
X190000Y514000D02*
D03*
X221000Y533000D02*
D03*
Y555000D02*
D03*
X267000Y447000D02*
D03*
X215000D02*
D03*
X295000Y485000D02*
D03*
X285000D02*
D03*
X295000Y492500D02*
D03*
X285000D02*
D03*
X295000Y500000D02*
D03*
X285000D02*
D03*
X290000Y592500D02*
D03*
Y600000D02*
D03*
X282500Y600000D02*
D03*
Y592500D02*
D03*
X782000Y904000D02*
D03*
X727000D02*
D03*
X671000D02*
D03*
X616000D02*
D03*
X252000Y529000D02*
D03*
X223000Y543000D02*
D03*
X79000Y580000D02*
D03*
X292000Y433000D02*
D03*
X626586Y392586D02*
D03*
X699000Y385000D02*
D03*
X698000Y378000D02*
D03*
X605265Y451302D02*
D03*
X605600Y444600D02*
D03*
X598525Y435972D02*
D03*
X598500Y443063D02*
D03*
X598891Y429483D02*
D03*
X666000Y436000D02*
D03*
X604709Y423935D02*
D03*
X545250Y438500D02*
D03*
X730000Y392000D02*
D03*
X199000Y475000D02*
D03*
X130000Y727500D02*
D03*
X117500D02*
D03*
X105000Y728000D02*
D03*
X160000Y859000D02*
D03*
X145000Y864000D02*
D03*
X125000D02*
D03*
X105000D02*
D03*
X85000D02*
D03*
X65000D02*
D03*
X873000Y887000D02*
D03*
X926000D02*
D03*
X914000Y896000D02*
D03*
X885000D02*
D03*
X845000Y879000D02*
D03*
X377000Y536000D02*
D03*
X667000Y447000D02*
D03*
Y458000D02*
D03*
Y469000D02*
D03*
X826000Y530000D02*
D03*
X809000Y631000D02*
D03*
X549250Y469000D02*
D03*
X1268524Y290227D02*
D03*
X1268227Y303221D02*
D03*
X1268251Y296721D02*
D03*
X1268750Y316200D02*
D03*
Y309700D02*
D03*
X707000Y402000D02*
D03*
X695000Y407000D02*
D03*
X1589000Y565000D02*
D03*
X149000Y339000D02*
D03*
X160000D02*
D03*
X193000D02*
D03*
X182000D02*
D03*
X171000D02*
D03*
X123000Y302000D02*
D03*
X182000Y316000D02*
D03*
X157000Y300000D02*
D03*
X158604Y284862D02*
D03*
X157005Y229698D02*
D03*
X124561Y222250D02*
D03*
X124431Y252362D02*
D03*
X124561Y292250D02*
D03*
Y267250D02*
D03*
X124431Y237362D02*
D03*
X157000Y244750D02*
D03*
X367000Y257000D02*
D03*
X1589000Y577000D02*
D03*
X271000Y427000D02*
D03*
X218000D02*
D03*
X45000Y457000D02*
D03*
X83000D02*
D03*
X204000Y459000D02*
D03*
X257000D02*
D03*
X222250Y226800D02*
D03*
X211250D02*
D03*
X222250Y210700D02*
D03*
X211250D02*
D03*
X652750Y575000D02*
D03*
X641750Y558900D02*
D03*
X188000Y258000D02*
D03*
X191000Y269000D02*
D03*
X371176Y293324D02*
D03*
X157000Y214750D02*
D03*
X811221Y876207D02*
D03*
X756138Y876458D02*
D03*
X700000Y876000D02*
D03*
X644000D02*
D03*
Y863000D02*
D03*
X699000D02*
D03*
X810000D02*
D03*
X755425Y863162D02*
D03*
X25000Y496000D02*
D03*
X63000D02*
D03*
X318000Y472000D02*
D03*
X306000Y486000D02*
D03*
X845000Y859000D02*
D03*
X351000Y585000D02*
D03*
X175000Y514000D02*
D03*
X181000Y509000D02*
D03*
X166000Y503000D02*
D03*
X72000Y584000D02*
D03*
X67000Y599000D02*
D03*
X78000Y595000D02*
D03*
X275000Y531500D02*
D03*
X258355Y358705D02*
D03*
X375001Y891366D02*
D03*
X337510Y891330D02*
D03*
X376510Y832330D02*
D03*
X346510Y778330D02*
D03*
X647250Y570200D02*
D03*
Y563700D02*
D03*
X362000Y282000D02*
D03*
X361747Y302000D02*
D03*
X216750Y222000D02*
D03*
Y215500D02*
D03*
X350510Y892330D02*
D03*
X387510Y891330D02*
D03*
X168510Y841330D02*
D03*
X346510Y802330D02*
D03*
D119*
X460000Y171000D02*
D03*
X390000Y398000D02*
D03*
X845000Y846000D02*
D03*
X540000Y224000D02*
D03*
X541000Y121000D02*
D03*
X460000Y155000D02*
D03*
Y140000D02*
D03*
Y125000D02*
D03*
Y110000D02*
D03*
X564000Y469000D02*
D03*
X634000Y455000D02*
D03*
X405736Y875264D02*
D03*
X67750Y548000D02*
D03*
X379000Y791000D02*
D03*
X363000D02*
D03*
D120*
X325000Y148000D02*
D03*
X500000Y155000D02*
D03*
M02*
