G04*
G04 #@! TF.GenerationSoftware,Altium Limited,Altium Designer,25.2.1 (25)*
G04*
G04 Layer_Color=128*
%FSLAX44Y44*%
%MOMM*%
G71*
G04*
G04 #@! TF.SameCoordinates,1675D247-2589-475D-A358-125397F96DBE*
G04*
G04*
G04 #@! TF.FilePolarity,Positive*
G04*
G01*
G75*
%ADD50R,0.7000X4.2000*%
%ADD51R,0.7000X3.2000*%
%ADD119C,1.0000*%
%ADD120C,2.0000*%
D50*
X990000Y35000D02*
D03*
X980000D02*
D03*
X1000000D02*
D03*
X960000D02*
D03*
X970000D02*
D03*
X1040000D02*
D03*
X1030000D02*
D03*
X1050000D02*
D03*
X1020000D02*
D03*
X1010000D02*
D03*
X880000D02*
D03*
X890000D02*
D03*
X900000D02*
D03*
X860000D02*
D03*
X870000D02*
D03*
X930000D02*
D03*
X940000D02*
D03*
X950000D02*
D03*
X910000D02*
D03*
X920000D02*
D03*
X1180000D02*
D03*
X1200000D02*
D03*
X1190000D02*
D03*
X1150000D02*
D03*
X1170000D02*
D03*
X1160000D02*
D03*
X1240000D02*
D03*
X1230000D02*
D03*
X1250000D02*
D03*
X1210000D02*
D03*
X1220000D02*
D03*
X1080000D02*
D03*
X1090000D02*
D03*
X1060000D02*
D03*
X850000D02*
D03*
X1070000D02*
D03*
X1130000D02*
D03*
X1140000D02*
D03*
X1110000D02*
D03*
X1100000D02*
D03*
X1120000D02*
D03*
X580000D02*
D03*
X570000D02*
D03*
X590000D02*
D03*
X550000D02*
D03*
X520000D02*
D03*
X560000D02*
D03*
X630000D02*
D03*
X640000D02*
D03*
X600000D02*
D03*
X620000D02*
D03*
X610000D02*
D03*
X450000D02*
D03*
X460000D02*
D03*
X430000D02*
D03*
X440000D02*
D03*
X510000D02*
D03*
X500000D02*
D03*
X480000D02*
D03*
X470000D02*
D03*
X490000D02*
D03*
X770000D02*
D03*
X790000D02*
D03*
X780000D02*
D03*
X750000D02*
D03*
X740000D02*
D03*
X760000D02*
D03*
X830000D02*
D03*
X820000D02*
D03*
X840000D02*
D03*
X810000D02*
D03*
X800000D02*
D03*
X670000D02*
D03*
X660000D02*
D03*
X680000D02*
D03*
X650000D02*
D03*
X720000D02*
D03*
X730000D02*
D03*
X700000D02*
D03*
X690000D02*
D03*
X710000D02*
D03*
D51*
X420000Y40000D02*
D03*
D119*
X460000Y171000D02*
D03*
X390000Y398000D02*
D03*
X845000Y846000D02*
D03*
X540000Y224000D02*
D03*
X541000Y121000D02*
D03*
X460000Y155000D02*
D03*
Y140000D02*
D03*
Y125000D02*
D03*
Y110000D02*
D03*
X564000Y469000D02*
D03*
X634000Y455000D02*
D03*
X405736Y875264D02*
D03*
X67750Y548000D02*
D03*
X379000Y791000D02*
D03*
X363000D02*
D03*
D120*
X325000Y148000D02*
D03*
X500000Y155000D02*
D03*
M02*
