G04*
G04 #@! TF.GenerationSoftware,Altium Limited,Altium Designer,25.2.1 (25)*
G04*
G04 Layer_Physical_Order=3*
G04 Layer_Color=16737945*
%FSLAX44Y44*%
%MOMM*%
G71*
G04*
G04 #@! TF.SameCoordinates,1675D247-2589-475D-A358-125397F96DBE*
G04*
G04*
G04 #@! TF.FilePolarity,Positive*
G04*
G01*
G75*
%ADD103C,0.2032*%
%ADD108O,1.8500X1.8600*%
%ADD109O,1.8600X1.8500*%
%ADD110C,2.5650*%
%ADD111C,1.5000*%
%ADD112C,1.8750*%
%ADD113C,3.1500*%
%ADD114C,2.7750*%
%ADD115C,1.0500*%
%ADD116C,3.3000*%
G04:AMPARAMS|DCode=117|XSize=2.775mm|YSize=2.775mm|CornerRadius=0.3469mm|HoleSize=0mm|Usage=FLASHONLY|Rotation=270.000|XOffset=0mm|YOffset=0mm|HoleType=Round|Shape=RoundedRectangle|*
%AMROUNDEDRECTD117*
21,1,2.7750,2.0812,0,0,270.0*
21,1,2.0812,2.7750,0,0,270.0*
1,1,0.6938,-1.0406,-1.0406*
1,1,0.6938,-1.0406,1.0406*
1,1,0.6938,1.0406,1.0406*
1,1,0.6938,1.0406,-1.0406*
%
%ADD117ROUNDEDRECTD117*%
%ADD118C,0.4500*%
G36*
X1609802Y85140D02*
X1263650D01*
X1262659Y84943D01*
X1261819Y84381D01*
X1252929Y75491D01*
X1252367Y74651D01*
X1252170Y73660D01*
Y14039D01*
X547090D01*
X547090Y84000D01*
X547073Y84084D01*
X547084Y84170D01*
X547003Y85409D01*
X546937Y85656D01*
X546920Y85910D01*
X546278Y88306D01*
X546128Y88610D01*
X546019Y88930D01*
X544780Y91078D01*
X544556Y91333D01*
X544368Y91614D01*
X542614Y93368D01*
X542333Y93556D01*
X542078Y93780D01*
X539930Y95020D01*
X539609Y95128D01*
X539306Y95278D01*
X536910Y95920D01*
X536572Y95942D01*
X536240Y96008D01*
X533760D01*
X533428Y95942D01*
X533090Y95920D01*
X530694Y95278D01*
X530390Y95128D01*
X530070Y95020D01*
X527922Y93779D01*
X527667Y93556D01*
X527386Y93368D01*
X525632Y91614D01*
X525444Y91333D01*
X525220Y91078D01*
X523980Y88930D01*
X523872Y88610D01*
X523722Y88306D01*
X523080Y85910D01*
X523063Y85656D01*
X522997Y85409D01*
X522916Y84169D01*
X522927Y84084D01*
X522910Y84000D01*
Y14039D01*
X417090D01*
Y74958D01*
X416893Y75949D01*
X416331Y76789D01*
X408739Y84381D01*
X407899Y84943D01*
X406908Y85140D01*
X2590D01*
Y911810D01*
X1609802D01*
X1609802Y85140D01*
D02*
G37*
%LPC*%
G36*
X788000Y909539D02*
X771782D01*
X771001Y909384D01*
X770340Y908942D01*
X769898Y908280D01*
X769757Y907942D01*
X768984Y907168D01*
X767972Y906749D01*
X766878D01*
X765867Y907168D01*
X765093Y907942D01*
X764953Y908280D01*
X764511Y908942D01*
X763849Y909384D01*
X763069Y909539D01*
X711782D01*
X711001Y909384D01*
X710340Y908942D01*
X709898Y908280D01*
X709757Y907942D01*
X708984Y907168D01*
X707972Y906749D01*
X706878D01*
X705867Y907168D01*
X705093Y907942D01*
X704953Y908280D01*
X704511Y908942D01*
X703849Y909384D01*
X703069Y909539D01*
X651782D01*
X651001Y909384D01*
X650340Y908942D01*
X649898Y908280D01*
X649757Y907942D01*
X648984Y907168D01*
X647972Y906749D01*
X646878D01*
X645867Y907168D01*
X645093Y907942D01*
X644953Y908280D01*
X644511Y908942D01*
X643849Y909384D01*
X643069Y909539D01*
X611782D01*
X611001Y909384D01*
X610340Y908942D01*
X609898Y908280D01*
X609757Y907942D01*
X608984Y907168D01*
X607973Y906749D01*
X606878D01*
X605867Y907168D01*
X605093Y907942D01*
X604953Y908280D01*
X604511Y908942D01*
X603850Y909384D01*
X603069Y909539D01*
X597500D01*
X596720Y909384D01*
X596058Y908942D01*
X496058Y808942D01*
X495616Y808280D01*
X495461Y807500D01*
Y655000D01*
X495616Y654220D01*
X496058Y653558D01*
X496058Y653558D01*
X500753Y648863D01*
X500267Y647690D01*
X343650D01*
X343650Y647690D01*
X342870Y647534D01*
X342208Y647092D01*
X295963Y600847D01*
X294639Y601319D01*
X294061Y602713D01*
X292713Y604061D01*
X290953Y604790D01*
X289047D01*
X287287Y604061D01*
X286250Y603024D01*
X285213Y604061D01*
X283453Y604790D01*
X281547D01*
X279787Y604061D01*
X278750Y603024D01*
X277713Y604061D01*
X275953Y604790D01*
X274047D01*
X272287Y604061D01*
X270939Y602713D01*
X270210Y600953D01*
Y599047D01*
X270939Y597287D01*
X271976Y596250D01*
X270939Y595213D01*
X270210Y593453D01*
Y591547D01*
X270939Y589787D01*
X272287Y588439D01*
X274047Y587710D01*
X275953D01*
X277713Y588439D01*
X278750Y589476D01*
X279787Y588439D01*
X281182Y587862D01*
X281653Y586537D01*
X251348Y556232D01*
X250906Y555570D01*
X250751Y554790D01*
Y553453D01*
X250332Y552442D01*
X249558Y551668D01*
X248547Y551249D01*
X247210D01*
X247210Y551249D01*
X246430Y551094D01*
X245768Y550652D01*
X234655Y539539D01*
X227973D01*
X227277Y540809D01*
X227790Y542047D01*
Y543953D01*
X227061Y545713D01*
X225713Y547061D01*
X223953Y547790D01*
X222047D01*
X220287Y547061D01*
X218939Y545713D01*
X218210Y543953D01*
Y542047D01*
X218723Y540809D01*
X218027Y539539D01*
X207000D01*
X206220Y539384D01*
X205558Y538942D01*
X205116Y538280D01*
X204961Y537500D01*
Y505845D01*
X193155Y494039D01*
X160000D01*
X159220Y493884D01*
X158558Y493442D01*
X158116Y492780D01*
X157961Y492000D01*
Y467500D01*
X158116Y466720D01*
X158558Y466058D01*
X159220Y465616D01*
X160000Y465461D01*
X228708D01*
X228905Y465500D01*
X229106D01*
X229291Y465577D01*
X229488Y465616D01*
X229655Y465728D01*
X229841Y465804D01*
X231036Y465965D01*
X231287Y465939D01*
X233047Y465210D01*
X234953D01*
X236713Y465939D01*
X238061Y467287D01*
X238790Y469047D01*
Y469151D01*
X238817Y469241D01*
X239000Y469606D01*
X239751Y470353D01*
X239936Y470430D01*
X240133Y470469D01*
X240300Y470580D01*
X240486Y470657D01*
X240628Y470799D01*
X240795Y470911D01*
X276787Y506904D01*
X277961Y506418D01*
X277961Y480845D01*
X259945Y462829D01*
X259713Y463061D01*
X257953Y463790D01*
X256047D01*
X254287Y463061D01*
X252939Y461713D01*
X252210Y459953D01*
Y458047D01*
X252939Y456287D01*
X253171Y456055D01*
X251655Y454539D01*
X212000D01*
X211220Y454384D01*
X210558Y453942D01*
X210116Y453280D01*
X209961Y452500D01*
Y442500D01*
X210116Y441720D01*
X210558Y441058D01*
X211220Y440616D01*
X212000Y440461D01*
X261655D01*
X389059Y313057D01*
X389226Y312946D01*
X389368Y312804D01*
X389553Y312727D01*
X389720Y312616D01*
X389917Y312576D01*
X390103Y312500D01*
X390304D01*
X390500Y312460D01*
X391210Y311547D01*
X391939Y309787D01*
X392476Y309250D01*
X391939Y308713D01*
X391210Y306953D01*
Y305047D01*
X391939Y303287D01*
X393287Y301939D01*
X395047Y301210D01*
X396953D01*
X398713Y301939D01*
X399445Y302671D01*
X437961Y264155D01*
Y259539D01*
X428345D01*
X401405Y286479D01*
X401142Y286654D01*
X400894Y286851D01*
X400813Y286874D01*
X400744Y286921D01*
X400433Y286982D01*
X400129Y287069D01*
X400046Y287059D01*
X399963Y287076D01*
X399653Y287014D01*
X399339Y286978D01*
X397980Y286541D01*
X397906Y286500D01*
X397824Y286483D01*
X397561Y286308D01*
X397285Y286154D01*
X397232Y286088D01*
X397163Y286041D01*
X396987Y285778D01*
X396790Y285530D01*
X396767Y285450D01*
X396721Y285380D01*
X396332Y284442D01*
X396057Y284029D01*
X395890Y283780D01*
X395735Y283000D01*
Y283000D01*
X395890Y282220D01*
X396332Y281558D01*
X396751Y280547D01*
Y279453D01*
X396332Y278442D01*
X395558Y277668D01*
X394547Y277249D01*
X393453D01*
X392442Y277668D01*
X391668Y278442D01*
X391249Y279453D01*
Y280547D01*
X391668Y281558D01*
X391943Y281971D01*
X392110Y282220D01*
X392265Y283000D01*
X392110Y283780D01*
X391668Y284442D01*
X391249Y285453D01*
Y286547D01*
X391668Y287558D01*
X392442Y288332D01*
X393380Y288720D01*
X393450Y288767D01*
X393530Y288790D01*
X393778Y288987D01*
X394041Y289163D01*
X394088Y289232D01*
X394154Y289285D01*
X394308Y289561D01*
X394483Y289824D01*
X394500Y289907D01*
X394541Y289980D01*
X394978Y291339D01*
X395014Y291653D01*
X395076Y291963D01*
X395060Y292046D01*
X395069Y292129D01*
X394982Y292433D01*
X394921Y292744D01*
X394874Y292813D01*
X394851Y292894D01*
X394654Y293142D01*
X394479Y293405D01*
X331442Y356442D01*
X330780Y356884D01*
X330000Y357039D01*
X285000Y357039D01*
X261424D01*
X260644Y356884D01*
X259982Y356442D01*
X259913Y356373D01*
X258902Y355954D01*
X257808D01*
X256796Y356373D01*
X256727Y356442D01*
X256066Y356884D01*
X255285Y357039D01*
X220845D01*
X99539Y478345D01*
Y560000D01*
X99539Y560000D01*
X99384Y560780D01*
X98942Y561442D01*
X98942Y561442D01*
X90881Y569503D01*
X90881Y569503D01*
X83071Y577313D01*
X83790Y579047D01*
Y580953D01*
X83061Y582713D01*
X81713Y584061D01*
X79953Y584790D01*
X78047D01*
X76287Y584061D01*
X74939Y582713D01*
X74690Y582112D01*
X74630Y582014D01*
X73817Y581129D01*
X73539Y581184D01*
X73269Y581271D01*
X73152Y581261D01*
X73037Y581284D01*
X72862Y581249D01*
X71453D01*
X70442Y581668D01*
X69668Y582442D01*
X69249Y583453D01*
Y584547D01*
X69668Y585558D01*
X69928Y585818D01*
X70146Y586145D01*
X70365Y586469D01*
X70367Y586474D01*
X70370Y586480D01*
X70446Y586864D01*
X70525Y587248D01*
X70536Y588991D01*
X70535Y588997D01*
X70536Y589003D01*
X70459Y589387D01*
X70385Y589772D01*
X70382Y589778D01*
X70381Y589784D01*
X70164Y590108D01*
X69947Y590437D01*
X69942Y590440D01*
X69938Y590445D01*
X51442Y608942D01*
X50780Y609384D01*
X50000Y609539D01*
X17500D01*
X16720Y609384D01*
X16058Y608942D01*
X15616Y608280D01*
X15461Y607500D01*
Y482500D01*
X15461Y482500D01*
X15616Y481720D01*
X16058Y481058D01*
X38408Y458708D01*
X38478Y458661D01*
X38530Y458596D01*
X38807Y458442D01*
X39070Y458266D01*
X39174Y458237D01*
X39225Y458209D01*
X39871Y458041D01*
X40196Y456947D01*
X40210Y456859D01*
Y456047D01*
X40939Y454287D01*
X42287Y452939D01*
X44047Y452210D01*
X44850D01*
X45210Y452124D01*
X46044Y451870D01*
X46244Y451124D01*
X46256Y451105D01*
X46266Y451070D01*
X46471Y450763D01*
X46667Y450450D01*
X46692Y450433D01*
X46708Y450408D01*
X125461Y371655D01*
Y366315D01*
X124191Y365789D01*
X123295Y366685D01*
X120778Y368366D01*
X117982Y369524D01*
X115013Y370115D01*
X111987D01*
X109018Y369524D01*
X106222Y368366D01*
X103705Y366685D01*
X101565Y364545D01*
X99884Y362028D01*
X98726Y359232D01*
X98135Y356263D01*
Y353237D01*
X98726Y350268D01*
X99884Y347472D01*
X101565Y344955D01*
X103705Y342815D01*
X106222Y341134D01*
X109018Y339975D01*
X111987Y339385D01*
X115013D01*
X117982Y339975D01*
X120778Y341134D01*
X123295Y342815D01*
X124191Y343711D01*
X125461Y343185D01*
Y310000D01*
X125616Y309220D01*
X126058Y308558D01*
X126720Y308116D01*
X127500Y307961D01*
X174155D01*
X181058Y301058D01*
X181720Y300616D01*
X182500Y300461D01*
X200210D01*
X200990Y300616D01*
X201652Y301058D01*
X202094Y301720D01*
X202249Y302500D01*
Y303547D01*
X202668Y304558D01*
X203442Y305332D01*
X204453Y305751D01*
X205547D01*
X206558Y305332D01*
X207268Y304622D01*
X207366Y304557D01*
X207442Y304467D01*
X207694Y304337D01*
X207930Y304180D01*
X208045Y304157D01*
X208150Y304103D01*
X208940Y303878D01*
X209107Y303864D01*
X209266Y303813D01*
X209500Y303832D01*
X209733Y303813D01*
X209893Y303864D01*
X210060Y303878D01*
X210850Y304103D01*
X210955Y304157D01*
X211070Y304180D01*
X211306Y304337D01*
X211557Y304467D01*
X211634Y304557D01*
X211732Y304622D01*
X212442Y305332D01*
X213453Y305751D01*
X214547D01*
X215558Y305332D01*
X216332Y304558D01*
X216751Y303547D01*
Y302500D01*
X216906Y301720D01*
X217348Y301058D01*
X218010Y300616D01*
X218790Y300461D01*
X244155D01*
X257961Y286655D01*
Y277500D01*
X258116Y276720D01*
X258558Y276058D01*
X258558Y276058D01*
X266058Y268558D01*
X266720Y268116D01*
X267500Y267961D01*
X326155D01*
X345558Y248558D01*
X393558Y200558D01*
X394220Y200116D01*
X395000Y199961D01*
X489848D01*
X490101Y198691D01*
X489787Y198561D01*
X488439Y197213D01*
X487710Y195453D01*
Y193547D01*
X488439Y191787D01*
X489476Y190750D01*
X488439Y189713D01*
X487710Y187953D01*
Y186047D01*
X488439Y184287D01*
X489787Y182939D01*
X491547Y182210D01*
X493453D01*
X495213Y182939D01*
X496250Y183976D01*
X497287Y182939D01*
X499047Y182210D01*
X500953D01*
X502713Y182939D01*
X504061Y184287D01*
X504790Y186047D01*
Y187953D01*
X504061Y189713D01*
X503024Y190750D01*
X504061Y191787D01*
X504790Y193547D01*
Y195453D01*
X504061Y197213D01*
X502713Y198561D01*
X502399Y198691D01*
X502652Y199961D01*
X563582D01*
X564431Y198691D01*
X563442Y196304D01*
X562710Y192625D01*
Y188875D01*
X563442Y185196D01*
X564877Y181731D01*
X566961Y178613D01*
X569613Y175961D01*
X572731Y173877D01*
X574102Y173309D01*
X573849Y172039D01*
X560000D01*
X470845Y172039D01*
X453442Y189442D01*
X452780Y189884D01*
X452000Y190039D01*
X410000D01*
X409220Y189884D01*
X408558Y189442D01*
X408116Y188780D01*
X407961Y188000D01*
Y100000D01*
X408116Y99220D01*
X408558Y98558D01*
X409220Y98116D01*
X410000Y97961D01*
X451295Y97961D01*
X452001Y96905D01*
X451710Y96203D01*
Y94297D01*
X452439Y92537D01*
X453787Y91189D01*
X455547Y90460D01*
X457453D01*
X459213Y91189D01*
X460561Y92537D01*
X461290Y94297D01*
Y96203D01*
X460999Y96905D01*
X461705Y97961D01*
X485210D01*
Y97047D01*
X485939Y95287D01*
X486726Y94500D01*
X485939Y93713D01*
X485210Y91953D01*
Y90047D01*
X485939Y88287D01*
X486726Y87500D01*
X485939Y86713D01*
X485210Y84953D01*
Y83047D01*
X485939Y81287D01*
X486726Y80500D01*
X485939Y79713D01*
X485210Y77953D01*
Y76047D01*
X485939Y74287D01*
X487287Y72939D01*
X489047Y72210D01*
X490953D01*
X492713Y72939D01*
X494061Y74287D01*
X494790Y76047D01*
Y77953D01*
X494061Y79713D01*
X493274Y80500D01*
X494061Y81287D01*
X494790Y83047D01*
Y84953D01*
X494061Y86713D01*
X493274Y87500D01*
X494061Y88287D01*
X494790Y90047D01*
Y91953D01*
X494061Y93713D01*
X493274Y94500D01*
X494061Y95287D01*
X494790Y97047D01*
Y97961D01*
X606488Y97961D01*
X606529Y97969D01*
X606570Y97962D01*
X606918Y98046D01*
X607269Y98116D01*
X607303Y98139D01*
X607343Y98148D01*
X607633Y98359D01*
X607930Y98558D01*
X607953Y98592D01*
X607987Y98617D01*
X608173Y98922D01*
X608372Y99220D01*
X609047Y100210D01*
X610953D01*
X611628Y99220D01*
X611827Y98922D01*
X612013Y98617D01*
X612047Y98592D01*
X612070Y98558D01*
X612367Y98359D01*
X612657Y98148D01*
X612697Y98139D01*
X612731Y98116D01*
X613082Y98046D01*
X613430Y97962D01*
X613471Y97969D01*
X613512Y97961D01*
X666000Y97961D01*
X687500D01*
X688280Y98116D01*
X688942Y98558D01*
X1278216Y687832D01*
X1278658Y688494D01*
X1278813Y689274D01*
X1278813Y709175D01*
X1280083Y710024D01*
X1282696Y708942D01*
X1286375Y708210D01*
X1290125D01*
X1293804Y708942D01*
X1297269Y710377D01*
X1300387Y712461D01*
X1303039Y715113D01*
X1305123Y718231D01*
X1306558Y721696D01*
X1307290Y725375D01*
Y729125D01*
X1306558Y732804D01*
X1305444Y735494D01*
X1305415Y735713D01*
X1305458Y736598D01*
X1305981Y737111D01*
X1306045Y737189D01*
X1306129Y737246D01*
X1336845Y767961D01*
X1400000D01*
X1400780Y768116D01*
X1401442Y768558D01*
X1401884Y769220D01*
X1402039Y770000D01*
Y808000D01*
X1401884Y808780D01*
X1401442Y809442D01*
X1400780Y809884D01*
X1400000Y810039D01*
X1291000Y810039D01*
X1290220Y809884D01*
X1289558Y809442D01*
X1284162Y804045D01*
X1243509Y804048D01*
X1243509Y804048D01*
X1243509Y804048D01*
X1243086Y803964D01*
X1242729Y803893D01*
X1242729Y803893D01*
X1242729Y803893D01*
X1242396Y803671D01*
X1242067Y803451D01*
X1242067Y803451D01*
X1242067Y803451D01*
X949558Y510942D01*
X949116Y510280D01*
X948961Y509500D01*
Y454547D01*
X907707Y413293D01*
X907495Y412976D01*
X907278Y412663D01*
X907275Y412646D01*
X907265Y412631D01*
X907191Y412258D01*
X907110Y411885D01*
X906975Y403859D01*
X887506Y384390D01*
X879649D01*
X879649Y384390D01*
X878869Y384235D01*
X878207Y383793D01*
X878207Y383793D01*
X666453Y172039D01*
X589651D01*
X589398Y173309D01*
X590769Y173877D01*
X593887Y175961D01*
X596539Y178613D01*
X598623Y181731D01*
X600058Y185196D01*
X600790Y188875D01*
Y192625D01*
X600058Y196304D01*
X598623Y199769D01*
X596539Y202887D01*
X593887Y205539D01*
X592164Y206691D01*
X592549Y207961D01*
X657500D01*
X657500Y207961D01*
X658280Y208116D01*
X658942Y208558D01*
X658942Y208558D01*
X810442Y360058D01*
X810884Y360720D01*
X811039Y361500D01*
X811039Y477500D01*
Y517210D01*
X810956Y517626D01*
X811713Y517939D01*
X813061Y519287D01*
X813790Y521047D01*
Y522953D01*
X813061Y524713D01*
X811713Y526061D01*
X810956Y526374D01*
X811039Y526790D01*
Y559210D01*
Y561000D01*
X810884Y561780D01*
X810442Y562442D01*
X809780Y562884D01*
X809000Y563039D01*
X788790D01*
X788010Y562884D01*
X787348Y562442D01*
X786906Y561780D01*
X786751Y561000D01*
Y560453D01*
X786332Y559442D01*
X785558Y558668D01*
X784547Y558249D01*
X783453D01*
X782442Y558668D01*
X781668Y559442D01*
X781249Y560453D01*
Y561000D01*
X781094Y561780D01*
X780652Y562442D01*
X779990Y562884D01*
X779210Y563039D01*
X773845D01*
X755442Y581442D01*
X754780Y581884D01*
X754000Y582039D01*
X685000D01*
X684220Y581884D01*
X683558Y581442D01*
X683116Y580780D01*
X682961Y580000D01*
Y562500D01*
X682961Y562500D01*
X683116Y561720D01*
X683558Y561058D01*
X688558Y556058D01*
X689220Y555616D01*
X690000Y555461D01*
X726655D01*
X765461Y516655D01*
Y378345D01*
X674619Y287503D01*
X674619Y287503D01*
X661322Y274206D01*
X661322Y274206D01*
X661322Y274206D01*
X661085Y273852D01*
X660881Y273545D01*
X660880Y273545D01*
X660880Y273544D01*
X660799Y273134D01*
X660725Y272764D01*
X660725Y272764D01*
X660725Y272764D01*
X660751Y272636D01*
Y271203D01*
X660332Y270192D01*
X659558Y269418D01*
X658547Y268999D01*
X657114D01*
X656986Y269025D01*
X656986Y269025D01*
X656986Y269025D01*
X656573Y268943D01*
X656206Y268870D01*
X656205Y268870D01*
X656205Y268869D01*
X655920Y268679D01*
X655544Y268428D01*
X655544Y268428D01*
X655544Y268428D01*
X646655Y259539D01*
X609920D01*
X609140Y259384D01*
X608478Y258942D01*
X608036Y258280D01*
X607881Y257500D01*
Y256893D01*
X607489Y255430D01*
X606732Y254119D01*
X605661Y253048D01*
X604350Y252291D01*
X602887Y251899D01*
X601373D01*
X599910Y252291D01*
X598599Y253048D01*
X597528Y254119D01*
X596771Y255430D01*
X596379Y256893D01*
Y257500D01*
X596224Y258280D01*
X595782Y258942D01*
X595120Y259384D01*
X594340Y259539D01*
X474329D01*
Y262714D01*
X474348Y262809D01*
X474249Y263305D01*
Y264547D01*
X474668Y265558D01*
X475442Y266332D01*
X476453Y266751D01*
X477695D01*
X478191Y266652D01*
X478191D01*
X478972Y266807D01*
X479633Y267249D01*
X482442Y270058D01*
X482884Y270720D01*
X483039Y271500D01*
Y278000D01*
X482884Y278780D01*
X482442Y279442D01*
X482442Y279442D01*
X479232Y282652D01*
X478570Y283094D01*
X477790Y283249D01*
X477453D01*
X476442Y283668D01*
X476168Y283942D01*
X475506Y284384D01*
X474726Y284539D01*
X468345D01*
X302039Y450845D01*
Y512500D01*
X301884Y513280D01*
X301442Y513942D01*
X300780Y514384D01*
X300000Y514539D01*
X286082D01*
X285596Y515713D01*
X325159Y555275D01*
X325601Y555937D01*
X325756Y556717D01*
X325601Y557497D01*
X325159Y558159D01*
X325159Y558159D01*
X325093Y558225D01*
X324674Y559236D01*
Y560330D01*
X325093Y561341D01*
X325867Y562115D01*
X326878Y562534D01*
X327972D01*
X328983Y562115D01*
X329049Y562049D01*
X329711Y561607D01*
X330491Y561452D01*
X331271Y561607D01*
X331933Y562049D01*
X331933Y562049D01*
X345489Y575605D01*
X345489Y575605D01*
X349555Y579671D01*
X349997Y580333D01*
X350152Y581113D01*
X349997Y581893D01*
X349555Y582555D01*
X348668Y583442D01*
X348249Y584453D01*
Y585547D01*
X348668Y586558D01*
X349442Y587332D01*
X350453Y587751D01*
X351547D01*
X352558Y587332D01*
X353445Y586445D01*
X354107Y586003D01*
X354887Y585848D01*
X355667Y586003D01*
X356329Y586445D01*
X356329Y586445D01*
X361787Y591904D01*
X362961Y591418D01*
Y566696D01*
X363116Y565916D01*
X363558Y565255D01*
X363558Y565254D01*
X364560Y564252D01*
X364979Y563241D01*
Y562147D01*
X364560Y561136D01*
X363558Y560133D01*
X363116Y559472D01*
X362961Y558691D01*
Y548345D01*
X341058Y526442D01*
X340616Y525780D01*
X340461Y525000D01*
Y495000D01*
X340461Y495000D01*
X340616Y494220D01*
X341058Y493558D01*
X341058Y493558D01*
X568558Y266058D01*
X569220Y265616D01*
X570000Y265461D01*
X587500D01*
X588280Y265616D01*
X588942Y266058D01*
X589384Y266720D01*
X589539Y267500D01*
Y319155D01*
X598920Y328536D01*
X599031Y328703D01*
X599174Y328845D01*
X599250Y329031D01*
X599362Y329198D01*
X599401Y329394D01*
X599478Y329580D01*
Y329781D01*
X599517Y329978D01*
X599478Y330175D01*
Y330376D01*
X599287Y331337D01*
X599210Y331523D01*
X599171Y331720D01*
X599059Y331887D01*
X598982Y332072D01*
X598840Y332214D01*
X598729Y332381D01*
X597668Y333442D01*
X597249Y334453D01*
Y335547D01*
X597668Y336558D01*
X598442Y337332D01*
X599547Y337790D01*
X599708D01*
X599894Y337867D01*
X600091Y337906D01*
X600258Y338018D01*
X600443Y338094D01*
X600585Y338236D01*
X600752Y338348D01*
X600864Y338515D01*
X601006Y338657D01*
X601115Y338820D01*
X601191Y339005D01*
X601303Y339172D01*
X601342Y339369D01*
X601419Y339555D01*
Y339756D01*
X601458Y339953D01*
Y341452D01*
X601877Y342464D01*
X602651Y343237D01*
X603187Y343460D01*
X604502Y342915D01*
X606089D01*
X606541Y342463D01*
X606694Y342094D01*
X606806Y341927D01*
X606883Y341741D01*
X607025Y341599D01*
X607136Y341432D01*
X607303Y341321D01*
X607445Y341179D01*
X607631Y341102D01*
X607798Y340990D01*
X607995Y340951D01*
X608180Y340874D01*
X609678Y340576D01*
X609879D01*
X610076Y340537D01*
X610273Y340576D01*
X610474D01*
X610660Y340653D01*
X610857Y340692D01*
X611023Y340804D01*
X611209Y340881D01*
X611351Y341023D01*
X611518Y341134D01*
X613942Y343558D01*
X614384Y344220D01*
X614539Y345000D01*
Y357500D01*
X614384Y358280D01*
X613942Y358942D01*
X613280Y359384D01*
X612500Y359539D01*
X605129D01*
X604790Y360047D01*
Y361953D01*
X604061Y363713D01*
X603524Y364250D01*
X604061Y364787D01*
X604790Y366547D01*
Y368453D01*
X604061Y370213D01*
X602713Y371561D01*
X600953Y372290D01*
X599047D01*
X597287Y371561D01*
X595939Y370213D01*
X595210Y368453D01*
Y366547D01*
X595939Y364787D01*
X596476Y364250D01*
X595939Y363713D01*
X595210Y361953D01*
Y360047D01*
X594870Y359539D01*
X582341D01*
X582341Y359539D01*
X581560Y359384D01*
X580899Y358942D01*
X580175Y358218D01*
X579164Y357799D01*
X578070D01*
X577059Y358218D01*
X576335Y358942D01*
X575673Y359384D01*
X574893Y359539D01*
X523345D01*
X404539Y478345D01*
X404539Y594691D01*
X404539Y595961D01*
X442710D01*
X443490Y596116D01*
X444152Y596558D01*
X444594Y597220D01*
X444749Y598000D01*
Y598047D01*
X445168Y599058D01*
X445942Y599832D01*
X446953Y600251D01*
X448047D01*
X449058Y599832D01*
X449832Y599058D01*
X450251Y598047D01*
Y598000D01*
X450406Y597220D01*
X450848Y596558D01*
X451510Y596116D01*
X452290Y595961D01*
X492710D01*
X493490Y596116D01*
X494152Y596558D01*
X494594Y597220D01*
X494749Y598000D01*
Y598047D01*
X495168Y599058D01*
X495942Y599832D01*
X496953Y600251D01*
X498047D01*
X499058Y599832D01*
X499832Y599058D01*
X500251Y598047D01*
Y598000D01*
X500406Y597220D01*
X500848Y596558D01*
X501510Y596116D01*
X502290Y595961D01*
X522710D01*
X523490Y596116D01*
X524152Y596558D01*
X524594Y597220D01*
X524749Y598000D01*
Y598047D01*
X525168Y599058D01*
X525942Y599832D01*
X526953Y600251D01*
X528047D01*
X529058Y599832D01*
X529832Y599058D01*
X530251Y598047D01*
Y598000D01*
X530406Y597220D01*
X530848Y596558D01*
X531510Y596116D01*
X532290Y595961D01*
X555210D01*
X555990Y596116D01*
X556652Y596558D01*
X557094Y597220D01*
X557249Y598000D01*
Y598047D01*
X557668Y599058D01*
X558442Y599832D01*
X559453Y600251D01*
X560547D01*
X561558Y599832D01*
X562557Y598833D01*
X562652Y598690D01*
X562982Y598470D01*
X563314Y598248D01*
X564094Y598093D01*
X565000Y597287D01*
Y597094D01*
X565729Y595334D01*
X566715Y594348D01*
Y561210D01*
X566715Y561210D01*
X566949Y560033D01*
X567616Y559036D01*
X583231Y543421D01*
X584228Y542754D01*
X585405Y542520D01*
X585405Y542520D01*
X618131D01*
X671925Y488726D01*
Y433699D01*
X670939Y432713D01*
X670210Y430953D01*
Y429047D01*
X670939Y427287D01*
X672287Y425939D01*
X674047Y425210D01*
X675953D01*
X677713Y425939D01*
X679061Y427287D01*
X679790Y429047D01*
Y430953D01*
X679061Y432713D01*
X678075Y433699D01*
Y490000D01*
X678075Y490000D01*
X677841Y491177D01*
X677174Y492174D01*
X677174Y492174D01*
X621579Y547770D01*
X620582Y548436D01*
X619405Y548670D01*
X619405Y548670D01*
X586679D01*
X572865Y562484D01*
Y594348D01*
X573851Y595334D01*
X574580Y597094D01*
X575654Y597649D01*
X575843Y597687D01*
X575850Y597687D01*
X576036Y597685D01*
X576230Y597764D01*
X576435Y597804D01*
X577821Y598379D01*
X578915D01*
X579926Y597960D01*
X580700Y597186D01*
X581118Y596175D01*
Y595081D01*
X580700Y594070D01*
X580142Y593512D01*
X579700Y592851D01*
X579545Y592070D01*
X579700Y591290D01*
X580142Y590628D01*
X581213Y589558D01*
X581874Y589116D01*
X582654Y588961D01*
X600446D01*
X601226Y589116D01*
X601888Y589558D01*
X602330Y590220D01*
X602361Y590295D01*
X603135Y591068D01*
X604146Y591487D01*
X605240D01*
X606251Y591068D01*
X607025Y590294D01*
X607056Y590220D01*
X607498Y589558D01*
X608159Y589116D01*
X608940Y588961D01*
X656000D01*
X656000Y588961D01*
X656780Y589116D01*
X657442Y589558D01*
X663631Y595747D01*
X664073Y596409D01*
X664228Y597189D01*
Y605037D01*
X664073Y605817D01*
X663499Y607203D01*
Y608297D01*
X663918Y609308D01*
X664692Y610082D01*
X665703Y610501D01*
X666797D01*
X667808Y610082D01*
X668470Y609420D01*
X668705Y609263D01*
X668920Y609080D01*
X669033Y609044D01*
X669132Y608978D01*
X669409Y608923D01*
X669543Y608879D01*
X669676Y608510D01*
X669672Y607558D01*
X668287Y606984D01*
X666939Y605637D01*
X666210Y603876D01*
Y601971D01*
X666939Y600210D01*
X667476Y599674D01*
X666939Y599137D01*
X666210Y597376D01*
Y595471D01*
X666939Y593710D01*
X668287Y592363D01*
X670047Y591634D01*
X671953D01*
X673713Y592363D01*
X675061Y593710D01*
X675790Y595471D01*
Y597376D01*
X675061Y599137D01*
X674524Y599674D01*
X675061Y600210D01*
X675691Y601731D01*
X676961Y601479D01*
Y598000D01*
X677116Y597220D01*
X677558Y596558D01*
X678220Y596116D01*
X679000Y595961D01*
X799155D01*
X806438Y588678D01*
X807100Y588236D01*
X807880Y588081D01*
X808660Y588236D01*
X809016Y588383D01*
X810110D01*
X811121Y587965D01*
X811895Y587191D01*
X812314Y586180D01*
Y585085D01*
X812167Y584730D01*
X812011Y583950D01*
X812167Y583169D01*
X812609Y582508D01*
X812609Y582508D01*
X814013Y581103D01*
X814675Y580661D01*
X815455Y580506D01*
X816236Y580661D01*
X816453Y580751D01*
X817547D01*
X818558Y580332D01*
X819332Y579558D01*
X819751Y578547D01*
Y577453D01*
X819661Y577236D01*
X819505Y576455D01*
X819661Y575675D01*
X820103Y575013D01*
X820103Y575013D01*
X910461Y484655D01*
Y475697D01*
X910616Y474917D01*
X910641Y474880D01*
X911206Y473515D01*
Y472421D01*
X910641Y471056D01*
X910616Y471019D01*
X910461Y470239D01*
Y464058D01*
X910210Y463453D01*
Y461547D01*
X910461Y460942D01*
Y456558D01*
X910210Y455953D01*
Y454047D01*
X910461Y453442D01*
Y447500D01*
X910616Y446720D01*
X911058Y446058D01*
X911720Y445616D01*
X912500Y445461D01*
X925000D01*
X925780Y445616D01*
X926442Y446058D01*
X926884Y446720D01*
X927039Y447500D01*
Y547500D01*
X926884Y548280D01*
X926442Y548942D01*
X926442Y548942D01*
X789942Y685442D01*
X789280Y685884D01*
X788500Y686039D01*
X594000D01*
X594000Y686039D01*
X593220Y685884D01*
X592558Y685442D01*
X592558Y685442D01*
X573213Y666096D01*
X572039Y666582D01*
Y675000D01*
X571884Y675780D01*
X571442Y676442D01*
X570780Y676884D01*
X570000Y677039D01*
X534071D01*
X529458Y681652D01*
X528796Y682094D01*
X528016Y682249D01*
X526953D01*
X525942Y682668D01*
X525168Y683442D01*
X524749Y684453D01*
Y685547D01*
X525168Y686558D01*
X526229Y687619D01*
X526671Y688280D01*
X526826Y689061D01*
Y793942D01*
X628345Y895461D01*
X788000D01*
X788780Y895616D01*
X789442Y896058D01*
X789884Y896720D01*
X790039Y897500D01*
Y907500D01*
X789884Y908280D01*
X789442Y908942D01*
X788780Y909384D01*
X788000Y909539D01*
D02*
G37*
G36*
X351463Y897120D02*
X349557D01*
X347797Y896391D01*
X346449Y895043D01*
X345720Y893283D01*
Y891377D01*
X346449Y889617D01*
X347797Y888269D01*
X349557Y887540D01*
X351463D01*
X353223Y888269D01*
X354571Y889617D01*
X355300Y891377D01*
Y893283D01*
X354571Y895043D01*
X353223Y896391D01*
X351463Y897120D01*
D02*
G37*
G36*
X388463Y896120D02*
X386557D01*
X384797Y895391D01*
X383449Y894043D01*
X382720Y892283D01*
Y890377D01*
X383449Y888617D01*
X384797Y887269D01*
X386557Y886540D01*
X388463D01*
X390223Y887269D01*
X391571Y888617D01*
X392300Y890377D01*
Y892283D01*
X391571Y894043D01*
X390223Y895391D01*
X388463Y896120D01*
D02*
G37*
G36*
X395953Y879790D02*
X394047D01*
X392287Y879061D01*
X390939Y877713D01*
X390210Y875953D01*
Y874047D01*
X390939Y872287D01*
X392287Y870939D01*
X394047Y870210D01*
X395953D01*
X397713Y870939D01*
X399061Y872287D01*
X399790Y874047D01*
Y875953D01*
X399061Y877713D01*
X397713Y879061D01*
X395953Y879790D01*
D02*
G37*
G36*
X1381906Y898593D02*
X1361094D01*
X1358749Y898126D01*
X1356762Y896798D01*
X1355434Y894811D01*
X1354967Y892466D01*
Y871654D01*
X1355434Y869309D01*
X1356762Y867322D01*
X1358749Y865994D01*
X1361094Y865527D01*
X1381906D01*
X1384251Y865994D01*
X1386238Y867322D01*
X1387566Y869309D01*
X1388033Y871654D01*
Y892466D01*
X1387566Y894811D01*
X1386238Y896798D01*
X1384251Y898126D01*
X1381906Y898593D01*
D02*
G37*
G36*
X756378Y867952D02*
X754472D01*
X752712Y867222D01*
X751364Y865875D01*
X750635Y864115D01*
Y862209D01*
X751364Y860448D01*
X752712Y859101D01*
X754472Y858372D01*
X756378D01*
X758138Y859101D01*
X759486Y860448D01*
X760215Y862209D01*
Y864115D01*
X759486Y865875D01*
X758138Y867222D01*
X756378Y867952D01*
D02*
G37*
G36*
X810953Y867790D02*
X809047D01*
X807287Y867061D01*
X805939Y865713D01*
X805210Y863953D01*
Y862047D01*
X805939Y860287D01*
X807287Y858939D01*
X809047Y858210D01*
X810953D01*
X812713Y858939D01*
X814061Y860287D01*
X814790Y862047D01*
Y863953D01*
X814061Y865713D01*
X812713Y867061D01*
X810953Y867790D01*
D02*
G37*
G36*
X699953D02*
X698047D01*
X696287Y867061D01*
X694939Y865713D01*
X694210Y863953D01*
Y862047D01*
X694939Y860287D01*
X696287Y858939D01*
X698047Y858210D01*
X699953D01*
X701713Y858939D01*
X703061Y860287D01*
X703790Y862047D01*
Y863953D01*
X703061Y865713D01*
X701713Y867061D01*
X699953Y867790D01*
D02*
G37*
G36*
X644953D02*
X643047D01*
X641287Y867061D01*
X639939Y865713D01*
X639210Y863953D01*
Y862047D01*
X639939Y860287D01*
X641287Y858939D01*
X643047Y858210D01*
X644953D01*
X646713Y858939D01*
X648061Y860287D01*
X648790Y862047D01*
Y863953D01*
X648061Y865713D01*
X646713Y867061D01*
X644953Y867790D01*
D02*
G37*
G36*
X845953Y863790D02*
X844047D01*
X842287Y863061D01*
X840939Y861713D01*
X840210Y859953D01*
Y858047D01*
X840939Y856287D01*
X842287Y854939D01*
X844047Y854210D01*
X845953D01*
X847713Y854939D01*
X849061Y856287D01*
X849790Y858047D01*
Y859953D01*
X849061Y861713D01*
X847713Y863061D01*
X845953Y863790D01*
D02*
G37*
G36*
X169463Y846120D02*
X167557D01*
X165797Y845391D01*
X164449Y844043D01*
X163720Y842283D01*
Y840377D01*
X164449Y838617D01*
X165797Y837269D01*
X167557Y836540D01*
X169463D01*
X171223Y837269D01*
X172571Y838617D01*
X173300Y840377D01*
Y842283D01*
X172571Y844043D01*
X171223Y845391D01*
X169463Y846120D01*
D02*
G37*
G36*
X1572781Y862430D02*
X1569179D01*
X1565645Y861727D01*
X1562316Y860348D01*
X1559321Y858347D01*
X1556773Y855799D01*
X1554772Y852804D01*
X1553393Y849475D01*
X1552690Y845941D01*
Y842339D01*
X1553393Y838805D01*
X1554772Y835477D01*
X1556773Y832481D01*
X1559321Y829933D01*
X1562316Y827932D01*
X1565645Y826553D01*
X1569179Y825850D01*
X1572781D01*
X1576315Y826553D01*
X1579644Y827932D01*
X1582639Y829933D01*
X1585187Y832481D01*
X1587188Y835477D01*
X1588567Y838805D01*
X1589270Y842339D01*
Y845941D01*
X1588567Y849475D01*
X1587188Y852804D01*
X1585187Y855799D01*
X1582639Y858347D01*
X1579644Y860348D01*
X1576315Y861727D01*
X1572781Y862430D01*
D02*
G37*
G36*
X1488781D02*
X1485179D01*
X1481645Y861727D01*
X1478316Y860348D01*
X1475321Y858347D01*
X1472773Y855799D01*
X1470772Y852804D01*
X1469393Y849475D01*
X1468690Y845941D01*
Y842339D01*
X1469393Y838805D01*
X1470772Y835477D01*
X1472773Y832481D01*
X1475321Y829933D01*
X1478316Y827932D01*
X1481645Y826553D01*
X1485179Y825850D01*
X1488781D01*
X1492315Y826553D01*
X1495644Y827932D01*
X1498639Y829933D01*
X1501187Y832481D01*
X1503188Y835477D01*
X1504567Y838805D01*
X1505270Y842339D01*
Y845941D01*
X1504567Y849475D01*
X1503188Y852804D01*
X1501187Y855799D01*
X1498639Y858347D01*
X1495644Y860348D01*
X1492315Y861727D01*
X1488781Y862430D01*
D02*
G37*
G36*
X1373117Y851475D02*
X1369883D01*
X1366712Y850844D01*
X1363725Y849607D01*
X1361036Y847810D01*
X1358750Y845524D01*
X1356953Y842835D01*
X1355716Y839848D01*
X1355085Y836677D01*
Y833443D01*
X1355716Y830272D01*
X1356953Y827285D01*
X1358750Y824596D01*
X1361036Y822310D01*
X1363725Y820513D01*
X1366712Y819276D01*
X1369883Y818645D01*
X1373117D01*
X1376288Y819276D01*
X1379275Y820513D01*
X1381964Y822310D01*
X1384250Y824596D01*
X1386047Y827285D01*
X1387284Y830272D01*
X1387915Y833443D01*
Y836677D01*
X1387284Y839848D01*
X1386047Y842835D01*
X1384250Y845524D01*
X1381964Y847810D01*
X1379275Y849607D01*
X1376288Y850844D01*
X1373117Y851475D01*
D02*
G37*
G36*
X373953Y810790D02*
X372047D01*
X370287Y810061D01*
X368939Y808713D01*
X368210Y806953D01*
Y805729D01*
X366940Y805476D01*
X366477Y806594D01*
X365130Y807941D01*
X363369Y808670D01*
X361464D01*
X359703Y807941D01*
X358356Y806594D01*
X357626Y804833D01*
Y802928D01*
X358356Y801167D01*
X359703Y799820D01*
X361464Y799090D01*
X363369D01*
X365130Y799820D01*
X366477Y801167D01*
X367206Y802928D01*
Y804151D01*
X368476Y804404D01*
X368939Y803287D01*
X370287Y801939D01*
X372047Y801210D01*
X373953D01*
X375713Y801939D01*
X377061Y803287D01*
X377790Y805047D01*
Y806953D01*
X377061Y808713D01*
X375713Y810061D01*
X373953Y810790D01*
D02*
G37*
G36*
X347463Y807120D02*
X345557D01*
X343797Y806391D01*
X342449Y805043D01*
X341720Y803283D01*
Y801377D01*
X342449Y799617D01*
X343797Y798269D01*
X345557Y797540D01*
X347463D01*
X349223Y798269D01*
X350571Y799617D01*
X351300Y801377D01*
Y803283D01*
X350571Y805043D01*
X349223Y806391D01*
X347463Y807120D01*
D02*
G37*
G36*
X1572597Y787555D02*
X1569363D01*
X1566192Y786924D01*
X1563205Y785687D01*
X1560516Y783890D01*
X1558230Y781604D01*
X1556433Y778915D01*
X1555196Y775928D01*
X1554565Y772757D01*
Y769523D01*
X1555196Y766352D01*
X1556433Y763365D01*
X1558230Y760676D01*
X1560516Y758390D01*
X1563205Y756593D01*
X1566192Y755356D01*
X1569363Y754725D01*
X1572597D01*
X1575768Y755356D01*
X1578755Y756593D01*
X1581444Y758390D01*
X1583730Y760676D01*
X1585527Y763365D01*
X1586764Y766352D01*
X1587395Y769523D01*
Y772757D01*
X1586764Y775928D01*
X1585527Y778915D01*
X1583730Y781604D01*
X1581444Y783890D01*
X1578755Y785687D01*
X1575768Y786924D01*
X1572597Y787555D01*
D02*
G37*
G36*
X1530597D02*
X1527363D01*
X1524192Y786924D01*
X1521205Y785687D01*
X1518516Y783890D01*
X1516230Y781604D01*
X1514433Y778915D01*
X1513196Y775928D01*
X1512565Y772757D01*
Y769523D01*
X1513196Y766352D01*
X1514433Y763365D01*
X1516230Y760676D01*
X1518516Y758390D01*
X1521205Y756593D01*
X1524192Y755356D01*
X1527363Y754725D01*
X1530597D01*
X1533768Y755356D01*
X1536755Y756593D01*
X1539444Y758390D01*
X1541730Y760676D01*
X1543527Y763365D01*
X1544764Y766352D01*
X1545395Y769523D01*
Y772757D01*
X1544764Y775928D01*
X1543527Y778915D01*
X1541730Y781604D01*
X1539444Y783890D01*
X1536755Y785687D01*
X1533768Y786924D01*
X1530597Y787555D01*
D02*
G37*
G36*
X1488597D02*
X1485363D01*
X1482192Y786924D01*
X1479205Y785687D01*
X1476516Y783890D01*
X1474230Y781604D01*
X1472433Y778915D01*
X1471196Y775928D01*
X1470565Y772757D01*
Y769523D01*
X1471196Y766352D01*
X1472433Y763365D01*
X1474230Y760676D01*
X1476516Y758390D01*
X1479205Y756593D01*
X1482192Y755356D01*
X1485363Y754725D01*
X1488597D01*
X1491768Y755356D01*
X1494755Y756593D01*
X1497444Y758390D01*
X1499730Y760676D01*
X1501527Y763365D01*
X1502764Y766352D01*
X1503395Y769523D01*
Y772757D01*
X1502764Y775928D01*
X1501527Y778915D01*
X1499730Y781604D01*
X1497444Y783890D01*
X1494755Y785687D01*
X1491768Y786924D01*
X1488597Y787555D01*
D02*
G37*
G36*
X27500Y767142D02*
X24422Y766737D01*
X21554Y765548D01*
X19091Y763659D01*
X17201Y761196D01*
X16013Y758328D01*
X15608Y755250D01*
Y755150D01*
X16013Y752072D01*
X17201Y749204D01*
X19091Y746741D01*
X21554Y744852D01*
X24422Y743663D01*
X27500Y743258D01*
X30578Y743663D01*
X33446Y744852D01*
X35909Y746741D01*
X37799Y749204D01*
X38986Y752072D01*
X39392Y755150D01*
Y755250D01*
X38986Y758328D01*
X37799Y761196D01*
X35909Y763659D01*
X33446Y765548D01*
X30578Y766737D01*
X27500Y767142D01*
D02*
G37*
G36*
Y741742D02*
X24422Y741337D01*
X21554Y740148D01*
X19091Y738259D01*
X17201Y735796D01*
X16013Y732928D01*
X15608Y729850D01*
Y729750D01*
X16013Y726672D01*
X17201Y723804D01*
X19091Y721341D01*
X21554Y719452D01*
X24422Y718263D01*
X27500Y717858D01*
X30578Y718263D01*
X33446Y719452D01*
X35909Y721341D01*
X37799Y723804D01*
X38986Y726672D01*
X39392Y729750D01*
Y729850D01*
X38986Y732928D01*
X37799Y735796D01*
X35909Y738259D01*
X33446Y740148D01*
X30578Y741337D01*
X27500Y741742D01*
D02*
G37*
G36*
X583625Y746290D02*
X579875D01*
X576196Y745558D01*
X572731Y744123D01*
X569613Y742039D01*
X566961Y739387D01*
X564877Y736269D01*
X563442Y732804D01*
X562710Y729125D01*
Y725375D01*
X563442Y721696D01*
X564877Y718231D01*
X566961Y715113D01*
X569613Y712461D01*
X572731Y710377D01*
X576196Y708942D01*
X579875Y708210D01*
X583625D01*
X587304Y708942D01*
X590769Y710377D01*
X593887Y712461D01*
X596539Y715113D01*
X598623Y718231D01*
X600058Y721696D01*
X600790Y725375D01*
Y729125D01*
X600058Y732804D01*
X598623Y736269D01*
X596539Y739387D01*
X593887Y742039D01*
X590769Y744123D01*
X587304Y745558D01*
X583625Y746290D01*
D02*
G37*
G36*
X1538350Y641892D02*
X1538250D01*
X1535172Y641487D01*
X1532304Y640298D01*
X1529841Y638409D01*
X1527952Y635946D01*
X1526763Y633078D01*
X1526358Y630000D01*
X1526763Y626922D01*
X1527952Y624054D01*
X1529841Y621591D01*
X1532304Y619701D01*
X1535172Y618513D01*
X1538250Y618108D01*
X1538350D01*
X1541428Y618513D01*
X1544296Y619701D01*
X1546759Y621591D01*
X1548649Y624054D01*
X1549836Y626922D01*
X1550242Y630000D01*
X1549836Y633078D01*
X1548649Y635946D01*
X1546759Y638409D01*
X1544296Y640298D01*
X1541428Y641487D01*
X1538350Y641892D01*
D02*
G37*
G36*
X1485953Y613290D02*
X1484047D01*
X1482287Y612561D01*
X1480939Y611213D01*
X1480210Y609453D01*
Y607547D01*
X1480939Y605787D01*
X1482287Y604439D01*
X1484047Y603710D01*
X1485953D01*
X1487713Y604439D01*
X1489061Y605787D01*
X1489790Y607547D01*
Y609453D01*
X1489061Y611213D01*
X1487713Y612561D01*
X1485953Y613290D01*
D02*
G37*
G36*
X1511953Y596790D02*
X1510047D01*
X1508287Y596061D01*
X1506939Y594713D01*
X1506210Y592953D01*
Y591047D01*
X1506939Y589287D01*
X1508287Y587939D01*
X1510047Y587210D01*
X1511953D01*
X1513713Y587939D01*
X1515061Y589287D01*
X1515790Y591047D01*
Y592953D01*
X1515061Y594713D01*
X1513713Y596061D01*
X1511953Y596790D01*
D02*
G37*
G36*
X1485953Y591790D02*
X1484047D01*
X1482287Y591061D01*
X1480939Y589713D01*
X1480210Y587953D01*
Y586047D01*
X1480939Y584287D01*
X1482287Y582939D01*
X1484047Y582210D01*
X1485953D01*
X1487713Y582939D01*
X1489061Y584287D01*
X1489790Y586047D01*
Y587953D01*
X1489061Y589713D01*
X1487713Y591061D01*
X1485953Y591790D01*
D02*
G37*
G36*
X601953Y587690D02*
X600047D01*
X598287Y586961D01*
X596939Y585613D01*
X596210Y583853D01*
Y581947D01*
X596939Y580187D01*
X597476Y579650D01*
X596939Y579113D01*
X596210Y577353D01*
Y575447D01*
X596939Y573687D01*
X598287Y572339D01*
X600047Y571610D01*
X601953D01*
X603713Y572339D01*
X605061Y573687D01*
X605790Y575447D01*
Y577353D01*
X605061Y579113D01*
X604524Y579650D01*
X605061Y580187D01*
X605790Y581947D01*
Y583853D01*
X605061Y585613D01*
X603713Y586961D01*
X601953Y587690D01*
D02*
G37*
G36*
X1512953Y580790D02*
X1511047D01*
X1509287Y580061D01*
X1507939Y578713D01*
X1507210Y576953D01*
Y575047D01*
X1507939Y573287D01*
X1509287Y571939D01*
X1509895Y571687D01*
Y570313D01*
X1509287Y570061D01*
X1507939Y568713D01*
X1507210Y566953D01*
Y565047D01*
X1507939Y563287D01*
X1509287Y561939D01*
X1511047Y561210D01*
X1512953D01*
X1514713Y561939D01*
X1516061Y563287D01*
X1516790Y565047D01*
Y566953D01*
X1516061Y568713D01*
X1514713Y570061D01*
X1514105Y570313D01*
Y571687D01*
X1514713Y571939D01*
X1516061Y573287D01*
X1516790Y575047D01*
Y576953D01*
X1516061Y578713D01*
X1514713Y580061D01*
X1512953Y580790D01*
D02*
G37*
G36*
X648203Y574990D02*
X646297D01*
X644537Y574261D01*
X643189Y572913D01*
X642460Y571153D01*
Y569247D01*
X643189Y567487D01*
X643726Y566950D01*
X643189Y566413D01*
X642460Y564653D01*
Y562747D01*
X643189Y560987D01*
X644537Y559639D01*
X646297Y558910D01*
X648203D01*
X649963Y559639D01*
X651311Y560987D01*
X652040Y562747D01*
Y564653D01*
X651311Y566413D01*
X650774Y566950D01*
X651311Y567487D01*
X652040Y569247D01*
Y571153D01*
X651311Y572913D01*
X649963Y574261D01*
X648203Y574990D01*
D02*
G37*
G36*
X355953Y567342D02*
X354047D01*
X352287Y566613D01*
X350939Y565265D01*
X350210Y563505D01*
Y561599D01*
X350939Y559839D01*
X352287Y558491D01*
X354047Y557762D01*
X355953D01*
X357713Y558491D01*
X359061Y559839D01*
X359790Y561599D01*
Y563505D01*
X359061Y565265D01*
X357713Y566613D01*
X355953Y567342D01*
D02*
G37*
G36*
X560953Y573790D02*
X559047D01*
X557287Y573061D01*
X555939Y571713D01*
X555210Y569953D01*
Y568047D01*
X555619Y567060D01*
X555058Y565814D01*
X554900Y565729D01*
X553287Y565061D01*
X551939Y563713D01*
X551210Y561953D01*
Y560047D01*
X551939Y558287D01*
X553287Y556939D01*
X555047Y556210D01*
X556953D01*
X558713Y556939D01*
X560061Y558287D01*
X560790Y560047D01*
Y561953D01*
X560381Y562940D01*
X560942Y564186D01*
X561100Y564271D01*
X562713Y564939D01*
X564061Y566287D01*
X564790Y568047D01*
Y569953D01*
X564061Y571713D01*
X562713Y573061D01*
X560953Y573790D01*
D02*
G37*
G36*
X1485953Y559790D02*
X1484047D01*
X1482287Y559061D01*
X1480939Y557713D01*
X1480210Y555953D01*
Y554047D01*
X1480939Y552287D01*
X1482287Y550939D01*
X1484047Y550210D01*
X1485953D01*
X1487713Y550939D01*
X1489061Y552287D01*
X1489790Y554047D01*
Y555953D01*
X1489061Y557713D01*
X1487713Y559061D01*
X1485953Y559790D01*
D02*
G37*
G36*
X1511953Y554790D02*
X1510047D01*
X1508287Y554061D01*
X1506939Y552713D01*
X1506210Y550953D01*
Y549047D01*
X1506939Y547287D01*
X1508287Y545939D01*
X1510047Y545210D01*
X1511953D01*
X1513713Y545939D01*
X1515061Y547287D01*
X1515790Y549047D01*
Y550953D01*
X1515061Y552713D01*
X1513713Y554061D01*
X1511953Y554790D01*
D02*
G37*
G36*
X536953Y553370D02*
X535047D01*
X533287Y552641D01*
X531939Y551293D01*
X531210Y549533D01*
Y547627D01*
X531939Y545867D01*
X532476Y545330D01*
X531939Y544793D01*
X531210Y543033D01*
Y541127D01*
X531939Y539367D01*
X533287Y538019D01*
X535047Y537290D01*
X536953D01*
X538713Y538019D01*
X540061Y539367D01*
X540790Y541127D01*
Y543033D01*
X540061Y544793D01*
X539524Y545330D01*
X540061Y545867D01*
X540790Y547627D01*
Y549533D01*
X540061Y551293D01*
X538713Y552641D01*
X536953Y553370D01*
D02*
G37*
G36*
X707448Y542062D02*
X705542D01*
X703782Y541333D01*
X702434Y539986D01*
X701705Y538225D01*
Y536320D01*
X702434Y534559D01*
X703782Y533212D01*
X705542Y532482D01*
X707448D01*
X709209Y533212D01*
X710556Y534559D01*
X711285Y536320D01*
Y538225D01*
X710556Y539986D01*
X709209Y541333D01*
X707448Y542062D01*
D02*
G37*
G36*
X1564953Y539790D02*
X1563047D01*
X1561287Y539061D01*
X1559939Y537713D01*
X1559210Y535953D01*
Y534047D01*
X1559939Y532287D01*
X1561287Y530939D01*
X1563047Y530210D01*
X1564953D01*
X1566713Y530939D01*
X1568061Y532287D01*
X1568790Y534047D01*
Y535953D01*
X1568061Y537713D01*
X1566713Y539061D01*
X1564953Y539790D01*
D02*
G37*
G36*
X1485953Y538290D02*
X1484047D01*
X1482287Y537561D01*
X1480939Y536213D01*
X1480210Y534453D01*
Y532547D01*
X1480939Y530787D01*
X1482287Y529439D01*
X1484047Y528710D01*
X1485953D01*
X1487713Y529439D01*
X1489061Y530787D01*
X1489790Y532547D01*
Y534453D01*
X1489061Y536213D01*
X1487713Y537561D01*
X1485953Y538290D01*
D02*
G37*
G36*
X551163Y528243D02*
X549257D01*
X547497Y527514D01*
X546149Y526166D01*
X546146Y526159D01*
X544726Y526048D01*
X543713Y527061D01*
X541953Y527790D01*
X540047D01*
X538287Y527061D01*
X536939Y525713D01*
X536210Y523953D01*
Y522047D01*
X536939Y520287D01*
X538287Y518939D01*
X540047Y518210D01*
X541953D01*
X543713Y518939D01*
X545061Y520287D01*
X545064Y520294D01*
X546484Y520405D01*
X547497Y519392D01*
X549257Y518663D01*
X551163D01*
X552923Y519392D01*
X554271Y520740D01*
X555000Y522500D01*
Y524406D01*
X554271Y526166D01*
X552923Y527514D01*
X551163Y528243D01*
D02*
G37*
G36*
X1267000Y654039D02*
X1266220Y653884D01*
X1265558Y653442D01*
X947155Y335039D01*
X932000D01*
X931220Y334884D01*
X930558Y334442D01*
X930116Y333780D01*
X929961Y333000D01*
Y301250D01*
X930116Y300470D01*
X930558Y299808D01*
X931220Y299366D01*
X932000Y299211D01*
X983750D01*
X984530Y299366D01*
X985192Y299808D01*
X985192Y299808D01*
X1205345Y519961D01*
X1240439D01*
X1240790Y520031D01*
X1241143Y520086D01*
X1241179Y520108D01*
X1241220Y520116D01*
X1241517Y520315D01*
X1241822Y520501D01*
X1241846Y520535D01*
X1241881Y520558D01*
X1242080Y520855D01*
X1242290Y521144D01*
X1242877Y522415D01*
X1242887Y522455D01*
X1242910Y522490D01*
X1242980Y522840D01*
X1243064Y523188D01*
X1243057Y523229D01*
X1243065Y523270D01*
X1242996Y523621D01*
X1242940Y523974D01*
X1242918Y524010D01*
X1242910Y524050D01*
X1242476Y525099D01*
Y526193D01*
X1242895Y527204D01*
X1243669Y527978D01*
X1244680Y528397D01*
X1245774D01*
X1246785Y527978D01*
X1247559Y527204D01*
X1247978Y526193D01*
Y525099D01*
X1247543Y524050D01*
X1247535Y524010D01*
X1247514Y523974D01*
X1247458Y523621D01*
X1247388Y523270D01*
X1247396Y523229D01*
X1247390Y523188D01*
X1247474Y522840D01*
X1247543Y522490D01*
X1247567Y522455D01*
X1247576Y522415D01*
X1248163Y521144D01*
X1248374Y520855D01*
X1248572Y520558D01*
X1248607Y520535D01*
X1248632Y520501D01*
X1248937Y520315D01*
X1249234Y520116D01*
X1249275Y520108D01*
X1249310Y520086D01*
X1249664Y520031D01*
X1250014Y519961D01*
X1264178D01*
X1264375Y520000D01*
X1264576Y520000D01*
X1264762Y520077D01*
X1264959Y520116D01*
X1265126Y520228D01*
X1265311Y520304D01*
X1265453Y520446D01*
X1265620Y520558D01*
X1265732Y520725D01*
X1265874Y520867D01*
X1265906Y520914D01*
X1265982Y521100D01*
X1266094Y521267D01*
X1266133Y521464D01*
X1266210Y521649D01*
X1266210Y521850D01*
X1266249Y522047D01*
Y523547D01*
X1266668Y524558D01*
X1267442Y525332D01*
X1268453Y525751D01*
X1269547D01*
X1270558Y525332D01*
X1271332Y524558D01*
X1271751Y523547D01*
Y522047D01*
X1271790Y521850D01*
X1271790Y521649D01*
X1271867Y521464D01*
X1271906Y521267D01*
X1272018Y521100D01*
X1272094Y520914D01*
X1272126Y520867D01*
X1272268Y520725D01*
X1272380Y520558D01*
X1272547Y520446D01*
X1272689Y520304D01*
X1272874Y520228D01*
X1273041Y520116D01*
X1273238Y520077D01*
X1273424Y520000D01*
X1273625Y520000D01*
X1273822Y519961D01*
X1287435D01*
X1288215Y520116D01*
X1288876Y520558D01*
X1289936Y521618D01*
X1290947Y522037D01*
X1292042D01*
X1293053Y521618D01*
X1294113Y520558D01*
X1294774Y520116D01*
X1295555Y519961D01*
X1307000D01*
X1307780Y520116D01*
X1308442Y520558D01*
X1308884Y521220D01*
X1309039Y522000D01*
Y652000D01*
X1308884Y652780D01*
X1308442Y653442D01*
X1307780Y653884D01*
X1307000Y654039D01*
X1267000D01*
X1267000Y654039D01*
D02*
G37*
G36*
X190953Y518790D02*
X189047D01*
X187287Y518061D01*
X185939Y516713D01*
X185210Y514953D01*
Y513047D01*
X185939Y511287D01*
X187287Y509939D01*
X189047Y509210D01*
X190953D01*
X192713Y509939D01*
X194061Y511287D01*
X194790Y513047D01*
Y514953D01*
X194061Y516713D01*
X192713Y518061D01*
X190953Y518790D01*
D02*
G37*
G36*
X639953Y504790D02*
X638047D01*
X636287Y504061D01*
X634939Y502713D01*
X634210Y500953D01*
Y499047D01*
X634939Y497287D01*
X636287Y495939D01*
X638047Y495210D01*
X639953D01*
X641713Y495939D01*
X643061Y497287D01*
X643790Y499047D01*
Y500953D01*
X643061Y502713D01*
X641713Y504061D01*
X639953Y504790D01*
D02*
G37*
G36*
X605953D02*
X604047D01*
X602287Y504061D01*
X600939Y502713D01*
X600210Y500953D01*
Y499047D01*
X600939Y497287D01*
X601476Y496750D01*
X600939Y496213D01*
X600210Y494453D01*
Y492547D01*
X600939Y490787D01*
X602287Y489439D01*
X604047Y488710D01*
X605953D01*
X607713Y489439D01*
X609061Y490787D01*
X609790Y492547D01*
Y494453D01*
X609061Y496213D01*
X608524Y496750D01*
X609061Y497287D01*
X609790Y499047D01*
Y500953D01*
X609061Y502713D01*
X607713Y504061D01*
X605953Y504790D01*
D02*
G37*
G36*
X318953Y476790D02*
X317047D01*
X315287Y476061D01*
X313939Y474713D01*
X313210Y472953D01*
Y471047D01*
X313939Y469287D01*
X315287Y467939D01*
X317047Y467210D01*
X318953D01*
X320713Y467939D01*
X322061Y469287D01*
X322790Y471047D01*
Y472953D01*
X322061Y474713D01*
X320713Y476061D01*
X318953Y476790D01*
D02*
G37*
G36*
X574953Y473790D02*
X573047D01*
X571287Y473061D01*
X569939Y471713D01*
X569210Y469953D01*
Y468047D01*
X569939Y466287D01*
X571287Y464939D01*
X573047Y464210D01*
X574953D01*
X576713Y464939D01*
X578061Y466287D01*
X578790Y468047D01*
Y469953D01*
X578061Y471713D01*
X576713Y473061D01*
X574953Y473790D01*
D02*
G37*
G36*
X345953Y469790D02*
X344047D01*
X342287Y469061D01*
X340939Y467713D01*
X340210Y465953D01*
Y464047D01*
X340939Y462287D01*
X342287Y460939D01*
X344047Y460210D01*
X345953D01*
X347713Y460939D01*
X349061Y462287D01*
X349790Y464047D01*
Y465953D01*
X349061Y467713D01*
X347713Y469061D01*
X345953Y469790D01*
D02*
G37*
G36*
X204953Y463790D02*
X203047D01*
X201287Y463061D01*
X199939Y461713D01*
X199210Y459953D01*
Y458047D01*
X199939Y456287D01*
X201287Y454939D01*
X203047Y454210D01*
X204953D01*
X206713Y454939D01*
X208061Y456287D01*
X208790Y458047D01*
Y459953D01*
X208061Y461713D01*
X206713Y463061D01*
X204953Y463790D01*
D02*
G37*
G36*
X599779Y473789D02*
X597873D01*
X596113Y473059D01*
X594765Y471712D01*
X594036Y469951D01*
Y468046D01*
X594765Y466285D01*
X595165Y465886D01*
X594492Y465213D01*
X593763Y463452D01*
Y461547D01*
X594492Y459786D01*
X595119Y459160D01*
X594574Y458614D01*
X593844Y456854D01*
Y454948D01*
X594574Y453187D01*
X595921Y451840D01*
X597682Y451111D01*
X599587D01*
X600475Y450518D01*
Y450349D01*
X601204Y448589D01*
X601352Y448441D01*
X600691Y447451D01*
X600251Y447522D01*
X599453Y447853D01*
X597547D01*
X595787Y447123D01*
X594440Y445776D01*
X593710Y444015D01*
Y442110D01*
X594440Y440349D01*
X595284Y439505D01*
X594464Y438686D01*
X593735Y436925D01*
Y435019D01*
X594464Y433259D01*
X595179Y432544D01*
X594831Y432196D01*
X594101Y430435D01*
Y428530D01*
X594831Y426769D01*
X596178Y425422D01*
X597939Y424693D01*
X599844D01*
X599919Y424642D01*
Y422982D01*
X600648Y421222D01*
X601536Y420335D01*
X601392Y420191D01*
X600663Y418430D01*
Y416525D01*
X601392Y414764D01*
X602739Y413417D01*
X604500Y412688D01*
X606405D01*
X608166Y413417D01*
X609513Y414764D01*
X610243Y416525D01*
Y418430D01*
X609513Y420191D01*
X608626Y421078D01*
X608770Y421222D01*
X609499Y422982D01*
Y424888D01*
X608770Y426648D01*
X608549Y426869D01*
X609441Y427760D01*
X610170Y429520D01*
Y431426D01*
X609441Y433187D01*
X608093Y434534D01*
X606333Y435263D01*
X604427D01*
X603315Y436177D01*
Y436925D01*
X602586Y438686D01*
X601882Y439389D01*
X602749Y440319D01*
X603849Y440141D01*
X604648Y439810D01*
X606553D01*
X608314Y440540D01*
X609661Y441887D01*
X610390Y443648D01*
Y445553D01*
X609661Y447314D01*
X608856Y448119D01*
X609325Y448589D01*
X610055Y450349D01*
Y452255D01*
X609325Y454015D01*
X608277Y455064D01*
X608754Y455541D01*
X609483Y457302D01*
Y459207D01*
X608754Y460968D01*
X607407Y462315D01*
X605646Y463045D01*
X603741D01*
X603343Y463310D01*
Y463452D01*
X602614Y465213D01*
X602214Y465613D01*
X602887Y466285D01*
X603616Y468046D01*
Y469951D01*
X602887Y471712D01*
X601539Y473059D01*
X599779Y473789D01*
D02*
G37*
G36*
X579448Y439213D02*
X577542D01*
X575782Y438484D01*
X574689Y437391D01*
X574367Y437714D01*
X572606Y438443D01*
X570700D01*
X568940Y437714D01*
X567593Y436367D01*
X566940Y434790D01*
X565047D01*
X563287Y434061D01*
X561939Y432713D01*
X561210Y430953D01*
Y429047D01*
X561939Y427287D01*
X563287Y425939D01*
X565047Y425210D01*
X566953D01*
X568713Y425939D01*
X570061Y427287D01*
X570714Y428863D01*
X572606D01*
X574367Y429593D01*
X575459Y430685D01*
X575782Y430362D01*
X577542Y429633D01*
X579448D01*
X581209Y430362D01*
X582556Y431710D01*
X583285Y433470D01*
Y435376D01*
X582556Y437136D01*
X581209Y438484D01*
X579448Y439213D01*
D02*
G37*
G36*
X546203Y443290D02*
X544297D01*
X542537Y442561D01*
X541189Y441213D01*
X540460Y439453D01*
Y437547D01*
X541189Y435787D01*
X542537Y434439D01*
X544297Y433710D01*
X546203D01*
X547889Y434408D01*
X547939Y434287D01*
X549287Y432939D01*
X551047Y432210D01*
X552953D01*
X554713Y432939D01*
X556061Y434287D01*
X556790Y436047D01*
Y437953D01*
X556061Y439713D01*
X554713Y441061D01*
X552953Y441790D01*
X551047D01*
X549361Y441092D01*
X549311Y441213D01*
X547963Y442561D01*
X546203Y443290D01*
D02*
G37*
G36*
X1550953Y441290D02*
X1549047D01*
X1547287Y440561D01*
X1545939Y439213D01*
X1545210Y437453D01*
Y435547D01*
X1545939Y433787D01*
X1547287Y432439D01*
X1549047Y431710D01*
X1550953D01*
X1552713Y432439D01*
X1554061Y433787D01*
X1554790Y435547D01*
Y437453D01*
X1554061Y439213D01*
X1552713Y440561D01*
X1550953Y441290D01*
D02*
G37*
G36*
X635448Y441024D02*
X633542D01*
X631782Y440295D01*
X630434Y438947D01*
X629705Y437187D01*
Y435281D01*
X630434Y433521D01*
X631782Y432173D01*
X633542Y431444D01*
X635448D01*
X637208Y432173D01*
X638556Y433521D01*
X639285Y435281D01*
Y437187D01*
X638556Y438947D01*
X637208Y440295D01*
X635448Y441024D01*
D02*
G37*
G36*
X242505Y437790D02*
X240599D01*
X238839Y437061D01*
X237491Y435713D01*
X236762Y433953D01*
Y432047D01*
X237491Y430287D01*
X238839Y428939D01*
X240599Y428210D01*
X242505D01*
X244265Y428939D01*
X245613Y430287D01*
X246342Y432047D01*
Y433953D01*
X245613Y435713D01*
X244265Y437061D01*
X242505Y437790D01*
D02*
G37*
G36*
X1298183Y435274D02*
X1296277D01*
X1294516Y434544D01*
X1293169Y433197D01*
X1292440Y431437D01*
Y429531D01*
X1293169Y427771D01*
X1294516Y426423D01*
X1296277Y425694D01*
X1298183D01*
X1299943Y426423D01*
X1301291Y427771D01*
X1302020Y429531D01*
Y431437D01*
X1301291Y433197D01*
X1299943Y434544D01*
X1298183Y435274D01*
D02*
G37*
G36*
X828453Y434790D02*
X826547D01*
X824787Y434061D01*
X823439Y432713D01*
X822710Y430953D01*
Y429047D01*
X823439Y427287D01*
X824787Y425939D01*
X826547Y425210D01*
X828453D01*
X830213Y425939D01*
X831561Y427287D01*
X832290Y429047D01*
Y430953D01*
X831561Y432713D01*
X830213Y434061D01*
X828453Y434790D01*
D02*
G37*
G36*
X1590484Y444516D02*
X1587406Y444110D01*
X1584538Y442923D01*
X1582075Y441033D01*
X1580185Y438570D01*
X1578997Y435702D01*
X1578592Y432624D01*
Y432524D01*
X1578997Y429446D01*
X1580185Y426578D01*
X1582075Y424115D01*
X1584538Y422225D01*
X1587406Y421037D01*
X1590484Y420632D01*
X1593562Y421037D01*
X1596430Y422225D01*
X1598893Y424115D01*
X1600782Y426578D01*
X1601970Y429446D01*
X1602376Y432524D01*
Y432624D01*
X1601970Y435702D01*
X1600782Y438570D01*
X1598893Y441033D01*
X1596430Y442923D01*
X1593562Y444110D01*
X1590484Y444516D01*
D02*
G37*
G36*
X642953Y429790D02*
X641047D01*
X639287Y429061D01*
X637939Y427713D01*
X637210Y425953D01*
Y424047D01*
X637939Y422287D01*
X639287Y420939D01*
X641047Y420210D01*
X642953D01*
X644713Y420939D01*
X646061Y422287D01*
X646790Y424047D01*
Y425953D01*
X646061Y427713D01*
X644713Y429061D01*
X642953Y429790D01*
D02*
G37*
G36*
X716953Y423790D02*
X715047D01*
X713287Y423061D01*
X711939Y421713D01*
X711210Y419953D01*
Y418047D01*
X711939Y416287D01*
X713287Y414939D01*
X715047Y414210D01*
X716953D01*
X718713Y414939D01*
X720061Y416287D01*
X720790Y418047D01*
Y419953D01*
X720061Y421713D01*
X718713Y423061D01*
X716953Y423790D01*
D02*
G37*
G36*
X390953Y414790D02*
X389047D01*
X387287Y414061D01*
X385939Y412713D01*
X385210Y410953D01*
Y409047D01*
X385939Y407287D01*
X387287Y405939D01*
X389047Y405210D01*
X390953D01*
X392713Y405939D01*
X394061Y407287D01*
X394790Y409047D01*
Y410953D01*
X394061Y412713D01*
X392713Y414061D01*
X390953Y414790D01*
D02*
G37*
G36*
X886953Y406790D02*
X885047D01*
X883287Y406061D01*
X882000Y404774D01*
X880713Y406061D01*
X878953Y406790D01*
X877047D01*
X875287Y406061D01*
X873939Y404713D01*
X873210Y402953D01*
Y401047D01*
X873939Y399287D01*
X875287Y397939D01*
X877047Y397210D01*
X878953D01*
X880713Y397939D01*
X882000Y399226D01*
X883287Y397939D01*
X885047Y397210D01*
X886953D01*
X888713Y397939D01*
X890061Y399287D01*
X890790Y401047D01*
Y402953D01*
X890061Y404713D01*
X888713Y406061D01*
X886953Y406790D01*
D02*
G37*
G36*
X691953Y417976D02*
X690047D01*
X688287Y417247D01*
X686939Y415899D01*
X686210Y414139D01*
Y412233D01*
X686939Y410473D01*
X688287Y409125D01*
X690047Y408396D01*
X690261Y408076D01*
X690210Y407953D01*
Y406047D01*
X690939Y404287D01*
X692287Y402939D01*
X694047Y402210D01*
X695953D01*
X697713Y402939D01*
X699061Y404287D01*
X699790Y406047D01*
Y407953D01*
X699061Y409713D01*
X697713Y411061D01*
X695953Y411790D01*
X695739Y412110D01*
X695790Y412233D01*
Y414139D01*
X695061Y415899D01*
X693713Y417247D01*
X691953Y417976D01*
D02*
G37*
G36*
X1550953Y408290D02*
X1549047D01*
X1547287Y407561D01*
X1545939Y406213D01*
X1545210Y404453D01*
Y402547D01*
X1545939Y400787D01*
X1547287Y399439D01*
X1549047Y398710D01*
X1550953D01*
X1552713Y399439D01*
X1554061Y400787D01*
X1554790Y402547D01*
Y404453D01*
X1554061Y406213D01*
X1552713Y407561D01*
X1550953Y408290D01*
D02*
G37*
G36*
X707953Y406790D02*
X706047D01*
X704287Y406061D01*
X702939Y404713D01*
X702210Y402953D01*
Y401047D01*
X702939Y399287D01*
X704287Y397939D01*
X706047Y397210D01*
X707953D01*
X709713Y397939D01*
X711061Y399287D01*
X711790Y401047D01*
Y402953D01*
X711061Y404713D01*
X709713Y406061D01*
X707953Y406790D01*
D02*
G37*
G36*
X1590484Y419116D02*
X1587406Y418711D01*
X1584538Y417523D01*
X1582075Y415633D01*
X1580185Y413170D01*
X1578997Y410302D01*
X1578592Y407224D01*
Y407124D01*
X1578997Y404046D01*
X1580185Y401178D01*
X1582075Y398715D01*
X1584538Y396825D01*
X1587406Y395638D01*
X1590484Y395232D01*
X1593562Y395638D01*
X1596430Y396825D01*
X1598893Y398715D01*
X1600782Y401178D01*
X1601970Y404046D01*
X1602376Y407124D01*
Y407224D01*
X1601970Y410302D01*
X1600782Y413170D01*
X1598893Y415633D01*
X1596430Y417523D01*
X1593562Y418711D01*
X1590484Y419116D01*
D02*
G37*
G36*
X730953Y396790D02*
X729047D01*
X727287Y396061D01*
X725939Y394713D01*
X725210Y392953D01*
Y391047D01*
X725939Y389287D01*
X727287Y387939D01*
X729047Y387210D01*
X730953D01*
X732713Y387939D01*
X734061Y389287D01*
X734790Y391047D01*
Y392953D01*
X734061Y394713D01*
X732713Y396061D01*
X730953Y396790D01*
D02*
G37*
G36*
X627539Y397376D02*
X625633D01*
X623873Y396647D01*
X622525Y395299D01*
X621796Y393539D01*
Y391633D01*
X622525Y389873D01*
X623062Y389336D01*
X621939Y388213D01*
X621210Y386453D01*
Y384547D01*
X621939Y382787D01*
X623287Y381439D01*
X625047Y380710D01*
X626953D01*
X628713Y381439D01*
X630061Y382787D01*
X630790Y384547D01*
Y386453D01*
X630061Y388213D01*
X629524Y388750D01*
X630647Y389873D01*
X631376Y391633D01*
Y393539D01*
X630647Y395299D01*
X629299Y396647D01*
X627539Y397376D01*
D02*
G37*
G36*
X699953Y389790D02*
X698047D01*
X696287Y389061D01*
X694939Y387713D01*
X694210Y385953D01*
Y384047D01*
X694939Y382287D01*
X695226Y382000D01*
X693939Y380713D01*
X693210Y378953D01*
Y377047D01*
X693939Y375287D01*
X695287Y373939D01*
X697047Y373210D01*
X698953D01*
X700713Y373939D01*
X702061Y375287D01*
X702790Y377047D01*
Y378953D01*
X702061Y380713D01*
X701774Y381000D01*
X703061Y382287D01*
X703790Y384047D01*
Y385953D01*
X703061Y387713D01*
X701713Y389061D01*
X699953Y389790D01*
D02*
G37*
G36*
X47269Y366665D02*
X44131D01*
X41101Y365853D01*
X38384Y364284D01*
X36166Y362066D01*
X34597Y359349D01*
X33785Y356319D01*
Y353181D01*
X34597Y350151D01*
X36166Y347434D01*
X38384Y345216D01*
X41101Y343647D01*
X44131Y342835D01*
X47269D01*
X50299Y343647D01*
X53016Y345216D01*
X55234Y347434D01*
X56803Y350151D01*
X57615Y353181D01*
Y356319D01*
X56803Y359349D01*
X55234Y362066D01*
X53016Y364284D01*
X50299Y365853D01*
X47269Y366665D01*
D02*
G37*
G36*
X1068453Y335790D02*
X1066547D01*
X1064787Y335061D01*
X1064250Y334524D01*
X1063713Y335061D01*
X1061953Y335790D01*
X1060047D01*
X1058287Y335061D01*
X1056939Y333713D01*
X1056210Y331953D01*
Y330047D01*
X1056939Y328287D01*
X1058287Y326939D01*
X1060047Y326210D01*
X1061953D01*
X1063713Y326939D01*
X1064250Y327476D01*
X1064787Y326939D01*
X1066547Y326210D01*
X1068453D01*
X1070213Y326939D01*
X1071561Y328287D01*
X1072290Y330047D01*
Y331953D01*
X1071561Y333713D01*
X1070213Y335061D01*
X1068453Y335790D01*
D02*
G37*
G36*
X657953Y323790D02*
X656047D01*
X654287Y323061D01*
X653000Y321774D01*
X651713Y323061D01*
X649953Y323790D01*
X648047D01*
X646287Y323061D01*
X645000Y321774D01*
X643713Y323061D01*
X641953Y323790D01*
X640047D01*
X638287Y323061D01*
X636939Y321713D01*
X636210Y319953D01*
Y318047D01*
X636939Y316287D01*
X638287Y314939D01*
X640047Y314210D01*
X641953D01*
X643713Y314939D01*
X645000Y316226D01*
X646287Y314939D01*
X648047Y314210D01*
X649953D01*
X651713Y314939D01*
X653000Y316226D01*
X654287Y314939D01*
X656047Y314210D01*
X657953D01*
X659713Y314939D01*
X661061Y316287D01*
X661790Y318047D01*
Y319953D01*
X661061Y321713D01*
X659713Y323061D01*
X657953Y323790D01*
D02*
G37*
G36*
X1183703Y333685D02*
X1181797D01*
X1180037Y332956D01*
X1178689Y331609D01*
X1177960Y329848D01*
Y327943D01*
X1178689Y326182D01*
X1179226Y325645D01*
X1178689Y325109D01*
X1177960Y323348D01*
Y321443D01*
X1178689Y319682D01*
X1180037Y318335D01*
X1181797Y317605D01*
X1183703D01*
X1185463Y318335D01*
X1186811Y319682D01*
X1187540Y321443D01*
Y323348D01*
X1186811Y325109D01*
X1186274Y325645D01*
X1186811Y326182D01*
X1187540Y327943D01*
Y329848D01*
X1186811Y331609D01*
X1185463Y332956D01*
X1183703Y333685D01*
D02*
G37*
G36*
X1149453Y317790D02*
X1147547D01*
X1145787Y317061D01*
X1145250Y316524D01*
X1144713Y317061D01*
X1142953Y317790D01*
X1141047D01*
X1139287Y317061D01*
X1137939Y315713D01*
X1137210Y313953D01*
Y312047D01*
X1137939Y310287D01*
X1139287Y308939D01*
X1141047Y308210D01*
X1142953D01*
X1144713Y308939D01*
X1145250Y309476D01*
X1145787Y308939D01*
X1147547Y308210D01*
X1149453D01*
X1151213Y308939D01*
X1152561Y310287D01*
X1153290Y312047D01*
Y313953D01*
X1152561Y315713D01*
X1151213Y317061D01*
X1149453Y317790D01*
D02*
G37*
G36*
X123953Y306790D02*
X122047D01*
X120287Y306061D01*
X118939Y304713D01*
X118210Y302953D01*
Y301047D01*
X118939Y299287D01*
X120287Y297939D01*
X122047Y297210D01*
X123953D01*
X125713Y297939D01*
X127061Y299287D01*
X127790Y301047D01*
Y302953D01*
X127061Y304713D01*
X125713Y306061D01*
X123953Y306790D01*
D02*
G37*
G36*
X1590500Y315492D02*
X1587422Y315086D01*
X1584554Y313899D01*
X1582091Y312009D01*
X1580202Y309546D01*
X1579014Y306678D01*
X1578608Y303600D01*
Y303500D01*
X1579014Y300422D01*
X1580202Y297554D01*
X1582091Y295091D01*
X1584554Y293202D01*
X1587422Y292013D01*
X1590500Y291608D01*
X1593578Y292013D01*
X1596446Y293202D01*
X1598909Y295091D01*
X1600798Y297554D01*
X1601987Y300422D01*
X1602392Y303500D01*
Y303600D01*
X1601987Y306678D01*
X1600798Y309546D01*
X1598909Y312009D01*
X1596446Y313899D01*
X1593578Y315086D01*
X1590500Y315492D01*
D02*
G37*
G36*
X1022453Y292290D02*
X1020547D01*
X1018787Y291561D01*
X1018250Y291024D01*
X1017713Y291561D01*
X1015953Y292290D01*
X1014047D01*
X1012287Y291561D01*
X1010939Y290213D01*
X1010210Y288453D01*
Y286547D01*
X1010939Y284787D01*
X1012287Y283439D01*
X1014047Y282710D01*
X1015953D01*
X1017713Y283439D01*
X1018250Y283976D01*
X1018787Y283439D01*
X1020547Y282710D01*
X1022453D01*
X1024213Y283439D01*
X1025561Y284787D01*
X1026290Y286547D01*
Y288453D01*
X1025561Y290213D01*
X1024213Y291561D01*
X1022453Y292290D01*
D02*
G37*
G36*
X1268203Y333807D02*
X1266298D01*
X1264537Y333078D01*
X1263190Y331731D01*
X1262460Y329970D01*
Y328065D01*
X1263190Y326304D01*
X1263712Y325782D01*
X1263161Y325231D01*
X1262431Y323470D01*
Y321565D01*
X1263161Y319804D01*
X1264503Y318463D01*
X1263960Y317153D01*
Y315247D01*
X1264689Y313487D01*
X1265226Y312950D01*
X1264689Y312413D01*
X1263960Y310653D01*
Y308747D01*
X1264689Y306987D01*
X1264954Y306722D01*
X1264167Y305934D01*
X1263438Y304174D01*
Y302268D01*
X1264167Y300508D01*
X1264715Y299959D01*
X1264190Y299434D01*
X1263461Y297674D01*
Y295768D01*
X1264190Y294008D01*
X1264861Y293337D01*
X1264463Y292940D01*
X1263734Y291180D01*
Y289274D01*
X1264463Y287514D01*
X1264987Y286990D01*
X1264437Y286440D01*
X1263708Y284680D01*
Y282774D01*
X1264231Y281510D01*
X1264180Y281489D01*
X1262832Y280141D01*
X1262103Y278381D01*
Y276475D01*
X1262832Y274715D01*
X1263361Y274186D01*
X1262817Y273641D01*
X1262087Y271881D01*
Y269975D01*
X1262817Y268215D01*
X1264164Y266867D01*
X1265925Y266138D01*
X1267830D01*
X1269591Y266867D01*
X1270938Y268215D01*
X1271667Y269975D01*
Y271881D01*
X1270938Y273641D01*
X1270409Y274170D01*
X1270954Y274715D01*
X1271683Y276475D01*
Y278381D01*
X1271159Y279645D01*
X1271211Y279666D01*
X1272558Y281014D01*
X1273288Y282774D01*
Y284680D01*
X1272558Y286440D01*
X1272035Y286964D01*
X1272585Y287514D01*
X1273314Y289274D01*
Y291180D01*
X1272585Y292940D01*
X1271915Y293610D01*
X1272312Y294008D01*
X1273041Y295768D01*
Y297674D01*
X1272312Y299434D01*
X1271763Y299983D01*
X1272288Y300508D01*
X1273018Y302268D01*
Y304174D01*
X1272288Y305934D01*
X1272023Y306199D01*
X1272811Y306987D01*
X1273540Y308747D01*
Y310653D01*
X1272811Y312413D01*
X1272274Y312950D01*
X1272811Y313487D01*
X1273540Y315247D01*
Y317153D01*
X1272811Y318913D01*
X1271469Y320255D01*
X1272011Y321565D01*
Y323470D01*
X1271282Y325231D01*
X1270760Y325753D01*
X1271311Y326304D01*
X1272040Y328065D01*
Y329970D01*
X1271311Y331731D01*
X1269964Y333078D01*
X1268203Y333807D01*
D02*
G37*
G36*
X38022Y282290D02*
X35378D01*
X32825Y281606D01*
X30535Y280284D01*
X28666Y278415D01*
X27344Y276125D01*
X26660Y273572D01*
Y270928D01*
X27344Y268375D01*
X28666Y266085D01*
X30535Y264216D01*
X32825Y262894D01*
X35378Y262210D01*
X38022D01*
X40575Y262894D01*
X42865Y264216D01*
X44734Y266085D01*
X46056Y268375D01*
X46740Y270928D01*
Y273572D01*
X46056Y276125D01*
X44734Y278415D01*
X42865Y280284D01*
X40575Y281606D01*
X38022Y282290D01*
D02*
G37*
G36*
X1590500Y273642D02*
X1587422Y273237D01*
X1584554Y272048D01*
X1582091Y270159D01*
X1580202Y267696D01*
X1579014Y264828D01*
X1578608Y261750D01*
Y261650D01*
X1579014Y258572D01*
X1580202Y255704D01*
X1582091Y253241D01*
X1584554Y251352D01*
X1587422Y250163D01*
X1590500Y249758D01*
X1593578Y250163D01*
X1596446Y251352D01*
X1598909Y253241D01*
X1600798Y255704D01*
X1601987Y258572D01*
X1602392Y261650D01*
Y261750D01*
X1601987Y264828D01*
X1600798Y267696D01*
X1598909Y270159D01*
X1596446Y272048D01*
X1593578Y273237D01*
X1590500Y273642D01*
D02*
G37*
G36*
X1231953Y255790D02*
X1230047D01*
X1228287Y255061D01*
X1226939Y253713D01*
X1226210Y251953D01*
Y250047D01*
X1226939Y248287D01*
X1227476Y247750D01*
X1226939Y247213D01*
X1226210Y245453D01*
Y243547D01*
X1226939Y241787D01*
X1228287Y240439D01*
X1230047Y239710D01*
X1231953D01*
X1233713Y240439D01*
X1235061Y241787D01*
X1235790Y243547D01*
Y245453D01*
X1235061Y247213D01*
X1234524Y247750D01*
X1235061Y248287D01*
X1235790Y250047D01*
Y251953D01*
X1235061Y253713D01*
X1233713Y255061D01*
X1231953Y255790D01*
D02*
G37*
G36*
X1590500Y248242D02*
X1587422Y247836D01*
X1584554Y246649D01*
X1582091Y244759D01*
X1580202Y242296D01*
X1579014Y239428D01*
X1578608Y236350D01*
Y236250D01*
X1579014Y233172D01*
X1580202Y230304D01*
X1582091Y227841D01*
X1584554Y225951D01*
X1587422Y224764D01*
X1590500Y224358D01*
X1593578Y224764D01*
X1596446Y225951D01*
X1598909Y227841D01*
X1600798Y230304D01*
X1601987Y233172D01*
X1602392Y236250D01*
Y236350D01*
X1601987Y239428D01*
X1600798Y242296D01*
X1598909Y244759D01*
X1596446Y246649D01*
X1593578Y247836D01*
X1590500Y248242D01*
D02*
G37*
G36*
X217703Y226790D02*
X215797D01*
X214037Y226061D01*
X212689Y224713D01*
X211960Y222953D01*
Y221047D01*
X212689Y219287D01*
X213226Y218750D01*
X212689Y218213D01*
X211960Y216453D01*
Y214547D01*
X212689Y212787D01*
X214037Y211439D01*
X215797Y210710D01*
X217703D01*
X219463Y211439D01*
X220811Y212787D01*
X221540Y214547D01*
Y216453D01*
X220811Y218213D01*
X220274Y218750D01*
X220811Y219287D01*
X221540Y221047D01*
Y222953D01*
X220811Y224713D01*
X219463Y226061D01*
X217703Y226790D01*
D02*
G37*
G36*
X47269Y201665D02*
X44131D01*
X41101Y200853D01*
X38384Y199284D01*
X36166Y197066D01*
X34597Y194349D01*
X33785Y191319D01*
Y188181D01*
X34597Y185151D01*
X36166Y182434D01*
X38384Y180216D01*
X41101Y178647D01*
X44131Y177835D01*
X47269D01*
X50299Y178647D01*
X53016Y180216D01*
X55234Y182434D01*
X56803Y185151D01*
X57615Y188181D01*
Y191319D01*
X56803Y194349D01*
X55234Y197066D01*
X53016Y199284D01*
X50299Y200853D01*
X47269Y201665D01*
D02*
G37*
G36*
X1224953Y190790D02*
X1223047D01*
X1221287Y190061D01*
X1219939Y188713D01*
X1219210Y186953D01*
Y185047D01*
X1219939Y183287D01*
X1220476Y182750D01*
X1219939Y182213D01*
X1219210Y180453D01*
Y178547D01*
X1219939Y176787D01*
X1221287Y175439D01*
X1223047Y174710D01*
X1224953D01*
X1226713Y175439D01*
X1228061Y176787D01*
X1228790Y178547D01*
Y180453D01*
X1228061Y182213D01*
X1227524Y182750D01*
X1228061Y183287D01*
X1228790Y185047D01*
Y186953D01*
X1228061Y188713D01*
X1226713Y190061D01*
X1224953Y190790D01*
D02*
G37*
G36*
X115013Y205115D02*
X111987D01*
X109018Y204524D01*
X106222Y203366D01*
X103705Y201685D01*
X101565Y199545D01*
X99884Y197028D01*
X98726Y194232D01*
X98135Y191263D01*
Y188237D01*
X98726Y185268D01*
X99884Y182472D01*
X101565Y179955D01*
X103705Y177815D01*
X106222Y176134D01*
X109018Y174975D01*
X111987Y174385D01*
X115013D01*
X117982Y174975D01*
X120778Y176134D01*
X123295Y177815D01*
X125435Y179955D01*
X127116Y182472D01*
X128275Y185268D01*
X128865Y188237D01*
Y191263D01*
X128275Y194232D01*
X127116Y197028D01*
X125435Y199545D01*
X123295Y201685D01*
X120778Y203366D01*
X117982Y204524D01*
X115013Y205115D01*
D02*
G37*
G36*
X1290125Y209790D02*
X1286375D01*
X1282696Y209058D01*
X1279231Y207623D01*
X1276113Y205539D01*
X1273461Y202887D01*
X1271377Y199769D01*
X1269942Y196304D01*
X1269210Y192625D01*
Y188875D01*
X1269942Y185196D01*
X1271377Y181731D01*
X1273461Y178613D01*
X1276113Y175961D01*
X1279231Y173877D01*
X1282696Y172442D01*
X1286375Y171710D01*
X1290125D01*
X1293804Y172442D01*
X1297269Y173877D01*
X1300387Y175961D01*
X1303039Y178613D01*
X1305123Y181731D01*
X1306558Y185196D01*
X1307290Y188875D01*
Y192625D01*
X1306558Y196304D01*
X1305123Y199769D01*
X1303039Y202887D01*
X1300387Y205539D01*
X1297269Y207623D01*
X1293804Y209058D01*
X1290125Y209790D01*
D02*
G37*
G36*
X1268453Y167818D02*
X1266547D01*
X1264787Y167089D01*
X1263439Y165741D01*
X1262710Y163981D01*
Y162075D01*
X1263439Y160315D01*
X1263976Y159778D01*
X1263439Y159241D01*
X1262710Y157481D01*
Y155575D01*
X1263439Y153815D01*
X1264787Y152467D01*
X1266547Y151738D01*
X1268453D01*
X1270213Y152467D01*
X1271561Y153815D01*
X1272290Y155575D01*
Y157481D01*
X1271561Y159241D01*
X1271024Y159778D01*
X1271561Y160315D01*
X1272290Y162075D01*
Y163981D01*
X1271561Y165741D01*
X1270213Y167089D01*
X1268453Y167818D01*
D02*
G37*
G36*
X750953Y109790D02*
X749047D01*
X747287Y109061D01*
X745939Y107713D01*
X745210Y105953D01*
Y104047D01*
X745939Y102287D01*
X747287Y100939D01*
X749047Y100210D01*
X750953D01*
X752713Y100939D01*
X754061Y102287D01*
X754790Y104047D01*
Y105953D01*
X754061Y107713D01*
X752713Y109061D01*
X750953Y109790D01*
D02*
G37*
G36*
X440953Y72790D02*
X439047D01*
X437287Y72061D01*
X435939Y70713D01*
X435687Y70105D01*
X434313D01*
X434061Y70713D01*
X432713Y72061D01*
X430953Y72790D01*
X429047D01*
X427287Y72061D01*
X425939Y70713D01*
X425210Y68953D01*
Y67047D01*
X425939Y65287D01*
X426226Y65000D01*
X425939Y64713D01*
X425210Y62953D01*
Y61047D01*
X425939Y59287D01*
X427287Y57939D01*
X429047Y57210D01*
X430953D01*
X432713Y57939D01*
X434061Y59287D01*
X434313Y59895D01*
X435687D01*
X435939Y59287D01*
X437287Y57939D01*
X439047Y57210D01*
X440953D01*
X442713Y57939D01*
X444061Y59287D01*
X444790Y61047D01*
Y62953D01*
X444061Y64713D01*
X443774Y65000D01*
X444061Y65287D01*
X444790Y67047D01*
Y68953D01*
X444061Y70713D01*
X442713Y72061D01*
X440953Y72790D01*
D02*
G37*
G36*
X500953Y65790D02*
X499047D01*
X497287Y65061D01*
X495939Y63713D01*
X495210Y61953D01*
Y60047D01*
X495939Y58287D01*
X497287Y56939D01*
X499047Y56210D01*
X500953D01*
X502713Y56939D01*
X504061Y58287D01*
X504790Y60047D01*
Y61953D01*
X504061Y63713D01*
X502713Y65061D01*
X500953Y65790D01*
D02*
G37*
%LPD*%
G36*
X788000Y897500D02*
X627500D01*
X524787Y794787D01*
Y689061D01*
X523439Y687713D01*
X522710Y685953D01*
Y684047D01*
X523439Y682287D01*
X524787Y680939D01*
X526547Y680210D01*
X528016D01*
X533226Y675000D01*
X570000D01*
Y661866D01*
X555634Y647500D01*
X505000D01*
X497500Y655000D01*
Y807500D01*
X597500Y907500D01*
X603069D01*
X603365Y906787D01*
X604712Y905439D01*
X606473Y904710D01*
X608378D01*
X610139Y905439D01*
X611486Y906787D01*
X611782Y907500D01*
X643069D01*
X643365Y906787D01*
X644712Y905439D01*
X646473Y904710D01*
X648378D01*
X650139Y905439D01*
X651486Y906787D01*
X651782Y907500D01*
X703069D01*
X703365Y906787D01*
X704712Y905439D01*
X706473Y904710D01*
X708378D01*
X710139Y905439D01*
X711486Y906787D01*
X711782Y907500D01*
X763069D01*
X763365Y906787D01*
X764712Y905439D01*
X766473Y904710D01*
X768378D01*
X770139Y905439D01*
X771486Y906787D01*
X771782Y907500D01*
X788000D01*
Y897500D01*
D02*
G37*
G36*
X1400000Y770000D02*
X1336000D01*
X1304688Y738688D01*
X1303424Y738812D01*
X1303039Y739387D01*
X1300387Y742039D01*
X1297269Y744123D01*
X1293804Y745558D01*
X1290125Y746290D01*
X1286375D01*
X1282696Y745558D01*
X1279231Y744123D01*
X1276113Y742039D01*
X1273461Y739387D01*
X1271377Y736269D01*
X1269942Y732804D01*
X1269210Y729125D01*
Y725375D01*
X1269942Y721696D01*
X1271377Y718231D01*
X1273461Y715113D01*
X1276113Y712461D01*
X1276688Y712076D01*
X1276812Y710812D01*
X1276774Y710774D01*
X1276774Y689274D01*
X687500Y100000D01*
X666000D01*
X613512Y100000D01*
X613044Y101270D01*
X614061Y102287D01*
X614790Y104047D01*
Y105953D01*
X614061Y107713D01*
X612713Y109061D01*
X610953Y109790D01*
X609047D01*
X607287Y109061D01*
X605939Y107713D01*
X605210Y105953D01*
Y104047D01*
X605939Y102287D01*
X606956Y101270D01*
X606488Y100000D01*
X494356Y100000D01*
X494061Y100713D01*
X492713Y102061D01*
X490953Y102790D01*
X489047D01*
X487287Y102061D01*
X485939Y100713D01*
X485644Y100000D01*
X457549D01*
X457453Y100040D01*
X455547D01*
X455451Y100000D01*
X410000Y100000D01*
Y188000D01*
X452000D01*
X470000Y170000D01*
X560000Y170000D01*
X667298D01*
X879649Y382351D01*
X888351D01*
X909000Y403000D01*
X909149Y411851D01*
X951000Y453702D01*
Y509500D01*
X1243509Y802009D01*
X1285006Y802006D01*
X1291000Y808000D01*
X1400000Y808000D01*
Y770000D01*
D02*
G37*
G36*
X925000Y547500D02*
Y447500D01*
X912500D01*
Y470239D01*
X912516Y470255D01*
X913245Y472015D01*
Y473921D01*
X912516Y475681D01*
X912500Y475697D01*
Y485500D01*
X821545Y576455D01*
X821790Y577047D01*
Y578953D01*
X821061Y580713D01*
X819713Y582061D01*
X817953Y582790D01*
X816047D01*
X815455Y582545D01*
X814051Y583949D01*
X814353Y584680D01*
Y586585D01*
X813624Y588346D01*
X812276Y589693D01*
X810516Y590423D01*
X808610D01*
X807880Y590120D01*
X800000Y598000D01*
X679000D01*
Y604976D01*
X679311Y605287D01*
X680040Y607047D01*
Y608953D01*
X679311Y610713D01*
X677963Y612061D01*
X676203Y612790D01*
X674297D01*
X672537Y612061D01*
X671189Y610713D01*
X669912Y610862D01*
X668963Y611811D01*
X667203Y612540D01*
X665297D01*
X663537Y611811D01*
X662189Y610463D01*
X661460Y608703D01*
Y606797D01*
X662189Y605037D01*
Y597189D01*
X656000Y591000D01*
X608940D01*
X608754Y591450D01*
X607406Y592797D01*
X605646Y593526D01*
X603740D01*
X601980Y592797D01*
X600632Y591450D01*
X600446Y591000D01*
X582654D01*
X581584Y592070D01*
X582428Y592915D01*
X583158Y594675D01*
Y596581D01*
X582428Y598341D01*
X581081Y599688D01*
X579320Y600418D01*
X577415D01*
X575654Y599688D01*
X574167Y599997D01*
X573851Y600760D01*
X572503Y602108D01*
X570743Y602837D01*
X568837D01*
X567077Y602108D01*
X565729Y600760D01*
X565469Y600132D01*
X564094D01*
X564061Y600213D01*
X562713Y601561D01*
X560953Y602290D01*
X559047D01*
X557287Y601561D01*
X555939Y600213D01*
X555210Y598453D01*
Y598000D01*
X532290D01*
Y598453D01*
X531561Y600213D01*
X530213Y601561D01*
X528453Y602290D01*
X526547D01*
X524787Y601561D01*
X523439Y600213D01*
X522710Y598453D01*
Y598000D01*
X502290D01*
Y598453D01*
X501561Y600213D01*
X500213Y601561D01*
X498453Y602290D01*
X496547D01*
X494787Y601561D01*
X493439Y600213D01*
X492710Y598453D01*
Y598000D01*
X452290D01*
Y598453D01*
X451561Y600213D01*
X450213Y601561D01*
X448453Y602290D01*
X446547D01*
X444787Y601561D01*
X443439Y600213D01*
X442710Y598453D01*
Y598000D01*
X404539D01*
Y610000D01*
X404384Y610780D01*
X403942Y611442D01*
X403280Y611884D01*
X402500Y612039D01*
X365000D01*
X364220Y611884D01*
X363558Y611442D01*
X363116Y610780D01*
X362961Y610000D01*
Y595961D01*
X354887Y587887D01*
X353713Y589061D01*
X351953Y589790D01*
X350047D01*
X348287Y589061D01*
X346939Y587713D01*
X346210Y585953D01*
Y584047D01*
X346939Y582287D01*
X348113Y581113D01*
X344047Y577047D01*
X330491Y563491D01*
X330138Y563844D01*
X328378Y564573D01*
X326472D01*
X324712Y563844D01*
X323364Y562496D01*
X322635Y560736D01*
Y558830D01*
X323364Y557070D01*
X323717Y556717D01*
X281539Y514539D01*
X280000D01*
X279220Y514384D01*
X278558Y513942D01*
X278116Y513280D01*
X277961Y512500D01*
Y510961D01*
X239353Y472353D01*
X238107Y472601D01*
X238061Y472713D01*
X236713Y474061D01*
X234953Y474790D01*
X233047D01*
X231287Y474061D01*
X229939Y472713D01*
X229210Y470953D01*
Y469047D01*
X229414Y468556D01*
X228708Y467500D01*
X160000D01*
Y492000D01*
X194000D01*
X207000Y505000D01*
Y537500D01*
X235500D01*
X247210Y549210D01*
X248953D01*
X250713Y549939D01*
X252061Y551287D01*
X252790Y553047D01*
Y554790D01*
X286863Y588863D01*
X287287Y588439D01*
X289047Y587710D01*
X290953D01*
X292713Y588439D01*
X294061Y589787D01*
X294790Y591547D01*
Y593453D01*
X294061Y595213D01*
X293637Y595637D01*
X343650Y645650D01*
X504168D01*
X504220Y645616D01*
X505000Y645461D01*
X555634D01*
X555634Y645461D01*
X556414Y645616D01*
X557076Y646058D01*
X566423Y655405D01*
X567713Y655939D01*
X569061Y657287D01*
X569595Y658577D01*
X571442Y660424D01*
X571884Y661086D01*
X572039Y661866D01*
Y662039D01*
X594000Y684000D01*
X788500D01*
X925000Y547500D01*
D02*
G37*
G36*
X300000Y450000D02*
X467500Y282500D01*
X474726D01*
X475287Y281939D01*
X477047Y281210D01*
X477790D01*
X481000Y278000D01*
Y271500D01*
X478191Y268691D01*
X477953Y268790D01*
X476047D01*
X474287Y268061D01*
X472939Y266713D01*
X472210Y264953D01*
Y263047D01*
X472309Y262809D01*
X472290Y262790D01*
Y253000D01*
X440000D01*
Y265000D01*
X400545Y304455D01*
X400790Y305047D01*
Y306953D01*
X400061Y308713D01*
X399524Y309250D01*
X400061Y309787D01*
X400790Y311547D01*
Y313453D01*
X400061Y315213D01*
X398713Y316561D01*
X396953Y317290D01*
X395047D01*
X393287Y316561D01*
X391939Y315213D01*
X391746Y314747D01*
X390501Y314499D01*
X262500Y442500D01*
X212000D01*
Y452500D01*
X252500D01*
X254748Y454748D01*
X256047Y454210D01*
X257953D01*
X259713Y454939D01*
X261061Y456287D01*
X261790Y458047D01*
Y459953D01*
X261252Y461252D01*
X280000Y480000D01*
X280000Y512500D01*
X300000D01*
Y450000D01*
D02*
G37*
G36*
X402500Y477500D02*
X522500Y357500D01*
X574893D01*
X575904Y356490D01*
X577664Y355760D01*
X579570D01*
X581330Y356490D01*
X582341Y357500D01*
X596726D01*
X597287Y356939D01*
X599047Y356210D01*
X600953D01*
X602713Y356939D01*
X603274Y357500D01*
X612500D01*
Y345000D01*
X610076Y342576D01*
X608578Y342874D01*
X608270Y343619D01*
X606922Y344966D01*
X605162Y345695D01*
X603256D01*
X601496Y344966D01*
X600148Y343619D01*
X599419Y341858D01*
Y339953D01*
X599310Y339790D01*
X599047D01*
X597287Y339061D01*
X595939Y337713D01*
X595210Y335953D01*
Y334047D01*
X595939Y332287D01*
X597287Y330939D01*
X597478Y329978D01*
X587500Y320000D01*
Y267500D01*
X570000D01*
X342500Y495000D01*
Y525000D01*
X365000Y547500D01*
Y558691D01*
X366289Y559981D01*
X367018Y561741D01*
Y563647D01*
X366289Y565407D01*
X365000Y566696D01*
Y610000D01*
X402500D01*
X402500Y477500D01*
D02*
G37*
G36*
X68496Y589003D02*
X68486Y587260D01*
X67939Y586713D01*
X67210Y584953D01*
Y583047D01*
X67939Y581287D01*
X69287Y579939D01*
X71047Y579210D01*
X72953D01*
X73037Y579245D01*
X74454Y578457D01*
X74939Y577287D01*
X76287Y575939D01*
X78047Y575210D01*
X79953D01*
X81605Y575895D01*
X89439Y568061D01*
X97500Y560000D01*
Y477500D01*
X220000Y355000D01*
X255285D01*
X255641Y354644D01*
X257402Y353915D01*
X259307D01*
X261068Y354644D01*
X261424Y355000D01*
X285000D01*
X330000Y355000D01*
X393037Y291963D01*
X392599Y290604D01*
X391287Y290061D01*
X389939Y288713D01*
X389210Y286953D01*
Y285047D01*
X389939Y283287D01*
X390226Y283000D01*
X389939Y282713D01*
X389210Y280953D01*
Y279047D01*
X389939Y277287D01*
X391287Y275939D01*
X393047Y275210D01*
X394953D01*
X396713Y275939D01*
X398061Y277287D01*
X398790Y279047D01*
Y280953D01*
X398061Y282713D01*
X397774Y283000D01*
X398061Y283287D01*
X398605Y284599D01*
X399963Y285037D01*
X427500Y257500D01*
X437961D01*
Y253000D01*
X438116Y252220D01*
X438558Y251558D01*
X439220Y251116D01*
X440000Y250961D01*
X443442D01*
X444047Y250710D01*
X445953D01*
X446558Y250961D01*
X450942D01*
X451547Y250710D01*
X453453D01*
X454058Y250961D01*
X458442D01*
X459047Y250710D01*
X460953D01*
X461558Y250961D01*
X465942D01*
X466547Y250710D01*
X468453D01*
X469058Y250961D01*
X472290D01*
X473070Y251116D01*
X473732Y251558D01*
X474174Y252220D01*
X474329Y253000D01*
Y257500D01*
X594340D01*
Y256624D01*
X594871Y254643D01*
X595896Y252867D01*
X597347Y251416D01*
X599123Y250391D01*
X601104Y249860D01*
X603156D01*
X605137Y250391D01*
X606913Y251416D01*
X608363Y252867D01*
X609389Y254643D01*
X609920Y256624D01*
Y257500D01*
X647500D01*
X656986Y266986D01*
X657047Y266960D01*
X658953D01*
X660713Y267689D01*
X662061Y269037D01*
X662790Y270797D01*
Y272703D01*
X662764Y272764D01*
X676061Y286061D01*
X767500Y377500D01*
Y517500D01*
X727500Y557500D01*
X690000D01*
X685000Y562500D01*
Y580000D01*
X754000D01*
X773000Y561000D01*
X779210D01*
Y560047D01*
X779939Y558287D01*
X781287Y556939D01*
X783047Y556210D01*
X784953D01*
X786713Y556939D01*
X788061Y558287D01*
X788790Y560047D01*
Y561000D01*
X809000D01*
Y559210D01*
Y526790D01*
X808047D01*
X806287Y526061D01*
X804939Y524713D01*
X804210Y522953D01*
Y521047D01*
X804939Y519287D01*
X806287Y517939D01*
X808047Y517210D01*
X809000D01*
Y477500D01*
X809000Y361500D01*
X657500Y210000D01*
X572500D01*
X564500Y202000D01*
X395000D01*
X347000Y250000D01*
X327000Y270000D01*
X267500D01*
X260000Y277500D01*
Y287500D01*
X245000Y302500D01*
X218790D01*
Y303953D01*
X218061Y305713D01*
X216713Y307061D01*
X214953Y307790D01*
X213047D01*
X211287Y307061D01*
X210290Y306064D01*
X209500Y305839D01*
X208710Y306064D01*
X207713Y307061D01*
X205953Y307790D01*
X204047D01*
X202287Y307061D01*
X200939Y305713D01*
X200210Y303953D01*
Y302500D01*
X182500D01*
X175000Y310000D01*
X127500D01*
Y348398D01*
X128275Y350268D01*
X128865Y353237D01*
Y356263D01*
X128275Y359232D01*
X127500Y361102D01*
Y372500D01*
X48150Y451850D01*
X48195Y453421D01*
X49061Y454287D01*
X49790Y456047D01*
Y457953D01*
X49061Y459713D01*
X47713Y461061D01*
X45953Y461790D01*
X44047D01*
X42287Y461061D01*
X41511Y460285D01*
X39850Y460150D01*
X17500Y482500D01*
Y607500D01*
X50000D01*
X68496Y589003D01*
D02*
G37*
%LPC*%
G36*
X529953Y125790D02*
X528047D01*
X526287Y125061D01*
X524939Y123713D01*
X524210Y121953D01*
Y120047D01*
X524939Y118287D01*
X526287Y116939D01*
X528047Y116210D01*
X529953D01*
X531713Y116939D01*
X533061Y118287D01*
X533790Y120047D01*
Y121953D01*
X533061Y123713D01*
X531713Y125061D01*
X529953Y125790D01*
D02*
G37*
G36*
X615855Y668140D02*
X613804D01*
X611823Y667609D01*
X610047Y666583D01*
X608596Y665133D01*
X607571Y663357D01*
X607040Y661376D01*
Y659324D01*
X607571Y657343D01*
X608596Y655567D01*
X610047Y654116D01*
X611823Y653091D01*
X613804Y652560D01*
X615855D01*
X617837Y653091D01*
X619613Y654116D01*
X621063Y655567D01*
X622089Y657343D01*
X622620Y659324D01*
Y661376D01*
X622089Y663357D01*
X621063Y665133D01*
X619613Y666583D01*
X617837Y667609D01*
X615855Y668140D01*
D02*
G37*
G36*
X579287Y644947D02*
X577382D01*
X575621Y644218D01*
X574274Y642871D01*
X573545Y641110D01*
Y639204D01*
X574274Y637444D01*
X575621Y636097D01*
X577382Y635367D01*
X579287D01*
X581048Y636097D01*
X582395Y637444D01*
X583125Y639204D01*
Y641110D01*
X582395Y642871D01*
X581048Y644218D01*
X579287Y644947D01*
D02*
G37*
G36*
X774953Y639790D02*
X773047D01*
X771287Y639061D01*
X769939Y637713D01*
X769210Y635953D01*
Y634047D01*
X769939Y632287D01*
X771287Y630939D01*
X773047Y630210D01*
X774953D01*
X776713Y630939D01*
X778061Y632287D01*
X778790Y634047D01*
Y635953D01*
X778061Y637713D01*
X776713Y639061D01*
X774953Y639790D01*
D02*
G37*
G36*
X809953Y635790D02*
X808047D01*
X806287Y635061D01*
X804939Y633713D01*
X804210Y631953D01*
Y630047D01*
X804939Y628287D01*
X806287Y626939D01*
X808047Y626210D01*
X809953D01*
X811713Y626939D01*
X813061Y628287D01*
X813790Y630047D01*
Y631953D01*
X813061Y633713D01*
X811713Y635061D01*
X809953Y635790D01*
D02*
G37*
G36*
X626953Y638790D02*
X625047D01*
X623287Y638061D01*
X621939Y636713D01*
X621210Y634953D01*
Y633047D01*
X621939Y631287D01*
X622726Y630500D01*
X621939Y629713D01*
X621210Y627953D01*
Y626047D01*
X621939Y624287D01*
X623287Y622939D01*
X625047Y622210D01*
X626953D01*
X628713Y622939D01*
X630061Y624287D01*
X630790Y626047D01*
Y627953D01*
X630061Y629713D01*
X629274Y630500D01*
X630061Y631287D01*
X630790Y633047D01*
Y634953D01*
X630061Y636713D01*
X628713Y638061D01*
X626953Y638790D01*
D02*
G37*
G36*
X579953Y625790D02*
X578047D01*
X576287Y625061D01*
X574939Y623713D01*
X574210Y621953D01*
Y620047D01*
X574939Y618287D01*
X575765Y617462D01*
X575091Y616788D01*
X574362Y615028D01*
Y613122D01*
X575091Y611362D01*
X576439Y610014D01*
X578199Y609285D01*
X580105D01*
X581865Y610014D01*
X583213Y611362D01*
X583942Y613122D01*
Y615028D01*
X583213Y616788D01*
X582388Y617614D01*
X583061Y618287D01*
X583790Y620047D01*
Y621953D01*
X583061Y623713D01*
X581713Y625061D01*
X579953Y625790D01*
D02*
G37*
G36*
X626953Y612790D02*
X625047D01*
X623287Y612061D01*
X621939Y610713D01*
X621210Y608953D01*
Y607047D01*
X621939Y605287D01*
X623287Y603939D01*
X625047Y603210D01*
X626953D01*
X628713Y603939D01*
X630061Y605287D01*
X630790Y607047D01*
Y608953D01*
X630061Y610713D01*
X628713Y612061D01*
X626953Y612790D01*
D02*
G37*
G36*
X602953Y645790D02*
X601047D01*
X599287Y645061D01*
X597939Y643713D01*
X597210Y641953D01*
Y640047D01*
X597939Y638287D01*
X598626Y637600D01*
X597439Y636413D01*
X596710Y634653D01*
Y632747D01*
X597439Y630987D01*
X597976Y630450D01*
X597439Y629913D01*
X596710Y628153D01*
Y626247D01*
X597439Y624487D01*
X598576Y623350D01*
X597939Y622713D01*
X597210Y620953D01*
Y619047D01*
X597939Y617287D01*
X598226Y617000D01*
X597939Y616713D01*
X597210Y614953D01*
Y613047D01*
X597939Y611287D01*
X598446Y610780D01*
X598001Y610334D01*
X597271Y608574D01*
Y606668D01*
X598001Y604907D01*
X599348Y603560D01*
X601109Y602831D01*
X603014D01*
X604775Y603560D01*
X606122Y604907D01*
X606851Y606668D01*
Y608574D01*
X606122Y610334D01*
X605615Y610841D01*
X606061Y611287D01*
X606790Y613047D01*
Y614953D01*
X606061Y616713D01*
X605774Y617000D01*
X606061Y617287D01*
X606790Y619047D01*
Y620953D01*
X606061Y622713D01*
X604924Y623850D01*
X605561Y624487D01*
X606290Y626247D01*
Y628153D01*
X605561Y629913D01*
X605024Y630450D01*
X605561Y630987D01*
X606290Y632747D01*
Y634653D01*
X605561Y636413D01*
X604874Y637100D01*
X606061Y638287D01*
X606790Y640047D01*
Y641953D01*
X606061Y643713D01*
X604713Y645061D01*
X602953Y645790D01*
D02*
G37*
G36*
X729953Y609790D02*
X728047D01*
X726287Y609061D01*
X724939Y607713D01*
X724210Y605953D01*
Y604047D01*
X724939Y602287D01*
X726287Y600939D01*
X728047Y600210D01*
X729953D01*
X731713Y600939D01*
X733061Y602287D01*
X733790Y604047D01*
Y605953D01*
X733061Y607713D01*
X731713Y609061D01*
X729953Y609790D01*
D02*
G37*
G36*
X313370Y560017D02*
X311465D01*
X309704Y559288D01*
X308357Y557940D01*
X307628Y556180D01*
Y554274D01*
X308357Y552514D01*
X309704Y551166D01*
X311465Y550437D01*
X313370D01*
X315131Y551166D01*
X316478Y552514D01*
X317208Y554274D01*
Y556180D01*
X316478Y557940D01*
X315131Y559288D01*
X313370Y560017D01*
D02*
G37*
G36*
X275953Y536290D02*
X274047D01*
X272287Y535561D01*
X270939Y534213D01*
X270210Y532453D01*
Y530547D01*
X270939Y528787D01*
X272287Y527439D01*
X274047Y526710D01*
X275953D01*
X277713Y527439D01*
X279061Y528787D01*
X279790Y530547D01*
Y532453D01*
X279061Y534213D01*
X277713Y535561D01*
X275953Y536290D01*
D02*
G37*
G36*
X252953Y533790D02*
X251047D01*
X249287Y533061D01*
X247939Y531713D01*
X247210Y529953D01*
Y528047D01*
X247939Y526287D01*
X249287Y524939D01*
X251047Y524210D01*
X252953D01*
X254713Y524939D01*
X255247Y525472D01*
X256492Y525225D01*
X256745Y524615D01*
X258092Y523267D01*
X259853Y522538D01*
X261758D01*
X263519Y523267D01*
X264866Y524615D01*
X265595Y526375D01*
Y528281D01*
X264866Y530041D01*
X263519Y531389D01*
X261758Y532118D01*
X259853D01*
X258092Y531389D01*
X257559Y530856D01*
X256313Y531103D01*
X256061Y531713D01*
X254713Y533061D01*
X252953Y533790D01*
D02*
G37*
G36*
X224029Y526085D02*
X222124D01*
X220363Y525356D01*
X219016Y524009D01*
X218286Y522248D01*
Y520343D01*
X219016Y518582D01*
X220363Y517235D01*
X222124Y516505D01*
X224029D01*
X225790Y517235D01*
X227137Y518582D01*
X227866Y520343D01*
Y522248D01*
X227137Y524009D01*
X225790Y525356D01*
X224029Y526085D01*
D02*
G37*
G36*
X223953Y512790D02*
X222047D01*
X220287Y512061D01*
X218939Y510713D01*
X218210Y508953D01*
Y507047D01*
X218939Y505287D01*
X220287Y503939D01*
X222047Y503210D01*
X223953D01*
X225713Y503939D01*
X227061Y505287D01*
X227790Y507047D01*
Y508953D01*
X227061Y510713D01*
X225713Y512061D01*
X223953Y512790D01*
D02*
G37*
G36*
X248432Y519078D02*
X246526D01*
X244766Y518349D01*
X243418Y517001D01*
X242689Y515241D01*
Y513335D01*
X243418Y511575D01*
X244766Y510227D01*
X246103Y509673D01*
X246486Y508519D01*
X246475Y508249D01*
X245939Y507713D01*
X245210Y505953D01*
Y504047D01*
X245939Y502287D01*
X247287Y500939D01*
X249047Y500210D01*
X250953D01*
X252713Y500939D01*
X254061Y502287D01*
X254790Y504047D01*
Y505953D01*
X254061Y507713D01*
X252713Y509061D01*
X251376Y509615D01*
X250993Y510769D01*
X251004Y511039D01*
X251540Y511575D01*
X252269Y513335D01*
Y515241D01*
X251540Y517001D01*
X250192Y518349D01*
X248432Y519078D01*
D02*
G37*
G36*
X292953Y437790D02*
X291047D01*
X289287Y437061D01*
X287939Y435713D01*
X287210Y433953D01*
Y432047D01*
X287939Y430287D01*
X289287Y428939D01*
X291047Y428210D01*
X292953D01*
X294713Y428939D01*
X296061Y430287D01*
X296790Y432047D01*
Y433953D01*
X296061Y435713D01*
X294713Y437061D01*
X292953Y437790D01*
D02*
G37*
G36*
X396953Y563790D02*
X395047D01*
X393287Y563061D01*
X391939Y561713D01*
X391210Y559953D01*
Y558047D01*
X391939Y556287D01*
X393287Y554939D01*
X395047Y554210D01*
X396953D01*
X398713Y554939D01*
X400061Y556287D01*
X400790Y558047D01*
Y559953D01*
X400061Y561713D01*
X398713Y563061D01*
X396953Y563790D01*
D02*
G37*
G36*
X377953D02*
X376047D01*
X374287Y563061D01*
X372939Y561713D01*
X372210Y559953D01*
Y558047D01*
X372939Y556287D01*
X374287Y554939D01*
X376047Y554210D01*
X377953D01*
X379713Y554939D01*
X381061Y556287D01*
X381790Y558047D01*
Y559953D01*
X381061Y561713D01*
X379713Y563061D01*
X377953Y563790D01*
D02*
G37*
G36*
Y540790D02*
X376047D01*
X374287Y540061D01*
X372939Y538713D01*
X372210Y536953D01*
Y535047D01*
X372939Y533287D01*
X374287Y531939D01*
X376047Y531210D01*
X377953D01*
X379713Y531939D01*
X381061Y533287D01*
X381790Y535047D01*
Y536953D01*
X381061Y538713D01*
X379713Y540061D01*
X377953Y540790D01*
D02*
G37*
G36*
X579953Y345790D02*
X578047D01*
X576287Y345061D01*
X574939Y343713D01*
X574210Y341953D01*
Y340047D01*
X574939Y338287D01*
X576287Y336939D01*
X578047Y336210D01*
X579953D01*
X581713Y336939D01*
X583061Y338287D01*
X583790Y340047D01*
Y341953D01*
X583061Y343713D01*
X581713Y345061D01*
X579953Y345790D01*
D02*
G37*
G36*
X579696Y327267D02*
X577791D01*
X576030Y326537D01*
X574683Y325190D01*
X573954Y323429D01*
Y321524D01*
X574683Y319763D01*
X576030Y318416D01*
X577791Y317687D01*
X579696D01*
X581457Y318416D01*
X582804Y319763D01*
X583534Y321524D01*
Y323429D01*
X582804Y325190D01*
X581457Y326537D01*
X579696Y327267D01*
D02*
G37*
G36*
X579672Y308371D02*
X577766D01*
X576006Y307642D01*
X574658Y306294D01*
X573929Y304534D01*
Y302628D01*
X574658Y300868D01*
X576006Y299520D01*
X577766Y298791D01*
X579672D01*
X581432Y299520D01*
X582780Y300868D01*
X583509Y302628D01*
Y304534D01*
X582780Y306294D01*
X581432Y307642D01*
X579672Y308371D01*
D02*
G37*
G36*
X579920Y289290D02*
X578015D01*
X576254Y288561D01*
X574907Y287213D01*
X574178Y285453D01*
Y283547D01*
X574907Y281787D01*
X576254Y280439D01*
X578015Y279710D01*
X579920D01*
X581681Y280439D01*
X583028Y281787D01*
X583758Y283547D01*
Y285453D01*
X583028Y287213D01*
X581681Y288561D01*
X579920Y289290D01*
D02*
G37*
G36*
X71953Y568790D02*
X70047D01*
X68287Y568061D01*
X66939Y566713D01*
X66210Y564953D01*
Y563047D01*
X66939Y561287D01*
X68287Y559939D01*
X70047Y559210D01*
X71953D01*
X73713Y559939D01*
X75061Y561287D01*
X75790Y563047D01*
Y564953D01*
X75061Y566713D01*
X73713Y568061D01*
X71953Y568790D01*
D02*
G37*
G36*
X83453Y552290D02*
X81547D01*
X79787Y551561D01*
X78439Y550213D01*
X77710Y548453D01*
Y546547D01*
X78439Y544787D01*
X79787Y543439D01*
X81547Y542710D01*
X83453D01*
X85213Y543439D01*
X86561Y544787D01*
X87290Y546547D01*
Y548453D01*
X86561Y550213D01*
X85213Y551561D01*
X83453Y552290D01*
D02*
G37*
G36*
X784953Y503790D02*
X783047D01*
X781287Y503061D01*
X779939Y501713D01*
X779210Y499953D01*
Y498047D01*
X779939Y496287D01*
X781287Y494939D01*
X783047Y494210D01*
X784953D01*
X786713Y494939D01*
X788061Y496287D01*
X788790Y498047D01*
Y499953D01*
X788061Y501713D01*
X786713Y503061D01*
X784953Y503790D01*
D02*
G37*
G36*
X63953Y500790D02*
X62047D01*
X60287Y500061D01*
X58939Y498713D01*
X58210Y496953D01*
Y495047D01*
X58939Y493287D01*
X60287Y491939D01*
X62047Y491210D01*
X63953D01*
X65713Y491939D01*
X67061Y493287D01*
X67790Y495047D01*
Y496953D01*
X67061Y498713D01*
X65713Y500061D01*
X63953Y500790D01*
D02*
G37*
G36*
X25953D02*
X24047D01*
X22287Y500061D01*
X20939Y498713D01*
X20210Y496953D01*
Y495047D01*
X20939Y493287D01*
X22287Y491939D01*
X24047Y491210D01*
X25953D01*
X27713Y491939D01*
X29061Y493287D01*
X29790Y495047D01*
Y496953D01*
X29061Y498713D01*
X27713Y500061D01*
X25953Y500790D01*
D02*
G37*
G36*
X83953Y461790D02*
X82047D01*
X80287Y461061D01*
X78939Y459713D01*
X78210Y457953D01*
Y456047D01*
X78939Y454287D01*
X80287Y452939D01*
X82047Y452210D01*
X83953D01*
X85713Y452939D01*
X87061Y454287D01*
X87790Y456047D01*
Y457953D01*
X87061Y459713D01*
X85713Y461061D01*
X83953Y461790D01*
D02*
G37*
G36*
X193953Y343790D02*
X192047D01*
X190287Y343061D01*
X188939Y341713D01*
X188210Y339953D01*
Y338047D01*
X188939Y336287D01*
X190287Y334939D01*
X192047Y334210D01*
X193953D01*
X195713Y334939D01*
X197061Y336287D01*
X197790Y338047D01*
Y339953D01*
X197061Y341713D01*
X195713Y343061D01*
X193953Y343790D01*
D02*
G37*
G36*
X182953D02*
X181047D01*
X179287Y343061D01*
X177939Y341713D01*
X177210Y339953D01*
Y338047D01*
X177939Y336287D01*
X179287Y334939D01*
X181047Y334210D01*
X182953D01*
X184713Y334939D01*
X186061Y336287D01*
X186790Y338047D01*
Y339953D01*
X186061Y341713D01*
X184713Y343061D01*
X182953Y343790D01*
D02*
G37*
G36*
X171953D02*
X170047D01*
X168287Y343061D01*
X166939Y341713D01*
X166210Y339953D01*
Y338047D01*
X166939Y336287D01*
X168287Y334939D01*
X170047Y334210D01*
X171953D01*
X173713Y334939D01*
X175061Y336287D01*
X175790Y338047D01*
Y339953D01*
X175061Y341713D01*
X173713Y343061D01*
X171953Y343790D01*
D02*
G37*
G36*
X160953D02*
X159047D01*
X157287Y343061D01*
X155939Y341713D01*
X155210Y339953D01*
Y338047D01*
X155939Y336287D01*
X157287Y334939D01*
X159047Y334210D01*
X160953D01*
X162713Y334939D01*
X164061Y336287D01*
X164790Y338047D01*
Y339953D01*
X164061Y341713D01*
X162713Y343061D01*
X160953Y343790D01*
D02*
G37*
G36*
X149953D02*
X148047D01*
X146287Y343061D01*
X144939Y341713D01*
X144210Y339953D01*
Y338047D01*
X144939Y336287D01*
X146287Y334939D01*
X148047Y334210D01*
X149953D01*
X151713Y334939D01*
X153061Y336287D01*
X153790Y338047D01*
Y339953D01*
X153061Y341713D01*
X151713Y343061D01*
X149953Y343790D01*
D02*
G37*
G36*
X352953Y326790D02*
X351047D01*
X349287Y326061D01*
X347939Y324713D01*
X347210Y322953D01*
Y321047D01*
X347939Y319287D01*
X349287Y317939D01*
X351047Y317210D01*
X352953D01*
X354713Y317939D01*
X356061Y319287D01*
X356790Y321047D01*
Y322953D01*
X356061Y324713D01*
X354713Y326061D01*
X352953Y326790D01*
D02*
G37*
G36*
X182953Y320790D02*
X181047D01*
X179287Y320061D01*
X177939Y318713D01*
X177210Y316953D01*
Y315047D01*
X177939Y313287D01*
X179287Y311939D01*
X181047Y311210D01*
X182953D01*
X184713Y311939D01*
X186061Y313287D01*
X186790Y315047D01*
Y316953D01*
X186061Y318713D01*
X184713Y320061D01*
X182953Y320790D01*
D02*
G37*
G36*
X362953Y313790D02*
X361047D01*
X359287Y313061D01*
X357939Y311713D01*
X357210Y309953D01*
Y308047D01*
X357939Y306287D01*
X358599Y305627D01*
X357686Y304713D01*
X356957Y302953D01*
Y301047D01*
X357686Y299287D01*
X359033Y297939D01*
X360794Y297210D01*
X362700D01*
X364460Y297939D01*
X365807Y299287D01*
X366537Y301047D01*
Y302953D01*
X365807Y304713D01*
X365147Y305373D01*
X366061Y306287D01*
X366790Y308047D01*
Y309953D01*
X366061Y311713D01*
X364713Y313061D01*
X362953Y313790D01*
D02*
G37*
G36*
X372129Y298114D02*
X370223D01*
X368463Y297385D01*
X367115Y296037D01*
X366386Y294277D01*
Y292371D01*
X367115Y290611D01*
X368463Y289263D01*
X370223Y288534D01*
X372129D01*
X373889Y289263D01*
X375237Y290611D01*
X375966Y292371D01*
Y294277D01*
X375237Y296037D01*
X373889Y297385D01*
X372129Y298114D01*
D02*
G37*
G36*
X362953Y286790D02*
X361047D01*
X359287Y286061D01*
X357939Y284713D01*
X357210Y282953D01*
Y281047D01*
X357939Y279287D01*
X359287Y277939D01*
X361047Y277210D01*
X362953D01*
X364713Y277939D01*
X366061Y279287D01*
X366790Y281047D01*
Y282953D01*
X366061Y284713D01*
X364713Y286061D01*
X362953Y286790D01*
D02*
G37*
G36*
X367953Y261790D02*
X366047D01*
X364287Y261061D01*
X362939Y259713D01*
X362210Y257953D01*
Y256047D01*
X362939Y254287D01*
X364287Y252939D01*
X366047Y252210D01*
X367953D01*
X369713Y252939D01*
X371061Y254287D01*
X371790Y256047D01*
Y257953D01*
X371061Y259713D01*
X369713Y261061D01*
X367953Y261790D01*
D02*
G37*
G36*
X549953Y255790D02*
X548047D01*
X546287Y255061D01*
X544939Y253713D01*
X544210Y251953D01*
Y250047D01*
X544939Y248287D01*
X546287Y246939D01*
X548047Y246210D01*
X549953D01*
X551713Y246939D01*
X553061Y248287D01*
X553790Y250047D01*
Y251953D01*
X553061Y253713D01*
X551713Y255061D01*
X549953Y255790D01*
D02*
G37*
G36*
X540953Y241790D02*
X539047D01*
X537287Y241061D01*
X535939Y239713D01*
X535210Y237953D01*
Y236047D01*
X535939Y234287D01*
X537287Y232939D01*
X539047Y232210D01*
X540953D01*
X542713Y232939D01*
X544061Y234287D01*
X544790Y236047D01*
Y237953D01*
X544061Y239713D01*
X542713Y241061D01*
X540953Y241790D01*
D02*
G37*
G36*
X501953Y245790D02*
X500047D01*
X498287Y245061D01*
X496939Y243713D01*
X496210Y241953D01*
Y240047D01*
X496939Y238287D01*
X498287Y236939D01*
X498345Y236915D01*
X498643Y235417D01*
X497939Y234713D01*
X497210Y232953D01*
Y231047D01*
X497939Y229287D01*
X499287Y227939D01*
X501047Y227210D01*
X502953D01*
X504713Y227939D01*
X506061Y229287D01*
X506790Y231047D01*
Y232953D01*
X506061Y234713D01*
X504713Y236061D01*
X504655Y236085D01*
X504357Y237583D01*
X505061Y238287D01*
X505790Y240047D01*
Y241953D01*
X505061Y243713D01*
X503713Y245061D01*
X501953Y245790D01*
D02*
G37*
G36*
X528953Y232790D02*
X527047D01*
X525287Y232061D01*
X523939Y230713D01*
X523210Y228953D01*
Y227047D01*
X523939Y225287D01*
X525287Y223939D01*
X527047Y223210D01*
X528953D01*
X530713Y223939D01*
X532061Y225287D01*
X532790Y227047D01*
Y228953D01*
X532061Y230713D01*
X530713Y232061D01*
X528953Y232790D01*
D02*
G37*
G36*
X540953Y219000D02*
X539047D01*
X537287Y218271D01*
X535939Y216923D01*
X535210Y215163D01*
Y213257D01*
X535939Y211497D01*
X537287Y210149D01*
X539047Y209420D01*
X540953D01*
X542713Y210149D01*
X544061Y211497D01*
X544790Y213257D01*
Y215163D01*
X544061Y216923D01*
X542713Y218271D01*
X540953Y219000D01*
D02*
G37*
%LPD*%
G36*
X1307000Y522000D02*
X1295555D01*
X1294208Y523347D01*
X1292447Y524076D01*
X1290542D01*
X1288781Y523347D01*
X1287435Y522000D01*
X1273822D01*
X1273790Y522047D01*
Y523953D01*
X1273061Y525713D01*
X1271713Y527061D01*
X1269953Y527790D01*
X1268047D01*
X1266287Y527061D01*
X1264939Y525713D01*
X1264210Y523953D01*
Y522047D01*
X1264178Y522000D01*
X1250014D01*
X1249427Y523270D01*
X1250017Y524693D01*
Y526599D01*
X1249287Y528359D01*
X1247940Y529707D01*
X1246180Y530436D01*
X1244274D01*
X1242514Y529707D01*
X1241166Y528359D01*
X1240437Y526599D01*
Y524693D01*
X1241026Y523270D01*
X1240439Y522000D01*
X1204500D01*
X983750Y301250D01*
X932000D01*
Y333000D01*
X948000D01*
X1267000Y652000D01*
X1307000D01*
Y522000D01*
D02*
G37*
%LPC*%
G36*
X1266992Y632164D02*
X1265086D01*
X1263326Y631435D01*
X1261978Y630087D01*
X1261249Y628327D01*
Y626421D01*
X1261978Y624661D01*
X1263326Y623313D01*
X1265086Y622584D01*
X1266992D01*
X1268752Y623313D01*
X1270100Y624661D01*
X1270829Y626421D01*
Y628327D01*
X1270100Y630087D01*
X1268752Y631435D01*
X1266992Y632164D01*
D02*
G37*
G36*
X1292953Y628790D02*
X1291047D01*
X1289287Y628061D01*
X1287939Y626713D01*
X1287210Y624953D01*
Y623047D01*
X1287939Y621287D01*
X1289287Y619939D01*
X1291047Y619210D01*
X1292953D01*
X1294713Y619939D01*
X1296061Y621287D01*
X1296790Y623047D01*
Y624953D01*
X1296061Y626713D01*
X1294713Y628061D01*
X1292953Y628790D01*
D02*
G37*
G36*
X1270953Y619790D02*
X1269047D01*
X1267287Y619061D01*
X1265939Y617713D01*
X1265210Y615953D01*
Y614047D01*
X1265939Y612287D01*
X1267287Y610939D01*
X1269047Y610210D01*
X1270953D01*
X1272713Y610939D01*
X1274061Y612287D01*
X1274790Y614047D01*
Y615953D01*
X1274061Y617713D01*
X1272713Y619061D01*
X1270953Y619790D01*
D02*
G37*
G36*
X1292953Y606790D02*
X1291047D01*
X1289287Y606061D01*
X1287939Y604713D01*
X1287210Y602953D01*
Y601047D01*
X1287939Y599287D01*
X1289287Y597939D01*
X1291047Y597210D01*
X1292953D01*
X1294713Y597939D01*
X1296061Y599287D01*
X1296790Y601047D01*
Y602953D01*
X1296061Y604713D01*
X1294713Y606061D01*
X1292953Y606790D01*
D02*
G37*
G36*
X1266953D02*
X1265047D01*
X1263287Y606061D01*
X1261939Y604713D01*
X1261210Y602953D01*
Y601047D01*
X1261939Y599287D01*
X1263287Y597939D01*
X1265047Y597210D01*
X1266953D01*
X1268713Y597939D01*
X1270061Y599287D01*
X1270790Y601047D01*
Y602953D01*
X1270061Y604713D01*
X1268713Y606061D01*
X1266953Y606790D01*
D02*
G37*
G36*
X1244323Y593806D02*
X1242418D01*
X1240657Y593077D01*
X1239310Y591730D01*
X1238581Y589969D01*
Y588064D01*
X1239310Y586303D01*
X1240657Y584956D01*
X1242418Y584226D01*
X1244323D01*
X1246084Y584956D01*
X1247431Y586303D01*
X1248161Y588064D01*
Y589969D01*
X1247431Y591730D01*
X1246084Y593077D01*
X1244323Y593806D01*
D02*
G37*
G36*
X1272953Y593790D02*
X1271047D01*
X1269287Y593061D01*
X1267939Y591713D01*
X1267210Y589953D01*
Y588047D01*
X1267939Y586287D01*
X1269287Y584939D01*
X1271047Y584210D01*
X1272953D01*
X1274713Y584939D01*
X1276061Y586287D01*
X1276790Y588047D01*
Y589953D01*
X1276061Y591713D01*
X1274713Y593061D01*
X1272953Y593790D01*
D02*
G37*
G36*
X1267459Y581246D02*
X1265554D01*
X1263793Y580517D01*
X1262446Y579170D01*
X1261716Y577409D01*
Y575504D01*
X1262446Y573743D01*
X1263793Y572396D01*
X1265554Y571666D01*
X1267459D01*
X1269220Y572396D01*
X1270567Y573743D01*
X1271296Y575504D01*
Y577409D01*
X1270567Y579170D01*
X1269220Y580517D01*
X1267459Y581246D01*
D02*
G37*
G36*
X1292414Y581180D02*
X1290509D01*
X1288748Y580450D01*
X1287401Y579103D01*
X1286671Y577342D01*
Y575437D01*
X1287401Y573676D01*
X1288748Y572329D01*
X1290509Y571600D01*
X1292414D01*
X1294175Y572329D01*
X1295522Y573676D01*
X1296251Y575437D01*
Y577342D01*
X1295522Y579103D01*
X1294175Y580450D01*
X1292414Y581180D01*
D02*
G37*
G36*
X1245578Y568383D02*
X1243672D01*
X1241912Y567654D01*
X1240564Y566306D01*
X1239835Y564546D01*
Y562640D01*
X1240564Y560880D01*
X1241912Y559532D01*
X1243672Y558803D01*
X1245578D01*
X1247338Y559532D01*
X1248686Y560880D01*
X1249415Y562640D01*
Y564546D01*
X1248686Y566306D01*
X1247338Y567654D01*
X1245578Y568383D01*
D02*
G37*
G36*
X1270423Y568603D02*
X1268518D01*
X1266757Y567874D01*
X1265409Y566527D01*
X1264680Y564766D01*
Y562861D01*
X1265409Y561100D01*
X1266450Y560060D01*
X1266047Y558790D01*
X1264287Y558061D01*
X1262939Y556713D01*
X1262210Y554953D01*
Y553047D01*
X1262939Y551287D01*
X1264287Y549939D01*
X1266047Y549210D01*
X1267953D01*
X1269713Y549939D01*
X1271061Y551287D01*
X1271790Y553047D01*
Y554953D01*
X1271061Y556713D01*
X1270021Y557753D01*
X1270423Y559023D01*
X1272184Y559753D01*
X1273531Y561100D01*
X1274260Y562861D01*
Y564766D01*
X1273531Y566527D01*
X1272184Y567874D01*
X1270423Y568603D01*
D02*
G37*
G36*
X1291953Y555790D02*
X1290047D01*
X1288287Y555061D01*
X1286939Y553713D01*
X1286210Y551953D01*
Y550047D01*
X1286939Y548287D01*
X1288287Y546939D01*
X1290047Y546210D01*
X1291953D01*
X1293713Y546939D01*
X1295061Y548287D01*
X1295790Y550047D01*
Y551953D01*
X1295061Y553713D01*
X1293713Y555061D01*
X1291953Y555790D01*
D02*
G37*
G36*
X1256830Y542949D02*
X1254924D01*
X1253164Y542220D01*
X1251816Y540872D01*
X1251087Y539112D01*
Y537206D01*
X1251816Y535445D01*
X1253164Y534098D01*
X1254924Y533369D01*
X1256830D01*
X1258590Y534098D01*
X1259938Y535445D01*
X1260667Y537206D01*
Y539112D01*
X1259938Y540872D01*
X1258590Y542220D01*
X1256830Y542949D01*
D02*
G37*
G36*
X1281938Y542889D02*
X1280032D01*
X1278272Y542160D01*
X1276924Y540813D01*
X1276195Y539052D01*
Y537146D01*
X1276924Y535386D01*
X1278272Y534039D01*
X1280032Y533309D01*
X1281938D01*
X1283698Y534039D01*
X1285046Y535386D01*
X1285775Y537146D01*
Y539052D01*
X1285046Y540813D01*
X1283698Y542160D01*
X1281938Y542889D01*
D02*
G37*
%LPD*%
D103*
X619405Y545595D02*
X675000Y490000D01*
X585405Y545595D02*
X619405D01*
X675000Y430000D02*
Y490000D01*
X569790Y561210D02*
Y597913D01*
Y561210D02*
X585405Y545595D01*
D108*
X1590484Y407174D02*
D03*
Y432574D02*
D03*
X1590500Y236300D02*
D03*
Y261700D02*
D03*
Y303550D02*
D03*
Y328950D02*
D03*
X27500Y755200D02*
D03*
Y729800D02*
D03*
D109*
X1538300Y630000D02*
D03*
X1563700D02*
D03*
D110*
X113500Y189750D02*
D03*
Y354750D02*
D03*
D111*
X36700Y272250D02*
D03*
D112*
X45700Y189750D02*
D03*
Y354750D02*
D03*
D113*
X1570980Y844140D02*
D03*
X1486980D02*
D03*
D114*
X1570980Y729140D02*
D03*
X1528980D02*
D03*
X1486980D02*
D03*
X1570980Y771140D02*
D03*
X1528980D02*
D03*
X1486980D02*
D03*
X1371500Y788060D02*
D03*
Y835060D02*
D03*
D115*
X1280950Y660350D02*
D03*
X1268250Y257650D02*
D03*
X602130Y257650D02*
D03*
X614830Y660350D02*
D03*
D116*
X1288250Y727250D02*
D03*
X581750Y190750D02*
D03*
Y727250D02*
D03*
X1288250Y190750D02*
D03*
D117*
X1371500Y882060D02*
D03*
D118*
X612889Y61000D02*
D03*
X359000Y530000D02*
D03*
X540000Y554580D02*
D03*
X532000D02*
D03*
X532250Y536580D02*
D03*
X540000D02*
D03*
X392473Y838615D02*
D03*
X1550000Y403500D02*
D03*
X1172500Y170000D02*
D03*
X1122500D02*
D03*
X1070000D02*
D03*
X1022500D02*
D03*
X972500D02*
D03*
X395000Y195000D02*
D03*
X435000D02*
D03*
X530000Y192500D02*
D03*
X555000Y187500D02*
D03*
X560000Y177500D02*
D03*
X605000D02*
D03*
X615000Y195000D02*
D03*
X852500Y240000D02*
D03*
X892500D02*
D03*
X1055000Y455000D02*
D03*
X1205000Y605000D02*
D03*
X1177500Y575000D02*
D03*
X1130000Y527500D02*
D03*
X1082500Y480000D02*
D03*
X37500Y797500D02*
D03*
Y857500D02*
D03*
X97500Y887500D02*
D03*
X37500D02*
D03*
X327500Y757500D02*
D03*
X272500D02*
D03*
X197500D02*
D03*
X275000Y680000D02*
D03*
X560000Y597500D02*
D03*
X527500D02*
D03*
X497500D02*
D03*
X447500D02*
D03*
X422500Y560000D02*
D03*
X472500D02*
D03*
Y542500D02*
D03*
X417500Y530000D02*
D03*
X525000D02*
D03*
X520000Y500000D02*
D03*
X500000D02*
D03*
Y480000D02*
D03*
X440000Y450000D02*
D03*
X470000D02*
D03*
X427000Y380000D02*
D03*
X100000D02*
D03*
X72270Y405000D02*
D03*
X45000D02*
D03*
Y380000D02*
D03*
X150000Y445000D02*
D03*
X180000D02*
D03*
Y420000D02*
D03*
X305000Y365000D02*
D03*
X345000Y350000D02*
D03*
X400000Y292500D02*
D03*
X430000Y265000D02*
D03*
X522500Y435000D02*
D03*
X900000Y590000D02*
D03*
X722270Y690000D02*
D03*
X622270D02*
D03*
X647270Y729630D02*
D03*
X772270Y690000D02*
D03*
X672270D02*
D03*
X1122500Y370000D02*
D03*
X1092500D02*
D03*
X1062500D02*
D03*
X1149500Y370500D02*
D03*
X1179500D02*
D03*
X1209500D02*
D03*
X1149500Y403000D02*
D03*
X1179500D02*
D03*
X1209500D02*
D03*
X1210000Y427500D02*
D03*
X1180000D02*
D03*
X1150000D02*
D03*
X1123000Y427000D02*
D03*
X1102500Y400000D02*
D03*
X1005000Y402500D02*
D03*
X1027500Y427500D02*
D03*
X1197500Y202500D02*
D03*
X1247500D02*
D03*
X1172500Y147500D02*
D03*
X1222500D02*
D03*
Y120000D02*
D03*
X1172500D02*
D03*
X1122500Y147500D02*
D03*
Y120000D02*
D03*
X1070000D02*
D03*
X1022500D02*
D03*
X972500D02*
D03*
X1147500Y192500D02*
D03*
X1070000D02*
D03*
X1022500Y195000D02*
D03*
X972500D02*
D03*
X922500Y147500D02*
D03*
X1070000D02*
D03*
X1022500D02*
D03*
X972500D02*
D03*
X875000D02*
D03*
X760000Y150000D02*
D03*
X790000Y175000D02*
D03*
X682500Y212500D02*
D03*
X667500Y197500D02*
D03*
X652500Y182500D02*
D03*
X585000Y70000D02*
D03*
X635000Y85000D02*
D03*
X615000Y70000D02*
D03*
X635000D02*
D03*
X655000D02*
D03*
Y82500D02*
D03*
X675000Y85000D02*
D03*
Y70000D02*
D03*
X695000D02*
D03*
Y85000D02*
D03*
X715000D02*
D03*
Y70000D02*
D03*
X1547270Y729630D02*
D03*
X1572270Y679630D02*
D03*
Y479630D02*
D03*
Y379630D02*
D03*
Y279630D02*
D03*
X1547270Y229630D02*
D03*
X1572270Y179630D02*
D03*
X1547270Y129630D02*
D03*
X1522270Y679630D02*
D03*
X1497270Y629630D02*
D03*
Y429630D02*
D03*
X1522270Y279630D02*
D03*
X1497270Y229630D02*
D03*
X1522270Y179630D02*
D03*
X1497270Y129630D02*
D03*
X1447270Y729630D02*
D03*
X1472270Y679630D02*
D03*
X1447270Y429630D02*
D03*
Y329630D02*
D03*
X1472270Y279630D02*
D03*
X1447270Y229630D02*
D03*
X1472270Y179630D02*
D03*
X1447270Y129630D02*
D03*
X1397270Y729630D02*
D03*
Y629630D02*
D03*
X1422270Y579630D02*
D03*
X1397270Y529630D02*
D03*
X1422270Y479630D02*
D03*
X1397270Y429630D02*
D03*
Y329630D02*
D03*
X1422270Y279630D02*
D03*
X1397270Y229630D02*
D03*
X1422270Y179630D02*
D03*
X1397270Y129630D02*
D03*
X1347270Y729630D02*
D03*
Y629630D02*
D03*
X1372270Y579630D02*
D03*
X1347270Y529630D02*
D03*
X1372270Y479630D02*
D03*
X1347270Y429630D02*
D03*
Y329630D02*
D03*
X1372270Y279630D02*
D03*
X1347270Y229630D02*
D03*
X1372270Y179630D02*
D03*
X1347270Y129630D02*
D03*
X1322270Y879630D02*
D03*
Y479630D02*
D03*
X1297270Y229630D02*
D03*
X1272270Y879630D02*
D03*
X1247270Y229630D02*
D03*
X1222270Y879630D02*
D03*
Y479630D02*
D03*
X1197270Y229630D02*
D03*
X1222270Y79630D02*
D03*
X1172270Y879630D02*
D03*
Y779630D02*
D03*
X1147270Y729630D02*
D03*
X1172270Y479630D02*
D03*
Y279630D02*
D03*
X1147270Y229630D02*
D03*
X1172270Y79630D02*
D03*
X1122270Y879630D02*
D03*
Y779630D02*
D03*
X1097270Y729630D02*
D03*
Y329630D02*
D03*
X1122270Y279630D02*
D03*
X1097270Y229630D02*
D03*
X1122270Y79630D02*
D03*
X1072270Y879630D02*
D03*
Y779630D02*
D03*
X1047270Y729630D02*
D03*
Y329630D02*
D03*
Y229630D02*
D03*
X1072270Y79630D02*
D03*
X1022270Y879630D02*
D03*
Y779630D02*
D03*
X997270Y729630D02*
D03*
Y229630D02*
D03*
X1022270Y79630D02*
D03*
X972270Y879630D02*
D03*
Y779630D02*
D03*
X947270Y729630D02*
D03*
X972270Y679630D02*
D03*
X947270Y629630D02*
D03*
X972270Y579630D02*
D03*
Y279630D02*
D03*
X947270Y229630D02*
D03*
X972270Y79630D02*
D03*
X922270Y879630D02*
D03*
Y779630D02*
D03*
X897270Y729630D02*
D03*
X922270Y679630D02*
D03*
X897270Y629630D02*
D03*
X922270Y79630D02*
D03*
X872270Y879630D02*
D03*
Y779630D02*
D03*
X847270Y729630D02*
D03*
X872270Y679630D02*
D03*
Y479630D02*
D03*
Y79630D02*
D03*
X822270Y879630D02*
D03*
Y779630D02*
D03*
X797270Y729630D02*
D03*
X822270Y679630D02*
D03*
Y479630D02*
D03*
Y79630D02*
D03*
X772270Y879630D02*
D03*
Y779630D02*
D03*
Y579630D02*
D03*
X747270Y429630D02*
D03*
X772270Y79630D02*
D03*
X722270Y879630D02*
D03*
Y779630D02*
D03*
X697270Y729630D02*
D03*
X722270Y479630D02*
D03*
X697270Y229630D02*
D03*
X672270Y779630D02*
D03*
X622270D02*
D03*
X572270D02*
D03*
X547270Y729630D02*
D03*
X572270Y379630D02*
D03*
X522270Y879630D02*
D03*
Y379630D02*
D03*
Y279630D02*
D03*
X472270Y879630D02*
D03*
Y779630D02*
D03*
X447270Y729630D02*
D03*
X472270Y679630D02*
D03*
Y579630D02*
D03*
X447270Y529630D02*
D03*
X472270Y479630D02*
D03*
Y179630D02*
D03*
X422270Y879630D02*
D03*
Y779630D02*
D03*
X397270Y729630D02*
D03*
X422270Y679630D02*
D03*
Y579630D02*
D03*
X397270Y429630D02*
D03*
X372270Y779630D02*
D03*
X347270Y729630D02*
D03*
X372270Y679630D02*
D03*
X347270Y429630D02*
D03*
Y229630D02*
D03*
X372270Y179630D02*
D03*
X347270Y129630D02*
D03*
X322270Y879630D02*
D03*
Y779630D02*
D03*
X297270Y729630D02*
D03*
X322270Y679630D02*
D03*
X297270Y229630D02*
D03*
X322270Y179630D02*
D03*
X297270Y129630D02*
D03*
X247270Y729630D02*
D03*
X272270Y379630D02*
D03*
X247270Y229630D02*
D03*
X272270Y179630D02*
D03*
X247270Y129630D02*
D03*
X222270Y579630D02*
D03*
Y379630D02*
D03*
Y279630D02*
D03*
Y179630D02*
D03*
X197270Y129630D02*
D03*
X172270Y279630D02*
D03*
Y179630D02*
D03*
X147270Y129630D02*
D03*
X122270Y879630D02*
D03*
Y679630D02*
D03*
X97270Y629630D02*
D03*
Y129630D02*
D03*
X72270Y879630D02*
D03*
X47270Y829630D02*
D03*
X72270Y679630D02*
D03*
X47270Y429630D02*
D03*
X72270Y379630D02*
D03*
X47270Y129630D02*
D03*
X5000Y87500D02*
D03*
X4926Y127500D02*
D03*
Y107500D02*
D03*
Y507500D02*
D03*
Y487500D02*
D03*
Y427500D02*
D03*
Y447500D02*
D03*
Y467500D02*
D03*
Y367500D02*
D03*
Y387500D02*
D03*
Y407500D02*
D03*
Y307500D02*
D03*
Y327500D02*
D03*
Y347500D02*
D03*
Y247500D02*
D03*
Y227500D02*
D03*
Y207500D02*
D03*
Y287500D02*
D03*
Y267500D02*
D03*
Y167500D02*
D03*
Y187500D02*
D03*
Y147500D02*
D03*
Y887500D02*
D03*
Y867500D02*
D03*
Y807500D02*
D03*
Y827500D02*
D03*
Y847500D02*
D03*
Y747500D02*
D03*
Y767500D02*
D03*
Y787500D02*
D03*
Y687500D02*
D03*
Y707500D02*
D03*
Y727500D02*
D03*
Y627500D02*
D03*
Y607500D02*
D03*
Y587500D02*
D03*
Y667500D02*
D03*
Y647500D02*
D03*
Y547500D02*
D03*
Y567500D02*
D03*
Y527500D02*
D03*
X67426Y909500D02*
D03*
X47426D02*
D03*
X4926D02*
D03*
X27426D02*
D03*
X447425D02*
D03*
X427425D02*
D03*
X367426D02*
D03*
X387425D02*
D03*
X407425D02*
D03*
X307426D02*
D03*
X327426D02*
D03*
X347425D02*
D03*
X247426D02*
D03*
X267426D02*
D03*
X287426D02*
D03*
X187426D02*
D03*
X167426D02*
D03*
X147426D02*
D03*
X227426D02*
D03*
X207426D02*
D03*
X107426D02*
D03*
X127426D02*
D03*
X87426D02*
D03*
X827425D02*
D03*
X807425D02*
D03*
X767425D02*
D03*
X707425D02*
D03*
X647425D02*
D03*
X567425D02*
D03*
X547425D02*
D03*
X527425D02*
D03*
X607425D02*
D03*
X587425D02*
D03*
X487425D02*
D03*
X507425D02*
D03*
X467425D02*
D03*
X1207425D02*
D03*
X1187425D02*
D03*
X1127425D02*
D03*
X1147425D02*
D03*
X1167425D02*
D03*
X1067425D02*
D03*
X1087425D02*
D03*
X1107425D02*
D03*
X1007425D02*
D03*
X1027425D02*
D03*
X1047425D02*
D03*
X947425D02*
D03*
X927425D02*
D03*
X907425D02*
D03*
X987425D02*
D03*
X967425D02*
D03*
X867425D02*
D03*
X887425D02*
D03*
X847425D02*
D03*
X1587425D02*
D03*
X1567425D02*
D03*
X1507425D02*
D03*
X1527425D02*
D03*
X1547425D02*
D03*
X1447425D02*
D03*
X1467425D02*
D03*
X1487425D02*
D03*
X1387425D02*
D03*
X1407425D02*
D03*
X1427425D02*
D03*
X1327425D02*
D03*
X1307425D02*
D03*
X1287425D02*
D03*
X1367425D02*
D03*
X1347425D02*
D03*
X1247425D02*
D03*
X1267425D02*
D03*
X1227425D02*
D03*
X1607500Y867500D02*
D03*
Y887500D02*
D03*
X1607425Y909500D02*
D03*
X1607500Y487500D02*
D03*
Y507500D02*
D03*
Y567500D02*
D03*
Y547500D02*
D03*
Y527500D02*
D03*
Y627500D02*
D03*
Y607500D02*
D03*
Y587500D02*
D03*
Y687500D02*
D03*
Y667500D02*
D03*
Y647500D02*
D03*
Y747500D02*
D03*
Y767500D02*
D03*
Y787500D02*
D03*
Y707500D02*
D03*
Y727500D02*
D03*
Y827500D02*
D03*
Y807500D02*
D03*
Y847500D02*
D03*
Y107500D02*
D03*
Y127500D02*
D03*
Y187500D02*
D03*
Y167500D02*
D03*
Y147500D02*
D03*
Y247500D02*
D03*
Y227500D02*
D03*
Y207500D02*
D03*
Y307500D02*
D03*
Y287500D02*
D03*
Y267500D02*
D03*
Y367500D02*
D03*
Y387500D02*
D03*
Y407500D02*
D03*
Y327500D02*
D03*
Y347500D02*
D03*
Y447500D02*
D03*
Y427500D02*
D03*
Y467500D02*
D03*
X1249750Y70000D02*
D03*
X1255500Y81500D02*
D03*
X1587500Y87500D02*
D03*
X1567500D02*
D03*
X1507500D02*
D03*
X1527500D02*
D03*
X1547500D02*
D03*
X1447500D02*
D03*
X1467500D02*
D03*
X1487500D02*
D03*
X1387500D02*
D03*
X1407500D02*
D03*
X1427500D02*
D03*
X1327500D02*
D03*
X1307500D02*
D03*
X1287500D02*
D03*
X1367500D02*
D03*
X1347500D02*
D03*
X1267500D02*
D03*
X1607500D02*
D03*
X405000D02*
D03*
X365000D02*
D03*
X385000D02*
D03*
X285000D02*
D03*
X265000D02*
D03*
X345000D02*
D03*
X325000D02*
D03*
X305000D02*
D03*
X205000D02*
D03*
X225000D02*
D03*
X245000D02*
D03*
X145000D02*
D03*
X165000D02*
D03*
X185000D02*
D03*
X85000D02*
D03*
X105000D02*
D03*
X125000D02*
D03*
X65000D02*
D03*
X45000D02*
D03*
X25000D02*
D03*
X706495Y537272D02*
D03*
X700000Y569000D02*
D03*
X719620Y537606D02*
D03*
X603917Y509033D02*
D03*
X600554Y504844D02*
D03*
X605000Y500000D02*
D03*
Y493500D02*
D03*
X639000Y500000D02*
D03*
X627000Y487948D02*
D03*
X626000Y530000D02*
D03*
X467500Y255500D02*
D03*
X460000D02*
D03*
X452500D02*
D03*
X445000D02*
D03*
X373167Y318735D02*
D03*
X396000Y306000D02*
D03*
X396000Y312500D02*
D03*
X1267000Y554000D02*
D03*
X1268000Y504000D02*
D03*
Y485000D02*
D03*
Y467000D02*
D03*
X552000Y437000D02*
D03*
X602061Y607621D02*
D03*
X602000Y614000D02*
D03*
X578165Y411446D02*
D03*
X1292332Y446000D02*
D03*
X1256502Y325650D02*
D03*
X605633Y354169D02*
D03*
X604577Y486219D02*
D03*
X579152Y614075D02*
D03*
X579000Y621000D02*
D03*
X578368Y595628D02*
D03*
X604398Y563882D02*
D03*
X604457Y385905D02*
D03*
X578881Y385928D02*
D03*
X578617Y360550D02*
D03*
X625374Y354275D02*
D03*
X1304000Y587000D02*
D03*
X1291461Y576390D02*
D03*
X601500Y627200D02*
D03*
Y633700D02*
D03*
X578000Y513000D02*
D03*
X579000Y486000D02*
D03*
X634495Y436234D02*
D03*
X637500Y442500D02*
D03*
X605380Y430473D02*
D03*
X629000Y425000D02*
D03*
X635000Y392500D02*
D03*
X600681Y398293D02*
D03*
X600000Y477500D02*
D03*
X604650Y464754D02*
D03*
X598634Y455901D02*
D03*
X598553Y462500D02*
D03*
X604693Y458255D02*
D03*
X569790Y598047D02*
D03*
X556000Y561000D02*
D03*
X599835Y557452D02*
D03*
X602500Y320000D02*
D03*
X602212Y281246D02*
D03*
X602500Y300000D02*
D03*
X604209Y340905D02*
D03*
X605454Y347705D02*
D03*
X626000Y335000D02*
D03*
Y278000D02*
D03*
X578495Y434423D02*
D03*
X626712Y557713D02*
D03*
X627000Y552000D02*
D03*
X604000Y538000D02*
D03*
X626000Y576000D02*
D03*
X574000Y469000D02*
D03*
X571653Y433653D02*
D03*
X578062Y442948D02*
D03*
X566000Y430000D02*
D03*
X536000Y548580D02*
D03*
Y542080D02*
D03*
X578000Y538000D02*
D03*
X652750Y558900D02*
D03*
X579000Y570000D02*
D03*
X579087Y563646D02*
D03*
X578335Y640157D02*
D03*
X626000Y634000D02*
D03*
Y627000D02*
D03*
Y608000D02*
D03*
X625689Y582575D02*
D03*
X626000Y385500D02*
D03*
X390000Y410000D02*
D03*
X625028Y377020D02*
D03*
X600000Y376000D02*
D03*
Y361000D02*
D03*
Y367500D02*
D03*
X579000Y341000D02*
D03*
X600000Y335000D02*
D03*
X578744Y322477D02*
D03*
X578719Y303581D02*
D03*
X578968Y284500D02*
D03*
X626000Y316000D02*
D03*
Y297000D02*
D03*
X594000Y266000D02*
D03*
X1245000Y371000D02*
D03*
Y335000D02*
D03*
X1256502Y274850D02*
D03*
X1266893Y277428D02*
D03*
X1291398Y424904D02*
D03*
X1244383Y468489D02*
D03*
Y449722D02*
D03*
X1292097Y462233D02*
D03*
X1291718Y481233D02*
D03*
X1244254Y487535D02*
D03*
X1244037Y506336D02*
D03*
X1243371Y589016D02*
D03*
X1244625Y563593D02*
D03*
X1269470Y563813D02*
D03*
X1266506Y576456D02*
D03*
X1292000Y624000D02*
D03*
Y602000D02*
D03*
X1244000Y313000D02*
D03*
X1268000Y338000D02*
D03*
X1292000Y370000D02*
D03*
X1268000Y371000D02*
D03*
X1243000Y398000D02*
D03*
X1268000D02*
D03*
X1292000Y405000D02*
D03*
X1270000Y408000D02*
D03*
X1244000D02*
D03*
X1291494Y519286D02*
D03*
X1280985Y538099D02*
D03*
X1266039Y627374D02*
D03*
X1270000Y615000D02*
D03*
X1266000Y602000D02*
D03*
X1293000Y317000D02*
D03*
X892000Y398000D02*
D03*
X872000D02*
D03*
Y406000D02*
D03*
X1268000Y427000D02*
D03*
X1244000Y428000D02*
D03*
X892000Y406000D02*
D03*
X1268000Y450000D02*
D03*
X1297230Y430484D02*
D03*
X1291000Y500000D02*
D03*
X1269000Y523000D02*
D03*
X1245227Y525646D02*
D03*
X1216971Y506656D02*
D03*
X1231000Y625000D02*
D03*
X1215000Y620000D02*
D03*
X1291000Y551000D02*
D03*
X1266000Y545000D02*
D03*
X1255877Y538159D02*
D03*
X1272000Y589000D02*
D03*
X1256502Y300250D02*
D03*
X1286000Y266000D02*
D03*
X1279998Y287550D02*
D03*
X1292070Y307980D02*
D03*
X1279977Y312988D02*
D03*
X1261000Y266000D02*
D03*
X1272750Y265459D02*
D03*
X1226500Y256000D02*
D03*
X1235500D02*
D03*
Y239500D02*
D03*
X1226500D02*
D03*
X1219500Y191000D02*
D03*
X1228500D02*
D03*
Y174500D02*
D03*
X1219500D02*
D03*
X1263000Y168028D02*
D03*
X1272000D02*
D03*
Y151528D02*
D03*
X1263000D02*
D03*
X1178250Y333895D02*
D03*
X1187250D02*
D03*
Y317395D02*
D03*
X1178250D02*
D03*
X1182750Y328895D02*
D03*
Y322395D02*
D03*
X1154000Y317000D02*
D03*
Y309250D02*
D03*
X1136000Y309000D02*
D03*
Y317000D02*
D03*
X1072500Y335500D02*
D03*
Y326500D02*
D03*
X1056000D02*
D03*
Y335500D02*
D03*
X1010000Y292000D02*
D03*
Y283000D02*
D03*
X1026500D02*
D03*
Y292000D02*
D03*
X490000Y77000D02*
D03*
X480000Y65000D02*
D03*
X1248500Y61500D02*
D03*
X550000D02*
D03*
X770000D02*
D03*
X810000D02*
D03*
X800000D02*
D03*
X850000D02*
D03*
X840000D02*
D03*
X890000D02*
D03*
X880000D02*
D03*
X940000D02*
D03*
X980000D02*
D03*
X970000D02*
D03*
X1020000D02*
D03*
X1010000D02*
D03*
X1060000D02*
D03*
X1050000D02*
D03*
X1090000D02*
D03*
X1100000D02*
D03*
X1140000D02*
D03*
X1130000D02*
D03*
X1170000D02*
D03*
X1180000D02*
D03*
X1220000D02*
D03*
X1210000D02*
D03*
X1230000D02*
D03*
X1200000D02*
D03*
X1190000D02*
D03*
X1160000D02*
D03*
X1150000D02*
D03*
X1120000D02*
D03*
X1110000D02*
D03*
X1080000D02*
D03*
X1070000D02*
D03*
X1030000D02*
D03*
X1040000D02*
D03*
X990000D02*
D03*
X1000000D02*
D03*
X960000D02*
D03*
X950000D02*
D03*
X920000D02*
D03*
X900000D02*
D03*
X870000D02*
D03*
X860000D02*
D03*
X820000D02*
D03*
X830000D02*
D03*
X790000D02*
D03*
X750000D02*
D03*
X780000D02*
D03*
X717500Y61000D02*
D03*
X732500D02*
D03*
X557500D02*
D03*
X582500D02*
D03*
X632500D02*
D03*
X657500D02*
D03*
X672500D02*
D03*
X712500D02*
D03*
X697500D02*
D03*
X637670Y61115D02*
D03*
X605750Y60750D02*
D03*
X450000Y62000D02*
D03*
X560000Y569000D02*
D03*
X362228Y562694D02*
D03*
X396000Y559000D02*
D03*
X377000D02*
D03*
X312418Y555227D02*
D03*
X327425Y559783D02*
D03*
X260805Y527328D02*
D03*
X257707Y476347D02*
D03*
X243000Y569000D02*
D03*
X248000Y554000D02*
D03*
X93767Y547233D02*
D03*
X123000Y554000D02*
D03*
X90000Y702000D02*
D03*
X83000D02*
D03*
X76000D02*
D03*
X409910Y847990D02*
D03*
X429910D02*
D03*
X449910D02*
D03*
X469910D02*
D03*
X489910D02*
D03*
X774000Y635000D02*
D03*
X1416000Y761000D02*
D03*
Y781000D02*
D03*
Y801000D02*
D03*
Y821000D02*
D03*
Y841000D02*
D03*
X1262500Y807500D02*
D03*
X1277500D02*
D03*
X1270000D02*
D03*
X855549Y880368D02*
D03*
X939000Y462000D02*
D03*
Y451000D02*
D03*
X893000Y481000D02*
D03*
X885500Y480750D02*
D03*
X872000Y468000D02*
D03*
Y463000D02*
D03*
X899000D02*
D03*
X887000D02*
D03*
X872000Y458000D02*
D03*
X864000Y487000D02*
D03*
X396000Y182000D02*
D03*
Y146000D02*
D03*
Y128000D02*
D03*
Y110000D02*
D03*
Y164000D02*
D03*
X394000Y280000D02*
D03*
Y286000D02*
D03*
X362000Y309000D02*
D03*
X71000Y564000D02*
D03*
X82500Y547500D02*
D03*
X140530Y573750D02*
D03*
X122530D02*
D03*
X107530Y578000D02*
D03*
X196000Y576000D02*
D03*
X196181Y558502D02*
D03*
X250000Y505000D02*
D03*
X214000Y303000D02*
D03*
X205000D02*
D03*
X265000Y260000D02*
D03*
X277000D02*
D03*
X352000Y322000D02*
D03*
X443000Y325000D02*
D03*
X478000Y286000D02*
D03*
X540000Y214210D02*
D03*
X502000Y232000D02*
D03*
X505000Y267000D02*
D03*
X729000Y605000D02*
D03*
X1511000Y592000D02*
D03*
X1512000Y576000D02*
D03*
Y566000D02*
D03*
X1511000Y550000D02*
D03*
X666500Y591500D02*
D03*
X355000Y562552D02*
D03*
X550210Y523453D02*
D03*
X541000Y523000D02*
D03*
X641750Y575000D02*
D03*
X605504Y571713D02*
D03*
X666895Y479894D02*
D03*
X675250Y608000D02*
D03*
X671000Y596424D02*
D03*
Y602924D02*
D03*
X675250Y591500D02*
D03*
X666250Y607750D02*
D03*
X676000Y583000D02*
D03*
X604693Y588736D02*
D03*
X601000Y576400D02*
D03*
Y582900D02*
D03*
X1329000Y632500D02*
D03*
X1320000Y647500D02*
D03*
X1233000Y515561D02*
D03*
X1217000Y540000D02*
D03*
X784000Y499000D02*
D03*
X1296000Y532000D02*
D03*
Y543000D02*
D03*
Y632000D02*
D03*
Y647000D02*
D03*
Y558000D02*
D03*
X1329000Y576000D02*
D03*
Y558000D02*
D03*
X1320000Y543000D02*
D03*
Y531000D02*
D03*
X641000Y347000D02*
D03*
X656000Y352000D02*
D03*
X649000Y319000D02*
D03*
X641000D02*
D03*
X657000D02*
D03*
X486000Y691000D02*
D03*
X1547000Y303550D02*
D03*
Y262000D02*
D03*
Y236000D02*
D03*
X1548000Y425574D02*
D03*
Y414174D02*
D03*
X1550000Y436500D02*
D03*
X1485000Y608500D02*
D03*
Y587000D02*
D03*
Y555000D02*
D03*
Y533500D02*
D03*
X1483000Y544000D02*
D03*
Y566000D02*
D03*
Y576000D02*
D03*
Y598000D02*
D03*
X1589000Y602000D02*
D03*
X1564000Y652000D02*
D03*
X1562000Y664000D02*
D03*
X395000Y875000D02*
D03*
X1231000Y251000D02*
D03*
Y244500D02*
D03*
X1224000Y179500D02*
D03*
Y186000D02*
D03*
X750000Y105000D02*
D03*
X1267500Y163028D02*
D03*
Y156528D02*
D03*
X373000Y806000D02*
D03*
X362416Y803880D02*
D03*
X354071Y804930D02*
D03*
X598826Y468999D02*
D03*
X1148500Y313000D02*
D03*
X1142000D02*
D03*
X500000Y61000D02*
D03*
X490000Y91000D02*
D03*
Y84000D02*
D03*
Y98000D02*
D03*
X529000Y121000D02*
D03*
X528000Y228000D02*
D03*
X456500Y95250D02*
D03*
X355000Y499000D02*
D03*
X234000Y470000D02*
D03*
X223000Y508000D02*
D03*
X241552Y433000D02*
D03*
X430000Y68000D02*
D03*
X440000D02*
D03*
Y62000D02*
D03*
X430000D02*
D03*
X1021500Y287500D02*
D03*
X1015000D02*
D03*
X827500Y430000D02*
D03*
X947500Y327500D02*
D03*
X957500Y317500D02*
D03*
X1061000Y331000D02*
D03*
X1067500D02*
D03*
X957500Y327500D02*
D03*
X937500Y317500D02*
D03*
Y327500D02*
D03*
X947500Y317500D02*
D03*
X1266877Y270928D02*
D03*
X1267251Y329018D02*
D03*
X1267222Y322518D02*
D03*
X1268498Y283727D02*
D03*
X947500Y307500D02*
D03*
X937500D02*
D03*
X957500D02*
D03*
X565000Y685000D02*
D03*
X552500D02*
D03*
X540000D02*
D03*
X527500D02*
D03*
X675000Y430000D02*
D03*
X642000Y425000D02*
D03*
X809000Y522000D02*
D03*
X1564000Y535000D02*
D03*
X918750Y495000D02*
D03*
Y487500D02*
D03*
Y480000D02*
D03*
Y472500D02*
D03*
X915000Y455000D02*
D03*
Y462500D02*
D03*
X908455Y472968D02*
D03*
X907500Y497500D02*
D03*
X602000Y620000D02*
D03*
Y641000D02*
D03*
X817000Y567000D02*
D03*
Y578000D02*
D03*
X809563Y585633D02*
D03*
X190000Y471000D02*
D03*
X182000D02*
D03*
X174000D02*
D03*
X166000D02*
D03*
Y478000D02*
D03*
X565000Y660000D02*
D03*
X552500D02*
D03*
X540000D02*
D03*
X527500D02*
D03*
X570000Y295000D02*
D03*
Y287500D02*
D03*
Y280000D02*
D03*
Y272500D02*
D03*
X1271000Y532000D02*
D03*
X716000Y419000D02*
D03*
X691000Y413186D02*
D03*
X886000Y402000D02*
D03*
X878000D02*
D03*
X1270000Y640000D02*
D03*
Y646000D02*
D03*
X501000Y241000D02*
D03*
X540000Y237000D02*
D03*
X549000Y251000D02*
D03*
X492500Y204500D02*
D03*
X805000Y551000D02*
D03*
Y557000D02*
D03*
X374000Y273000D02*
D03*
X265000Y283000D02*
D03*
X277000D02*
D03*
X160000Y315000D02*
D03*
X198000Y307000D02*
D03*
X278000Y352000D02*
D03*
X132000Y320000D02*
D03*
X139000D02*
D03*
X38000Y496000D02*
D03*
X32500Y567500D02*
D03*
Y575000D02*
D03*
Y582500D02*
D03*
Y590000D02*
D03*
Y597500D02*
D03*
X25000Y567500D02*
D03*
Y575000D02*
D03*
Y582500D02*
D03*
Y590000D02*
D03*
Y597500D02*
D03*
X38000Y565000D02*
D03*
X693000Y576000D02*
D03*
X500000Y187000D02*
D03*
Y194500D02*
D03*
X492500D02*
D03*
Y187000D02*
D03*
X610000Y105000D02*
D03*
X60000Y718000D02*
D03*
X445000Y185000D02*
D03*
Y175000D02*
D03*
Y165000D02*
D03*
Y155000D02*
D03*
Y145000D02*
D03*
Y135000D02*
D03*
Y125000D02*
D03*
Y115000D02*
D03*
Y105000D02*
D03*
X435000D02*
D03*
Y115000D02*
D03*
Y125000D02*
D03*
Y135000D02*
D03*
Y145000D02*
D03*
Y155000D02*
D03*
Y165000D02*
D03*
Y175000D02*
D03*
Y185000D02*
D03*
X275000Y592500D02*
D03*
Y600000D02*
D03*
X345000Y465000D02*
D03*
X342552Y485000D02*
D03*
X605453Y417478D02*
D03*
X527500Y652500D02*
D03*
X540000D02*
D03*
X552500D02*
D03*
X395000Y597500D02*
D03*
X382500D02*
D03*
X370000Y605000D02*
D03*
X395000D02*
D03*
X382500D02*
D03*
X370000Y597500D02*
D03*
X396000Y804000D02*
D03*
X658000Y271750D02*
D03*
X120000Y149000D02*
D03*
X108000D02*
D03*
X784000Y561000D02*
D03*
X477000Y264000D02*
D03*
X477552Y275000D02*
D03*
X579000Y278000D02*
D03*
Y272000D02*
D03*
X247479Y514288D02*
D03*
X285000Y507448D02*
D03*
X295000D02*
D03*
X199000Y508448D02*
D03*
X223076Y521295D02*
D03*
X190000Y514000D02*
D03*
X221000Y533000D02*
D03*
Y555000D02*
D03*
X267000Y447000D02*
D03*
X215000D02*
D03*
X295000Y485000D02*
D03*
X285000D02*
D03*
X295000Y492500D02*
D03*
X285000D02*
D03*
X295000Y500000D02*
D03*
X285000D02*
D03*
X290000Y592500D02*
D03*
Y600000D02*
D03*
X282500Y600000D02*
D03*
Y592500D02*
D03*
X782000Y904000D02*
D03*
X727000D02*
D03*
X671000D02*
D03*
X616000D02*
D03*
X252000Y529000D02*
D03*
X223000Y543000D02*
D03*
X79000Y580000D02*
D03*
X292000Y433000D02*
D03*
X626586Y392586D02*
D03*
X699000Y385000D02*
D03*
X698000Y378000D02*
D03*
X605265Y451302D02*
D03*
X605600Y444600D02*
D03*
X598525Y435972D02*
D03*
X598500Y443063D02*
D03*
X598891Y429483D02*
D03*
X666000Y436000D02*
D03*
X604709Y423935D02*
D03*
X545250Y438500D02*
D03*
X730000Y392000D02*
D03*
X199000Y475000D02*
D03*
X130000Y727500D02*
D03*
X117500D02*
D03*
X105000Y728000D02*
D03*
X160000Y859000D02*
D03*
X145000Y864000D02*
D03*
X125000D02*
D03*
X105000D02*
D03*
X85000D02*
D03*
X65000D02*
D03*
X873000Y887000D02*
D03*
X926000D02*
D03*
X914000Y896000D02*
D03*
X885000D02*
D03*
X845000Y879000D02*
D03*
X377000Y536000D02*
D03*
X667000Y447000D02*
D03*
Y458000D02*
D03*
Y469000D02*
D03*
X826000Y530000D02*
D03*
X809000Y631000D02*
D03*
X549250Y469000D02*
D03*
X1268524Y290227D02*
D03*
X1268227Y303221D02*
D03*
X1268251Y296721D02*
D03*
X1268750Y316200D02*
D03*
Y309700D02*
D03*
X707000Y402000D02*
D03*
X695000Y407000D02*
D03*
X1589000Y565000D02*
D03*
X149000Y339000D02*
D03*
X160000D02*
D03*
X193000D02*
D03*
X182000D02*
D03*
X171000D02*
D03*
X123000Y302000D02*
D03*
X182000Y316000D02*
D03*
X157000Y300000D02*
D03*
X158604Y284862D02*
D03*
X157005Y229698D02*
D03*
X124561Y222250D02*
D03*
X124431Y252362D02*
D03*
X124561Y292250D02*
D03*
Y267250D02*
D03*
X124431Y237362D02*
D03*
X157000Y244750D02*
D03*
X367000Y257000D02*
D03*
X1589000Y577000D02*
D03*
X271000Y427000D02*
D03*
X218000D02*
D03*
X45000Y457000D02*
D03*
X83000D02*
D03*
X204000Y459000D02*
D03*
X257000D02*
D03*
X222250Y226800D02*
D03*
X211250D02*
D03*
X222250Y210700D02*
D03*
X211250D02*
D03*
X652750Y575000D02*
D03*
X641750Y558900D02*
D03*
X188000Y258000D02*
D03*
X191000Y269000D02*
D03*
X371176Y293324D02*
D03*
X157000Y214750D02*
D03*
X811221Y876207D02*
D03*
X756138Y876458D02*
D03*
X700000Y876000D02*
D03*
X644000D02*
D03*
Y863000D02*
D03*
X699000D02*
D03*
X810000D02*
D03*
X755425Y863162D02*
D03*
X25000Y496000D02*
D03*
X63000D02*
D03*
X318000Y472000D02*
D03*
X306000Y486000D02*
D03*
X845000Y859000D02*
D03*
X351000Y585000D02*
D03*
X175000Y514000D02*
D03*
X181000Y509000D02*
D03*
X166000Y503000D02*
D03*
X72000Y584000D02*
D03*
X67000Y599000D02*
D03*
X78000Y595000D02*
D03*
X275000Y531500D02*
D03*
X258355Y358705D02*
D03*
X375001Y891366D02*
D03*
X337510Y891330D02*
D03*
X376510Y832330D02*
D03*
X346510Y778330D02*
D03*
X647250Y570200D02*
D03*
Y563700D02*
D03*
X362000Y282000D02*
D03*
X361747Y302000D02*
D03*
X216750Y222000D02*
D03*
Y215500D02*
D03*
X350510Y892330D02*
D03*
X387510Y891330D02*
D03*
X168510Y841330D02*
D03*
X346510Y802330D02*
D03*
M02*
