G04*
G04 #@! TF.GenerationSoftware,Altium Limited,Altium Designer,25.2.1 (25)*
G04*
G04 Layer_Color=16711935*
%FSLAX44Y44*%
%MOMM*%
G71*
G04*
G04 #@! TF.SameCoordinates,1675D247-2589-475D-A358-125397F96DBE*
G04*
G04*
G04 #@! TF.FilePolarity,Negative*
G04*
G01*
G75*
%ADD90R,0.9032X4.4032*%
%ADD91R,0.9032X3.4032*%
%ADD92O,2.0532X2.0632*%
%ADD93O,2.0632X2.0532*%
%ADD94C,2.7682*%
%ADD95C,1.7032*%
%ADD96C,2.0782*%
%ADD97C,3.3532*%
%ADD98C,2.9782*%
%ADD99C,1.1500*%
%ADD100C,3.4000*%
G04:AMPARAMS|DCode=101|XSize=2.9782mm|YSize=2.9782mm|CornerRadius=0.4485mm|HoleSize=0mm|Usage=FLASHONLY|Rotation=270.000|XOffset=0mm|YOffset=0mm|HoleType=Round|Shape=RoundedRectangle|*
%AMROUNDEDRECTD101*
21,1,2.9782,2.0812,0,0,270.0*
21,1,2.0812,2.9782,0,0,270.0*
1,1,0.8970,-1.0406,-1.0406*
1,1,0.8970,-1.0406,1.0406*
1,1,0.8970,1.0406,1.0406*
1,1,0.8970,1.0406,-1.0406*
%
%ADD101ROUNDEDRECTD101*%
%ADD121C,1.2032*%
%ADD122C,2.2032*%
D90*
X990000Y35000D02*
D03*
X980000D02*
D03*
X1000000D02*
D03*
X960000D02*
D03*
X970000D02*
D03*
X1040000D02*
D03*
X1030000D02*
D03*
X1050000D02*
D03*
X1020000D02*
D03*
X1010000D02*
D03*
X880000D02*
D03*
X890000D02*
D03*
X900000D02*
D03*
X860000D02*
D03*
X870000D02*
D03*
X930000D02*
D03*
X940000D02*
D03*
X950000D02*
D03*
X910000D02*
D03*
X920000D02*
D03*
X1180000D02*
D03*
X1200000D02*
D03*
X1190000D02*
D03*
X1150000D02*
D03*
X1170000D02*
D03*
X1160000D02*
D03*
X1240000D02*
D03*
X1230000D02*
D03*
X1250000D02*
D03*
X1210000D02*
D03*
X1220000D02*
D03*
X1080000D02*
D03*
X1090000D02*
D03*
X1060000D02*
D03*
X850000D02*
D03*
X1070000D02*
D03*
X1130000D02*
D03*
X1140000D02*
D03*
X1110000D02*
D03*
X1100000D02*
D03*
X1120000D02*
D03*
X580000D02*
D03*
X570000D02*
D03*
X590000D02*
D03*
X550000D02*
D03*
X520000D02*
D03*
X560000D02*
D03*
X630000D02*
D03*
X640000D02*
D03*
X600000D02*
D03*
X620000D02*
D03*
X610000D02*
D03*
X450000D02*
D03*
X460000D02*
D03*
X430000D02*
D03*
X440000D02*
D03*
X510000D02*
D03*
X500000D02*
D03*
X480000D02*
D03*
X470000D02*
D03*
X490000D02*
D03*
X770000D02*
D03*
X790000D02*
D03*
X780000D02*
D03*
X750000D02*
D03*
X740000D02*
D03*
X760000D02*
D03*
X830000D02*
D03*
X820000D02*
D03*
X840000D02*
D03*
X810000D02*
D03*
X800000D02*
D03*
X670000D02*
D03*
X660000D02*
D03*
X680000D02*
D03*
X650000D02*
D03*
X720000D02*
D03*
X730000D02*
D03*
X700000D02*
D03*
X690000D02*
D03*
X710000D02*
D03*
D91*
X420000Y40000D02*
D03*
D92*
X1590484Y407174D02*
D03*
Y432574D02*
D03*
X1590500Y236300D02*
D03*
Y261700D02*
D03*
Y303550D02*
D03*
Y328950D02*
D03*
X27500Y755200D02*
D03*
Y729800D02*
D03*
D93*
X1538300Y630000D02*
D03*
X1563700D02*
D03*
D94*
X113500Y189750D02*
D03*
Y354750D02*
D03*
D95*
X36700Y272250D02*
D03*
D96*
X45700Y189750D02*
D03*
Y354750D02*
D03*
D97*
X1570980Y844140D02*
D03*
X1486980D02*
D03*
D98*
X1570980Y729140D02*
D03*
X1528980D02*
D03*
X1486980D02*
D03*
X1570980Y771140D02*
D03*
X1528980D02*
D03*
X1486980D02*
D03*
X1371500Y788060D02*
D03*
Y835060D02*
D03*
D99*
X1280950Y660350D02*
D03*
X1268250Y257650D02*
D03*
X602130Y257650D02*
D03*
X614830Y660350D02*
D03*
D100*
X1288250Y727250D02*
D03*
X581750Y190750D02*
D03*
Y727250D02*
D03*
X1288250Y190750D02*
D03*
D101*
X1371500Y882060D02*
D03*
D121*
X460000Y171000D02*
D03*
X390000Y398000D02*
D03*
X845000Y846000D02*
D03*
X540000Y224000D02*
D03*
X541000Y121000D02*
D03*
X460000Y155000D02*
D03*
Y140000D02*
D03*
Y125000D02*
D03*
Y110000D02*
D03*
X564000Y469000D02*
D03*
X634000Y455000D02*
D03*
X405736Y875264D02*
D03*
X67750Y548000D02*
D03*
X379000Y791000D02*
D03*
X363000D02*
D03*
D122*
X325000Y148000D02*
D03*
X500000Y155000D02*
D03*
M02*
