G04*
G04 #@! TF.GenerationSoftware,Altium Limited,Altium Designer,25.2.1 (25)*
G04*
G04 Layer_Physical_Order=4*
G04 Layer_Color=16776960*
%FSLAX44Y44*%
%MOMM*%
G71*
G04*
G04 #@! TF.SameCoordinates,1675D247-2589-475D-A358-125397F96DBE*
G04*
G04*
G04 #@! TF.FilePolarity,Positive*
G04*
G01*
G75*
%ADD102C,0.1524*%
%ADD103C,0.2032*%
%ADD104C,0.1270*%
%ADD108O,1.8500X1.8600*%
%ADD109O,1.8600X1.8500*%
%ADD110C,2.5650*%
%ADD111C,1.5000*%
%ADD112C,1.8750*%
%ADD113C,3.1500*%
%ADD114C,2.7750*%
%ADD115C,1.0500*%
%ADD116C,3.3000*%
G04:AMPARAMS|DCode=117|XSize=2.775mm|YSize=2.775mm|CornerRadius=0.3469mm|HoleSize=0mm|Usage=FLASHONLY|Rotation=270.000|XOffset=0mm|YOffset=0mm|HoleType=Round|Shape=RoundedRectangle|*
%AMROUNDEDRECTD117*
21,1,2.7750,2.0812,0,0,270.0*
21,1,2.0812,2.7750,0,0,270.0*
1,1,0.6938,-1.0406,-1.0406*
1,1,0.6938,-1.0406,1.0406*
1,1,0.6938,1.0406,1.0406*
1,1,0.6938,1.0406,-1.0406*
%
%ADD117ROUNDEDRECTD117*%
%ADD118C,0.4500*%
G36*
X1609802Y85140D02*
X1263650D01*
X1262659Y84943D01*
X1261819Y84381D01*
X1252929Y75491D01*
X1252367Y74651D01*
X1252170Y73660D01*
Y14039D01*
X547090D01*
X547090Y84000D01*
X547073Y84084D01*
X547084Y84170D01*
X547003Y85409D01*
X546937Y85656D01*
X546920Y85910D01*
X546278Y88306D01*
X546128Y88610D01*
X546019Y88930D01*
X544780Y91078D01*
X544556Y91333D01*
X544368Y91614D01*
X542614Y93368D01*
X542333Y93556D01*
X542078Y93780D01*
X539930Y95020D01*
X539609Y95128D01*
X539306Y95278D01*
X536910Y95920D01*
X536572Y95942D01*
X536240Y96008D01*
X533760D01*
X533428Y95942D01*
X533090Y95920D01*
X530694Y95278D01*
X530390Y95128D01*
X530070Y95020D01*
X527922Y93779D01*
X527667Y93556D01*
X527386Y93368D01*
X525632Y91614D01*
X525444Y91333D01*
X525220Y91078D01*
X523980Y88930D01*
X523872Y88610D01*
X523722Y88306D01*
X523080Y85910D01*
X523063Y85656D01*
X522997Y85409D01*
X522916Y84169D01*
X522927Y84084D01*
X522910Y84000D01*
Y14039D01*
X417090D01*
Y74958D01*
X416893Y75949D01*
X416331Y76789D01*
X408739Y84381D01*
X407899Y84943D01*
X406908Y85140D01*
X2590D01*
Y911810D01*
X1609802D01*
X1609802Y85140D01*
D02*
G37*
%LPC*%
G36*
X782953Y908790D02*
X781047D01*
X779287Y908061D01*
X777939Y906713D01*
X777210Y904953D01*
Y903047D01*
X777939Y901287D01*
X779287Y899939D01*
X781047Y899210D01*
X782953D01*
X784713Y899939D01*
X786061Y901287D01*
X786790Y903047D01*
Y904953D01*
X786061Y906713D01*
X784713Y908061D01*
X782953Y908790D01*
D02*
G37*
G36*
X727953D02*
X726047D01*
X724287Y908061D01*
X722939Y906713D01*
X722210Y904953D01*
Y903047D01*
X722939Y901287D01*
X724287Y899939D01*
X726047Y899210D01*
X727953D01*
X729713Y899939D01*
X731061Y901287D01*
X731790Y903047D01*
Y904953D01*
X731061Y906713D01*
X729713Y908061D01*
X727953Y908790D01*
D02*
G37*
G36*
X671953D02*
X670047D01*
X668287Y908061D01*
X666939Y906713D01*
X666210Y904953D01*
Y903047D01*
X666939Y901287D01*
X668287Y899939D01*
X670047Y899210D01*
X671953D01*
X673713Y899939D01*
X675061Y901287D01*
X675790Y903047D01*
Y904953D01*
X675061Y906713D01*
X673713Y908061D01*
X671953Y908790D01*
D02*
G37*
G36*
X616953D02*
X615047D01*
X613287Y908061D01*
X611939Y906713D01*
X611210Y904953D01*
Y903047D01*
X611939Y901287D01*
X613287Y899939D01*
X615047Y899210D01*
X616953D01*
X618713Y899939D01*
X620061Y901287D01*
X620790Y903047D01*
Y904953D01*
X620061Y906713D01*
X618713Y908061D01*
X616953Y908790D01*
D02*
G37*
G36*
X351463Y897120D02*
X349557D01*
X347797Y896391D01*
X346449Y895043D01*
X345720Y893283D01*
Y891377D01*
X346449Y889617D01*
X347797Y888269D01*
X349557Y887540D01*
X351463D01*
X353223Y888269D01*
X354571Y889617D01*
X355300Y891377D01*
Y893283D01*
X354571Y895043D01*
X353223Y896391D01*
X351463Y897120D01*
D02*
G37*
G36*
X388463Y896120D02*
X386557D01*
X384797Y895391D01*
X383449Y894043D01*
X382720Y892283D01*
Y890377D01*
X383449Y888617D01*
X384797Y887269D01*
X386557Y886540D01*
X388463D01*
X390223Y887269D01*
X391571Y888617D01*
X392300Y890377D01*
Y892283D01*
X391571Y894043D01*
X390223Y895391D01*
X388463Y896120D01*
D02*
G37*
G36*
X395953Y879790D02*
X394047D01*
X392287Y879061D01*
X390939Y877713D01*
X390210Y875953D01*
Y874047D01*
X390939Y872287D01*
X392287Y870939D01*
X394047Y870210D01*
X395953D01*
X397713Y870939D01*
X399061Y872287D01*
X399790Y874047D01*
Y875953D01*
X399061Y877713D01*
X397713Y879061D01*
X395953Y879790D01*
D02*
G37*
G36*
X1381906Y898593D02*
X1361094D01*
X1358749Y898126D01*
X1356762Y896798D01*
X1355434Y894811D01*
X1354967Y892466D01*
Y871654D01*
X1355434Y869309D01*
X1356762Y867322D01*
X1358749Y865994D01*
X1361094Y865527D01*
X1381906D01*
X1384251Y865994D01*
X1386238Y867322D01*
X1387566Y869309D01*
X1388033Y871654D01*
Y892466D01*
X1387566Y894811D01*
X1386238Y896798D01*
X1384251Y898126D01*
X1381906Y898593D01*
D02*
G37*
G36*
X845953Y863790D02*
X844047D01*
X842287Y863061D01*
X841301Y862075D01*
X839000D01*
X839000Y862075D01*
X837823Y861841D01*
X836826Y861174D01*
X806826Y831174D01*
X806159Y830177D01*
X805925Y829000D01*
X805925Y829000D01*
Y634699D01*
X804939Y633713D01*
X804210Y631953D01*
Y630047D01*
X804939Y628287D01*
X806287Y626939D01*
X808047Y626210D01*
X809953D01*
X811713Y626939D01*
X813061Y628287D01*
X813790Y630047D01*
Y631953D01*
X813061Y633713D01*
X812075Y634699D01*
Y827726D01*
X840274Y855925D01*
X841301D01*
X842287Y854939D01*
X844047Y854210D01*
X845953D01*
X847713Y854939D01*
X849061Y856287D01*
X849790Y858047D01*
Y859953D01*
X849061Y861713D01*
X847713Y863061D01*
X845953Y863790D01*
D02*
G37*
G36*
X169463Y846120D02*
X167557D01*
X165797Y845391D01*
X164449Y844043D01*
X163720Y842283D01*
Y840377D01*
X164449Y838617D01*
X165797Y837269D01*
X167557Y836540D01*
X169463D01*
X171223Y837269D01*
X172571Y838617D01*
X173300Y840377D01*
Y842283D01*
X172571Y844043D01*
X171223Y845391D01*
X169463Y846120D01*
D02*
G37*
G36*
X1572781Y862430D02*
X1569179D01*
X1565645Y861727D01*
X1562316Y860348D01*
X1559321Y858347D01*
X1556773Y855799D01*
X1554772Y852804D01*
X1553393Y849475D01*
X1552690Y845941D01*
Y842339D01*
X1553393Y838805D01*
X1554772Y835477D01*
X1556773Y832481D01*
X1559321Y829933D01*
X1562316Y827932D01*
X1565645Y826553D01*
X1569179Y825850D01*
X1572781D01*
X1576315Y826553D01*
X1579644Y827932D01*
X1582639Y829933D01*
X1585187Y832481D01*
X1587188Y835477D01*
X1588567Y838805D01*
X1589270Y842339D01*
Y845941D01*
X1588567Y849475D01*
X1587188Y852804D01*
X1585187Y855799D01*
X1582639Y858347D01*
X1579644Y860348D01*
X1576315Y861727D01*
X1572781Y862430D01*
D02*
G37*
G36*
X1488781D02*
X1485179D01*
X1481645Y861727D01*
X1478316Y860348D01*
X1475321Y858347D01*
X1472773Y855799D01*
X1470772Y852804D01*
X1469393Y849475D01*
X1468690Y845941D01*
Y842339D01*
X1469393Y838805D01*
X1470772Y835477D01*
X1472773Y832481D01*
X1475321Y829933D01*
X1478316Y827932D01*
X1481645Y826553D01*
X1485179Y825850D01*
X1488781D01*
X1492315Y826553D01*
X1495644Y827932D01*
X1498639Y829933D01*
X1501187Y832481D01*
X1503188Y835477D01*
X1504567Y838805D01*
X1505270Y842339D01*
Y845941D01*
X1504567Y849475D01*
X1503188Y852804D01*
X1501187Y855799D01*
X1498639Y858347D01*
X1495644Y860348D01*
X1492315Y861727D01*
X1488781Y862430D01*
D02*
G37*
G36*
X1373117Y851475D02*
X1369883D01*
X1366712Y850844D01*
X1363725Y849607D01*
X1361036Y847810D01*
X1358750Y845524D01*
X1356953Y842835D01*
X1355716Y839848D01*
X1355085Y836677D01*
Y833443D01*
X1355716Y830272D01*
X1356953Y827285D01*
X1358750Y824596D01*
X1361036Y822310D01*
X1363725Y820513D01*
X1366712Y819276D01*
X1369883Y818645D01*
X1373117D01*
X1376288Y819276D01*
X1379275Y820513D01*
X1381964Y822310D01*
X1384250Y824596D01*
X1386047Y827285D01*
X1387284Y830272D01*
X1387915Y833443D01*
Y836677D01*
X1387284Y839848D01*
X1386047Y842835D01*
X1384250Y845524D01*
X1381964Y847810D01*
X1379275Y849607D01*
X1376288Y850844D01*
X1373117Y851475D01*
D02*
G37*
G36*
X373953Y810790D02*
X372047D01*
X370287Y810061D01*
X368939Y808713D01*
X368210Y806953D01*
Y805729D01*
X366940Y805476D01*
X366477Y806594D01*
X365130Y807941D01*
X363369Y808670D01*
X361464D01*
X359703Y807941D01*
X358356Y806594D01*
X357626Y804833D01*
Y802928D01*
X358356Y801167D01*
X359703Y799820D01*
X361464Y799090D01*
X363369D01*
X365130Y799820D01*
X366477Y801167D01*
X367206Y802928D01*
Y804151D01*
X368476Y804404D01*
X368939Y803287D01*
X370287Y801939D01*
X372047Y801210D01*
X373953D01*
X375713Y801939D01*
X377061Y803287D01*
X377790Y805047D01*
Y806953D01*
X377061Y808713D01*
X375713Y810061D01*
X373953Y810790D01*
D02*
G37*
G36*
X347463Y807120D02*
X345557D01*
X343797Y806391D01*
X342449Y805043D01*
X341720Y803283D01*
Y801377D01*
X342449Y799617D01*
X343797Y798269D01*
X345557Y797540D01*
X347463D01*
X349223Y798269D01*
X350571Y799617D01*
X351300Y801377D01*
Y803283D01*
X350571Y805043D01*
X349223Y806391D01*
X347463Y807120D01*
D02*
G37*
G36*
X1373117Y804475D02*
X1369883D01*
X1366712Y803844D01*
X1363725Y802607D01*
X1361036Y800810D01*
X1358750Y798524D01*
X1356953Y795835D01*
X1355716Y792848D01*
X1355085Y789677D01*
Y786443D01*
X1355716Y783272D01*
X1356953Y780285D01*
X1358750Y777596D01*
X1361036Y775310D01*
X1363725Y773513D01*
X1366712Y772276D01*
X1369883Y771645D01*
X1373117D01*
X1376288Y772276D01*
X1379275Y773513D01*
X1381964Y775310D01*
X1384250Y777596D01*
X1386047Y780285D01*
X1387284Y783272D01*
X1387915Y786443D01*
Y789677D01*
X1387284Y792848D01*
X1386047Y795835D01*
X1384250Y798524D01*
X1381964Y800810D01*
X1379275Y802607D01*
X1376288Y803844D01*
X1373117Y804475D01*
D02*
G37*
G36*
X1572597Y787555D02*
X1569363D01*
X1566192Y786924D01*
X1563205Y785687D01*
X1560516Y783890D01*
X1558230Y781604D01*
X1556433Y778915D01*
X1555196Y775928D01*
X1554565Y772757D01*
Y769523D01*
X1555196Y766352D01*
X1556433Y763365D01*
X1558230Y760676D01*
X1560516Y758390D01*
X1563205Y756593D01*
X1566192Y755356D01*
X1569363Y754725D01*
X1572597D01*
X1575768Y755356D01*
X1578755Y756593D01*
X1581444Y758390D01*
X1583730Y760676D01*
X1585527Y763365D01*
X1586764Y766352D01*
X1587395Y769523D01*
Y772757D01*
X1586764Y775928D01*
X1585527Y778915D01*
X1583730Y781604D01*
X1581444Y783890D01*
X1578755Y785687D01*
X1575768Y786924D01*
X1572597Y787555D01*
D02*
G37*
G36*
X1530597D02*
X1527363D01*
X1524192Y786924D01*
X1521205Y785687D01*
X1518516Y783890D01*
X1516230Y781604D01*
X1514433Y778915D01*
X1513196Y775928D01*
X1512565Y772757D01*
Y769523D01*
X1513196Y766352D01*
X1514433Y763365D01*
X1516230Y760676D01*
X1518516Y758390D01*
X1521205Y756593D01*
X1524192Y755356D01*
X1527363Y754725D01*
X1530597D01*
X1533768Y755356D01*
X1536755Y756593D01*
X1539444Y758390D01*
X1541730Y760676D01*
X1543527Y763365D01*
X1544764Y766352D01*
X1545395Y769523D01*
Y772757D01*
X1544764Y775928D01*
X1543527Y778915D01*
X1541730Y781604D01*
X1539444Y783890D01*
X1536755Y785687D01*
X1533768Y786924D01*
X1530597Y787555D01*
D02*
G37*
G36*
X1488597D02*
X1485363D01*
X1482192Y786924D01*
X1479205Y785687D01*
X1476516Y783890D01*
X1474230Y781604D01*
X1472433Y778915D01*
X1471196Y775928D01*
X1470565Y772757D01*
Y769523D01*
X1471196Y766352D01*
X1472433Y763365D01*
X1474230Y760676D01*
X1476516Y758390D01*
X1479205Y756593D01*
X1482192Y755356D01*
X1485363Y754725D01*
X1488597D01*
X1491768Y755356D01*
X1494755Y756593D01*
X1497444Y758390D01*
X1499730Y760676D01*
X1501527Y763365D01*
X1502764Y766352D01*
X1503395Y769523D01*
Y772757D01*
X1502764Y775928D01*
X1501527Y778915D01*
X1499730Y781604D01*
X1497444Y783890D01*
X1494755Y785687D01*
X1491768Y786924D01*
X1488597Y787555D01*
D02*
G37*
G36*
X27500Y767142D02*
X24422Y766737D01*
X21554Y765548D01*
X19091Y763659D01*
X17201Y761196D01*
X16013Y758328D01*
X15608Y755250D01*
Y755150D01*
X16013Y752072D01*
X17201Y749204D01*
X19091Y746741D01*
X21554Y744852D01*
X24422Y743663D01*
X27500Y743258D01*
X30578Y743663D01*
X33446Y744852D01*
X35909Y746741D01*
X37799Y749204D01*
X38986Y752072D01*
X39392Y755150D01*
Y755250D01*
X38986Y758328D01*
X37799Y761196D01*
X35909Y763659D01*
X33446Y765548D01*
X30578Y766737D01*
X27500Y767142D01*
D02*
G37*
G36*
Y741742D02*
X24422Y741337D01*
X21554Y740148D01*
X19091Y738259D01*
X17201Y735796D01*
X16013Y732928D01*
X15608Y729850D01*
Y729750D01*
X16013Y726672D01*
X17201Y723804D01*
X19091Y721341D01*
X21554Y719452D01*
X24422Y718263D01*
X27500Y717858D01*
X30578Y718263D01*
X33446Y719452D01*
X35909Y721341D01*
X37799Y723804D01*
X38986Y726672D01*
X39392Y729750D01*
Y729850D01*
X38986Y732928D01*
X37799Y735796D01*
X35909Y738259D01*
X33446Y740148D01*
X30578Y741337D01*
X27500Y741742D01*
D02*
G37*
G36*
X583625Y746290D02*
X579875D01*
X576196Y745558D01*
X572731Y744123D01*
X569613Y742039D01*
X566961Y739387D01*
X564877Y736269D01*
X563442Y732804D01*
X562710Y729125D01*
Y725375D01*
X563442Y721696D01*
X564877Y718231D01*
X566961Y715113D01*
X569613Y712461D01*
X572731Y710377D01*
X576196Y708942D01*
X579875Y708210D01*
X583625D01*
X587304Y708942D01*
X590769Y710377D01*
X593887Y712461D01*
X596539Y715113D01*
X598623Y718231D01*
X600058Y721696D01*
X600790Y725375D01*
Y729125D01*
X600058Y732804D01*
X598623Y736269D01*
X596539Y739387D01*
X593887Y742039D01*
X590769Y744123D01*
X587304Y745558D01*
X583625Y746290D01*
D02*
G37*
G36*
X1290125Y746290D02*
X1286375D01*
X1282696Y745558D01*
X1279231Y744123D01*
X1276113Y742039D01*
X1273461Y739387D01*
X1271377Y736269D01*
X1269942Y732804D01*
X1269210Y729125D01*
Y725375D01*
X1269942Y721696D01*
X1271377Y718231D01*
X1273461Y715113D01*
X1276113Y712461D01*
X1279231Y710377D01*
X1282696Y708942D01*
X1286375Y708210D01*
X1290125D01*
X1293804Y708942D01*
X1297269Y710377D01*
X1300387Y712461D01*
X1303039Y715113D01*
X1305123Y718231D01*
X1306558Y721696D01*
X1307290Y725375D01*
Y729125D01*
X1306558Y732804D01*
X1305123Y736269D01*
X1303039Y739387D01*
X1300387Y742039D01*
X1297269Y744123D01*
X1293804Y745558D01*
X1290125Y746290D01*
D02*
G37*
G36*
X565953Y664790D02*
X564047D01*
X562287Y664061D01*
X560939Y662713D01*
X560210Y660953D01*
Y659047D01*
X560939Y657287D01*
X562287Y655939D01*
X564047Y655210D01*
X565953D01*
X567713Y655939D01*
X569061Y657287D01*
X569790Y659047D01*
Y660953D01*
X569061Y662713D01*
X567713Y664061D01*
X565953Y664790D01*
D02*
G37*
G36*
X553453D02*
X551547D01*
X549787Y664061D01*
X548439Y662713D01*
X547710Y660953D01*
Y659047D01*
X548439Y657287D01*
X549476Y656250D01*
X548439Y655213D01*
X547710Y653453D01*
Y651547D01*
X548439Y649787D01*
X549787Y648439D01*
X551547Y647710D01*
X553453D01*
X555213Y648439D01*
X556561Y649787D01*
X557290Y651547D01*
Y653453D01*
X556561Y655213D01*
X555524Y656250D01*
X556561Y657287D01*
X557290Y659047D01*
Y660953D01*
X556561Y662713D01*
X555213Y664061D01*
X553453Y664790D01*
D02*
G37*
G36*
X540953D02*
X539047D01*
X537287Y664061D01*
X535939Y662713D01*
X535210Y660953D01*
Y659047D01*
X535939Y657287D01*
X536976Y656250D01*
X535939Y655213D01*
X535210Y653453D01*
Y651547D01*
X535939Y649787D01*
X537287Y648439D01*
X539047Y647710D01*
X540953D01*
X542713Y648439D01*
X544061Y649787D01*
X544790Y651547D01*
Y653453D01*
X544061Y655213D01*
X543024Y656250D01*
X544061Y657287D01*
X544790Y659047D01*
Y660953D01*
X544061Y662713D01*
X542713Y664061D01*
X540953Y664790D01*
D02*
G37*
G36*
X528453D02*
X526547D01*
X524787Y664061D01*
X523439Y662713D01*
X522710Y660953D01*
Y659047D01*
X523439Y657287D01*
X524476Y656250D01*
X523439Y655213D01*
X522710Y653453D01*
Y651547D01*
X523439Y649787D01*
X524787Y648439D01*
X526547Y647710D01*
X528453D01*
X530213Y648439D01*
X531561Y649787D01*
X532290Y651547D01*
Y653453D01*
X531561Y655213D01*
X530524Y656250D01*
X531561Y657287D01*
X532290Y659047D01*
Y660953D01*
X531561Y662713D01*
X530213Y664061D01*
X528453Y664790D01*
D02*
G37*
G36*
X1296953Y651790D02*
X1295047D01*
X1293287Y651061D01*
X1291939Y649713D01*
X1291210Y647953D01*
Y646047D01*
X1291939Y644287D01*
X1293287Y642939D01*
X1295047Y642210D01*
X1296953D01*
X1298713Y642939D01*
X1300061Y644287D01*
X1300790Y646047D01*
Y647953D01*
X1300061Y649713D01*
X1298713Y651061D01*
X1296953Y651790D01*
D02*
G37*
G36*
X1270953Y650790D02*
X1269047D01*
X1267287Y650061D01*
X1265939Y648713D01*
X1265210Y646953D01*
Y645047D01*
X1265939Y643287D01*
X1266226Y643000D01*
X1265939Y642713D01*
X1265210Y640953D01*
Y639047D01*
X1265939Y637287D01*
X1267287Y635939D01*
X1269047Y635210D01*
X1270953D01*
X1272713Y635939D01*
X1274061Y637287D01*
X1274790Y639047D01*
Y640953D01*
X1274061Y642713D01*
X1273774Y643000D01*
X1274061Y643287D01*
X1274790Y645047D01*
Y646953D01*
X1274061Y648713D01*
X1272713Y650061D01*
X1270953Y650790D01*
D02*
G37*
G36*
X1296953Y636790D02*
X1295047D01*
X1293287Y636061D01*
X1291939Y634713D01*
X1291210Y632953D01*
Y631047D01*
X1291939Y629287D01*
X1293287Y627939D01*
X1295047Y627210D01*
X1296953D01*
X1298713Y627939D01*
X1300061Y629287D01*
X1300790Y631047D01*
Y632953D01*
X1300061Y634713D01*
X1298713Y636061D01*
X1296953Y636790D01*
D02*
G37*
G36*
X602453Y638490D02*
X600547D01*
X598787Y637761D01*
X597439Y636413D01*
X596710Y634653D01*
Y632747D01*
X597439Y630987D01*
X597976Y630450D01*
X597439Y629913D01*
X596710Y628153D01*
Y626247D01*
X597439Y624487D01*
X598787Y623139D01*
X600547Y622410D01*
X602453D01*
X604213Y623139D01*
X605561Y624487D01*
X606290Y626247D01*
Y628153D01*
X605561Y629913D01*
X605024Y630450D01*
X605561Y630987D01*
X606290Y632747D01*
Y634653D01*
X605561Y636413D01*
X604213Y637761D01*
X602453Y638490D01*
D02*
G37*
G36*
X1485953Y613290D02*
X1484047D01*
X1482287Y612561D01*
X1480939Y611213D01*
X1480210Y609453D01*
Y607547D01*
X1480939Y605787D01*
X1482287Y604439D01*
X1484047Y603710D01*
X1485953D01*
X1487713Y604439D01*
X1489061Y605787D01*
X1489790Y607547D01*
Y609453D01*
X1489061Y611213D01*
X1487713Y612561D01*
X1485953Y613290D01*
D02*
G37*
G36*
X283453Y604790D02*
X281547D01*
X279787Y604061D01*
X278750Y603024D01*
X277713Y604061D01*
X275953Y604790D01*
X274047D01*
X272287Y604061D01*
X270939Y602713D01*
X270210Y600953D01*
Y599047D01*
X270939Y597287D01*
X271976Y596250D01*
X270939Y595213D01*
X270210Y593453D01*
Y591547D01*
X270939Y589787D01*
X272287Y588439D01*
X274047Y587710D01*
X275953D01*
X277713Y588439D01*
X278750Y589476D01*
X279787Y588439D01*
X281547Y587710D01*
X283453D01*
X285213Y588439D01*
X286250Y589476D01*
X287287Y588439D01*
X289047Y587710D01*
X290953D01*
X292713Y588439D01*
X294061Y589787D01*
X294790Y591547D01*
Y593453D01*
X294061Y595213D01*
X293024Y596250D01*
X294061Y597287D01*
X294790Y599047D01*
Y600953D01*
X294061Y602713D01*
X292713Y604061D01*
X290953Y604790D01*
X289047D01*
X287287Y604061D01*
X286250Y603024D01*
X285213Y604061D01*
X283453Y604790D01*
D02*
G37*
G36*
X33453Y602290D02*
X31547D01*
X29787Y601561D01*
X28750Y600524D01*
X27713Y601561D01*
X25953Y602290D01*
X24047D01*
X22287Y601561D01*
X20939Y600213D01*
X20210Y598453D01*
Y596547D01*
X20939Y594787D01*
X21976Y593750D01*
X20939Y592713D01*
X20210Y590953D01*
Y589047D01*
X20939Y587287D01*
X21976Y586250D01*
X20939Y585213D01*
X20210Y583453D01*
Y581547D01*
X20939Y579787D01*
X21976Y578750D01*
X20939Y577713D01*
X20210Y575953D01*
Y574047D01*
X20939Y572287D01*
X21976Y571250D01*
X20939Y570213D01*
X20210Y568453D01*
Y566547D01*
X20939Y564787D01*
X22287Y563439D01*
X24047Y562710D01*
X25953D01*
X27713Y563439D01*
X28750Y564476D01*
X29787Y563439D01*
X31547Y562710D01*
X33453D01*
X33718Y562820D01*
X33939Y562287D01*
X35287Y560939D01*
X37047Y560210D01*
X38953D01*
X40713Y560939D01*
X42061Y562287D01*
X42790Y564047D01*
Y565953D01*
X42061Y567713D01*
X40713Y569061D01*
X38953Y569790D01*
X37047D01*
X36782Y569680D01*
X36561Y570213D01*
X35524Y571250D01*
X36561Y572287D01*
X37290Y574047D01*
Y575953D01*
X36561Y577713D01*
X35524Y578750D01*
X36561Y579787D01*
X37290Y581547D01*
Y583453D01*
X36561Y585213D01*
X35524Y586250D01*
X36561Y587287D01*
X37290Y589047D01*
Y590953D01*
X36561Y592713D01*
X35524Y593750D01*
X36561Y594787D01*
X37290Y596547D01*
Y598453D01*
X36561Y600213D01*
X35213Y601561D01*
X33453Y602290D01*
D02*
G37*
G36*
X756378Y867952D02*
X754472D01*
X752712Y867222D01*
X751364Y865875D01*
X750635Y864115D01*
Y862209D01*
X751364Y860448D01*
X752609Y859204D01*
Y597205D01*
X752086Y596814D01*
X750816Y597449D01*
Y820000D01*
X750602Y821078D01*
X749991Y821991D01*
X706991Y864991D01*
X706078Y865602D01*
X705000Y865816D01*
X702958D01*
X701713Y867061D01*
X699953Y867790D01*
X698047D01*
X696287Y867061D01*
X694939Y865713D01*
X694210Y863953D01*
Y862047D01*
X694939Y860287D01*
X696287Y858939D01*
X698047Y858210D01*
X699953D01*
X701713Y858939D01*
X702958Y860184D01*
X703833D01*
X745184Y818833D01*
Y597903D01*
X745086Y597837D01*
X743816Y598516D01*
Y772000D01*
X743602Y773078D01*
X742991Y773991D01*
X651991Y864991D01*
X651078Y865602D01*
X650000Y865816D01*
X647958D01*
X646713Y867061D01*
X644953Y867790D01*
X643047D01*
X641287Y867061D01*
X639939Y865713D01*
X639210Y863953D01*
Y862047D01*
X639939Y860287D01*
X641287Y858939D01*
X643047Y858210D01*
X644953D01*
X646713Y858939D01*
X647958Y860184D01*
X648834D01*
X738184Y770834D01*
Y597166D01*
X689834Y548816D01*
X620000D01*
X618922Y548602D01*
X618009Y547991D01*
X556009Y485991D01*
X555398Y485078D01*
X555184Y484000D01*
Y442240D01*
X553914Y441392D01*
X552953Y441790D01*
X551047D01*
X549361Y441092D01*
X549311Y441213D01*
X547963Y442561D01*
X546203Y443290D01*
X544297D01*
X542537Y442561D01*
X541189Y441213D01*
X540460Y439453D01*
Y437547D01*
X541189Y435787D01*
X542537Y434439D01*
X544297Y433710D01*
X546203D01*
X547889Y434408D01*
X547939Y434287D01*
X549287Y432939D01*
X551047Y432210D01*
X552953D01*
X554713Y432939D01*
X555998Y434224D01*
X556321Y434453D01*
X557358Y434659D01*
X561210Y430807D01*
Y429047D01*
X561637Y428017D01*
X560820Y426747D01*
X302236D01*
X296790Y432193D01*
Y433953D01*
X296061Y435713D01*
X294713Y437061D01*
X292953Y437790D01*
X291047D01*
X289287Y437061D01*
X287939Y435713D01*
X287210Y433953D01*
Y432047D01*
X287939Y430287D01*
X289287Y428939D01*
X291047Y428210D01*
X292807D01*
X299078Y421939D01*
X299529Y421638D01*
X299144Y420368D01*
X257614D01*
X246223Y431760D01*
X246342Y432047D01*
Y433953D01*
X245613Y435713D01*
X244265Y437061D01*
X242505Y437790D01*
X240599D01*
X238839Y437061D01*
X238086Y436308D01*
X236816Y436834D01*
Y466042D01*
X238061Y467287D01*
X238790Y469047D01*
Y470953D01*
X238061Y472713D01*
X236713Y474061D01*
X234953Y474790D01*
X233047D01*
X232534Y474577D01*
X231264Y475426D01*
Y480645D01*
X231444Y481552D01*
Y537372D01*
X231230Y538449D01*
X230620Y539363D01*
X227790Y542193D01*
Y543953D01*
X227061Y545713D01*
X225713Y547061D01*
X223953Y547790D01*
X222047D01*
X220287Y547061D01*
X218939Y545713D01*
X218210Y543953D01*
Y543816D01*
X98783D01*
X98062Y545086D01*
X98557Y546280D01*
Y548186D01*
X97828Y549946D01*
X96480Y551294D01*
X94720Y552023D01*
X92814D01*
X91053Y551294D01*
X89706Y549946D01*
X88977Y548186D01*
Y547848D01*
X87707Y547184D01*
X87290Y547473D01*
Y548453D01*
X86561Y550213D01*
X85213Y551561D01*
X83453Y552290D01*
X81547D01*
X79787Y551561D01*
X78439Y550213D01*
X77710Y548453D01*
Y546547D01*
X78439Y544787D01*
X79787Y543439D01*
X81547Y542710D01*
X83307D01*
X87009Y539009D01*
X87922Y538398D01*
X89000Y538184D01*
X217750D01*
X218027Y537605D01*
X218140Y536914D01*
X216939Y535713D01*
X216210Y533953D01*
Y532193D01*
X205009Y520991D01*
X204398Y520078D01*
X204184Y519000D01*
Y484166D01*
X199807Y479790D01*
X198047D01*
X196287Y479061D01*
X194939Y477713D01*
X194210Y475953D01*
Y475360D01*
X192940Y474834D01*
X192713Y475061D01*
X190953Y475790D01*
X189047D01*
X187287Y475061D01*
X186000Y473774D01*
X184713Y475061D01*
X182953Y475790D01*
X181047D01*
X179287Y475061D01*
X178000Y473774D01*
X176713Y475061D01*
X174953Y475790D01*
X173047D01*
X171353Y475088D01*
X171114Y475204D01*
X170304Y475874D01*
X170790Y477047D01*
Y478953D01*
X170061Y480713D01*
X168713Y482061D01*
X166953Y482790D01*
X165047D01*
X163287Y482061D01*
X161939Y480713D01*
X161210Y478953D01*
Y477047D01*
X161939Y475287D01*
X162726Y474500D01*
X161939Y473713D01*
X161210Y471953D01*
Y470047D01*
X161939Y468287D01*
X163287Y466939D01*
X165047Y466210D01*
X166953D01*
X168713Y466939D01*
X170000Y468226D01*
X171287Y466939D01*
X173047Y466210D01*
X174953D01*
X176713Y466939D01*
X178000Y468226D01*
X179287Y466939D01*
X181047Y466210D01*
X182953D01*
X184713Y466939D01*
X186000Y468226D01*
X187287Y466939D01*
X189047Y466210D01*
X190953D01*
X192713Y466939D01*
X194061Y468287D01*
X194790Y470047D01*
Y470640D01*
X196060Y471166D01*
X196287Y470939D01*
X198047Y470210D01*
X199953D01*
X201713Y470939D01*
X203061Y472287D01*
X203790Y474047D01*
Y475807D01*
X208991Y481009D01*
X209602Y481922D01*
X209816Y483000D01*
Y517834D01*
X220193Y528210D01*
X221953D01*
X223713Y528939D01*
X224542Y529768D01*
X225812Y529242D01*
Y526721D01*
X224542Y525873D01*
X224029Y526085D01*
X222124D01*
X220363Y525356D01*
X219016Y524009D01*
X218286Y522248D01*
Y520343D01*
X219016Y518582D01*
X220363Y517235D01*
X222124Y516505D01*
X224029D01*
X224542Y516718D01*
X225812Y515869D01*
Y482279D01*
X225632Y481372D01*
Y425552D01*
X225846Y424474D01*
X226457Y423561D01*
X248902Y401115D01*
X249816Y400505D01*
X250893Y400291D01*
X558727D01*
X569113Y389905D01*
X570026Y389294D01*
X571104Y389080D01*
X608785D01*
X614356Y383509D01*
X615270Y382898D01*
X616347Y382684D01*
X622042D01*
X623287Y381439D01*
X625047Y380710D01*
X626953D01*
X628713Y381439D01*
X630061Y382787D01*
X630790Y384547D01*
Y386453D01*
X630061Y388213D01*
X629524Y388750D01*
X630647Y389873D01*
X631376Y391633D01*
Y393539D01*
X630647Y395299D01*
X629299Y396647D01*
X627539Y397376D01*
X625633D01*
X623873Y396647D01*
X622628Y395402D01*
X622580D01*
X611991Y405991D01*
X611078Y406602D01*
X610000Y406816D01*
X577166D01*
X571991Y411991D01*
X571078Y412602D01*
X570000Y412816D01*
X394318D01*
X393803Y413479D01*
X394369Y414736D01*
X428918D01*
X429296Y414661D01*
X601496D01*
X602739Y413417D01*
X604500Y412688D01*
X606405D01*
X608166Y413417D01*
X609513Y414764D01*
X610243Y416525D01*
Y418430D01*
X609513Y420191D01*
X608626Y421078D01*
X608770Y421222D01*
X609499Y422982D01*
Y424888D01*
X608770Y426648D01*
X608549Y426869D01*
X609441Y427760D01*
X610170Y429520D01*
Y431426D01*
X609441Y433187D01*
X608093Y434534D01*
X606333Y435263D01*
X604427D01*
X603315Y436177D01*
Y436925D01*
X602586Y438686D01*
X601882Y439389D01*
X602749Y440319D01*
X603849Y440141D01*
X604648Y439810D01*
X606553D01*
X608314Y440540D01*
X609661Y441887D01*
X610390Y443648D01*
Y444831D01*
X611660Y445357D01*
X616184Y440834D01*
Y419000D01*
X616398Y417922D01*
X617009Y417009D01*
X692009Y342009D01*
X692922Y341398D01*
X694000Y341184D01*
X1481633D01*
X1580340Y242477D01*
X1580202Y242296D01*
X1579014Y239428D01*
X1578608Y236350D01*
Y236250D01*
X1579014Y233172D01*
X1580202Y230304D01*
X1582091Y227841D01*
X1584554Y225951D01*
X1587422Y224764D01*
X1590500Y224358D01*
X1593578Y224764D01*
X1596446Y225951D01*
X1598909Y227841D01*
X1600798Y230304D01*
X1601987Y233172D01*
X1602392Y236250D01*
Y236350D01*
X1601987Y239428D01*
X1600798Y242296D01*
X1598909Y244759D01*
X1596446Y246649D01*
X1593578Y247836D01*
X1590500Y248242D01*
X1587422Y247836D01*
X1584554Y246649D01*
X1584316Y246466D01*
X1485869Y344914D01*
X1486395Y346184D01*
X1489834D01*
X1576309Y259709D01*
X1577222Y259098D01*
X1578300Y258884D01*
X1578972D01*
X1579014Y258572D01*
X1580202Y255704D01*
X1582091Y253241D01*
X1584554Y251352D01*
X1587422Y250163D01*
X1590500Y249758D01*
X1593578Y250163D01*
X1596446Y251352D01*
X1598909Y253241D01*
X1600798Y255704D01*
X1601987Y258572D01*
X1602392Y261650D01*
Y261750D01*
X1601987Y264828D01*
X1600798Y267696D01*
X1598909Y270159D01*
X1596446Y272048D01*
X1593578Y273237D01*
X1590500Y273642D01*
X1587422Y273237D01*
X1584554Y272048D01*
X1582091Y270159D01*
X1580202Y267696D01*
X1579492Y265984D01*
X1578247Y265736D01*
X1494069Y349914D01*
X1494595Y351184D01*
X1524834D01*
X1574459Y301559D01*
X1575372Y300948D01*
X1576450Y300734D01*
X1578972D01*
X1579014Y300422D01*
X1580202Y297554D01*
X1582091Y295091D01*
X1584554Y293202D01*
X1587422Y292013D01*
X1590500Y291608D01*
X1593578Y292013D01*
X1596446Y293202D01*
X1598909Y295091D01*
X1600798Y297554D01*
X1601987Y300422D01*
X1602392Y303500D01*
Y303600D01*
X1601987Y306678D01*
X1600798Y309546D01*
X1598909Y312009D01*
X1596446Y313899D01*
X1593578Y315086D01*
X1590500Y315492D01*
X1587422Y315086D01*
X1584554Y313899D01*
X1582091Y312009D01*
X1580202Y309546D01*
X1579014Y306678D01*
X1578972Y306366D01*
X1577616D01*
X1527991Y355991D01*
X1527078Y356602D01*
X1526000Y356816D01*
X700166D01*
X637368Y419614D01*
Y421062D01*
X638638Y421588D01*
X639287Y420939D01*
X641047Y420210D01*
X642953D01*
X644713Y420939D01*
X645406Y421632D01*
X684448D01*
X685526Y421846D01*
X686439Y422457D01*
X764991Y501009D01*
X765602Y501922D01*
X765816Y503000D01*
Y819834D01*
X806104Y860122D01*
X807287Y858939D01*
X809047Y858210D01*
X810953D01*
X812713Y858939D01*
X814061Y860287D01*
X814790Y862047D01*
Y863953D01*
X814061Y865713D01*
X812713Y867061D01*
X810953Y867790D01*
X809047D01*
X807287Y867061D01*
X806042Y865816D01*
X805000D01*
X803922Y865602D01*
X803009Y864991D01*
X761009Y822991D01*
X760398Y822078D01*
X760184Y821000D01*
Y504166D01*
X683281Y427264D01*
X680426D01*
X679577Y428534D01*
X679790Y429047D01*
Y430953D01*
X679061Y432713D01*
X677713Y434061D01*
X675953Y434790D01*
X674047D01*
X672287Y434061D01*
X670939Y432713D01*
X670210Y430953D01*
Y429047D01*
X670423Y428534D01*
X669574Y427264D01*
X646247D01*
X646061Y427713D01*
X644713Y429061D01*
X642953Y429790D01*
X641047D01*
X639287Y429061D01*
X638638Y428412D01*
X637368Y428938D01*
Y432333D01*
X638556Y433521D01*
X639285Y435281D01*
Y437187D01*
X638556Y438947D01*
X637208Y440295D01*
X635448Y441024D01*
X633542D01*
X631782Y440295D01*
X630434Y438947D01*
X629705Y437187D01*
Y435281D01*
X630434Y433521D01*
X631736Y432219D01*
Y418448D01*
X631837Y417942D01*
X630666Y417317D01*
X625816Y422166D01*
Y445000D01*
X625602Y446078D01*
X624991Y446991D01*
X611648Y460335D01*
X610734Y460946D01*
X609656Y461160D01*
X608562D01*
X607407Y462315D01*
X605646Y463045D01*
X603741D01*
X603343Y463310D01*
Y463452D01*
X602614Y465213D01*
X602214Y465613D01*
X602887Y466285D01*
X603616Y468046D01*
Y469951D01*
X602887Y471712D01*
X601539Y473059D01*
X599779Y473789D01*
X597873D01*
X596113Y473059D01*
X594765Y471712D01*
X594036Y469951D01*
Y468046D01*
X594765Y466285D01*
X595165Y465886D01*
X594492Y465213D01*
X593763Y463452D01*
Y461547D01*
X594492Y459786D01*
X595119Y459160D01*
X594574Y458614D01*
X593844Y456854D01*
Y454948D01*
X594574Y453187D01*
X595921Y451840D01*
X597682Y451111D01*
X599587D01*
X600475Y450518D01*
Y450349D01*
X601204Y448589D01*
X601352Y448441D01*
X600691Y447451D01*
X600251Y447522D01*
X599453Y447853D01*
X597547D01*
X595787Y447123D01*
X594440Y445776D01*
X593710Y444015D01*
Y442110D01*
X594440Y440349D01*
X595284Y439505D01*
X594464Y438686D01*
X593735Y436925D01*
Y435019D01*
X594464Y433259D01*
X595179Y432544D01*
X594831Y432196D01*
X594101Y430435D01*
Y428530D01*
X594314Y428017D01*
X593465Y426747D01*
X571371D01*
X570693Y427815D01*
X571201Y428863D01*
X572606D01*
X574367Y429593D01*
X575459Y430685D01*
X575782Y430362D01*
X577542Y429633D01*
X579448D01*
X581209Y430362D01*
X582556Y431710D01*
X583285Y433470D01*
Y435376D01*
X582556Y437136D01*
X581209Y438484D01*
X579448Y439213D01*
X577928D01*
X570816Y446325D01*
Y463759D01*
X572086Y464608D01*
X573047Y464210D01*
X574953D01*
X576713Y464939D01*
X578061Y466287D01*
X578790Y468047D01*
Y469953D01*
X578061Y471713D01*
X576713Y473061D01*
X574953Y473790D01*
X573047D01*
X572086Y473392D01*
X570816Y474240D01*
Y481834D01*
X622166Y533184D01*
X696000D01*
X696784Y533340D01*
X697529Y532289D01*
X661556Y496316D01*
X643749D01*
X643185Y497586D01*
X643790Y499047D01*
Y500953D01*
X643061Y502713D01*
X641713Y504061D01*
X639953Y504790D01*
X638047D01*
X636287Y504061D01*
X635042Y502816D01*
X608958D01*
X607713Y504061D01*
X605953Y504790D01*
X604047D01*
X602287Y504061D01*
X600939Y502713D01*
X600210Y500953D01*
Y499047D01*
X600939Y497287D01*
X601476Y496750D01*
X600939Y496213D01*
X600210Y494453D01*
Y492547D01*
X600939Y490787D01*
X602287Y489439D01*
X604047Y488710D01*
X605953D01*
X607713Y489439D01*
X608958Y490684D01*
X662723D01*
X663801Y490898D01*
X664714Y491509D01*
X705688Y532482D01*
X707448D01*
X709209Y533212D01*
X710556Y534559D01*
X711285Y536320D01*
Y538225D01*
X710556Y539986D01*
X709209Y541333D01*
X707726Y541947D01*
X707218Y543236D01*
X757416Y593434D01*
X758027Y594347D01*
X758241Y595425D01*
Y859204D01*
X759486Y860448D01*
X760215Y862209D01*
Y864115D01*
X759486Y865875D01*
X758138Y867222D01*
X756378Y867952D01*
D02*
G37*
G36*
X570743Y602837D02*
X568837D01*
X567077Y602108D01*
X565729Y600760D01*
X565000Y599000D01*
Y597094D01*
X565729Y595334D01*
X567077Y593987D01*
X568837Y593257D01*
X570743D01*
X572503Y593987D01*
X573851Y595334D01*
X574580Y597094D01*
Y599000D01*
X573851Y600760D01*
X572503Y602108D01*
X570743Y602837D01*
D02*
G37*
G36*
X395953Y609790D02*
X394047D01*
X392287Y609061D01*
X390939Y607713D01*
X390210Y605953D01*
Y604047D01*
X390939Y602287D01*
X391976Y601250D01*
X390939Y600213D01*
X390210Y598453D01*
Y596547D01*
X390939Y594787D01*
X392287Y593439D01*
X394047Y592710D01*
X395953D01*
X397713Y593439D01*
X399061Y594787D01*
X399790Y596547D01*
Y598453D01*
X399061Y600213D01*
X398024Y601250D01*
X399061Y602287D01*
X399790Y604047D01*
Y605953D01*
X399061Y607713D01*
X397713Y609061D01*
X395953Y609790D01*
D02*
G37*
G36*
X383453D02*
X381547D01*
X379787Y609061D01*
X378439Y607713D01*
X377710Y605953D01*
Y604047D01*
X378439Y602287D01*
X379476Y601250D01*
X378439Y600213D01*
X377710Y598453D01*
Y596547D01*
X378439Y594787D01*
X379787Y593439D01*
X381547Y592710D01*
X383453D01*
X385213Y593439D01*
X386561Y594787D01*
X387290Y596547D01*
Y598453D01*
X386561Y600213D01*
X385524Y601250D01*
X386561Y602287D01*
X387290Y604047D01*
Y605953D01*
X386561Y607713D01*
X385213Y609061D01*
X383453Y609790D01*
D02*
G37*
G36*
X370953D02*
X369047D01*
X367287Y609061D01*
X365939Y607713D01*
X365210Y605953D01*
Y604047D01*
X365939Y602287D01*
X366976Y601250D01*
X365939Y600213D01*
X365210Y598453D01*
Y596547D01*
X365939Y594787D01*
X367287Y593439D01*
X369047Y592710D01*
X370953D01*
X372713Y593439D01*
X374061Y594787D01*
X374790Y596547D01*
Y598453D01*
X374061Y600213D01*
X373024Y601250D01*
X374061Y602287D01*
X374790Y604047D01*
Y605953D01*
X374061Y607713D01*
X372713Y609061D01*
X370953Y609790D01*
D02*
G37*
G36*
X671953Y607714D02*
X670047D01*
X668287Y606984D01*
X666939Y605637D01*
X666210Y603876D01*
Y601971D01*
X666939Y600210D01*
X667476Y599674D01*
X666939Y599137D01*
X666210Y597376D01*
Y595471D01*
X666939Y593710D01*
X668287Y592363D01*
X670047Y591634D01*
X671953D01*
X673713Y592363D01*
X675061Y593710D01*
X675790Y595471D01*
Y597376D01*
X675061Y599137D01*
X674524Y599674D01*
X675061Y600210D01*
X675790Y601971D01*
Y603876D01*
X675061Y605637D01*
X673713Y606984D01*
X671953Y607714D01*
D02*
G37*
G36*
X1485953Y591790D02*
X1484047D01*
X1482287Y591061D01*
X1480939Y589713D01*
X1480210Y587953D01*
Y586047D01*
X1480939Y584287D01*
X1482287Y582939D01*
X1484047Y582210D01*
X1485953D01*
X1487713Y582939D01*
X1489061Y584287D01*
X1489790Y586047D01*
Y587953D01*
X1489061Y589713D01*
X1487713Y591061D01*
X1485953Y591790D01*
D02*
G37*
G36*
X1304953D02*
X1303047D01*
X1301287Y591061D01*
X1299939Y589713D01*
X1299210Y587953D01*
Y586047D01*
X1299939Y584287D01*
X1301287Y582939D01*
X1303047Y582210D01*
X1304953D01*
X1306713Y582939D01*
X1308061Y584287D01*
X1308790Y586047D01*
Y587953D01*
X1308061Y589713D01*
X1306713Y591061D01*
X1304953Y591790D01*
D02*
G37*
G36*
X601953Y587690D02*
X600047D01*
X598287Y586961D01*
X596939Y585613D01*
X596210Y583853D01*
Y581947D01*
X596939Y580187D01*
X597476Y579650D01*
X596939Y579113D01*
X596210Y577353D01*
Y575447D01*
X596939Y573687D01*
X598287Y572339D01*
X600047Y571610D01*
X601953D01*
X603713Y572339D01*
X605061Y573687D01*
X605790Y575447D01*
Y577353D01*
X605061Y579113D01*
X604524Y579650D01*
X605061Y580187D01*
X605790Y581947D01*
Y583853D01*
X605061Y585613D01*
X603713Y586961D01*
X601953Y587690D01*
D02*
G37*
G36*
X693953Y580790D02*
X692047D01*
X690287Y580061D01*
X688939Y578713D01*
X688210Y576953D01*
Y575047D01*
X688939Y573287D01*
X690287Y571939D01*
X692047Y571210D01*
X693953D01*
X694440Y571412D01*
X695412Y570440D01*
X695210Y569953D01*
Y568047D01*
X695939Y566287D01*
X697287Y564939D01*
X699047Y564210D01*
X700953D01*
X702713Y564939D01*
X704061Y566287D01*
X704790Y568047D01*
Y569953D01*
X704061Y571713D01*
X702713Y573061D01*
X700953Y573790D01*
X699047D01*
X698560Y573588D01*
X697588Y574560D01*
X697790Y575047D01*
Y576953D01*
X697061Y578713D01*
X695713Y580061D01*
X693953Y580790D01*
D02*
G37*
G36*
X648203Y574990D02*
X646297D01*
X644537Y574261D01*
X643189Y572913D01*
X642460Y571153D01*
Y569247D01*
X643189Y567487D01*
X643726Y566950D01*
X643189Y566413D01*
X642460Y564653D01*
Y562747D01*
X643189Y560987D01*
X644537Y559639D01*
X646297Y558910D01*
X648203D01*
X649963Y559639D01*
X651311Y560987D01*
X652040Y562747D01*
Y564653D01*
X651311Y566413D01*
X650774Y566950D01*
X651311Y567487D01*
X652040Y569247D01*
Y571153D01*
X651311Y572913D01*
X649963Y574261D01*
X648203Y574990D01*
D02*
G37*
G36*
X79953Y584790D02*
X78047D01*
X76287Y584061D01*
X74939Y582713D01*
X74210Y580953D01*
Y579047D01*
X74939Y577287D01*
X76287Y575939D01*
X78047Y575210D01*
X79807D01*
X90009Y565009D01*
X90922Y564398D01*
X92000Y564184D01*
X215685D01*
X240184Y539685D01*
Y529000D01*
X240398Y527922D01*
X241009Y527009D01*
X247670Y520348D01*
X247143Y519078D01*
X246526D01*
X244766Y518349D01*
X243418Y517001D01*
X242689Y515241D01*
Y513335D01*
X243418Y511575D01*
X244766Y510227D01*
X246526Y509498D01*
X248432D01*
X250192Y510227D01*
X251437Y511472D01*
X280590D01*
X281076Y510298D01*
X280939Y510161D01*
X280210Y508401D01*
Y506495D01*
X280939Y504735D01*
X281950Y503724D01*
X280939Y502713D01*
X280210Y500953D01*
Y499047D01*
X280939Y497287D01*
X281976Y496250D01*
X280939Y495213D01*
X280210Y493453D01*
Y491547D01*
X280939Y489787D01*
X281976Y488750D01*
X280939Y487713D01*
X280210Y485953D01*
Y484047D01*
X280939Y482287D01*
X282287Y480939D01*
X284047Y480210D01*
X285953D01*
X287713Y480939D01*
X289061Y482287D01*
X289313Y482895D01*
X290687D01*
X290939Y482287D01*
X292287Y480939D01*
X294047Y480210D01*
X295953D01*
X297713Y480939D01*
X299061Y482287D01*
X299790Y484047D01*
Y485953D01*
X299061Y487713D01*
X298024Y488750D01*
X299061Y489787D01*
X299790Y491547D01*
Y493453D01*
X299061Y495213D01*
X298024Y496250D01*
X299061Y497287D01*
X299790Y499047D01*
Y500953D01*
X299061Y502713D01*
X298050Y503724D01*
X299061Y504735D01*
X299790Y506495D01*
Y508401D01*
X299061Y510161D01*
X298924Y510298D01*
X299410Y511472D01*
X541045D01*
X542123Y511686D01*
X543036Y512296D01*
X549403Y518663D01*
X551163D01*
X552923Y519392D01*
X554271Y520740D01*
X555000Y522500D01*
Y524406D01*
X554271Y526166D01*
X552923Y527514D01*
X551163Y528243D01*
X549257D01*
X547497Y527514D01*
X546149Y526166D01*
X546146Y526159D01*
X544726Y526048D01*
X543713Y527061D01*
X541953Y527790D01*
X540047D01*
X538287Y527061D01*
X536939Y525713D01*
X536210Y523953D01*
Y522998D01*
X536028Y522816D01*
X254210D01*
X253909Y523231D01*
X254349Y524788D01*
X254713Y524939D01*
X256061Y526287D01*
X256790Y528047D01*
Y529807D01*
X272424Y545441D01*
X508257D01*
X509335Y545656D01*
X510249Y546266D01*
X522166Y558184D01*
X552042D01*
X553287Y556939D01*
X555047Y556210D01*
X556953D01*
X558713Y556939D01*
X560061Y558287D01*
X560790Y560047D01*
Y561953D01*
X560381Y562940D01*
X560942Y564186D01*
X561100Y564271D01*
X562713Y564939D01*
X564061Y566287D01*
X564790Y568047D01*
Y569953D01*
X564061Y571713D01*
X562713Y573061D01*
X560953Y573790D01*
X559047D01*
X557287Y573061D01*
X556042Y571816D01*
X358000D01*
X356922Y571602D01*
X356009Y570991D01*
X353009Y567991D01*
X352398Y567078D01*
X352308Y566621D01*
X352287Y566613D01*
X350939Y565265D01*
X350210Y563505D01*
Y561599D01*
X350939Y559839D01*
X352287Y558491D01*
X354047Y557762D01*
X355953D01*
X357713Y558491D01*
X359061Y559839D01*
X359790Y561599D01*
Y563505D01*
X359206Y564914D01*
X359670Y565903D01*
X359938Y566184D01*
X552751D01*
X553027Y565605D01*
X553140Y564914D01*
X552042Y563816D01*
X521000D01*
X519922Y563602D01*
X519009Y562991D01*
X507091Y551073D01*
X271257D01*
X270180Y550859D01*
X269266Y550249D01*
X252807Y533790D01*
X251047D01*
X249287Y533061D01*
X247939Y531713D01*
X247788Y531348D01*
X246231Y530909D01*
X245816Y531210D01*
Y540852D01*
X245602Y541929D01*
X244991Y542843D01*
X218843Y568991D01*
X217929Y569602D01*
X216852Y569816D01*
X93167D01*
X83790Y579193D01*
Y580953D01*
X83061Y582713D01*
X81713Y584061D01*
X79953Y584790D01*
D02*
G37*
G36*
X1296953Y562790D02*
X1295047D01*
X1293287Y562061D01*
X1291939Y560713D01*
X1291210Y558953D01*
Y557047D01*
X1291939Y555287D01*
X1293287Y553939D01*
X1295047Y553210D01*
X1296953D01*
X1298713Y553939D01*
X1300061Y555287D01*
X1300790Y557047D01*
Y558953D01*
X1300061Y560713D01*
X1298713Y562061D01*
X1296953Y562790D01*
D02*
G37*
G36*
X1485953Y559790D02*
X1484047D01*
X1482287Y559061D01*
X1480939Y557713D01*
X1480210Y555953D01*
Y554047D01*
X1480939Y552287D01*
X1482287Y550939D01*
X1484047Y550210D01*
X1485953D01*
X1487713Y550939D01*
X1489061Y552287D01*
X1489790Y554047D01*
Y555953D01*
X1489061Y557713D01*
X1487713Y559061D01*
X1485953Y559790D01*
D02*
G37*
G36*
X805953Y561790D02*
X804047D01*
X802287Y561061D01*
X800939Y559713D01*
X800210Y557953D01*
Y556047D01*
X800939Y554287D01*
X801226Y554000D01*
X800939Y553713D01*
X800210Y551953D01*
Y550047D01*
X800939Y548287D01*
X802287Y546939D01*
X804047Y546210D01*
X805953D01*
X807713Y546939D01*
X809061Y548287D01*
X809790Y550047D01*
Y551953D01*
X809061Y553713D01*
X808774Y554000D01*
X809061Y554287D01*
X809790Y556047D01*
Y557953D01*
X809061Y559713D01*
X807713Y561061D01*
X805953Y561790D01*
D02*
G37*
G36*
X1266953Y549790D02*
X1265047D01*
X1263287Y549061D01*
X1261939Y547713D01*
X1261210Y545953D01*
Y544047D01*
X1261939Y542287D01*
X1263287Y540939D01*
X1265047Y540210D01*
X1266953D01*
X1268713Y540939D01*
X1270061Y542287D01*
X1270790Y544047D01*
Y545953D01*
X1270061Y547713D01*
X1268713Y549061D01*
X1266953Y549790D01*
D02*
G37*
G36*
X1296953Y547790D02*
X1295047D01*
X1293287Y547061D01*
X1291939Y545713D01*
X1291210Y543953D01*
Y542047D01*
X1291939Y540287D01*
X1293287Y538939D01*
X1295047Y538210D01*
X1296953D01*
X1298713Y538939D01*
X1300061Y540287D01*
X1300790Y542047D01*
Y543953D01*
X1300061Y545713D01*
X1298713Y547061D01*
X1296953Y547790D01*
D02*
G37*
G36*
X536953Y553370D02*
X535047D01*
X533287Y552641D01*
X531939Y551293D01*
X531210Y549533D01*
Y547627D01*
X531939Y545867D01*
X532476Y545330D01*
X531939Y544793D01*
X531210Y543033D01*
Y541127D01*
X531939Y539367D01*
X533287Y538019D01*
X535047Y537290D01*
X536953D01*
X538713Y538019D01*
X540061Y539367D01*
X540790Y541127D01*
Y543033D01*
X540061Y544793D01*
X539524Y545330D01*
X540061Y545867D01*
X540790Y547627D01*
Y549533D01*
X540061Y551293D01*
X538713Y552641D01*
X536953Y553370D01*
D02*
G37*
G36*
X1217953Y544790D02*
X1216047D01*
X1214287Y544061D01*
X1212939Y542713D01*
X1212210Y540953D01*
Y539047D01*
X1212939Y537287D01*
X1214287Y535939D01*
X1216047Y535210D01*
X1217953D01*
X1219713Y535939D01*
X1221061Y537287D01*
X1221790Y539047D01*
Y540953D01*
X1221061Y542713D01*
X1219713Y544061D01*
X1217953Y544790D01*
D02*
G37*
G36*
X1564953Y539790D02*
X1563047D01*
X1561287Y539061D01*
X1559939Y537713D01*
X1559210Y535953D01*
Y534047D01*
X1559939Y532287D01*
X1561287Y530939D01*
X1563047Y530210D01*
X1564953D01*
X1566713Y530939D01*
X1568061Y532287D01*
X1568790Y534047D01*
Y535953D01*
X1568061Y537713D01*
X1566713Y539061D01*
X1564953Y539790D01*
D02*
G37*
G36*
X1485953Y538290D02*
X1484047D01*
X1482287Y537561D01*
X1480939Y536213D01*
X1480210Y534453D01*
Y532547D01*
X1480939Y530787D01*
X1482287Y529439D01*
X1484047Y528710D01*
X1485953D01*
X1487713Y529439D01*
X1489061Y530787D01*
X1489790Y532547D01*
Y534453D01*
X1489061Y536213D01*
X1487713Y537561D01*
X1485953Y538290D01*
D02*
G37*
G36*
X1296953Y536790D02*
X1295047D01*
X1293287Y536061D01*
X1291939Y534713D01*
X1291210Y532953D01*
Y531047D01*
X1291939Y529287D01*
X1293287Y527939D01*
X1295047Y527210D01*
X1296953D01*
X1298713Y527939D01*
X1300061Y529287D01*
X1300790Y531047D01*
Y532953D01*
X1300061Y534713D01*
X1298713Y536061D01*
X1296953Y536790D01*
D02*
G37*
G36*
X1271953D02*
X1270047D01*
X1268287Y536061D01*
X1266939Y534713D01*
X1266210Y532953D01*
Y531047D01*
X1266939Y529287D01*
X1268287Y527939D01*
X1270047Y527210D01*
X1271953D01*
X1273713Y527939D01*
X1275061Y529287D01*
X1275790Y531047D01*
Y532953D01*
X1275061Y534713D01*
X1273713Y536061D01*
X1271953Y536790D01*
D02*
G37*
G36*
X359953Y534790D02*
X358047D01*
X356287Y534061D01*
X354939Y532713D01*
X354210Y530953D01*
Y529047D01*
X354939Y527287D01*
X356287Y525939D01*
X358047Y525210D01*
X359953D01*
X361713Y525939D01*
X363061Y527287D01*
X363790Y529047D01*
Y530953D01*
X363061Y532713D01*
X361713Y534061D01*
X359953Y534790D01*
D02*
G37*
G36*
X809953Y526790D02*
X808047D01*
X806287Y526061D01*
X804939Y524713D01*
X804210Y522953D01*
Y521047D01*
X804939Y519287D01*
X806287Y517939D01*
X808047Y517210D01*
X809953D01*
X811713Y517939D01*
X813061Y519287D01*
X813790Y521047D01*
Y522953D01*
X813061Y524713D01*
X811713Y526061D01*
X809953Y526790D01*
D02*
G37*
G36*
X190953Y518790D02*
X189047D01*
X187287Y518061D01*
X185939Y516713D01*
X185210Y514953D01*
Y513047D01*
X185939Y511287D01*
X187287Y509939D01*
X189047Y509210D01*
X190953D01*
X192713Y509939D01*
X194061Y511287D01*
X194790Y513047D01*
Y514953D01*
X194061Y516713D01*
X192713Y518061D01*
X190953Y518790D01*
D02*
G37*
G36*
X784953Y503790D02*
X783047D01*
X781287Y503061D01*
X779939Y501713D01*
X779210Y499953D01*
Y498047D01*
X779939Y496287D01*
X781287Y494939D01*
X783047Y494210D01*
X784953D01*
X786713Y494939D01*
X788061Y496287D01*
X788790Y498047D01*
Y499953D01*
X788061Y501713D01*
X786713Y503061D01*
X784953Y503790D01*
D02*
G37*
G36*
X355953D02*
X354047D01*
X352287Y503061D01*
X350939Y501713D01*
X350210Y499953D01*
Y498047D01*
X350939Y496287D01*
X352287Y494939D01*
X354047Y494210D01*
X355953D01*
X357713Y494939D01*
X359061Y496287D01*
X359790Y498047D01*
Y499953D01*
X359061Y501713D01*
X357713Y503061D01*
X355953Y503790D01*
D02*
G37*
G36*
X908453Y502290D02*
X906547D01*
X904787Y501561D01*
X903439Y500213D01*
X902710Y498453D01*
Y496547D01*
X903439Y494787D01*
X904787Y493439D01*
X906547Y492710D01*
X908453D01*
X910213Y493439D01*
X911561Y494787D01*
X912290Y496547D01*
Y498453D01*
X911561Y500213D01*
X910213Y501561D01*
X908453Y502290D01*
D02*
G37*
G36*
X38953Y500790D02*
X37047D01*
X35287Y500061D01*
X33939Y498713D01*
X33210Y496953D01*
Y495047D01*
X33939Y493287D01*
X35287Y491939D01*
X37047Y491210D01*
X38953D01*
X40713Y491939D01*
X42061Y493287D01*
X42790Y495047D01*
Y496953D01*
X42061Y498713D01*
X40713Y500061D01*
X38953Y500790D01*
D02*
G37*
G36*
X318953Y476790D02*
X317047D01*
X315287Y476061D01*
X313939Y474713D01*
X313210Y472953D01*
Y471047D01*
X313939Y469287D01*
X315287Y467939D01*
X317047Y467210D01*
X318953D01*
X320713Y467939D01*
X322061Y469287D01*
X322790Y471047D01*
Y472953D01*
X322061Y474713D01*
X320713Y476061D01*
X318953Y476790D01*
D02*
G37*
G36*
X345953Y469790D02*
X344047D01*
X342287Y469061D01*
X340939Y467713D01*
X340210Y465953D01*
Y464047D01*
X340939Y462287D01*
X342287Y460939D01*
X344047Y460210D01*
X345953D01*
X347713Y460939D01*
X349061Y462287D01*
X349790Y464047D01*
Y465953D01*
X349061Y467713D01*
X347713Y469061D01*
X345953Y469790D01*
D02*
G37*
G36*
X257953Y463790D02*
X256047D01*
X254287Y463061D01*
X252939Y461713D01*
X252210Y459953D01*
Y458047D01*
X252939Y456287D01*
X254287Y454939D01*
X256047Y454210D01*
X257953D01*
X259713Y454939D01*
X261061Y456287D01*
X261790Y458047D01*
Y459953D01*
X261061Y461713D01*
X259713Y463061D01*
X257953Y463790D01*
D02*
G37*
G36*
X204953D02*
X203047D01*
X201287Y463061D01*
X199939Y461713D01*
X199210Y459953D01*
Y458047D01*
X199939Y456287D01*
X201287Y454939D01*
X203047Y454210D01*
X204953D01*
X206713Y454939D01*
X208061Y456287D01*
X208790Y458047D01*
Y459953D01*
X208061Y461713D01*
X206713Y463061D01*
X204953Y463790D01*
D02*
G37*
G36*
X83953Y461790D02*
X82047D01*
X80287Y461061D01*
X78939Y459713D01*
X78210Y457953D01*
Y456047D01*
X78939Y454287D01*
X80287Y452939D01*
X82047Y452210D01*
X83953D01*
X85713Y452939D01*
X87061Y454287D01*
X87790Y456047D01*
Y457953D01*
X87061Y459713D01*
X85713Y461061D01*
X83953Y461790D01*
D02*
G37*
G36*
X45953D02*
X44047D01*
X42287Y461061D01*
X40939Y459713D01*
X40210Y457953D01*
Y456047D01*
X40939Y454287D01*
X42287Y452939D01*
X44047Y452210D01*
X45953D01*
X47713Y452939D01*
X49061Y454287D01*
X49790Y456047D01*
Y457953D01*
X49061Y459713D01*
X47713Y461061D01*
X45953Y461790D01*
D02*
G37*
G36*
X919703Y499790D02*
X917797D01*
X916037Y499061D01*
X914689Y497713D01*
X913960Y495953D01*
Y494047D01*
X914689Y492287D01*
X915726Y491250D01*
X914689Y490213D01*
X913960Y488453D01*
Y486547D01*
X914689Y484787D01*
X915726Y483750D01*
X914689Y482713D01*
X913960Y480953D01*
Y479047D01*
X914689Y477287D01*
X915726Y476250D01*
X914689Y475213D01*
X913960Y473453D01*
Y471547D01*
X914689Y469787D01*
X915916Y468560D01*
X915840Y467997D01*
X915527Y467290D01*
X914047D01*
X912287Y466561D01*
X910939Y465213D01*
X910210Y463453D01*
Y461547D01*
X910939Y459787D01*
X911976Y458750D01*
X910939Y457713D01*
X910210Y455953D01*
Y454047D01*
X910939Y452287D01*
X912287Y450939D01*
X914047Y450210D01*
X915953D01*
X917713Y450939D01*
X919061Y452287D01*
X919790Y454047D01*
Y455953D01*
X919061Y457713D01*
X918024Y458750D01*
X919061Y459787D01*
X919790Y461547D01*
Y463453D01*
X919061Y465213D01*
X917834Y466440D01*
X917910Y467003D01*
X918223Y467710D01*
X919703D01*
X921463Y468439D01*
X922811Y469787D01*
X923540Y471547D01*
Y473453D01*
X922811Y475213D01*
X921774Y476250D01*
X922811Y477287D01*
X923540Y479047D01*
Y480953D01*
X922811Y482713D01*
X921774Y483750D01*
X922811Y484787D01*
X923540Y486547D01*
Y488453D01*
X922811Y490213D01*
X921774Y491250D01*
X922811Y492287D01*
X923540Y494047D01*
Y495953D01*
X922811Y497713D01*
X921463Y499061D01*
X919703Y499790D01*
D02*
G37*
G36*
X267953Y451790D02*
X266047D01*
X264287Y451061D01*
X262939Y449713D01*
X262210Y447953D01*
Y446047D01*
X262939Y444287D01*
X264287Y442939D01*
X266047Y442210D01*
X267953D01*
X269713Y442939D01*
X271061Y444287D01*
X271790Y446047D01*
Y447953D01*
X271061Y449713D01*
X269713Y451061D01*
X267953Y451790D01*
D02*
G37*
G36*
X215953D02*
X214047D01*
X212287Y451061D01*
X210939Y449713D01*
X210210Y447953D01*
Y446047D01*
X210939Y444287D01*
X212287Y442939D01*
X214047Y442210D01*
X215953D01*
X217713Y442939D01*
X219061Y444287D01*
X219790Y446047D01*
Y447953D01*
X219061Y449713D01*
X217713Y451061D01*
X215953Y451790D01*
D02*
G37*
G36*
X1550953Y441290D02*
X1549047D01*
X1547287Y440561D01*
X1545939Y439213D01*
X1545210Y437453D01*
Y435547D01*
X1545939Y433787D01*
X1547287Y432439D01*
X1549047Y431710D01*
X1550953D01*
X1552713Y432439D01*
X1554061Y433787D01*
X1554790Y435547D01*
Y437453D01*
X1554061Y439213D01*
X1552713Y440561D01*
X1550953Y441290D01*
D02*
G37*
G36*
X1538350Y641892D02*
X1538250D01*
X1535172Y641487D01*
X1532304Y640298D01*
X1529841Y638409D01*
X1527952Y635946D01*
X1526763Y633078D01*
X1526358Y630000D01*
X1526763Y626922D01*
X1527952Y624054D01*
X1529841Y621591D01*
X1532304Y619701D01*
X1535172Y618513D01*
X1535484Y618472D01*
Y489467D01*
X1440833Y394816D01*
X733958D01*
X732713Y396061D01*
X730953Y396790D01*
X729047D01*
X727287Y396061D01*
X725939Y394713D01*
X725210Y392953D01*
Y391047D01*
X725939Y389287D01*
X726140Y389086D01*
X725614Y387816D01*
X702958D01*
X701713Y389061D01*
X699953Y389790D01*
X698047D01*
X696287Y389061D01*
X694939Y387713D01*
X694210Y385953D01*
Y384047D01*
X694939Y382287D01*
X695226Y382000D01*
X693939Y380713D01*
X693210Y378953D01*
Y377047D01*
X693939Y375287D01*
X695287Y373939D01*
X697047Y373210D01*
X698953D01*
X700713Y373939D01*
X701958Y375184D01*
X1543000D01*
X1544078Y375398D01*
X1544991Y376009D01*
X1573340Y404358D01*
X1578956D01*
X1578997Y404046D01*
X1580185Y401178D01*
X1582075Y398715D01*
X1584538Y396825D01*
X1587406Y395638D01*
X1590484Y395232D01*
X1593562Y395638D01*
X1596430Y396825D01*
X1598893Y398715D01*
X1600782Y401178D01*
X1601970Y404046D01*
X1602376Y407124D01*
Y407224D01*
X1601970Y410302D01*
X1600782Y413170D01*
X1598893Y415633D01*
X1596430Y417523D01*
X1593562Y418711D01*
X1590484Y419116D01*
X1587406Y418711D01*
X1584538Y417523D01*
X1582075Y415633D01*
X1580185Y413170D01*
X1578997Y410302D01*
X1578956Y409990D01*
X1573679D01*
X1573152Y411260D01*
X1584300Y422408D01*
X1584538Y422225D01*
X1587406Y421037D01*
X1590484Y420632D01*
X1593562Y421037D01*
X1596430Y422225D01*
X1598893Y424115D01*
X1600782Y426578D01*
X1601970Y429446D01*
X1602376Y432524D01*
Y432624D01*
X1601970Y435702D01*
X1600782Y438570D01*
X1598893Y441033D01*
X1596430Y442923D01*
X1593562Y444110D01*
X1590484Y444516D01*
X1587406Y444110D01*
X1584538Y442923D01*
X1582075Y441033D01*
X1580185Y438570D01*
X1578997Y435702D01*
X1578592Y432624D01*
Y432524D01*
X1578997Y429446D01*
X1580185Y426578D01*
X1580324Y426397D01*
X1555945Y402018D01*
X1555083Y402413D01*
X1554790Y402659D01*
Y404453D01*
X1554061Y406213D01*
X1552713Y407561D01*
X1550953Y408290D01*
X1549047D01*
X1547287Y407561D01*
X1545939Y406213D01*
X1545210Y404453D01*
Y402547D01*
X1545939Y400787D01*
X1547287Y399439D01*
X1549047Y398710D01*
X1550841D01*
X1551087Y398417D01*
X1551482Y397555D01*
X1541743Y387816D01*
X735808D01*
X735129Y389086D01*
X735194Y389184D01*
X1442000D01*
X1443078Y389398D01*
X1443991Y390009D01*
X1540291Y486309D01*
X1540902Y487222D01*
X1541116Y488300D01*
Y618472D01*
X1541428Y618513D01*
X1544296Y619701D01*
X1546759Y621591D01*
X1548649Y624054D01*
X1549836Y626922D01*
X1550242Y630000D01*
X1549836Y633078D01*
X1548649Y635946D01*
X1546759Y638409D01*
X1544296Y640298D01*
X1541428Y641487D01*
X1538350Y641892D01*
D02*
G37*
G36*
X886953Y406790D02*
X885047D01*
X883287Y406061D01*
X882000Y404774D01*
X880713Y406061D01*
X878953Y406790D01*
X877047D01*
X875287Y406061D01*
X873939Y404713D01*
X873210Y402953D01*
Y401047D01*
X873939Y399287D01*
X875287Y397939D01*
X877047Y397210D01*
X878953D01*
X880713Y397939D01*
X882000Y399226D01*
X883287Y397939D01*
X885047Y397210D01*
X886953D01*
X888713Y397939D01*
X890061Y399287D01*
X890790Y401047D01*
Y402953D01*
X890061Y404713D01*
X888713Y406061D01*
X886953Y406790D01*
D02*
G37*
G36*
X1511953Y596790D02*
X1510047D01*
X1508287Y596061D01*
X1506939Y594713D01*
X1506210Y592953D01*
Y591193D01*
X1492009Y576991D01*
X1491398Y576078D01*
X1491184Y575000D01*
Y528167D01*
X1405833Y442816D01*
X717814D01*
X716736Y442602D01*
X715823Y441991D01*
X691807Y417976D01*
X690047D01*
X688287Y417247D01*
X686939Y415899D01*
X686210Y414139D01*
Y412233D01*
X686939Y410473D01*
X688287Y409125D01*
X690047Y408396D01*
X690261Y408076D01*
X690210Y407953D01*
Y406047D01*
X690939Y404287D01*
X692287Y402939D01*
X694047Y402210D01*
X695953D01*
X697713Y402939D01*
X699061Y404287D01*
X699790Y406047D01*
Y407807D01*
X710037Y418054D01*
X711390Y417612D01*
X711939Y416287D01*
X713287Y414939D01*
X713905Y414683D01*
X714203Y413185D01*
X707807Y406790D01*
X706047D01*
X704287Y406061D01*
X702939Y404713D01*
X702210Y402953D01*
Y401047D01*
X702939Y399287D01*
X704287Y397939D01*
X706047Y397210D01*
X707953D01*
X709713Y397939D01*
X711061Y399287D01*
X711790Y401047D01*
Y402807D01*
X720166Y411184D01*
X1414000D01*
X1415078Y411398D01*
X1415991Y412009D01*
X1512991Y509009D01*
X1513602Y509922D01*
X1513816Y511000D01*
Y546042D01*
X1515061Y547287D01*
X1515790Y549047D01*
Y550953D01*
X1515061Y552713D01*
X1513713Y554061D01*
X1511953Y554790D01*
X1510047D01*
X1509086Y554392D01*
X1507816Y555241D01*
Y557834D01*
X1511193Y561210D01*
X1512953D01*
X1514713Y561939D01*
X1516061Y563287D01*
X1516790Y565047D01*
Y566953D01*
X1516061Y568713D01*
X1514713Y570061D01*
X1514105Y570313D01*
Y571687D01*
X1514713Y571939D01*
X1516061Y573287D01*
X1516790Y575047D01*
Y576953D01*
X1516061Y578713D01*
X1514713Y580061D01*
X1512953Y580790D01*
X1511047D01*
X1509287Y580061D01*
X1507939Y578713D01*
X1507210Y576953D01*
Y575193D01*
X1498086Y566069D01*
X1497757Y566097D01*
X1496816Y566492D01*
Y573834D01*
X1510193Y587210D01*
X1511953D01*
X1513713Y587939D01*
X1515061Y589287D01*
X1515790Y591047D01*
Y592953D01*
X1515061Y594713D01*
X1513713Y596061D01*
X1511953Y596790D01*
D02*
G37*
G36*
X278953Y356790D02*
X277047D01*
X275287Y356061D01*
X273939Y354713D01*
X273210Y352953D01*
Y351047D01*
X273939Y349287D01*
X275287Y347939D01*
X277047Y347210D01*
X278953D01*
X280713Y347939D01*
X282061Y349287D01*
X282790Y351047D01*
Y352953D01*
X282061Y354713D01*
X280713Y356061D01*
X278953Y356790D01*
D02*
G37*
G36*
X47269Y366665D02*
X44131D01*
X41101Y365853D01*
X38384Y364284D01*
X36166Y362066D01*
X34597Y359349D01*
X33785Y356319D01*
Y353181D01*
X34597Y350151D01*
X36166Y347434D01*
X38384Y345216D01*
X41101Y343647D01*
X44131Y342835D01*
X47269D01*
X50299Y343647D01*
X53016Y345216D01*
X55234Y347434D01*
X56803Y350151D01*
X57615Y353181D01*
Y356319D01*
X56803Y359349D01*
X55234Y362066D01*
X53016Y364284D01*
X50299Y365853D01*
X47269Y366665D01*
D02*
G37*
G36*
X115013Y370115D02*
X111987D01*
X109018Y369524D01*
X106222Y368366D01*
X103705Y366685D01*
X101565Y364545D01*
X99884Y362028D01*
X98726Y359232D01*
X98135Y356263D01*
Y353237D01*
X98726Y350268D01*
X99884Y347472D01*
X101565Y344955D01*
X103705Y342815D01*
X106222Y341134D01*
X109018Y339975D01*
X111987Y339385D01*
X115013D01*
X117982Y339975D01*
X120778Y341134D01*
X123295Y342815D01*
X125435Y344955D01*
X127116Y347472D01*
X128275Y350268D01*
X128865Y353237D01*
Y356263D01*
X128275Y359232D01*
X127116Y362028D01*
X125435Y364545D01*
X123295Y366685D01*
X120778Y368366D01*
X117982Y369524D01*
X115013Y370115D01*
D02*
G37*
G36*
X1068453Y335790D02*
X1066547D01*
X1064787Y335061D01*
X1064250Y334524D01*
X1063713Y335061D01*
X1061953Y335790D01*
X1060047D01*
X1058287Y335061D01*
X1056939Y333713D01*
X1056210Y331953D01*
Y330047D01*
X1056939Y328287D01*
X1058287Y326939D01*
X1060047Y326210D01*
X1061953D01*
X1063713Y326939D01*
X1064250Y327476D01*
X1064787Y326939D01*
X1066547Y326210D01*
X1068453D01*
X1070213Y326939D01*
X1071561Y328287D01*
X1072290Y330047D01*
Y331953D01*
X1071561Y333713D01*
X1070213Y335061D01*
X1068453Y335790D01*
D02*
G37*
G36*
X139953Y324790D02*
X138047D01*
X136287Y324061D01*
X135500Y323274D01*
X134713Y324061D01*
X132953Y324790D01*
X131047D01*
X129287Y324061D01*
X127939Y322713D01*
X127210Y320953D01*
Y319047D01*
X127939Y317287D01*
X129287Y315939D01*
X131047Y315210D01*
X132953D01*
X134713Y315939D01*
X135500Y316726D01*
X136287Y315939D01*
X138047Y315210D01*
X139953D01*
X141713Y315939D01*
X143061Y317287D01*
X143790Y319047D01*
Y320953D01*
X143061Y322713D01*
X141713Y324061D01*
X139953Y324790D01*
D02*
G37*
G36*
X600953Y372290D02*
X599047D01*
X597287Y371561D01*
X595939Y370213D01*
X595210Y368453D01*
Y366547D01*
X595939Y364787D01*
X596476Y364250D01*
X595939Y363713D01*
X595210Y361953D01*
Y360047D01*
X594537Y359039D01*
X588750D01*
X587970Y358884D01*
X587308Y358442D01*
X586866Y357780D01*
X586711Y357000D01*
Y334095D01*
X580305Y327689D01*
X579863Y327027D01*
X579708Y326247D01*
X579863Y325467D01*
X580305Y324805D01*
X580305Y324805D01*
X581076Y324035D01*
X581494Y323024D01*
Y321929D01*
X581076Y320918D01*
X580302Y320145D01*
X579291Y319726D01*
X578196D01*
X577185Y320145D01*
X576415Y320915D01*
X575753Y321357D01*
X574973Y321512D01*
X574193Y321357D01*
X573531Y320915D01*
X563558Y310942D01*
X563116Y310280D01*
X562961Y309500D01*
X562961Y255000D01*
X562961Y255000D01*
X563116Y254220D01*
X563558Y253558D01*
X563558Y253558D01*
X581058Y236058D01*
X581720Y235616D01*
X582500Y235461D01*
X660000D01*
X660000Y235461D01*
X660780Y235616D01*
X661442Y236058D01*
X661442Y236058D01*
X690345Y264961D01*
X922500D01*
X923280Y265116D01*
X923942Y265558D01*
X956845Y298461D01*
X965000D01*
X965780Y298616D01*
X966442Y299058D01*
X966884Y299720D01*
X967039Y300500D01*
Y334500D01*
X966884Y335280D01*
X966442Y335942D01*
X965780Y336384D01*
X965000Y336539D01*
X635845D01*
X632450Y339934D01*
X632201Y340100D01*
X631969Y340290D01*
X631872Y340320D01*
X631789Y340376D01*
X631495Y340434D01*
X631448Y340448D01*
X631434Y340494D01*
X631376Y340789D01*
X631320Y340872D01*
X631291Y340969D01*
X631100Y341201D01*
X630934Y341450D01*
X613942Y358442D01*
X613280Y358884D01*
X612500Y359039D01*
X605463D01*
X604790Y360047D01*
Y361953D01*
X604061Y363713D01*
X603524Y364250D01*
X604061Y364787D01*
X604790Y366547D01*
Y368453D01*
X604061Y370213D01*
X602713Y371561D01*
X600953Y372290D01*
D02*
G37*
G36*
X1183703Y333685D02*
X1181797D01*
X1180037Y332956D01*
X1178689Y331609D01*
X1177960Y329848D01*
Y327943D01*
X1178689Y326182D01*
X1179226Y325645D01*
X1178689Y325109D01*
X1177960Y323348D01*
Y321443D01*
X1178689Y319682D01*
X1180037Y318335D01*
X1181797Y317605D01*
X1183703D01*
X1185463Y318335D01*
X1186811Y319682D01*
X1187540Y321443D01*
Y323348D01*
X1186811Y325109D01*
X1186274Y325645D01*
X1186811Y326182D01*
X1187540Y327943D01*
Y329848D01*
X1186811Y331609D01*
X1185463Y332956D01*
X1183703Y333685D01*
D02*
G37*
G36*
X1149453Y317790D02*
X1147547D01*
X1145787Y317061D01*
X1145250Y316524D01*
X1144713Y317061D01*
X1142953Y317790D01*
X1141047D01*
X1139287Y317061D01*
X1137939Y315713D01*
X1137210Y313953D01*
Y312047D01*
X1137939Y310287D01*
X1139287Y308939D01*
X1141047Y308210D01*
X1142953D01*
X1144713Y308939D01*
X1145250Y309476D01*
X1145787Y308939D01*
X1147547Y308210D01*
X1149453D01*
X1151213Y308939D01*
X1152561Y310287D01*
X1153290Y312047D01*
Y313953D01*
X1152561Y315713D01*
X1151213Y317061D01*
X1149453Y317790D01*
D02*
G37*
G36*
X182953Y320790D02*
X181047D01*
X179287Y320061D01*
X177939Y318713D01*
X177210Y316953D01*
Y315047D01*
X177939Y313287D01*
X179287Y311939D01*
X181047Y311210D01*
X182953D01*
X184713Y311939D01*
X186061Y313287D01*
X186790Y315047D01*
Y316953D01*
X186061Y318713D01*
X184713Y320061D01*
X182953Y320790D01*
D02*
G37*
G36*
X160953Y319790D02*
X159047D01*
X157287Y319061D01*
X155939Y317713D01*
X155210Y315953D01*
Y314047D01*
X155939Y312287D01*
X157287Y310939D01*
X159047Y310210D01*
X160953D01*
X162713Y310939D01*
X164061Y312287D01*
X164790Y314047D01*
Y315953D01*
X164061Y317713D01*
X162713Y319061D01*
X160953Y319790D01*
D02*
G37*
G36*
X198953Y311790D02*
X197047D01*
X195287Y311061D01*
X193939Y309713D01*
X193210Y307953D01*
Y306047D01*
X193939Y304287D01*
X195287Y302939D01*
X197047Y302210D01*
X198953D01*
X200713Y302939D01*
X202061Y304287D01*
X202790Y306047D01*
Y307953D01*
X202061Y309713D01*
X200713Y311061D01*
X198953Y311790D01*
D02*
G37*
G36*
X396953Y317290D02*
X395047D01*
X393287Y316561D01*
X391939Y315213D01*
X391210Y313453D01*
Y311547D01*
X391939Y309787D01*
X392476Y309250D01*
X391939Y308713D01*
X391210Y306953D01*
Y305047D01*
X391939Y303287D01*
X393287Y301939D01*
X395047Y301210D01*
X396953D01*
X398713Y301939D01*
X400061Y303287D01*
X400790Y305047D01*
Y306953D01*
X400061Y308713D01*
X399524Y309250D01*
X400061Y309787D01*
X400790Y311547D01*
Y313453D01*
X400061Y315213D01*
X398713Y316561D01*
X396953Y317290D01*
D02*
G37*
G36*
X123953Y306790D02*
X122047D01*
X120287Y306061D01*
X118939Y304713D01*
X118210Y302953D01*
Y301047D01*
X118939Y299287D01*
X120287Y297939D01*
X122047Y297210D01*
X123953D01*
X125713Y297939D01*
X127061Y299287D01*
X127790Y301047D01*
Y302953D01*
X127061Y304713D01*
X125713Y306061D01*
X123953Y306790D01*
D02*
G37*
G36*
X362700Y306790D02*
X360794D01*
X359033Y306061D01*
X357686Y304713D01*
X356957Y302953D01*
Y301047D01*
X357686Y299287D01*
X359033Y297939D01*
X360794Y297210D01*
X362700D01*
X364460Y297939D01*
X365807Y299287D01*
X366537Y301047D01*
Y302953D01*
X365807Y304713D01*
X364460Y306061D01*
X362700Y306790D01*
D02*
G37*
G36*
X1022453Y292290D02*
X1020547D01*
X1018787Y291561D01*
X1018250Y291024D01*
X1017713Y291561D01*
X1015953Y292290D01*
X1014047D01*
X1012287Y291561D01*
X1010939Y290213D01*
X1010210Y288453D01*
Y286547D01*
X1010939Y284787D01*
X1012287Y283439D01*
X1014047Y282710D01*
X1015953D01*
X1017713Y283439D01*
X1018250Y283976D01*
X1018787Y283439D01*
X1020547Y282710D01*
X1022453D01*
X1024213Y283439D01*
X1025561Y284787D01*
X1026290Y286547D01*
Y288453D01*
X1025561Y290213D01*
X1024213Y291561D01*
X1022453Y292290D01*
D02*
G37*
G36*
X372129Y298114D02*
X370223D01*
X368463Y297385D01*
X367115Y296037D01*
X366386Y294277D01*
Y292371D01*
X367115Y290611D01*
X368463Y289263D01*
X370223Y288534D01*
X372129D01*
X373889Y289263D01*
X375237Y290611D01*
X375966Y292371D01*
Y294277D01*
X375237Y296037D01*
X373889Y297385D01*
X372129Y298114D01*
D02*
G37*
G36*
X277953Y287790D02*
X276047D01*
X274287Y287061D01*
X272939Y285713D01*
X272210Y283953D01*
Y282047D01*
X272939Y280287D01*
X274287Y278939D01*
X276047Y278210D01*
X277953D01*
X279713Y278939D01*
X281061Y280287D01*
X281790Y282047D01*
Y283953D01*
X281061Y285713D01*
X279713Y287061D01*
X277953Y287790D01*
D02*
G37*
G36*
X265953D02*
X264047D01*
X262287Y287061D01*
X260939Y285713D01*
X260210Y283953D01*
Y282047D01*
X260939Y280287D01*
X262287Y278939D01*
X264047Y278210D01*
X265953D01*
X267713Y278939D01*
X269061Y280287D01*
X269790Y282047D01*
Y283953D01*
X269061Y285713D01*
X267713Y287061D01*
X265953Y287790D01*
D02*
G37*
G36*
X362953Y286790D02*
X361047D01*
X359287Y286061D01*
X357939Y284713D01*
X357210Y282953D01*
Y281047D01*
X357939Y279287D01*
X359287Y277939D01*
X361047Y277210D01*
X362953D01*
X364713Y277939D01*
X366061Y279287D01*
X366790Y281047D01*
Y282953D01*
X366061Y284713D01*
X364713Y286061D01*
X362953Y286790D01*
D02*
G37*
G36*
X478505Y279790D02*
X476599D01*
X474839Y279061D01*
X473491Y277713D01*
X472762Y275953D01*
Y274047D01*
X473491Y272287D01*
X474839Y270939D01*
X476599Y270210D01*
X478505D01*
X480265Y270939D01*
X481613Y272287D01*
X482342Y274047D01*
Y275953D01*
X481613Y277713D01*
X480265Y279061D01*
X478505Y279790D01*
D02*
G37*
G36*
X374953Y277790D02*
X373047D01*
X371287Y277061D01*
X369939Y275713D01*
X369210Y273953D01*
Y272047D01*
X369939Y270287D01*
X371287Y268939D01*
X373047Y268210D01*
X374953D01*
X376713Y268939D01*
X378061Y270287D01*
X378790Y272047D01*
Y273953D01*
X378061Y275713D01*
X376713Y277061D01*
X374953Y277790D01*
D02*
G37*
G36*
X1268203Y333807D02*
X1266298D01*
X1264537Y333078D01*
X1263190Y331731D01*
X1262460Y329970D01*
Y328065D01*
X1263190Y326304D01*
X1263712Y325782D01*
X1263161Y325231D01*
X1262431Y323470D01*
Y321565D01*
X1263161Y319804D01*
X1264503Y318463D01*
X1263960Y317153D01*
Y315247D01*
X1264689Y313487D01*
X1265226Y312950D01*
X1264689Y312413D01*
X1263960Y310653D01*
Y308747D01*
X1264689Y306987D01*
X1264954Y306722D01*
X1264167Y305934D01*
X1263438Y304174D01*
Y302268D01*
X1264167Y300508D01*
X1264715Y299959D01*
X1264190Y299434D01*
X1263461Y297674D01*
Y295768D01*
X1264190Y294008D01*
X1264861Y293337D01*
X1264463Y292940D01*
X1263734Y291180D01*
Y289274D01*
X1264463Y287514D01*
X1264987Y286990D01*
X1264437Y286440D01*
X1263708Y284680D01*
Y282774D01*
X1264231Y281510D01*
X1264180Y281489D01*
X1262832Y280141D01*
X1262103Y278381D01*
Y276475D01*
X1262832Y274715D01*
X1263361Y274186D01*
X1262817Y273641D01*
X1262087Y271881D01*
Y269975D01*
X1262817Y268215D01*
X1264164Y266867D01*
X1265925Y266138D01*
X1267830D01*
X1269591Y266867D01*
X1270938Y268215D01*
X1271667Y269975D01*
Y271881D01*
X1270938Y273641D01*
X1270409Y274170D01*
X1270954Y274715D01*
X1271683Y276475D01*
Y278381D01*
X1271159Y279645D01*
X1271211Y279666D01*
X1272558Y281014D01*
X1273288Y282774D01*
Y284680D01*
X1272558Y286440D01*
X1272035Y286964D01*
X1272585Y287514D01*
X1273314Y289274D01*
Y291180D01*
X1272585Y292940D01*
X1271915Y293610D01*
X1272312Y294008D01*
X1273041Y295768D01*
Y297674D01*
X1272312Y299434D01*
X1271763Y299983D01*
X1272288Y300508D01*
X1273018Y302268D01*
Y304174D01*
X1272288Y305934D01*
X1272023Y306199D01*
X1272811Y306987D01*
X1273540Y308747D01*
Y310653D01*
X1272811Y312413D01*
X1272274Y312950D01*
X1272811Y313487D01*
X1273540Y315247D01*
Y317153D01*
X1272811Y318913D01*
X1271469Y320255D01*
X1272011Y321565D01*
Y323470D01*
X1271282Y325231D01*
X1270760Y325753D01*
X1271311Y326304D01*
X1272040Y328065D01*
Y329970D01*
X1271311Y331731D01*
X1269964Y333078D01*
X1268203Y333807D01*
D02*
G37*
G36*
X38022Y282290D02*
X35378D01*
X32825Y281606D01*
X30535Y280284D01*
X28666Y278415D01*
X27344Y276125D01*
X26660Y273572D01*
Y270928D01*
X27344Y268375D01*
X28666Y266085D01*
X30535Y264216D01*
X32825Y262894D01*
X35378Y262210D01*
X38022D01*
X40575Y262894D01*
X42865Y264216D01*
X44734Y266085D01*
X46056Y268375D01*
X46740Y270928D01*
Y273572D01*
X46056Y276125D01*
X44734Y278415D01*
X42865Y280284D01*
X40575Y281606D01*
X38022Y282290D01*
D02*
G37*
G36*
X468453Y260290D02*
X466547D01*
X464787Y259561D01*
X463750Y258524D01*
X462713Y259561D01*
X460953Y260290D01*
X459047D01*
X457287Y259561D01*
X456250Y258524D01*
X455213Y259561D01*
X453453Y260290D01*
X451547D01*
X449787Y259561D01*
X448750Y258524D01*
X447713Y259561D01*
X445953Y260290D01*
X444047D01*
X442287Y259561D01*
X440939Y258213D01*
X440210Y256453D01*
Y254547D01*
X440939Y252787D01*
X442287Y251439D01*
X444047Y250710D01*
X445953D01*
X447713Y251439D01*
X448750Y252476D01*
X449787Y251439D01*
X451547Y250710D01*
X453453D01*
X455213Y251439D01*
X456250Y252476D01*
X457287Y251439D01*
X459047Y250710D01*
X460953D01*
X462713Y251439D01*
X463750Y252476D01*
X464787Y251439D01*
X466547Y250710D01*
X468453D01*
X470213Y251439D01*
X471561Y252787D01*
X472290Y254547D01*
Y256453D01*
X471561Y258213D01*
X470213Y259561D01*
X468453Y260290D01*
D02*
G37*
G36*
X1231953Y255790D02*
X1230047D01*
X1228287Y255061D01*
X1226939Y253713D01*
X1226210Y251953D01*
Y250047D01*
X1226939Y248287D01*
X1227476Y247750D01*
X1226939Y247213D01*
X1226210Y245453D01*
Y243547D01*
X1226939Y241787D01*
X1228287Y240439D01*
X1230047Y239710D01*
X1231953D01*
X1233713Y240439D01*
X1235061Y241787D01*
X1235790Y243547D01*
Y245453D01*
X1235061Y247213D01*
X1234524Y247750D01*
X1235061Y248287D01*
X1235790Y250047D01*
Y251953D01*
X1235061Y253713D01*
X1233713Y255061D01*
X1231953Y255790D01*
D02*
G37*
G36*
X501953Y245790D02*
X500047D01*
X498287Y245061D01*
X496939Y243713D01*
X496210Y241953D01*
Y240047D01*
X496939Y238287D01*
X498287Y236939D01*
X500047Y236210D01*
X501953D01*
X503713Y236939D01*
X505061Y238287D01*
X505790Y240047D01*
Y241953D01*
X505061Y243713D01*
X503713Y245061D01*
X501953Y245790D01*
D02*
G37*
G36*
X540953Y241790D02*
X539047D01*
X537287Y241061D01*
X535939Y239713D01*
X535210Y237953D01*
Y236047D01*
X535939Y234287D01*
X537287Y232939D01*
X539047Y232210D01*
X540953D01*
X542713Y232939D01*
X544061Y234287D01*
X544790Y236047D01*
Y237953D01*
X544061Y239713D01*
X542713Y241061D01*
X540953Y241790D01*
D02*
G37*
G36*
X528953Y232790D02*
X527047D01*
X525287Y232061D01*
X523939Y230713D01*
X523210Y228953D01*
Y227047D01*
X523939Y225287D01*
X525287Y223939D01*
X527047Y223210D01*
X528953D01*
X530713Y223939D01*
X532061Y225287D01*
X532790Y227047D01*
Y228953D01*
X532061Y230713D01*
X530713Y232061D01*
X528953Y232790D01*
D02*
G37*
G36*
X217703Y226790D02*
X215797D01*
X214037Y226061D01*
X212689Y224713D01*
X211960Y222953D01*
Y221047D01*
X212689Y219287D01*
X213226Y218750D01*
X212689Y218213D01*
X211960Y216453D01*
Y214547D01*
X212689Y212787D01*
X214037Y211439D01*
X215797Y210710D01*
X217703D01*
X219463Y211439D01*
X220811Y212787D01*
X221540Y214547D01*
Y216453D01*
X220811Y218213D01*
X220274Y218750D01*
X220811Y219287D01*
X221540Y221047D01*
Y222953D01*
X220811Y224713D01*
X219463Y226061D01*
X217703Y226790D01*
D02*
G37*
G36*
X445953Y189790D02*
X444047D01*
X442287Y189061D01*
X440939Y187713D01*
X440687Y187105D01*
X439313D01*
X439061Y187713D01*
X437713Y189061D01*
X435953Y189790D01*
X434047D01*
X432287Y189061D01*
X430939Y187713D01*
X430210Y185953D01*
Y184047D01*
X430939Y182287D01*
X432287Y180939D01*
X432895Y180687D01*
Y179313D01*
X432287Y179061D01*
X430939Y177713D01*
X430210Y175953D01*
Y174047D01*
X430939Y172287D01*
X432287Y170939D01*
X432895Y170687D01*
Y169313D01*
X432287Y169061D01*
X430939Y167713D01*
X430210Y165953D01*
Y164047D01*
X430939Y162287D01*
X432287Y160939D01*
X432895Y160687D01*
Y159313D01*
X432287Y159061D01*
X430939Y157713D01*
X430210Y155953D01*
Y154047D01*
X430939Y152287D01*
X432287Y150939D01*
X432895Y150687D01*
Y149313D01*
X432287Y149061D01*
X430939Y147713D01*
X430210Y145953D01*
Y144047D01*
X430939Y142287D01*
X432287Y140939D01*
X432895Y140687D01*
Y139313D01*
X432287Y139061D01*
X430939Y137713D01*
X430210Y135953D01*
Y134047D01*
X430939Y132287D01*
X432287Y130939D01*
X432895Y130687D01*
Y129313D01*
X432287Y129061D01*
X430939Y127713D01*
X430210Y125953D01*
Y124047D01*
X430939Y122287D01*
X432287Y120939D01*
X432895Y120687D01*
Y119313D01*
X432287Y119061D01*
X430939Y117713D01*
X430210Y115953D01*
Y114047D01*
X430939Y112287D01*
X432287Y110939D01*
X432895Y110687D01*
Y109313D01*
X432287Y109061D01*
X430939Y107713D01*
X430210Y105953D01*
Y104047D01*
X430939Y102287D01*
X432287Y100939D01*
X434047Y100210D01*
X435953D01*
X437713Y100939D01*
X439061Y102287D01*
X439313Y102895D01*
X440687D01*
X440939Y102287D01*
X442287Y100939D01*
X444047Y100210D01*
X445953D01*
X447713Y100939D01*
X449061Y102287D01*
X449790Y104047D01*
Y105953D01*
X449061Y107713D01*
X447713Y109061D01*
X447105Y109313D01*
Y110687D01*
X447713Y110939D01*
X449061Y112287D01*
X449790Y114047D01*
Y115953D01*
X449061Y117713D01*
X447713Y119061D01*
X447105Y119313D01*
Y120687D01*
X447713Y120939D01*
X449061Y122287D01*
X449790Y124047D01*
Y125953D01*
X449061Y127713D01*
X447713Y129061D01*
X447105Y129313D01*
Y130687D01*
X447713Y130939D01*
X449061Y132287D01*
X449790Y134047D01*
Y135953D01*
X449061Y137713D01*
X447713Y139061D01*
X447105Y139313D01*
Y140687D01*
X447713Y140939D01*
X449061Y142287D01*
X449790Y144047D01*
Y145953D01*
X449061Y147713D01*
X447713Y149061D01*
X447105Y149313D01*
Y150687D01*
X447713Y150939D01*
X449061Y152287D01*
X449790Y154047D01*
Y155953D01*
X449061Y157713D01*
X447713Y159061D01*
X447105Y159313D01*
Y160687D01*
X447713Y160939D01*
X449061Y162287D01*
X449790Y164047D01*
Y165953D01*
X449061Y167713D01*
X447713Y169061D01*
X447105Y169313D01*
Y170687D01*
X447713Y170939D01*
X449061Y172287D01*
X449790Y174047D01*
Y175953D01*
X449061Y177713D01*
X447713Y179061D01*
X447105Y179313D01*
Y180687D01*
X447713Y180939D01*
X449061Y182287D01*
X449790Y184047D01*
Y185953D01*
X449061Y187713D01*
X447713Y189061D01*
X445953Y189790D01*
D02*
G37*
G36*
X493453Y209290D02*
X491547D01*
X489787Y208561D01*
X488439Y207213D01*
X487710Y205453D01*
Y203547D01*
X488439Y201787D01*
X489787Y200439D01*
X490395Y200187D01*
Y198813D01*
X489787Y198561D01*
X488439Y197213D01*
X487710Y195453D01*
Y193547D01*
X488439Y191787D01*
X489476Y190750D01*
X488439Y189713D01*
X487710Y187953D01*
Y186047D01*
X488439Y184287D01*
X489787Y182939D01*
X491547Y182210D01*
X493453D01*
X495213Y182939D01*
X496250Y183976D01*
X497287Y182939D01*
X499047Y182210D01*
X500953D01*
X502713Y182939D01*
X504061Y184287D01*
X504790Y186047D01*
Y187953D01*
X504061Y189713D01*
X503024Y190750D01*
X504061Y191787D01*
X504790Y193547D01*
Y195453D01*
X504061Y197213D01*
X502713Y198561D01*
X500953Y199290D01*
X499047D01*
X497287Y198561D01*
X496250Y197524D01*
X495213Y198561D01*
X494605Y198813D01*
Y200187D01*
X495213Y200439D01*
X496561Y201787D01*
X497290Y203547D01*
Y205453D01*
X496561Y207213D01*
X495213Y208561D01*
X493453Y209290D01*
D02*
G37*
G36*
X47269Y201665D02*
X44131D01*
X41101Y200853D01*
X38384Y199284D01*
X36166Y197066D01*
X34597Y194349D01*
X33785Y191319D01*
Y188181D01*
X34597Y185151D01*
X36166Y182434D01*
X38384Y180216D01*
X41101Y178647D01*
X44131Y177835D01*
X47269D01*
X50299Y178647D01*
X53016Y180216D01*
X55234Y182434D01*
X56803Y185151D01*
X57615Y188181D01*
Y191319D01*
X56803Y194349D01*
X55234Y197066D01*
X53016Y199284D01*
X50299Y200853D01*
X47269Y201665D01*
D02*
G37*
G36*
X1224953Y190790D02*
X1223047D01*
X1221287Y190061D01*
X1219939Y188713D01*
X1219210Y186953D01*
Y185047D01*
X1219939Y183287D01*
X1220476Y182750D01*
X1219939Y182213D01*
X1219210Y180453D01*
Y178547D01*
X1219939Y176787D01*
X1221287Y175439D01*
X1223047Y174710D01*
X1224953D01*
X1226713Y175439D01*
X1228061Y176787D01*
X1228790Y178547D01*
Y180453D01*
X1228061Y182213D01*
X1227524Y182750D01*
X1228061Y183287D01*
X1228790Y185047D01*
Y186953D01*
X1228061Y188713D01*
X1226713Y190061D01*
X1224953Y190790D01*
D02*
G37*
G36*
X115013Y205115D02*
X111987D01*
X109018Y204524D01*
X106222Y203366D01*
X103705Y201685D01*
X101565Y199545D01*
X99884Y197028D01*
X98726Y194232D01*
X98135Y191263D01*
Y188237D01*
X98726Y185268D01*
X99884Y182472D01*
X101565Y179955D01*
X103705Y177815D01*
X106222Y176134D01*
X109018Y174975D01*
X111987Y174385D01*
X115013D01*
X117982Y174975D01*
X120778Y176134D01*
X123295Y177815D01*
X125435Y179955D01*
X127116Y182472D01*
X128275Y185268D01*
X128865Y188237D01*
Y191263D01*
X128275Y194232D01*
X127116Y197028D01*
X125435Y199545D01*
X123295Y201685D01*
X120778Y203366D01*
X117982Y204524D01*
X115013Y205115D01*
D02*
G37*
G36*
X583625Y209790D02*
X579875D01*
X576196Y209058D01*
X572731Y207623D01*
X569613Y205539D01*
X566961Y202887D01*
X564877Y199769D01*
X563442Y196304D01*
X562710Y192625D01*
Y188875D01*
X563442Y185196D01*
X564877Y181731D01*
X566961Y178613D01*
X569613Y175961D01*
X572731Y173877D01*
X576196Y172442D01*
X579875Y171710D01*
X583625D01*
X587304Y172442D01*
X590769Y173877D01*
X593887Y175961D01*
X596539Y178613D01*
X598623Y181731D01*
X600058Y185196D01*
X600790Y188875D01*
Y192625D01*
X600058Y196304D01*
X598623Y199769D01*
X596539Y202887D01*
X593887Y205539D01*
X590769Y207623D01*
X587304Y209058D01*
X583625Y209790D01*
D02*
G37*
G36*
X1290125Y209790D02*
X1286375D01*
X1282696Y209058D01*
X1279231Y207623D01*
X1276113Y205539D01*
X1273461Y202887D01*
X1271377Y199769D01*
X1269942Y196304D01*
X1269210Y192625D01*
Y188875D01*
X1269942Y185196D01*
X1271377Y181731D01*
X1273461Y178613D01*
X1276113Y175961D01*
X1279231Y173877D01*
X1282696Y172442D01*
X1286375Y171710D01*
X1290125D01*
X1293804Y172442D01*
X1297269Y173877D01*
X1300387Y175961D01*
X1303039Y178613D01*
X1305123Y181731D01*
X1306558Y185196D01*
X1307290Y188875D01*
Y192625D01*
X1306558Y196304D01*
X1305123Y199769D01*
X1303039Y202887D01*
X1300387Y205539D01*
X1297269Y207623D01*
X1293804Y209058D01*
X1290125Y209790D01*
D02*
G37*
G36*
X1268453Y167818D02*
X1266547D01*
X1264787Y167089D01*
X1263439Y165741D01*
X1262710Y163981D01*
Y162075D01*
X1263439Y160315D01*
X1263976Y159778D01*
X1263439Y159241D01*
X1262710Y157481D01*
Y155575D01*
X1263439Y153815D01*
X1264787Y152467D01*
X1266547Y151738D01*
X1268453D01*
X1270213Y152467D01*
X1271561Y153815D01*
X1272290Y155575D01*
Y157481D01*
X1271561Y159241D01*
X1271024Y159778D01*
X1271561Y160315D01*
X1272290Y162075D01*
Y163981D01*
X1271561Y165741D01*
X1270213Y167089D01*
X1268453Y167818D01*
D02*
G37*
G36*
X529953Y125790D02*
X528047D01*
X526287Y125061D01*
X524939Y123713D01*
X524210Y121953D01*
Y120047D01*
X524939Y118287D01*
X526287Y116939D01*
X528047Y116210D01*
X529953D01*
X531713Y116939D01*
X533061Y118287D01*
X533790Y120047D01*
Y121953D01*
X533061Y123713D01*
X531713Y125061D01*
X529953Y125790D01*
D02*
G37*
G36*
X750953Y109790D02*
X749047D01*
X747287Y109061D01*
X746301Y108075D01*
X613699D01*
X612713Y109061D01*
X610953Y109790D01*
X609047D01*
X607287Y109061D01*
X606301Y108075D01*
X466250D01*
X465073Y107841D01*
X464076Y107174D01*
X464076Y107174D01*
X456941Y100040D01*
X455547D01*
X453787Y99311D01*
X452439Y97963D01*
X451710Y96203D01*
Y94297D01*
X452439Y92537D01*
X453787Y91189D01*
X455547Y90460D01*
X457453D01*
X459213Y91189D01*
X460561Y92537D01*
X461290Y94297D01*
Y95691D01*
X467524Y101925D01*
X485491D01*
X485978Y100752D01*
X485939Y100713D01*
X485210Y98953D01*
Y97047D01*
X485939Y95287D01*
X486726Y94500D01*
X485939Y93713D01*
X485210Y91953D01*
Y90047D01*
X485939Y88287D01*
X486726Y87500D01*
X485939Y86713D01*
X485210Y84953D01*
Y83047D01*
X485939Y81287D01*
X486726Y80500D01*
X485939Y79713D01*
X485210Y77953D01*
Y76047D01*
X485939Y74287D01*
X487287Y72939D01*
X489047Y72210D01*
X490953D01*
X492713Y72939D01*
X494061Y74287D01*
X494790Y76047D01*
Y77953D01*
X494061Y79713D01*
X493274Y80500D01*
X494061Y81287D01*
X494790Y83047D01*
Y84953D01*
X494061Y86713D01*
X493274Y87500D01*
X494061Y88287D01*
X494790Y90047D01*
Y91953D01*
X494061Y93713D01*
X493274Y94500D01*
X494061Y95287D01*
X494790Y97047D01*
Y98953D01*
X494061Y100713D01*
X494022Y100752D01*
X494509Y101925D01*
X606301D01*
X607287Y100939D01*
X609047Y100210D01*
X610953D01*
X612713Y100939D01*
X613699Y101925D01*
X746301D01*
X747287Y100939D01*
X749047Y100210D01*
X750953D01*
X752713Y100939D01*
X754061Y102287D01*
X754790Y104047D01*
Y105953D01*
X754061Y107713D01*
X752713Y109061D01*
X750953Y109790D01*
D02*
G37*
G36*
X440953Y72790D02*
X439047D01*
X437287Y72061D01*
X435939Y70713D01*
X435687Y70105D01*
X434313D01*
X434061Y70713D01*
X432713Y72061D01*
X430953Y72790D01*
X429047D01*
X427287Y72061D01*
X425939Y70713D01*
X425210Y68953D01*
Y67047D01*
X425939Y65287D01*
X426226Y65000D01*
X425939Y64713D01*
X425210Y62953D01*
Y61047D01*
X425939Y59287D01*
X427287Y57939D01*
X429047Y57210D01*
X430953D01*
X432713Y57939D01*
X434061Y59287D01*
X434313Y59895D01*
X435687D01*
X435939Y59287D01*
X437287Y57939D01*
X439047Y57210D01*
X440953D01*
X442713Y57939D01*
X444061Y59287D01*
X444790Y61047D01*
Y62953D01*
X444061Y64713D01*
X443774Y65000D01*
X444061Y65287D01*
X444790Y67047D01*
Y68953D01*
X444061Y70713D01*
X442713Y72061D01*
X440953Y72790D01*
D02*
G37*
G36*
X500953Y65790D02*
X499047D01*
X497287Y65061D01*
X495939Y63713D01*
X495210Y61953D01*
Y60047D01*
X495939Y58287D01*
X497287Y56939D01*
X499047Y56210D01*
X500953D01*
X502713Y56939D01*
X504061Y58287D01*
X504790Y60047D01*
Y61953D01*
X504061Y63713D01*
X502713Y65061D01*
X500953Y65790D01*
D02*
G37*
%LPD*%
G36*
X574009Y402009D02*
X574922Y401398D01*
X576000Y401184D01*
X608834D01*
X619423Y390595D01*
X620336Y389984D01*
X620494Y389953D01*
X621078Y388542D01*
X620927Y388316D01*
X617514D01*
X611943Y393887D01*
X611029Y394498D01*
X609951Y394712D01*
X572271D01*
X561885Y405098D01*
X560971Y405708D01*
X559893Y405923D01*
X559915Y407184D01*
X568834D01*
X574009Y402009D01*
D02*
G37*
G36*
X1502184Y524405D02*
Y514166D01*
X1409834Y421816D01*
X719958D01*
X718713Y423061D01*
X717388Y423610D01*
X716946Y424963D01*
X726167Y434184D01*
X823114D01*
X823640Y432914D01*
X823439Y432713D01*
X822710Y430953D01*
Y429047D01*
X823439Y427287D01*
X824787Y425939D01*
X826547Y425210D01*
X828453D01*
X830213Y425939D01*
X831561Y427287D01*
X832290Y429047D01*
Y430953D01*
X833463Y431313D01*
X1292440D01*
Y429531D01*
X1293169Y427771D01*
X1294516Y426423D01*
X1296277Y425694D01*
X1298183D01*
X1299943Y426423D01*
X1301291Y427771D01*
X1302020Y429531D01*
Y431437D01*
X1301408Y432914D01*
X1301963Y434184D01*
X1409000D01*
X1410078Y434398D01*
X1410991Y435009D01*
X1500914Y524931D01*
X1502184Y524405D01*
D02*
G37*
G36*
X629492Y340008D02*
X628713Y339061D01*
X626953Y339790D01*
X625047D01*
X623287Y339061D01*
X621939Y337713D01*
X621210Y335953D01*
Y334047D01*
X621939Y332287D01*
X623287Y330939D01*
X625047Y330210D01*
X626953D01*
X628713Y330939D01*
X630061Y332287D01*
X630790Y334047D01*
Y335953D01*
X630061Y337713D01*
X631008Y338492D01*
X635000Y334500D01*
X965000D01*
Y300500D01*
X956000D01*
X922500Y267000D01*
X689500D01*
X660000Y237500D01*
X582500D01*
X565000Y255000D01*
X565000Y309500D01*
X574973Y319473D01*
X576030Y318416D01*
X577791Y317687D01*
X579696D01*
X581457Y318416D01*
X582804Y319763D01*
X583534Y321524D01*
Y323429D01*
X582804Y325190D01*
X581747Y326247D01*
X588750Y333250D01*
Y357000D01*
X597226D01*
X597287Y356939D01*
X599047Y356210D01*
X600953D01*
X602713Y356939D01*
X602774Y357000D01*
X612500D01*
X629492Y340008D01*
D02*
G37*
%LPC*%
G36*
X605162Y345695D02*
X603256D01*
X601496Y344966D01*
X600148Y343619D01*
X599419Y341858D01*
Y339953D01*
X599310Y339790D01*
X599047D01*
X597287Y339061D01*
X595939Y337713D01*
X595210Y335953D01*
Y334047D01*
X595939Y332287D01*
X597287Y330939D01*
X599047Y330210D01*
X600953D01*
X602713Y330939D01*
X604061Y332287D01*
X604790Y334047D01*
Y335953D01*
X605960Y336446D01*
X606922Y336845D01*
X608270Y338192D01*
X608999Y339953D01*
Y341858D01*
X608270Y343619D01*
X606922Y344966D01*
X605162Y345695D01*
D02*
G37*
G36*
X603453Y324790D02*
X601547D01*
X599787Y324061D01*
X598439Y322713D01*
X597710Y320953D01*
Y319047D01*
X598439Y317287D01*
X599787Y315939D01*
X601547Y315210D01*
X603453D01*
X605213Y315939D01*
X606561Y317287D01*
X607290Y319047D01*
Y320953D01*
X606561Y322713D01*
X605213Y324061D01*
X603453Y324790D01*
D02*
G37*
G36*
X626953Y320790D02*
X625047D01*
X623287Y320061D01*
X621939Y318713D01*
X621210Y316953D01*
Y315047D01*
X621939Y313287D01*
X623287Y311939D01*
X625047Y311210D01*
X626953D01*
X628713Y311939D01*
X630061Y313287D01*
X630790Y315047D01*
Y316953D01*
X630061Y318713D01*
X628713Y320061D01*
X626953Y320790D01*
D02*
G37*
G36*
X579672Y308371D02*
X577766D01*
X576006Y307642D01*
X574658Y306294D01*
X573929Y304534D01*
Y302628D01*
X574658Y300868D01*
X576006Y299520D01*
X577766Y298791D01*
X579672D01*
X581432Y299520D01*
X582780Y300868D01*
X583509Y302628D01*
Y304534D01*
X582780Y306294D01*
X581432Y307642D01*
X579672Y308371D01*
D02*
G37*
G36*
X603453Y304790D02*
X601547D01*
X599787Y304061D01*
X598439Y302713D01*
X597710Y300953D01*
Y299047D01*
X598439Y297287D01*
X599787Y295939D01*
X601547Y295210D01*
X603453D01*
X605213Y295939D01*
X606561Y297287D01*
X607290Y299047D01*
Y300953D01*
X606561Y302713D01*
X605213Y304061D01*
X603453Y304790D01*
D02*
G37*
G36*
X626953Y301790D02*
X625047D01*
X623287Y301061D01*
X621939Y299713D01*
X621210Y297953D01*
Y296047D01*
X621939Y294287D01*
X623287Y292939D01*
X625047Y292210D01*
X626953D01*
X628713Y292939D01*
X630061Y294287D01*
X630790Y296047D01*
Y297953D01*
X630061Y299713D01*
X628713Y301061D01*
X626953Y301790D01*
D02*
G37*
G36*
X579920Y289290D02*
X578015D01*
X576254Y288561D01*
X574907Y287213D01*
X574178Y285453D01*
Y283547D01*
X574907Y281787D01*
X576254Y280439D01*
X578015Y279710D01*
X579920D01*
X581681Y280439D01*
X583028Y281787D01*
X583758Y283547D01*
Y285453D01*
X583028Y287213D01*
X581681Y288561D01*
X579920Y289290D01*
D02*
G37*
G36*
X603164Y286036D02*
X601259D01*
X599498Y285307D01*
X598151Y283959D01*
X597422Y282199D01*
Y280293D01*
X598151Y278533D01*
X599498Y277185D01*
X601259Y276456D01*
X603164D01*
X604925Y277185D01*
X606273Y278533D01*
X607002Y280293D01*
Y282199D01*
X606273Y283959D01*
X604925Y285307D01*
X603164Y286036D01*
D02*
G37*
G36*
X626953Y282790D02*
X625047D01*
X623287Y282061D01*
X621939Y280713D01*
X621210Y278953D01*
Y277047D01*
X621939Y275287D01*
X623287Y273939D01*
X625047Y273210D01*
X626953D01*
X628713Y273939D01*
X630061Y275287D01*
X630790Y277047D01*
Y278953D01*
X630061Y280713D01*
X628713Y282061D01*
X626953Y282790D01*
D02*
G37*
G36*
X658953Y276540D02*
X657047D01*
X655287Y275811D01*
X653939Y274463D01*
X653210Y272703D01*
Y270797D01*
X653939Y269037D01*
X655287Y267689D01*
X657047Y266960D01*
X658953D01*
X660713Y267689D01*
X662061Y269037D01*
X662790Y270797D01*
Y272703D01*
X662061Y274463D01*
X660713Y275811D01*
X658953Y276540D01*
D02*
G37*
G36*
X594953Y270790D02*
X593047D01*
X591287Y270061D01*
X589939Y268713D01*
X589210Y266953D01*
Y265047D01*
X589939Y263287D01*
X591287Y261939D01*
X593047Y261210D01*
X593760D01*
X593845Y261168D01*
X594679Y259940D01*
X594340Y258676D01*
Y256624D01*
X594871Y254643D01*
X595896Y252867D01*
X597347Y251416D01*
X599123Y250391D01*
X601104Y249860D01*
X603156D01*
X605137Y250391D01*
X606913Y251416D01*
X608363Y252867D01*
X609389Y254643D01*
X609920Y256624D01*
Y258676D01*
X609389Y260657D01*
X608363Y262433D01*
X606913Y263883D01*
X605137Y264909D01*
X603156Y265440D01*
X601104D01*
X600060Y265160D01*
X598790Y266132D01*
Y266953D01*
X598061Y268713D01*
X596713Y270061D01*
X594953Y270790D01*
D02*
G37*
%LPD*%
D102*
X1572174Y407174D02*
X1590484D01*
X1542910Y385000D02*
X1590484Y432574D01*
X605000Y493500D02*
X662723D01*
X706495Y537272D01*
X741000Y596000D02*
Y772000D01*
X620000Y546000D02*
X691000D01*
X741000Y596000D01*
X748000Y595500D02*
Y820000D01*
X620000Y541000D02*
X693500D01*
X748000Y595500D01*
X621000Y536000D02*
X696000D01*
X755425Y595425D02*
Y863162D01*
X696000Y536000D02*
X755425Y595425D01*
X568000Y483000D02*
X621000Y536000D01*
X563000Y484000D02*
X620000Y541000D01*
X558000Y484000D02*
X620000Y546000D01*
X605000Y500000D02*
X639000D01*
X1409000Y437000D02*
X1500000Y528000D01*
Y564000D02*
X1512000Y576000D01*
X1500000Y528000D02*
Y564000D01*
X1505000Y559000D02*
X1512000Y566000D01*
X1411000Y419000D02*
X1505000Y513000D01*
Y559000D01*
X716000Y419000D02*
X1411000D01*
X1494000Y527000D02*
Y575000D01*
X717814Y440000D02*
X1407000D01*
X1494000Y527000D01*
X725000Y437000D02*
X1409000D01*
X691000Y413186D02*
X717814Y440000D01*
X634552Y418448D02*
Y436177D01*
X634495Y436234D02*
X634552Y436177D01*
Y418448D02*
X699000Y354000D01*
X623000Y421000D02*
Y445000D01*
Y421000D02*
X695000Y349000D01*
X609656Y458344D02*
X623000Y445000D01*
X619000Y419000D02*
Y442000D01*
X570000Y410000D02*
X576000Y404000D01*
X610000D01*
X621414Y392586D01*
X604693Y458255D02*
X604782Y458344D01*
X609656D01*
X521000Y561000D02*
X556000D01*
X568000Y445158D02*
X578495Y434663D01*
Y434423D02*
Y434663D01*
X558000Y438000D02*
Y484000D01*
X563000Y443000D02*
Y484000D01*
X568000Y445158D02*
Y483000D01*
X558000Y438000D02*
X566000Y430000D01*
X563000Y443000D02*
X571653Y434347D01*
Y433653D02*
Y434347D01*
X292000Y433000D02*
X301069Y423931D01*
X604705D01*
X705000Y863000D02*
X748000Y820000D01*
X250893Y403107D02*
X559893D01*
X571104Y391896D02*
X609951D01*
X559893Y403107D02*
X571104Y391896D01*
X609951D02*
X616347Y385500D01*
X390000Y410000D02*
X570000D01*
X616347Y385500D02*
X626000D01*
X228448Y425552D02*
X250893Y403107D01*
X234000Y428000D02*
X252000Y410000D01*
X390000D01*
X429296Y417477D02*
X605452D01*
X621414Y392586D02*
X626586D01*
X698000Y378000D02*
X1543000D01*
X730000Y392000D02*
X1442000D01*
X719000Y414000D02*
X1414000D01*
X1511000Y511000D01*
X707000Y402000D02*
X719000Y414000D01*
X695000Y407000D02*
X725000Y437000D01*
X699000Y354000D02*
X1526000D01*
X694000Y344000D02*
X1482800D01*
X695000Y349000D02*
X1491000D01*
X1578300Y261700D01*
X619000Y419000D02*
X694000Y344000D01*
X1482800D02*
X1590500Y236300D01*
X1526000Y354000D02*
X1576450Y303550D01*
X358000Y569000D02*
X560000D01*
X355000Y566000D02*
X358000Y569000D01*
X355000Y562552D02*
Y566000D01*
X508257Y548257D02*
X521000Y561000D01*
X271257Y548257D02*
X508257D01*
X252000Y529000D02*
X271257Y548257D01*
X82500Y547500D02*
X89000Y541000D01*
X220619D01*
X222619Y543000D02*
X223000D01*
X220619Y541000D02*
X222619Y543000D01*
X92000Y567000D02*
X216852D01*
X243000Y540852D01*
X79000Y580000D02*
X92000Y567000D01*
X1511000Y511000D02*
Y550000D01*
X1494000Y575000D02*
X1511000Y592000D01*
X252000Y520000D02*
X537195D01*
X243000Y529000D02*
X252000Y520000D01*
X537195D02*
X540195Y523000D01*
X541000D01*
X541045Y514288D02*
X550210Y523453D01*
X247479Y514288D02*
X541045D01*
X1543000Y378000D02*
X1572174Y407174D01*
X699000Y385000D02*
X1542910D01*
X234000Y428000D02*
Y470000D01*
X228448Y425552D02*
Y481372D01*
X228628Y481552D01*
Y537372D01*
X223000Y543000D02*
X228628Y537372D01*
X207000Y483000D02*
Y519000D01*
X221000Y533000D01*
X199000Y475000D02*
X207000Y483000D01*
X256448Y417552D02*
X429221D01*
X241552Y432448D02*
X256448Y417552D01*
X241552Y432448D02*
Y433000D01*
X642000Y425000D02*
X642552Y424448D01*
X684448D01*
X763000Y503000D01*
Y821000D02*
X805000Y863000D01*
X763000Y503000D02*
Y821000D01*
X429221Y417552D02*
X429296Y417477D01*
X243000Y529000D02*
Y540852D01*
X605452Y417477D02*
X605453Y417478D01*
X605265Y451302D02*
X605367Y451199D01*
X609801D01*
X619000Y442000D01*
X604705Y423931D02*
X604709Y423935D01*
X805000Y863000D02*
X810000D01*
X699000D02*
X705000D01*
X644000D02*
X650000D01*
X741000Y772000D01*
X1538300Y488300D02*
Y630000D01*
X1442000Y392000D02*
X1538300Y488300D01*
X1578300Y261700D02*
X1590500D01*
X1576450Y303550D02*
X1590500D01*
D103*
X809000Y829000D02*
X839000Y859000D01*
X809000Y631000D02*
Y829000D01*
X466250Y105000D02*
X750000D01*
X456500Y95250D02*
X466250Y105000D01*
X839000Y859000D02*
X845000D01*
D104*
X1293714Y434000D02*
X1297230Y430484D01*
X831500Y434000D02*
X1293714D01*
X827500Y430000D02*
X831500Y434000D01*
D108*
X1590484Y407174D02*
D03*
Y432574D02*
D03*
X1590500Y236300D02*
D03*
Y261700D02*
D03*
Y303550D02*
D03*
Y328950D02*
D03*
X27500Y755200D02*
D03*
Y729800D02*
D03*
D109*
X1538300Y630000D02*
D03*
X1563700D02*
D03*
D110*
X113500Y189750D02*
D03*
Y354750D02*
D03*
D111*
X36700Y272250D02*
D03*
D112*
X45700Y189750D02*
D03*
Y354750D02*
D03*
D113*
X1570980Y844140D02*
D03*
X1486980D02*
D03*
D114*
X1570980Y729140D02*
D03*
X1528980D02*
D03*
X1486980D02*
D03*
X1570980Y771140D02*
D03*
X1528980D02*
D03*
X1486980D02*
D03*
X1371500Y788060D02*
D03*
Y835060D02*
D03*
D115*
X1280950Y660350D02*
D03*
X1268250Y257650D02*
D03*
X602130Y257650D02*
D03*
X614830Y660350D02*
D03*
D116*
X1288250Y727250D02*
D03*
X581750Y190750D02*
D03*
Y727250D02*
D03*
X1288250Y190750D02*
D03*
D117*
X1371500Y882060D02*
D03*
D118*
X612889Y61000D02*
D03*
X359000Y530000D02*
D03*
X540000Y554580D02*
D03*
X532000D02*
D03*
X532250Y536580D02*
D03*
X540000D02*
D03*
X392473Y838615D02*
D03*
X1550000Y403500D02*
D03*
X1172500Y170000D02*
D03*
X1122500D02*
D03*
X1070000D02*
D03*
X1022500D02*
D03*
X972500D02*
D03*
X395000Y195000D02*
D03*
X435000D02*
D03*
X530000Y192500D02*
D03*
X555000Y187500D02*
D03*
X560000Y177500D02*
D03*
X605000D02*
D03*
X615000Y195000D02*
D03*
X852500Y240000D02*
D03*
X892500D02*
D03*
X1055000Y455000D02*
D03*
X1205000Y605000D02*
D03*
X1177500Y575000D02*
D03*
X1130000Y527500D02*
D03*
X1082500Y480000D02*
D03*
X37500Y797500D02*
D03*
Y857500D02*
D03*
X97500Y887500D02*
D03*
X37500D02*
D03*
X327500Y757500D02*
D03*
X272500D02*
D03*
X197500D02*
D03*
X275000Y680000D02*
D03*
X560000Y597500D02*
D03*
X527500D02*
D03*
X497500D02*
D03*
X447500D02*
D03*
X422500Y560000D02*
D03*
X472500D02*
D03*
Y542500D02*
D03*
X417500Y530000D02*
D03*
X525000D02*
D03*
X520000Y500000D02*
D03*
X500000D02*
D03*
Y480000D02*
D03*
X440000Y450000D02*
D03*
X470000D02*
D03*
X427000Y380000D02*
D03*
X100000D02*
D03*
X72270Y405000D02*
D03*
X45000D02*
D03*
Y380000D02*
D03*
X150000Y445000D02*
D03*
X180000D02*
D03*
Y420000D02*
D03*
X305000Y365000D02*
D03*
X345000Y350000D02*
D03*
X400000Y292500D02*
D03*
X430000Y265000D02*
D03*
X522500Y435000D02*
D03*
X900000Y590000D02*
D03*
X722270Y690000D02*
D03*
X622270D02*
D03*
X647270Y729630D02*
D03*
X772270Y690000D02*
D03*
X672270D02*
D03*
X1122500Y370000D02*
D03*
X1092500D02*
D03*
X1062500D02*
D03*
X1149500Y370500D02*
D03*
X1179500D02*
D03*
X1209500D02*
D03*
X1149500Y403000D02*
D03*
X1179500D02*
D03*
X1209500D02*
D03*
X1210000Y427500D02*
D03*
X1180000D02*
D03*
X1150000D02*
D03*
X1123000Y427000D02*
D03*
X1102500Y400000D02*
D03*
X1005000Y402500D02*
D03*
X1027500Y427500D02*
D03*
X1197500Y202500D02*
D03*
X1247500D02*
D03*
X1172500Y147500D02*
D03*
X1222500D02*
D03*
Y120000D02*
D03*
X1172500D02*
D03*
X1122500Y147500D02*
D03*
Y120000D02*
D03*
X1070000D02*
D03*
X1022500D02*
D03*
X972500D02*
D03*
X1147500Y192500D02*
D03*
X1070000D02*
D03*
X1022500Y195000D02*
D03*
X972500D02*
D03*
X922500Y147500D02*
D03*
X1070000D02*
D03*
X1022500D02*
D03*
X972500D02*
D03*
X875000D02*
D03*
X760000Y150000D02*
D03*
X790000Y175000D02*
D03*
X682500Y212500D02*
D03*
X667500Y197500D02*
D03*
X652500Y182500D02*
D03*
X585000Y70000D02*
D03*
X635000Y85000D02*
D03*
X615000Y70000D02*
D03*
X635000D02*
D03*
X655000D02*
D03*
Y82500D02*
D03*
X675000Y85000D02*
D03*
Y70000D02*
D03*
X695000D02*
D03*
Y85000D02*
D03*
X715000D02*
D03*
Y70000D02*
D03*
X1547270Y729630D02*
D03*
X1572270Y679630D02*
D03*
Y479630D02*
D03*
Y379630D02*
D03*
Y279630D02*
D03*
X1547270Y229630D02*
D03*
X1572270Y179630D02*
D03*
X1547270Y129630D02*
D03*
X1522270Y679630D02*
D03*
X1497270Y629630D02*
D03*
Y429630D02*
D03*
X1522270Y279630D02*
D03*
X1497270Y229630D02*
D03*
X1522270Y179630D02*
D03*
X1497270Y129630D02*
D03*
X1447270Y729630D02*
D03*
X1472270Y679630D02*
D03*
X1447270Y429630D02*
D03*
Y329630D02*
D03*
X1472270Y279630D02*
D03*
X1447270Y229630D02*
D03*
X1472270Y179630D02*
D03*
X1447270Y129630D02*
D03*
X1397270Y729630D02*
D03*
Y629630D02*
D03*
X1422270Y579630D02*
D03*
X1397270Y529630D02*
D03*
X1422270Y479630D02*
D03*
X1397270Y429630D02*
D03*
Y329630D02*
D03*
X1422270Y279630D02*
D03*
X1397270Y229630D02*
D03*
X1422270Y179630D02*
D03*
X1397270Y129630D02*
D03*
X1347270Y729630D02*
D03*
Y629630D02*
D03*
X1372270Y579630D02*
D03*
X1347270Y529630D02*
D03*
X1372270Y479630D02*
D03*
X1347270Y429630D02*
D03*
Y329630D02*
D03*
X1372270Y279630D02*
D03*
X1347270Y229630D02*
D03*
X1372270Y179630D02*
D03*
X1347270Y129630D02*
D03*
X1322270Y879630D02*
D03*
Y479630D02*
D03*
X1297270Y229630D02*
D03*
X1272270Y879630D02*
D03*
X1247270Y229630D02*
D03*
X1222270Y879630D02*
D03*
Y479630D02*
D03*
X1197270Y229630D02*
D03*
X1222270Y79630D02*
D03*
X1172270Y879630D02*
D03*
Y779630D02*
D03*
X1147270Y729630D02*
D03*
X1172270Y479630D02*
D03*
Y279630D02*
D03*
X1147270Y229630D02*
D03*
X1172270Y79630D02*
D03*
X1122270Y879630D02*
D03*
Y779630D02*
D03*
X1097270Y729630D02*
D03*
Y329630D02*
D03*
X1122270Y279630D02*
D03*
X1097270Y229630D02*
D03*
X1122270Y79630D02*
D03*
X1072270Y879630D02*
D03*
Y779630D02*
D03*
X1047270Y729630D02*
D03*
Y329630D02*
D03*
Y229630D02*
D03*
X1072270Y79630D02*
D03*
X1022270Y879630D02*
D03*
Y779630D02*
D03*
X997270Y729630D02*
D03*
Y229630D02*
D03*
X1022270Y79630D02*
D03*
X972270Y879630D02*
D03*
Y779630D02*
D03*
X947270Y729630D02*
D03*
X972270Y679630D02*
D03*
X947270Y629630D02*
D03*
X972270Y579630D02*
D03*
Y279630D02*
D03*
X947270Y229630D02*
D03*
X972270Y79630D02*
D03*
X922270Y879630D02*
D03*
Y779630D02*
D03*
X897270Y729630D02*
D03*
X922270Y679630D02*
D03*
X897270Y629630D02*
D03*
X922270Y79630D02*
D03*
X872270Y879630D02*
D03*
Y779630D02*
D03*
X847270Y729630D02*
D03*
X872270Y679630D02*
D03*
Y479630D02*
D03*
Y79630D02*
D03*
X822270Y879630D02*
D03*
Y779630D02*
D03*
X797270Y729630D02*
D03*
X822270Y679630D02*
D03*
Y479630D02*
D03*
Y79630D02*
D03*
X772270Y879630D02*
D03*
Y779630D02*
D03*
Y579630D02*
D03*
X747270Y429630D02*
D03*
X772270Y79630D02*
D03*
X722270Y879630D02*
D03*
Y779630D02*
D03*
X697270Y729630D02*
D03*
X722270Y479630D02*
D03*
X697270Y229630D02*
D03*
X672270Y779630D02*
D03*
X622270D02*
D03*
X572270D02*
D03*
X547270Y729630D02*
D03*
X572270Y379630D02*
D03*
X522270Y879630D02*
D03*
Y379630D02*
D03*
Y279630D02*
D03*
X472270Y879630D02*
D03*
Y779630D02*
D03*
X447270Y729630D02*
D03*
X472270Y679630D02*
D03*
Y579630D02*
D03*
X447270Y529630D02*
D03*
X472270Y479630D02*
D03*
Y179630D02*
D03*
X422270Y879630D02*
D03*
Y779630D02*
D03*
X397270Y729630D02*
D03*
X422270Y679630D02*
D03*
Y579630D02*
D03*
X397270Y429630D02*
D03*
X372270Y779630D02*
D03*
X347270Y729630D02*
D03*
X372270Y679630D02*
D03*
X347270Y429630D02*
D03*
Y229630D02*
D03*
X372270Y179630D02*
D03*
X347270Y129630D02*
D03*
X322270Y879630D02*
D03*
Y779630D02*
D03*
X297270Y729630D02*
D03*
X322270Y679630D02*
D03*
X297270Y229630D02*
D03*
X322270Y179630D02*
D03*
X297270Y129630D02*
D03*
X247270Y729630D02*
D03*
X272270Y379630D02*
D03*
X247270Y229630D02*
D03*
X272270Y179630D02*
D03*
X247270Y129630D02*
D03*
X222270Y579630D02*
D03*
Y379630D02*
D03*
Y279630D02*
D03*
Y179630D02*
D03*
X197270Y129630D02*
D03*
X172270Y279630D02*
D03*
Y179630D02*
D03*
X147270Y129630D02*
D03*
X122270Y879630D02*
D03*
Y679630D02*
D03*
X97270Y629630D02*
D03*
Y129630D02*
D03*
X72270Y879630D02*
D03*
X47270Y829630D02*
D03*
X72270Y679630D02*
D03*
X47270Y429630D02*
D03*
X72270Y379630D02*
D03*
X47270Y129630D02*
D03*
X5000Y87500D02*
D03*
X4926Y127500D02*
D03*
Y107500D02*
D03*
Y507500D02*
D03*
Y487500D02*
D03*
Y427500D02*
D03*
Y447500D02*
D03*
Y467500D02*
D03*
Y367500D02*
D03*
Y387500D02*
D03*
Y407500D02*
D03*
Y307500D02*
D03*
Y327500D02*
D03*
Y347500D02*
D03*
Y247500D02*
D03*
Y227500D02*
D03*
Y207500D02*
D03*
Y287500D02*
D03*
Y267500D02*
D03*
Y167500D02*
D03*
Y187500D02*
D03*
Y147500D02*
D03*
Y887500D02*
D03*
Y867500D02*
D03*
Y807500D02*
D03*
Y827500D02*
D03*
Y847500D02*
D03*
Y747500D02*
D03*
Y767500D02*
D03*
Y787500D02*
D03*
Y687500D02*
D03*
Y707500D02*
D03*
Y727500D02*
D03*
Y627500D02*
D03*
Y607500D02*
D03*
Y587500D02*
D03*
Y667500D02*
D03*
Y647500D02*
D03*
Y547500D02*
D03*
Y567500D02*
D03*
Y527500D02*
D03*
X67426Y909500D02*
D03*
X47426D02*
D03*
X4926D02*
D03*
X27426D02*
D03*
X447425D02*
D03*
X427425D02*
D03*
X367426D02*
D03*
X387425D02*
D03*
X407425D02*
D03*
X307426D02*
D03*
X327426D02*
D03*
X347425D02*
D03*
X247426D02*
D03*
X267426D02*
D03*
X287426D02*
D03*
X187426D02*
D03*
X167426D02*
D03*
X147426D02*
D03*
X227426D02*
D03*
X207426D02*
D03*
X107426D02*
D03*
X127426D02*
D03*
X87426D02*
D03*
X827425D02*
D03*
X807425D02*
D03*
X767425D02*
D03*
X707425D02*
D03*
X647425D02*
D03*
X567425D02*
D03*
X547425D02*
D03*
X527425D02*
D03*
X607425D02*
D03*
X587425D02*
D03*
X487425D02*
D03*
X507425D02*
D03*
X467425D02*
D03*
X1207425D02*
D03*
X1187425D02*
D03*
X1127425D02*
D03*
X1147425D02*
D03*
X1167425D02*
D03*
X1067425D02*
D03*
X1087425D02*
D03*
X1107425D02*
D03*
X1007425D02*
D03*
X1027425D02*
D03*
X1047425D02*
D03*
X947425D02*
D03*
X927425D02*
D03*
X907425D02*
D03*
X987425D02*
D03*
X967425D02*
D03*
X867425D02*
D03*
X887425D02*
D03*
X847425D02*
D03*
X1587425D02*
D03*
X1567425D02*
D03*
X1507425D02*
D03*
X1527425D02*
D03*
X1547425D02*
D03*
X1447425D02*
D03*
X1467425D02*
D03*
X1487425D02*
D03*
X1387425D02*
D03*
X1407425D02*
D03*
X1427425D02*
D03*
X1327425D02*
D03*
X1307425D02*
D03*
X1287425D02*
D03*
X1367425D02*
D03*
X1347425D02*
D03*
X1247425D02*
D03*
X1267425D02*
D03*
X1227425D02*
D03*
X1607500Y867500D02*
D03*
Y887500D02*
D03*
X1607425Y909500D02*
D03*
X1607500Y487500D02*
D03*
Y507500D02*
D03*
Y567500D02*
D03*
Y547500D02*
D03*
Y527500D02*
D03*
Y627500D02*
D03*
Y607500D02*
D03*
Y587500D02*
D03*
Y687500D02*
D03*
Y667500D02*
D03*
Y647500D02*
D03*
Y747500D02*
D03*
Y767500D02*
D03*
Y787500D02*
D03*
Y707500D02*
D03*
Y727500D02*
D03*
Y827500D02*
D03*
Y807500D02*
D03*
Y847500D02*
D03*
Y107500D02*
D03*
Y127500D02*
D03*
Y187500D02*
D03*
Y167500D02*
D03*
Y147500D02*
D03*
Y247500D02*
D03*
Y227500D02*
D03*
Y207500D02*
D03*
Y307500D02*
D03*
Y287500D02*
D03*
Y267500D02*
D03*
Y367500D02*
D03*
Y387500D02*
D03*
Y407500D02*
D03*
Y327500D02*
D03*
Y347500D02*
D03*
Y447500D02*
D03*
Y427500D02*
D03*
Y467500D02*
D03*
X1249750Y70000D02*
D03*
X1255500Y81500D02*
D03*
X1587500Y87500D02*
D03*
X1567500D02*
D03*
X1507500D02*
D03*
X1527500D02*
D03*
X1547500D02*
D03*
X1447500D02*
D03*
X1467500D02*
D03*
X1487500D02*
D03*
X1387500D02*
D03*
X1407500D02*
D03*
X1427500D02*
D03*
X1327500D02*
D03*
X1307500D02*
D03*
X1287500D02*
D03*
X1367500D02*
D03*
X1347500D02*
D03*
X1267500D02*
D03*
X1607500D02*
D03*
X405000D02*
D03*
X365000D02*
D03*
X385000D02*
D03*
X285000D02*
D03*
X265000D02*
D03*
X345000D02*
D03*
X325000D02*
D03*
X305000D02*
D03*
X205000D02*
D03*
X225000D02*
D03*
X245000D02*
D03*
X145000D02*
D03*
X165000D02*
D03*
X185000D02*
D03*
X85000D02*
D03*
X105000D02*
D03*
X125000D02*
D03*
X65000D02*
D03*
X45000D02*
D03*
X25000D02*
D03*
X706495Y537272D02*
D03*
X700000Y569000D02*
D03*
X719620Y537606D02*
D03*
X603917Y509033D02*
D03*
X600554Y504844D02*
D03*
X605000Y500000D02*
D03*
Y493500D02*
D03*
X639000Y500000D02*
D03*
X627000Y487948D02*
D03*
X626000Y530000D02*
D03*
X467500Y255500D02*
D03*
X460000D02*
D03*
X452500D02*
D03*
X445000D02*
D03*
X373167Y318735D02*
D03*
X396000Y306000D02*
D03*
X396000Y312500D02*
D03*
X1267000Y554000D02*
D03*
X1268000Y504000D02*
D03*
Y485000D02*
D03*
Y467000D02*
D03*
X552000Y437000D02*
D03*
X602061Y607621D02*
D03*
X602000Y614000D02*
D03*
X578165Y411446D02*
D03*
X1292332Y446000D02*
D03*
X1256502Y325650D02*
D03*
X605633Y354169D02*
D03*
X604577Y486219D02*
D03*
X579152Y614075D02*
D03*
X579000Y621000D02*
D03*
X578368Y595628D02*
D03*
X604398Y563882D02*
D03*
X604457Y385905D02*
D03*
X578881Y385928D02*
D03*
X578617Y360550D02*
D03*
X625374Y354275D02*
D03*
X1304000Y587000D02*
D03*
X1291461Y576390D02*
D03*
X601500Y627200D02*
D03*
Y633700D02*
D03*
X578000Y513000D02*
D03*
X579000Y486000D02*
D03*
X634495Y436234D02*
D03*
X637500Y442500D02*
D03*
X605380Y430473D02*
D03*
X629000Y425000D02*
D03*
X635000Y392500D02*
D03*
X600681Y398293D02*
D03*
X600000Y477500D02*
D03*
X604650Y464754D02*
D03*
X598634Y455901D02*
D03*
X598553Y462500D02*
D03*
X604693Y458255D02*
D03*
X569790Y598047D02*
D03*
X556000Y561000D02*
D03*
X599835Y557452D02*
D03*
X602500Y320000D02*
D03*
X602212Y281246D02*
D03*
X602500Y300000D02*
D03*
X604209Y340905D02*
D03*
X605454Y347705D02*
D03*
X626000Y335000D02*
D03*
Y278000D02*
D03*
X578495Y434423D02*
D03*
X626712Y557713D02*
D03*
X627000Y552000D02*
D03*
X604000Y538000D02*
D03*
X626000Y576000D02*
D03*
X574000Y469000D02*
D03*
X571653Y433653D02*
D03*
X578062Y442948D02*
D03*
X566000Y430000D02*
D03*
X536000Y548580D02*
D03*
Y542080D02*
D03*
X578000Y538000D02*
D03*
X652750Y558900D02*
D03*
X579000Y570000D02*
D03*
X579087Y563646D02*
D03*
X578335Y640157D02*
D03*
X626000Y634000D02*
D03*
Y627000D02*
D03*
Y608000D02*
D03*
X625689Y582575D02*
D03*
X626000Y385500D02*
D03*
X390000Y410000D02*
D03*
X625028Y377020D02*
D03*
X600000Y376000D02*
D03*
Y361000D02*
D03*
Y367500D02*
D03*
X579000Y341000D02*
D03*
X600000Y335000D02*
D03*
X578744Y322477D02*
D03*
X578719Y303581D02*
D03*
X578968Y284500D02*
D03*
X626000Y316000D02*
D03*
Y297000D02*
D03*
X594000Y266000D02*
D03*
X1245000Y371000D02*
D03*
Y335000D02*
D03*
X1256502Y274850D02*
D03*
X1266893Y277428D02*
D03*
X1291398Y424904D02*
D03*
X1244383Y468489D02*
D03*
Y449722D02*
D03*
X1292097Y462233D02*
D03*
X1291718Y481233D02*
D03*
X1244254Y487535D02*
D03*
X1244037Y506336D02*
D03*
X1243371Y589016D02*
D03*
X1244625Y563593D02*
D03*
X1269470Y563813D02*
D03*
X1266506Y576456D02*
D03*
X1292000Y624000D02*
D03*
Y602000D02*
D03*
X1244000Y313000D02*
D03*
X1268000Y338000D02*
D03*
X1292000Y370000D02*
D03*
X1268000Y371000D02*
D03*
X1243000Y398000D02*
D03*
X1268000D02*
D03*
X1292000Y405000D02*
D03*
X1270000Y408000D02*
D03*
X1244000D02*
D03*
X1291494Y519286D02*
D03*
X1280985Y538099D02*
D03*
X1266039Y627374D02*
D03*
X1270000Y615000D02*
D03*
X1266000Y602000D02*
D03*
X1293000Y317000D02*
D03*
X892000Y398000D02*
D03*
X872000D02*
D03*
Y406000D02*
D03*
X1268000Y427000D02*
D03*
X1244000Y428000D02*
D03*
X892000Y406000D02*
D03*
X1268000Y450000D02*
D03*
X1297230Y430484D02*
D03*
X1291000Y500000D02*
D03*
X1269000Y523000D02*
D03*
X1245227Y525646D02*
D03*
X1216971Y506656D02*
D03*
X1231000Y625000D02*
D03*
X1215000Y620000D02*
D03*
X1291000Y551000D02*
D03*
X1266000Y545000D02*
D03*
X1255877Y538159D02*
D03*
X1272000Y589000D02*
D03*
X1256502Y300250D02*
D03*
X1286000Y266000D02*
D03*
X1279998Y287550D02*
D03*
X1292070Y307980D02*
D03*
X1279977Y312988D02*
D03*
X1261000Y266000D02*
D03*
X1272750Y265459D02*
D03*
X1226500Y256000D02*
D03*
X1235500D02*
D03*
Y239500D02*
D03*
X1226500D02*
D03*
X1219500Y191000D02*
D03*
X1228500D02*
D03*
Y174500D02*
D03*
X1219500D02*
D03*
X1263000Y168028D02*
D03*
X1272000D02*
D03*
Y151528D02*
D03*
X1263000D02*
D03*
X1178250Y333895D02*
D03*
X1187250D02*
D03*
Y317395D02*
D03*
X1178250D02*
D03*
X1182750Y328895D02*
D03*
Y322395D02*
D03*
X1154000Y317000D02*
D03*
Y309250D02*
D03*
X1136000Y309000D02*
D03*
Y317000D02*
D03*
X1072500Y335500D02*
D03*
Y326500D02*
D03*
X1056000D02*
D03*
Y335500D02*
D03*
X1010000Y292000D02*
D03*
Y283000D02*
D03*
X1026500D02*
D03*
Y292000D02*
D03*
X490000Y77000D02*
D03*
X480000Y65000D02*
D03*
X1248500Y61500D02*
D03*
X550000D02*
D03*
X770000D02*
D03*
X810000D02*
D03*
X800000D02*
D03*
X850000D02*
D03*
X840000D02*
D03*
X890000D02*
D03*
X880000D02*
D03*
X940000D02*
D03*
X980000D02*
D03*
X970000D02*
D03*
X1020000D02*
D03*
X1010000D02*
D03*
X1060000D02*
D03*
X1050000D02*
D03*
X1090000D02*
D03*
X1100000D02*
D03*
X1140000D02*
D03*
X1130000D02*
D03*
X1170000D02*
D03*
X1180000D02*
D03*
X1220000D02*
D03*
X1210000D02*
D03*
X1230000D02*
D03*
X1200000D02*
D03*
X1190000D02*
D03*
X1160000D02*
D03*
X1150000D02*
D03*
X1120000D02*
D03*
X1110000D02*
D03*
X1080000D02*
D03*
X1070000D02*
D03*
X1030000D02*
D03*
X1040000D02*
D03*
X990000D02*
D03*
X1000000D02*
D03*
X960000D02*
D03*
X950000D02*
D03*
X920000D02*
D03*
X900000D02*
D03*
X870000D02*
D03*
X860000D02*
D03*
X820000D02*
D03*
X830000D02*
D03*
X790000D02*
D03*
X750000D02*
D03*
X780000D02*
D03*
X717500Y61000D02*
D03*
X732500D02*
D03*
X557500D02*
D03*
X582500D02*
D03*
X632500D02*
D03*
X657500D02*
D03*
X672500D02*
D03*
X712500D02*
D03*
X697500D02*
D03*
X637670Y61115D02*
D03*
X605750Y60750D02*
D03*
X450000Y62000D02*
D03*
X560000Y569000D02*
D03*
X362228Y562694D02*
D03*
X396000Y559000D02*
D03*
X377000D02*
D03*
X312418Y555227D02*
D03*
X327425Y559783D02*
D03*
X260805Y527328D02*
D03*
X257707Y476347D02*
D03*
X243000Y569000D02*
D03*
X248000Y554000D02*
D03*
X93767Y547233D02*
D03*
X123000Y554000D02*
D03*
X90000Y702000D02*
D03*
X83000D02*
D03*
X76000D02*
D03*
X409910Y847990D02*
D03*
X429910D02*
D03*
X449910D02*
D03*
X469910D02*
D03*
X489910D02*
D03*
X774000Y635000D02*
D03*
X1416000Y761000D02*
D03*
Y781000D02*
D03*
Y801000D02*
D03*
Y821000D02*
D03*
Y841000D02*
D03*
X1262500Y807500D02*
D03*
X1277500D02*
D03*
X1270000D02*
D03*
X855549Y880368D02*
D03*
X939000Y462000D02*
D03*
Y451000D02*
D03*
X893000Y481000D02*
D03*
X885500Y480750D02*
D03*
X872000Y468000D02*
D03*
Y463000D02*
D03*
X899000D02*
D03*
X887000D02*
D03*
X872000Y458000D02*
D03*
X864000Y487000D02*
D03*
X396000Y182000D02*
D03*
Y146000D02*
D03*
Y128000D02*
D03*
Y110000D02*
D03*
Y164000D02*
D03*
X394000Y280000D02*
D03*
Y286000D02*
D03*
X362000Y309000D02*
D03*
X71000Y564000D02*
D03*
X82500Y547500D02*
D03*
X140530Y573750D02*
D03*
X122530D02*
D03*
X107530Y578000D02*
D03*
X196000Y576000D02*
D03*
X196181Y558502D02*
D03*
X250000Y505000D02*
D03*
X214000Y303000D02*
D03*
X205000D02*
D03*
X265000Y260000D02*
D03*
X277000D02*
D03*
X352000Y322000D02*
D03*
X443000Y325000D02*
D03*
X478000Y286000D02*
D03*
X540000Y214210D02*
D03*
X502000Y232000D02*
D03*
X505000Y267000D02*
D03*
X729000Y605000D02*
D03*
X1511000Y592000D02*
D03*
X1512000Y576000D02*
D03*
Y566000D02*
D03*
X1511000Y550000D02*
D03*
X666500Y591500D02*
D03*
X355000Y562552D02*
D03*
X550210Y523453D02*
D03*
X541000Y523000D02*
D03*
X641750Y575000D02*
D03*
X605504Y571713D02*
D03*
X666895Y479894D02*
D03*
X675250Y608000D02*
D03*
X671000Y596424D02*
D03*
Y602924D02*
D03*
X675250Y591500D02*
D03*
X666250Y607750D02*
D03*
X676000Y583000D02*
D03*
X604693Y588736D02*
D03*
X601000Y576400D02*
D03*
Y582900D02*
D03*
X1329000Y632500D02*
D03*
X1320000Y647500D02*
D03*
X1233000Y515561D02*
D03*
X1217000Y540000D02*
D03*
X784000Y499000D02*
D03*
X1296000Y532000D02*
D03*
Y543000D02*
D03*
Y632000D02*
D03*
Y647000D02*
D03*
Y558000D02*
D03*
X1329000Y576000D02*
D03*
Y558000D02*
D03*
X1320000Y543000D02*
D03*
Y531000D02*
D03*
X641000Y347000D02*
D03*
X656000Y352000D02*
D03*
X649000Y319000D02*
D03*
X641000D02*
D03*
X657000D02*
D03*
X486000Y691000D02*
D03*
X1547000Y303550D02*
D03*
Y262000D02*
D03*
Y236000D02*
D03*
X1548000Y425574D02*
D03*
Y414174D02*
D03*
X1550000Y436500D02*
D03*
X1485000Y608500D02*
D03*
Y587000D02*
D03*
Y555000D02*
D03*
Y533500D02*
D03*
X1483000Y544000D02*
D03*
Y566000D02*
D03*
Y576000D02*
D03*
Y598000D02*
D03*
X1589000Y602000D02*
D03*
X1564000Y652000D02*
D03*
X1562000Y664000D02*
D03*
X395000Y875000D02*
D03*
X1231000Y251000D02*
D03*
Y244500D02*
D03*
X1224000Y179500D02*
D03*
Y186000D02*
D03*
X750000Y105000D02*
D03*
X1267500Y163028D02*
D03*
Y156528D02*
D03*
X373000Y806000D02*
D03*
X362416Y803880D02*
D03*
X354071Y804930D02*
D03*
X598826Y468999D02*
D03*
X1148500Y313000D02*
D03*
X1142000D02*
D03*
X500000Y61000D02*
D03*
X490000Y91000D02*
D03*
Y84000D02*
D03*
Y98000D02*
D03*
X529000Y121000D02*
D03*
X528000Y228000D02*
D03*
X456500Y95250D02*
D03*
X355000Y499000D02*
D03*
X234000Y470000D02*
D03*
X223000Y508000D02*
D03*
X241552Y433000D02*
D03*
X430000Y68000D02*
D03*
X440000D02*
D03*
Y62000D02*
D03*
X430000D02*
D03*
X1021500Y287500D02*
D03*
X1015000D02*
D03*
X827500Y430000D02*
D03*
X947500Y327500D02*
D03*
X957500Y317500D02*
D03*
X1061000Y331000D02*
D03*
X1067500D02*
D03*
X957500Y327500D02*
D03*
X937500Y317500D02*
D03*
Y327500D02*
D03*
X947500Y317500D02*
D03*
X1266877Y270928D02*
D03*
X1267251Y329018D02*
D03*
X1267222Y322518D02*
D03*
X1268498Y283727D02*
D03*
X947500Y307500D02*
D03*
X937500D02*
D03*
X957500D02*
D03*
X565000Y685000D02*
D03*
X552500D02*
D03*
X540000D02*
D03*
X527500D02*
D03*
X675000Y430000D02*
D03*
X642000Y425000D02*
D03*
X809000Y522000D02*
D03*
X1564000Y535000D02*
D03*
X918750Y495000D02*
D03*
Y487500D02*
D03*
Y480000D02*
D03*
Y472500D02*
D03*
X915000Y455000D02*
D03*
Y462500D02*
D03*
X908455Y472968D02*
D03*
X907500Y497500D02*
D03*
X602000Y620000D02*
D03*
Y641000D02*
D03*
X817000Y567000D02*
D03*
Y578000D02*
D03*
X809563Y585633D02*
D03*
X190000Y471000D02*
D03*
X182000D02*
D03*
X174000D02*
D03*
X166000D02*
D03*
Y478000D02*
D03*
X565000Y660000D02*
D03*
X552500D02*
D03*
X540000D02*
D03*
X527500D02*
D03*
X570000Y295000D02*
D03*
Y287500D02*
D03*
Y280000D02*
D03*
Y272500D02*
D03*
X1271000Y532000D02*
D03*
X716000Y419000D02*
D03*
X691000Y413186D02*
D03*
X886000Y402000D02*
D03*
X878000D02*
D03*
X1270000Y640000D02*
D03*
Y646000D02*
D03*
X501000Y241000D02*
D03*
X540000Y237000D02*
D03*
X549000Y251000D02*
D03*
X492500Y204500D02*
D03*
X805000Y551000D02*
D03*
Y557000D02*
D03*
X374000Y273000D02*
D03*
X265000Y283000D02*
D03*
X277000D02*
D03*
X160000Y315000D02*
D03*
X198000Y307000D02*
D03*
X278000Y352000D02*
D03*
X132000Y320000D02*
D03*
X139000D02*
D03*
X38000Y496000D02*
D03*
X32500Y567500D02*
D03*
Y575000D02*
D03*
Y582500D02*
D03*
Y590000D02*
D03*
Y597500D02*
D03*
X25000Y567500D02*
D03*
Y575000D02*
D03*
Y582500D02*
D03*
Y590000D02*
D03*
Y597500D02*
D03*
X38000Y565000D02*
D03*
X693000Y576000D02*
D03*
X500000Y187000D02*
D03*
Y194500D02*
D03*
X492500D02*
D03*
Y187000D02*
D03*
X610000Y105000D02*
D03*
X60000Y718000D02*
D03*
X445000Y185000D02*
D03*
Y175000D02*
D03*
Y165000D02*
D03*
Y155000D02*
D03*
Y145000D02*
D03*
Y135000D02*
D03*
Y125000D02*
D03*
Y115000D02*
D03*
Y105000D02*
D03*
X435000D02*
D03*
Y115000D02*
D03*
Y125000D02*
D03*
Y135000D02*
D03*
Y145000D02*
D03*
Y155000D02*
D03*
Y165000D02*
D03*
Y175000D02*
D03*
Y185000D02*
D03*
X275000Y592500D02*
D03*
Y600000D02*
D03*
X345000Y465000D02*
D03*
X342552Y485000D02*
D03*
X605453Y417478D02*
D03*
X527500Y652500D02*
D03*
X540000D02*
D03*
X552500D02*
D03*
X395000Y597500D02*
D03*
X382500D02*
D03*
X370000Y605000D02*
D03*
X395000D02*
D03*
X382500D02*
D03*
X370000Y597500D02*
D03*
X396000Y804000D02*
D03*
X658000Y271750D02*
D03*
X120000Y149000D02*
D03*
X108000D02*
D03*
X784000Y561000D02*
D03*
X477000Y264000D02*
D03*
X477552Y275000D02*
D03*
X579000Y278000D02*
D03*
Y272000D02*
D03*
X247479Y514288D02*
D03*
X285000Y507448D02*
D03*
X295000D02*
D03*
X199000Y508448D02*
D03*
X223076Y521295D02*
D03*
X190000Y514000D02*
D03*
X221000Y533000D02*
D03*
Y555000D02*
D03*
X267000Y447000D02*
D03*
X215000D02*
D03*
X295000Y485000D02*
D03*
X285000D02*
D03*
X295000Y492500D02*
D03*
X285000D02*
D03*
X295000Y500000D02*
D03*
X285000D02*
D03*
X290000Y592500D02*
D03*
Y600000D02*
D03*
X282500Y600000D02*
D03*
Y592500D02*
D03*
X782000Y904000D02*
D03*
X727000D02*
D03*
X671000D02*
D03*
X616000D02*
D03*
X252000Y529000D02*
D03*
X223000Y543000D02*
D03*
X79000Y580000D02*
D03*
X292000Y433000D02*
D03*
X626586Y392586D02*
D03*
X699000Y385000D02*
D03*
X698000Y378000D02*
D03*
X605265Y451302D02*
D03*
X605600Y444600D02*
D03*
X598525Y435972D02*
D03*
X598500Y443063D02*
D03*
X598891Y429483D02*
D03*
X666000Y436000D02*
D03*
X604709Y423935D02*
D03*
X545250Y438500D02*
D03*
X730000Y392000D02*
D03*
X199000Y475000D02*
D03*
X130000Y727500D02*
D03*
X117500D02*
D03*
X105000Y728000D02*
D03*
X160000Y859000D02*
D03*
X145000Y864000D02*
D03*
X125000D02*
D03*
X105000D02*
D03*
X85000D02*
D03*
X65000D02*
D03*
X873000Y887000D02*
D03*
X926000D02*
D03*
X914000Y896000D02*
D03*
X885000D02*
D03*
X845000Y879000D02*
D03*
X377000Y536000D02*
D03*
X667000Y447000D02*
D03*
Y458000D02*
D03*
Y469000D02*
D03*
X826000Y530000D02*
D03*
X809000Y631000D02*
D03*
X549250Y469000D02*
D03*
X1268524Y290227D02*
D03*
X1268227Y303221D02*
D03*
X1268251Y296721D02*
D03*
X1268750Y316200D02*
D03*
Y309700D02*
D03*
X707000Y402000D02*
D03*
X695000Y407000D02*
D03*
X1589000Y565000D02*
D03*
X149000Y339000D02*
D03*
X160000D02*
D03*
X193000D02*
D03*
X182000D02*
D03*
X171000D02*
D03*
X123000Y302000D02*
D03*
X182000Y316000D02*
D03*
X157000Y300000D02*
D03*
X158604Y284862D02*
D03*
X157005Y229698D02*
D03*
X124561Y222250D02*
D03*
X124431Y252362D02*
D03*
X124561Y292250D02*
D03*
Y267250D02*
D03*
X124431Y237362D02*
D03*
X157000Y244750D02*
D03*
X367000Y257000D02*
D03*
X1589000Y577000D02*
D03*
X271000Y427000D02*
D03*
X218000D02*
D03*
X45000Y457000D02*
D03*
X83000D02*
D03*
X204000Y459000D02*
D03*
X257000D02*
D03*
X222250Y226800D02*
D03*
X211250D02*
D03*
X222250Y210700D02*
D03*
X211250D02*
D03*
X652750Y575000D02*
D03*
X641750Y558900D02*
D03*
X188000Y258000D02*
D03*
X191000Y269000D02*
D03*
X371176Y293324D02*
D03*
X157000Y214750D02*
D03*
X811221Y876207D02*
D03*
X756138Y876458D02*
D03*
X700000Y876000D02*
D03*
X644000D02*
D03*
Y863000D02*
D03*
X699000D02*
D03*
X810000D02*
D03*
X755425Y863162D02*
D03*
X25000Y496000D02*
D03*
X63000D02*
D03*
X318000Y472000D02*
D03*
X306000Y486000D02*
D03*
X845000Y859000D02*
D03*
X351000Y585000D02*
D03*
X175000Y514000D02*
D03*
X181000Y509000D02*
D03*
X166000Y503000D02*
D03*
X72000Y584000D02*
D03*
X67000Y599000D02*
D03*
X78000Y595000D02*
D03*
X275000Y531500D02*
D03*
X258355Y358705D02*
D03*
X375001Y891366D02*
D03*
X337510Y891330D02*
D03*
X376510Y832330D02*
D03*
X346510Y778330D02*
D03*
X647250Y570200D02*
D03*
Y563700D02*
D03*
X362000Y282000D02*
D03*
X361747Y302000D02*
D03*
X216750Y222000D02*
D03*
Y215500D02*
D03*
X350510Y892330D02*
D03*
X387510Y891330D02*
D03*
X168510Y841330D02*
D03*
X346510Y802330D02*
D03*
M02*
