G04*
G04 #@! TF.GenerationSoftware,Altium Limited,Altium Designer,25.2.1 (25)*
G04*
G04 Layer_Color=8388736*
%FSLAX44Y44*%
%MOMM*%
G71*
G04*
G04 #@! TF.SameCoordinates,1675D247-2589-475D-A358-125397F96DBE*
G04*
G04*
G04 #@! TF.FilePolarity,Negative*
G04*
G01*
G75*
G04:AMPARAMS|DCode=52|XSize=1.0032mm|YSize=1.0032mm|CornerRadius=0.2016mm|HoleSize=0mm|Usage=FLASHONLY|Rotation=90.000|XOffset=0mm|YOffset=0mm|HoleType=Round|Shape=RoundedRectangle|*
%AMROUNDEDRECTD52*
21,1,1.0032,0.6000,0,0,90.0*
21,1,0.6000,1.0032,0,0,90.0*
1,1,0.4032,0.3000,0.3000*
1,1,0.4032,0.3000,-0.3000*
1,1,0.4032,-0.3000,-0.3000*
1,1,0.4032,-0.3000,0.3000*
%
%ADD52ROUNDEDRECTD52*%
G04:AMPARAMS|DCode=53|XSize=0.8032mm|YSize=0.9032mm|CornerRadius=0.1766mm|HoleSize=0mm|Usage=FLASHONLY|Rotation=90.000|XOffset=0mm|YOffset=0mm|HoleType=Round|Shape=RoundedRectangle|*
%AMROUNDEDRECTD53*
21,1,0.8032,0.5500,0,0,90.0*
21,1,0.4500,0.9032,0,0,90.0*
1,1,0.3532,0.2750,0.2250*
1,1,0.3532,0.2750,-0.2250*
1,1,0.3532,-0.2750,-0.2250*
1,1,0.3532,-0.2750,0.2250*
%
%ADD53ROUNDEDRECTD53*%
G04:AMPARAMS|DCode=54|XSize=0.8032mm|YSize=0.9032mm|CornerRadius=0.1766mm|HoleSize=0mm|Usage=FLASHONLY|Rotation=180.000|XOffset=0mm|YOffset=0mm|HoleType=Round|Shape=RoundedRectangle|*
%AMROUNDEDRECTD54*
21,1,0.8032,0.5500,0,0,180.0*
21,1,0.4500,0.9032,0,0,180.0*
1,1,0.3532,-0.2250,0.2750*
1,1,0.3532,0.2250,0.2750*
1,1,0.3532,0.2250,-0.2750*
1,1,0.3532,-0.2250,-0.2750*
%
%ADD54ROUNDEDRECTD54*%
G04:AMPARAMS|DCode=55|XSize=1.6032mm|YSize=1.1032mm|CornerRadius=0.2141mm|HoleSize=0mm|Usage=FLASHONLY|Rotation=270.000|XOffset=0mm|YOffset=0mm|HoleType=Round|Shape=RoundedRectangle|*
%AMROUNDEDRECTD55*
21,1,1.6032,0.6750,0,0,270.0*
21,1,1.1750,1.1032,0,0,270.0*
1,1,0.4282,-0.3375,-0.5875*
1,1,0.4282,-0.3375,0.5875*
1,1,0.4282,0.3375,0.5875*
1,1,0.4282,0.3375,-0.5875*
%
%ADD55ROUNDEDRECTD55*%
G04:AMPARAMS|DCode=56|XSize=1.0032mm|YSize=1.0032mm|CornerRadius=0.2016mm|HoleSize=0mm|Usage=FLASHONLY|Rotation=0.000|XOffset=0mm|YOffset=0mm|HoleType=Round|Shape=RoundedRectangle|*
%AMROUNDEDRECTD56*
21,1,1.0032,0.6000,0,0,0.0*
21,1,0.6000,1.0032,0,0,0.0*
1,1,0.4032,0.3000,-0.3000*
1,1,0.4032,-0.3000,-0.3000*
1,1,0.4032,-0.3000,0.3000*
1,1,0.4032,0.3000,0.3000*
%
%ADD56ROUNDEDRECTD56*%
G04:AMPARAMS|DCode=57|XSize=1.0532mm|YSize=1.2932mm|CornerRadius=0.2079mm|HoleSize=0mm|Usage=FLASHONLY|Rotation=180.000|XOffset=0mm|YOffset=0mm|HoleType=Round|Shape=RoundedRectangle|*
%AMROUNDEDRECTD57*
21,1,1.0532,0.8775,0,0,180.0*
21,1,0.6375,1.2932,0,0,180.0*
1,1,0.4157,-0.3188,0.4387*
1,1,0.4157,0.3188,0.4387*
1,1,0.4157,0.3188,-0.4387*
1,1,0.4157,-0.3188,-0.4387*
%
%ADD57ROUNDEDRECTD57*%
G04:AMPARAMS|DCode=58|XSize=2.5mm|YSize=0.38mm|CornerRadius=0.085mm|HoleSize=0mm|Usage=FLASHONLY|Rotation=0.000|XOffset=0mm|YOffset=0mm|HoleType=Round|Shape=RoundedRectangle|*
%AMROUNDEDRECTD58*
21,1,2.5000,0.2100,0,0,0.0*
21,1,2.3300,0.3800,0,0,0.0*
1,1,0.1700,1.1650,-0.1050*
1,1,0.1700,-1.1650,-0.1050*
1,1,0.1700,-1.1650,0.1050*
1,1,0.1700,1.1650,0.1050*
%
%ADD58ROUNDEDRECTD58*%
G04:AMPARAMS|DCode=59|XSize=2.9972mm|YSize=0.9398mm|CornerRadius=0.1937mm|HoleSize=0mm|Usage=FLASHONLY|Rotation=180.000|XOffset=0mm|YOffset=0mm|HoleType=Round|Shape=RoundedRectangle|*
%AMROUNDEDRECTD59*
21,1,2.9972,0.5525,0,0,180.0*
21,1,2.6098,0.9398,0,0,180.0*
1,1,0.3874,-1.3049,0.2762*
1,1,0.3874,1.3049,0.2762*
1,1,0.3874,1.3049,-0.2762*
1,1,0.3874,-1.3049,-0.2762*
%
%ADD59ROUNDEDRECTD59*%
G04:AMPARAMS|DCode=60|XSize=0.8032mm|YSize=0.7532mm|CornerRadius=0.1704mm|HoleSize=0mm|Usage=FLASHONLY|Rotation=0.000|XOffset=0mm|YOffset=0mm|HoleType=Round|Shape=RoundedRectangle|*
%AMROUNDEDRECTD60*
21,1,0.8032,0.4125,0,0,0.0*
21,1,0.4625,0.7532,0,0,0.0*
1,1,0.3407,0.2313,-0.2063*
1,1,0.3407,-0.2313,-0.2063*
1,1,0.3407,-0.2313,0.2063*
1,1,0.3407,0.2313,0.2063*
%
%ADD60ROUNDEDRECTD60*%
G04:AMPARAMS|DCode=61|XSize=0.8032mm|YSize=0.7532mm|CornerRadius=0.1704mm|HoleSize=0mm|Usage=FLASHONLY|Rotation=270.000|XOffset=0mm|YOffset=0mm|HoleType=Round|Shape=RoundedRectangle|*
%AMROUNDEDRECTD61*
21,1,0.8032,0.4125,0,0,270.0*
21,1,0.4625,0.7532,0,0,270.0*
1,1,0.3407,-0.2063,-0.2313*
1,1,0.3407,-0.2063,0.2313*
1,1,0.3407,0.2063,0.2313*
1,1,0.3407,0.2063,-0.2313*
%
%ADD61ROUNDEDRECTD61*%
G04:AMPARAMS|DCode=62|XSize=1.6032mm|YSize=1.1032mm|CornerRadius=0.2141mm|HoleSize=0mm|Usage=FLASHONLY|Rotation=180.000|XOffset=0mm|YOffset=0mm|HoleType=Round|Shape=RoundedRectangle|*
%AMROUNDEDRECTD62*
21,1,1.6032,0.6750,0,0,180.0*
21,1,1.1750,1.1032,0,0,180.0*
1,1,0.4282,-0.5875,0.3375*
1,1,0.4282,0.5875,0.3375*
1,1,0.4282,0.5875,-0.3375*
1,1,0.4282,-0.5875,-0.3375*
%
%ADD62ROUNDEDRECTD62*%
G04:AMPARAMS|DCode=63|XSize=0.8032mm|YSize=1.3032mm|CornerRadius=0.1766mm|HoleSize=0mm|Usage=FLASHONLY|Rotation=180.000|XOffset=0mm|YOffset=0mm|HoleType=Round|Shape=RoundedRectangle|*
%AMROUNDEDRECTD63*
21,1,0.8032,0.9500,0,0,180.0*
21,1,0.4500,1.3032,0,0,180.0*
1,1,0.3532,-0.2250,0.4750*
1,1,0.3532,0.2250,0.4750*
1,1,0.3532,0.2250,-0.4750*
1,1,0.3532,-0.2250,-0.4750*
%
%ADD63ROUNDEDRECTD63*%
G04:AMPARAMS|DCode=64|XSize=0.6mm|YSize=0.35mm|CornerRadius=0.0813mm|HoleSize=0mm|Usage=FLASHONLY|Rotation=270.000|XOffset=0mm|YOffset=0mm|HoleType=Round|Shape=RoundedRectangle|*
%AMROUNDEDRECTD64*
21,1,0.6000,0.1875,0,0,270.0*
21,1,0.4375,0.3500,0,0,270.0*
1,1,0.1625,-0.0938,-0.2188*
1,1,0.1625,-0.0938,0.2188*
1,1,0.1625,0.0938,0.2188*
1,1,0.1625,0.0938,-0.2188*
%
%ADD64ROUNDEDRECTD64*%
G04:AMPARAMS|DCode=65|XSize=0.6mm|YSize=0.35mm|CornerRadius=0.0813mm|HoleSize=0mm|Usage=FLASHONLY|Rotation=0.000|XOffset=0mm|YOffset=0mm|HoleType=Round|Shape=RoundedRectangle|*
%AMROUNDEDRECTD65*
21,1,0.6000,0.1875,0,0,0.0*
21,1,0.4375,0.3500,0,0,0.0*
1,1,0.1625,0.2188,-0.0938*
1,1,0.1625,-0.2188,-0.0938*
1,1,0.1625,-0.2188,0.0938*
1,1,0.1625,0.2188,0.0938*
%
%ADD65ROUNDEDRECTD65*%
G04:AMPARAMS|DCode=66|XSize=1.5mm|YSize=2.2mm|CornerRadius=0.085mm|HoleSize=0mm|Usage=FLASHONLY|Rotation=270.000|XOffset=0mm|YOffset=0mm|HoleType=Round|Shape=RoundedRectangle|*
%AMROUNDEDRECTD66*
21,1,1.5000,2.0300,0,0,270.0*
21,1,1.3300,2.2000,0,0,270.0*
1,1,0.1700,-1.0150,-0.6650*
1,1,0.1700,-1.0150,0.6650*
1,1,0.1700,1.0150,0.6650*
1,1,0.1700,1.0150,-0.6650*
%
%ADD66ROUNDEDRECTD66*%
G04:AMPARAMS|DCode=67|XSize=1.1mm|YSize=0.95mm|CornerRadius=0.1563mm|HoleSize=0mm|Usage=FLASHONLY|Rotation=90.000|XOffset=0mm|YOffset=0mm|HoleType=Round|Shape=RoundedRectangle|*
%AMROUNDEDRECTD67*
21,1,1.1000,0.6375,0,0,90.0*
21,1,0.7875,0.9500,0,0,90.0*
1,1,0.3125,0.3188,0.3938*
1,1,0.3125,0.3188,-0.3938*
1,1,0.3125,-0.3188,-0.3938*
1,1,0.3125,-0.3188,0.3938*
%
%ADD67ROUNDEDRECTD67*%
G04:AMPARAMS|DCode=68|XSize=0.7mm|YSize=0.95mm|CornerRadius=0.125mm|HoleSize=0mm|Usage=FLASHONLY|Rotation=90.000|XOffset=0mm|YOffset=0mm|HoleType=Round|Shape=RoundedRectangle|*
%AMROUNDEDRECTD68*
21,1,0.7000,0.7000,0,0,90.0*
21,1,0.4500,0.9500,0,0,90.0*
1,1,0.2500,0.3500,0.2250*
1,1,0.2500,0.3500,-0.2250*
1,1,0.2500,-0.3500,-0.2250*
1,1,0.2500,-0.3500,0.2250*
%
%ADD68ROUNDEDRECTD68*%
G04:AMPARAMS|DCode=69|XSize=0.5mm|YSize=1.05mm|CornerRadius=0.1mm|HoleSize=0mm|Usage=FLASHONLY|Rotation=180.000|XOffset=0mm|YOffset=0mm|HoleType=Round|Shape=RoundedRectangle|*
%AMROUNDEDRECTD69*
21,1,0.5000,0.8500,0,0,180.0*
21,1,0.3000,1.0500,0,0,180.0*
1,1,0.2000,-0.1500,0.4250*
1,1,0.2000,0.1500,0.4250*
1,1,0.2000,0.1500,-0.4250*
1,1,0.2000,-0.1500,-0.4250*
%
%ADD69ROUNDEDRECTD69*%
G04:AMPARAMS|DCode=70|XSize=0.77mm|YSize=0.5mm|CornerRadius=0.1mm|HoleSize=0mm|Usage=FLASHONLY|Rotation=0.000|XOffset=0mm|YOffset=0mm|HoleType=Round|Shape=RoundedRectangle|*
%AMROUNDEDRECTD70*
21,1,0.7700,0.3000,0,0,0.0*
21,1,0.5700,0.5000,0,0,0.0*
1,1,0.2000,0.2850,-0.1500*
1,1,0.2000,-0.2850,-0.1500*
1,1,0.2000,-0.2850,0.1500*
1,1,0.2000,0.2850,0.1500*
%
%ADD70ROUNDEDRECTD70*%
G04:AMPARAMS|DCode=71|XSize=2.3032mm|YSize=2.0032mm|CornerRadius=0.3266mm|HoleSize=0mm|Usage=FLASHONLY|Rotation=90.000|XOffset=0mm|YOffset=0mm|HoleType=Round|Shape=RoundedRectangle|*
%AMROUNDEDRECTD71*
21,1,2.3032,1.3500,0,0,90.0*
21,1,1.6500,2.0032,0,0,90.0*
1,1,0.6532,0.6750,0.8250*
1,1,0.6532,0.6750,-0.8250*
1,1,0.6532,-0.6750,-0.8250*
1,1,0.6532,-0.6750,0.8250*
%
%ADD71ROUNDEDRECTD71*%
G04:AMPARAMS|DCode=72|XSize=0.46mm|YSize=0.35mm|CornerRadius=0.0813mm|HoleSize=0mm|Usage=FLASHONLY|Rotation=270.000|XOffset=0mm|YOffset=0mm|HoleType=Round|Shape=RoundedRectangle|*
%AMROUNDEDRECTD72*
21,1,0.4600,0.1875,0,0,270.0*
21,1,0.2975,0.3500,0,0,270.0*
1,1,0.1625,-0.0938,-0.1487*
1,1,0.1625,-0.0938,0.1487*
1,1,0.1625,0.0938,0.1487*
1,1,0.1625,0.0938,-0.1487*
%
%ADD72ROUNDEDRECTD72*%
%ADD73C,0.4560*%
G04:AMPARAMS|DCode=74|XSize=3.3782mm|YSize=3.5032mm|CornerRadius=0.4985mm|HoleSize=0mm|Usage=FLASHONLY|Rotation=180.000|XOffset=0mm|YOffset=0mm|HoleType=Round|Shape=RoundedRectangle|*
%AMROUNDEDRECTD74*
21,1,3.3782,2.5063,0,0,180.0*
21,1,2.3813,3.5032,0,0,180.0*
1,1,0.9970,-1.1906,1.2531*
1,1,0.9970,1.1906,1.2531*
1,1,0.9970,1.1906,-1.2531*
1,1,0.9970,-1.1906,-1.2531*
%
%ADD74ROUNDEDRECTD74*%
G04:AMPARAMS|DCode=75|XSize=6.3232mm|YSize=3.1032mm|CornerRadius=0.4641mm|HoleSize=0mm|Usage=FLASHONLY|Rotation=270.000|XOffset=0mm|YOffset=0mm|HoleType=Round|Shape=RoundedRectangle|*
%AMROUNDEDRECTD75*
21,1,6.3232,2.1750,0,0,270.0*
21,1,5.3950,3.1032,0,0,270.0*
1,1,0.9282,-1.0875,-2.6975*
1,1,0.9282,-1.0875,2.6975*
1,1,0.9282,1.0875,2.6975*
1,1,0.9282,1.0875,-2.6975*
%
%ADD75ROUNDEDRECTD75*%
G04:AMPARAMS|DCode=76|XSize=6.3232mm|YSize=3.1032mm|CornerRadius=0.4641mm|HoleSize=0mm|Usage=FLASHONLY|Rotation=0.000|XOffset=0mm|YOffset=0mm|HoleType=Round|Shape=RoundedRectangle|*
%AMROUNDEDRECTD76*
21,1,6.3232,2.1750,0,0,0.0*
21,1,5.3950,3.1032,0,0,0.0*
1,1,0.9282,2.6975,-1.0875*
1,1,0.9282,-2.6975,-1.0875*
1,1,0.9282,-2.6975,1.0875*
1,1,0.9282,2.6975,1.0875*
%
%ADD76ROUNDEDRECTD76*%
G04:AMPARAMS|DCode=77|XSize=1.0032mm|YSize=2.2032mm|CornerRadius=0.2016mm|HoleSize=0mm|Usage=FLASHONLY|Rotation=270.000|XOffset=0mm|YOffset=0mm|HoleType=Round|Shape=RoundedRectangle|*
%AMROUNDEDRECTD77*
21,1,1.0032,1.8000,0,0,270.0*
21,1,0.6000,2.2032,0,0,270.0*
1,1,0.4032,-0.9000,-0.3000*
1,1,0.4032,-0.9000,0.3000*
1,1,0.4032,0.9000,0.3000*
1,1,0.4032,0.9000,-0.3000*
%
%ADD77ROUNDEDRECTD77*%
G04:AMPARAMS|DCode=78|XSize=1.0032mm|YSize=2.2032mm|CornerRadius=0.2016mm|HoleSize=0mm|Usage=FLASHONLY|Rotation=0.000|XOffset=0mm|YOffset=0mm|HoleType=Round|Shape=RoundedRectangle|*
%AMROUNDEDRECTD78*
21,1,1.0032,1.8000,0,0,0.0*
21,1,0.6000,2.2032,0,0,0.0*
1,1,0.4032,0.3000,-0.9000*
1,1,0.4032,-0.3000,-0.9000*
1,1,0.4032,-0.3000,0.9000*
1,1,0.4032,0.3000,0.9000*
%
%ADD78ROUNDEDRECTD78*%
G04:AMPARAMS|DCode=79|XSize=1.7532mm|YSize=1.2032mm|CornerRadius=0.2266mm|HoleSize=0mm|Usage=FLASHONLY|Rotation=0.000|XOffset=0mm|YOffset=0mm|HoleType=Round|Shape=RoundedRectangle|*
%AMROUNDEDRECTD79*
21,1,1.7532,0.7500,0,0,0.0*
21,1,1.3000,1.2032,0,0,0.0*
1,1,0.4532,0.6500,-0.3750*
1,1,0.4532,-0.6500,-0.3750*
1,1,0.4532,-0.6500,0.3750*
1,1,0.4532,0.6500,0.3750*
%
%ADD79ROUNDEDRECTD79*%
G04:AMPARAMS|DCode=80|XSize=2.7032mm|YSize=2.5032mm|CornerRadius=0.3891mm|HoleSize=0mm|Usage=FLASHONLY|Rotation=270.000|XOffset=0mm|YOffset=0mm|HoleType=Round|Shape=RoundedRectangle|*
%AMROUNDEDRECTD80*
21,1,2.7032,1.7250,0,0,270.0*
21,1,1.9250,2.5032,0,0,270.0*
1,1,0.7782,-0.8625,-0.9625*
1,1,0.7782,-0.8625,0.9625*
1,1,0.7782,0.8625,0.9625*
1,1,0.7782,0.8625,-0.9625*
%
%ADD80ROUNDEDRECTD80*%
G04:AMPARAMS|DCode=81|XSize=0.35mm|YSize=0.7mm|CornerRadius=0.0813mm|HoleSize=0mm|Usage=FLASHONLY|Rotation=180.000|XOffset=0mm|YOffset=0mm|HoleType=Round|Shape=RoundedRectangle|*
%AMROUNDEDRECTD81*
21,1,0.3500,0.5375,0,0,180.0*
21,1,0.1875,0.7000,0,0,180.0*
1,1,0.1625,-0.0938,0.2688*
1,1,0.1625,0.0938,0.2688*
1,1,0.1625,0.0938,-0.2688*
1,1,0.1625,-0.0938,-0.2688*
%
%ADD81ROUNDEDRECTD81*%
G04:AMPARAMS|DCode=82|XSize=0.35mm|YSize=0.7mm|CornerRadius=0.0813mm|HoleSize=0mm|Usage=FLASHONLY|Rotation=270.000|XOffset=0mm|YOffset=0mm|HoleType=Round|Shape=RoundedRectangle|*
%AMROUNDEDRECTD82*
21,1,0.3500,0.5375,0,0,270.0*
21,1,0.1875,0.7000,0,0,270.0*
1,1,0.1625,-0.2688,-0.0938*
1,1,0.1625,-0.2688,0.0938*
1,1,0.1625,0.2688,0.0938*
1,1,0.1625,0.2688,-0.0938*
%
%ADD82ROUNDEDRECTD82*%
G04:AMPARAMS|DCode=83|XSize=0.35mm|YSize=1.5mm|CornerRadius=0.0813mm|HoleSize=0mm|Usage=FLASHONLY|Rotation=270.000|XOffset=0mm|YOffset=0mm|HoleType=Round|Shape=RoundedRectangle|*
%AMROUNDEDRECTD83*
21,1,0.3500,1.3375,0,0,270.0*
21,1,0.1875,1.5000,0,0,270.0*
1,1,0.1625,-0.6688,-0.0938*
1,1,0.1625,-0.6688,0.0938*
1,1,0.1625,0.6688,0.0938*
1,1,0.1625,0.6688,-0.0938*
%
%ADD83ROUNDEDRECTD83*%
G04:AMPARAMS|DCode=84|XSize=0.4mm|YSize=0.77mm|CornerRadius=0.0875mm|HoleSize=0mm|Usage=FLASHONLY|Rotation=0.000|XOffset=0mm|YOffset=0mm|HoleType=Round|Shape=RoundedRectangle|*
%AMROUNDEDRECTD84*
21,1,0.4000,0.5950,0,0,0.0*
21,1,0.2250,0.7700,0,0,0.0*
1,1,0.1750,0.1125,-0.2975*
1,1,0.1750,-0.1125,-0.2975*
1,1,0.1750,-0.1125,0.2975*
1,1,0.1750,0.1125,0.2975*
%
%ADD84ROUNDEDRECTD84*%
G04:AMPARAMS|DCode=85|XSize=0.4mm|YSize=0.77mm|CornerRadius=0.0875mm|HoleSize=0mm|Usage=FLASHONLY|Rotation=270.000|XOffset=0mm|YOffset=0mm|HoleType=Round|Shape=RoundedRectangle|*
%AMROUNDEDRECTD85*
21,1,0.4000,0.5950,0,0,270.0*
21,1,0.2250,0.7700,0,0,270.0*
1,1,0.1750,-0.2975,-0.1125*
1,1,0.1750,-0.2975,0.1125*
1,1,0.1750,0.2975,0.1125*
1,1,0.1750,0.2975,-0.1125*
%
%ADD85ROUNDEDRECTD85*%
G04:AMPARAMS|DCode=86|XSize=1.575mm|YSize=0.55mm|CornerRadius=0.1063mm|HoleSize=0mm|Usage=FLASHONLY|Rotation=180.000|XOffset=0mm|YOffset=0mm|HoleType=Round|Shape=RoundedRectangle|*
%AMROUNDEDRECTD86*
21,1,1.5750,0.3375,0,0,180.0*
21,1,1.3625,0.5500,0,0,180.0*
1,1,0.2125,-0.6813,0.1688*
1,1,0.2125,0.6813,0.1688*
1,1,0.2125,0.6813,-0.1688*
1,1,0.2125,-0.6813,-0.1688*
%
%ADD86ROUNDEDRECTD86*%
G04:AMPARAMS|DCode=87|XSize=0.55mm|YSize=1.5mm|CornerRadius=0.1063mm|HoleSize=0mm|Usage=FLASHONLY|Rotation=270.000|XOffset=0mm|YOffset=0mm|HoleType=Round|Shape=RoundedRectangle|*
%AMROUNDEDRECTD87*
21,1,0.5500,1.2875,0,0,270.0*
21,1,0.3375,1.5000,0,0,270.0*
1,1,0.2125,-0.6438,-0.1688*
1,1,0.2125,-0.6438,0.1688*
1,1,0.2125,0.6438,0.1688*
1,1,0.2125,0.6438,-0.1688*
%
%ADD87ROUNDEDRECTD87*%
G04:AMPARAMS|DCode=88|XSize=0.7mm|YSize=0.3mm|CornerRadius=0.075mm|HoleSize=0mm|Usage=FLASHONLY|Rotation=180.000|XOffset=0mm|YOffset=0mm|HoleType=Round|Shape=RoundedRectangle|*
%AMROUNDEDRECTD88*
21,1,0.7000,0.1500,0,0,180.0*
21,1,0.5500,0.3000,0,0,180.0*
1,1,0.1500,-0.2750,0.0750*
1,1,0.1500,0.2750,0.0750*
1,1,0.1500,0.2750,-0.0750*
1,1,0.1500,-0.2750,-0.0750*
%
%ADD88ROUNDEDRECTD88*%
G04:AMPARAMS|DCode=89|XSize=0.5mm|YSize=0.95mm|CornerRadius=0.1mm|HoleSize=0mm|Usage=FLASHONLY|Rotation=270.000|XOffset=0mm|YOffset=0mm|HoleType=Round|Shape=RoundedRectangle|*
%AMROUNDEDRECTD89*
21,1,0.5000,0.7500,0,0,270.0*
21,1,0.3000,0.9500,0,0,270.0*
1,1,0.2000,-0.3750,-0.1500*
1,1,0.2000,-0.3750,0.1500*
1,1,0.2000,0.3750,0.1500*
1,1,0.2000,0.3750,-0.1500*
%
%ADD89ROUNDEDRECTD89*%
%ADD90R,0.9032X4.4032*%
%ADD91R,0.9032X3.4032*%
%ADD92O,2.0532X2.0632*%
%ADD93O,2.0632X2.0532*%
%ADD94C,2.7682*%
%ADD95C,1.7032*%
%ADD96C,2.0782*%
%ADD97C,3.3532*%
%ADD98C,2.9782*%
%ADD99C,1.1500*%
%ADD100C,3.4000*%
G04:AMPARAMS|DCode=101|XSize=2.9782mm|YSize=2.9782mm|CornerRadius=0.4485mm|HoleSize=0mm|Usage=FLASHONLY|Rotation=270.000|XOffset=0mm|YOffset=0mm|HoleType=Round|Shape=RoundedRectangle|*
%AMROUNDEDRECTD101*
21,1,2.9782,2.0812,0,0,270.0*
21,1,2.0812,2.9782,0,0,270.0*
1,1,0.8970,-1.0406,-1.0406*
1,1,0.8970,-1.0406,1.0406*
1,1,0.8970,1.0406,1.0406*
1,1,0.8970,1.0406,-1.0406*
%
%ADD101ROUNDEDRECTD101*%
D52*
X204000Y414000D02*
D03*
Y430000D02*
D03*
X257000Y414000D02*
D03*
Y430000D02*
D03*
X331250Y472000D02*
D03*
Y456000D02*
D03*
X366250Y472000D02*
D03*
Y456000D02*
D03*
X32000Y456000D02*
D03*
Y440000D02*
D03*
X70000Y456000D02*
D03*
Y440000D02*
D03*
D53*
X910000Y95000D02*
D03*
Y105000D02*
D03*
X1240000Y95000D02*
D03*
Y105000D02*
D03*
X362510Y884830D02*
D03*
Y874830D02*
D03*
X373500Y787500D02*
D03*
Y797500D02*
D03*
X375010Y874830D02*
D03*
Y884830D02*
D03*
X387510D02*
D03*
Y874830D02*
D03*
X82530Y554270D02*
D03*
Y564270D02*
D03*
X104530Y554270D02*
D03*
Y564270D02*
D03*
X115530D02*
D03*
Y554270D02*
D03*
X336500Y536750D02*
D03*
Y546750D02*
D03*
X367000Y273000D02*
D03*
Y263000D02*
D03*
X384500Y797500D02*
D03*
Y787500D02*
D03*
X358500Y536750D02*
D03*
Y546750D02*
D03*
X369500D02*
D03*
Y536750D02*
D03*
X600000Y95000D02*
D03*
Y105000D02*
D03*
X740000Y95000D02*
D03*
Y105000D02*
D03*
X494250Y241000D02*
D03*
Y251000D02*
D03*
X505250Y251000D02*
D03*
Y261000D02*
D03*
X271000Y351500D02*
D03*
Y341500D02*
D03*
X258500D02*
D03*
Y351500D02*
D03*
X350010Y884830D02*
D03*
Y874830D02*
D03*
X392510Y822330D02*
D03*
Y832330D02*
D03*
X160010Y842330D02*
D03*
Y852330D02*
D03*
X346510Y795330D02*
D03*
Y785330D02*
D03*
X337510Y874830D02*
D03*
Y884830D02*
D03*
X93530Y554270D02*
D03*
Y564270D02*
D03*
X107530Y594270D02*
D03*
Y584270D02*
D03*
X165816Y487110D02*
D03*
Y497110D02*
D03*
X347500Y536750D02*
D03*
Y546750D02*
D03*
X327500Y576750D02*
D03*
Y566750D02*
D03*
X362500Y580750D02*
D03*
Y570750D02*
D03*
X540000Y667500D02*
D03*
Y677500D02*
D03*
X527500Y667500D02*
D03*
Y677500D02*
D03*
X552500Y667500D02*
D03*
Y677500D02*
D03*
X565000Y667500D02*
D03*
Y677500D02*
D03*
X570000Y95000D02*
D03*
Y105000D02*
D03*
X580000Y95000D02*
D03*
Y105000D02*
D03*
X620000Y95000D02*
D03*
Y105000D02*
D03*
X630000Y95000D02*
D03*
Y105000D02*
D03*
X660000Y95000D02*
D03*
Y105000D02*
D03*
X670000Y95000D02*
D03*
Y105000D02*
D03*
X700000Y95000D02*
D03*
Y105000D02*
D03*
X710000Y95000D02*
D03*
Y105000D02*
D03*
X160000Y322000D02*
D03*
Y332000D02*
D03*
X641000Y331000D02*
D03*
Y341000D02*
D03*
X193000Y322000D02*
D03*
Y332000D02*
D03*
X1233000Y532000D02*
D03*
Y522000D02*
D03*
X1231000Y641000D02*
D03*
Y631000D02*
D03*
X277000Y276000D02*
D03*
Y266000D02*
D03*
X265000Y276000D02*
D03*
Y266000D02*
D03*
X182000Y322000D02*
D03*
Y332000D02*
D03*
X540250Y230000D02*
D03*
Y220000D02*
D03*
X149000Y322000D02*
D03*
Y332000D02*
D03*
X108000Y166000D02*
D03*
Y156000D02*
D03*
X130000Y745000D02*
D03*
Y735000D02*
D03*
X117500Y745000D02*
D03*
Y735000D02*
D03*
X105000Y745000D02*
D03*
Y735000D02*
D03*
X855500Y864000D02*
D03*
Y874000D02*
D03*
X362505Y787505D02*
D03*
Y797505D02*
D03*
X395670Y787510D02*
D03*
Y797510D02*
D03*
X268000Y594000D02*
D03*
Y584000D02*
D03*
X510000Y181810D02*
D03*
Y191810D02*
D03*
X120000Y166000D02*
D03*
Y156000D02*
D03*
X318000Y465000D02*
D03*
Y455000D02*
D03*
X353000Y465000D02*
D03*
Y455000D02*
D03*
X45000Y450000D02*
D03*
Y440000D02*
D03*
X83000Y450000D02*
D03*
Y440000D02*
D03*
X271000Y331000D02*
D03*
Y321000D02*
D03*
X258500Y331000D02*
D03*
Y321000D02*
D03*
X191000Y307250D02*
D03*
Y297250D02*
D03*
Y287250D02*
D03*
Y277250D02*
D03*
X171000Y322000D02*
D03*
Y332000D02*
D03*
X257000Y452000D02*
D03*
Y442000D02*
D03*
X876500Y431000D02*
D03*
Y421000D02*
D03*
X900500Y497000D02*
D03*
Y487000D02*
D03*
X887500Y431000D02*
D03*
Y421000D02*
D03*
X909500Y431000D02*
D03*
Y421000D02*
D03*
X898500Y431000D02*
D03*
Y421000D02*
D03*
X204000Y442000D02*
D03*
Y452000D02*
D03*
D54*
X214315Y522110D02*
D03*
X204315D02*
D03*
X214315Y544110D02*
D03*
X204315D02*
D03*
Y555110D02*
D03*
X214315D02*
D03*
X229780Y543539D02*
D03*
X239780D02*
D03*
X229780Y521539D02*
D03*
X239780D02*
D03*
X518250Y232000D02*
D03*
X508250D02*
D03*
X800000Y567000D02*
D03*
X810000D02*
D03*
X808500Y530500D02*
D03*
X818500D02*
D03*
X800000Y578500D02*
D03*
X810000D02*
D03*
X790500Y635500D02*
D03*
X780500D02*
D03*
X693046Y583174D02*
D03*
X683046D02*
D03*
X923000Y451000D02*
D03*
X933000D02*
D03*
X923000Y462000D02*
D03*
X933000D02*
D03*
X239780Y510539D02*
D03*
X229780D02*
D03*
X1557000Y403500D02*
D03*
X1567000D02*
D03*
X566000Y469000D02*
D03*
X556000D02*
D03*
X518250Y221000D02*
D03*
X528250D02*
D03*
X510000Y204500D02*
D03*
X500000D02*
D03*
X214315Y533110D02*
D03*
X204315D02*
D03*
X175315Y543610D02*
D03*
X185315D02*
D03*
X50530Y598770D02*
D03*
X60530D02*
D03*
X229780Y532539D02*
D03*
X239780D02*
D03*
X264780Y554539D02*
D03*
X254780D02*
D03*
X270780Y520539D02*
D03*
X260780D02*
D03*
X650000Y436000D02*
D03*
X660000D02*
D03*
X238500Y286750D02*
D03*
X228500D02*
D03*
X238500Y297750D02*
D03*
X228500D02*
D03*
X199500Y213250D02*
D03*
X189500D02*
D03*
X199500Y224250D02*
D03*
X189500D02*
D03*
X199500Y235250D02*
D03*
X189500D02*
D03*
X199500Y246250D02*
D03*
X189500D02*
D03*
X1571000Y535000D02*
D03*
X1581000D02*
D03*
X1302500Y543000D02*
D03*
X1312500D02*
D03*
X1302500Y647500D02*
D03*
X1312500D02*
D03*
X1302500Y531500D02*
D03*
X1312500D02*
D03*
X470000Y275000D02*
D03*
X460000D02*
D03*
Y286000D02*
D03*
X470000D02*
D03*
X460000Y264000D02*
D03*
X470000D02*
D03*
X1545000Y664000D02*
D03*
X1555000D02*
D03*
X297000Y593000D02*
D03*
X307000D02*
D03*
X650000Y480000D02*
D03*
X660000D02*
D03*
X650000Y469000D02*
D03*
X660000D02*
D03*
X650000Y458000D02*
D03*
X660000D02*
D03*
X650000Y447000D02*
D03*
X660000D02*
D03*
X641000Y271750D02*
D03*
X651000D02*
D03*
X660000Y425000D02*
D03*
X650000D02*
D03*
X1557000Y436500D02*
D03*
X1567000D02*
D03*
X50000Y757500D02*
D03*
X60000D02*
D03*
X50000Y725000D02*
D03*
X60000D02*
D03*
X339000Y813250D02*
D03*
X329000D02*
D03*
X170000Y258000D02*
D03*
X180000D02*
D03*
X170000Y269000D02*
D03*
X180000D02*
D03*
X1493000Y533500D02*
D03*
X1503000D02*
D03*
X1493000Y555000D02*
D03*
X1503000D02*
D03*
X1493000Y587000D02*
D03*
X1503000D02*
D03*
X1493000Y608500D02*
D03*
X1503000D02*
D03*
X221500Y447000D02*
D03*
X231500D02*
D03*
X274236D02*
D03*
X284236D02*
D03*
X623000Y904000D02*
D03*
X633000D02*
D03*
X678000D02*
D03*
X688000D02*
D03*
X734000D02*
D03*
X744000D02*
D03*
X789000D02*
D03*
X799000D02*
D03*
X707046Y569174D02*
D03*
X717046D02*
D03*
X693046Y605174D02*
D03*
X683046D02*
D03*
X693046Y594174D02*
D03*
X683046D02*
D03*
D55*
X404250Y182000D02*
D03*
X420750D02*
D03*
X404250Y164000D02*
D03*
X420750D02*
D03*
X404250Y146000D02*
D03*
X420750D02*
D03*
X404250Y128000D02*
D03*
X420750D02*
D03*
X404250Y110000D02*
D03*
X420750D02*
D03*
X188566Y576110D02*
D03*
X172066D02*
D03*
X188566Y558110D02*
D03*
X172066D02*
D03*
X63780Y583770D02*
D03*
X47280D02*
D03*
X251530Y569539D02*
D03*
X268030D02*
D03*
X257530Y505539D02*
D03*
X274030D02*
D03*
X1424270Y761060D02*
D03*
X1440770D02*
D03*
X1424270Y781060D02*
D03*
X1440770D02*
D03*
X1424270Y801060D02*
D03*
X1440770D02*
D03*
X1424270Y821060D02*
D03*
X1440770D02*
D03*
X1424270Y841060D02*
D03*
X1440770D02*
D03*
X63780Y565000D02*
D03*
X47280D02*
D03*
X257530Y487000D02*
D03*
X274030D02*
D03*
X1320750Y558000D02*
D03*
X1304250D02*
D03*
X1320750Y632500D02*
D03*
X1304250D02*
D03*
X1320750Y576500D02*
D03*
X1304250D02*
D03*
D56*
X620000Y891000D02*
D03*
X636000D02*
D03*
X675000D02*
D03*
X691000D02*
D03*
X731000D02*
D03*
X747000D02*
D03*
X786000D02*
D03*
X802000D02*
D03*
D57*
X1299950Y835000D02*
D03*
X1320050D02*
D03*
D58*
X139500Y217250D02*
D03*
Y222250D02*
D03*
Y227250D02*
D03*
Y232250D02*
D03*
Y237250D02*
D03*
Y242250D02*
D03*
Y247250D02*
D03*
Y252250D02*
D03*
Y257250D02*
D03*
Y262250D02*
D03*
Y267250D02*
D03*
Y272250D02*
D03*
Y277250D02*
D03*
Y282250D02*
D03*
Y287250D02*
D03*
Y292250D02*
D03*
Y297250D02*
D03*
Y302250D02*
D03*
Y307250D02*
D03*
Y312250D02*
D03*
D59*
X1570320Y551850D02*
D03*
X1529680D02*
D03*
X1570320Y564550D02*
D03*
X1529680D02*
D03*
X1570320Y577250D02*
D03*
X1529680D02*
D03*
X1570320Y589950D02*
D03*
X1529680D02*
D03*
X1570320Y602650D02*
D03*
X1529680D02*
D03*
D60*
X225000Y414626D02*
D03*
X218500Y433126D02*
D03*
X231500D02*
D03*
X277736Y414626D02*
D03*
X271236Y433126D02*
D03*
X284236D02*
D03*
X713000Y548250D02*
D03*
X719500Y529750D02*
D03*
X706500D02*
D03*
X32000Y470750D02*
D03*
X25500Y489250D02*
D03*
X38500D02*
D03*
X69500Y470500D02*
D03*
X63000Y489000D02*
D03*
X76000D02*
D03*
D61*
X618750Y870000D02*
D03*
X637250Y876500D02*
D03*
Y863500D02*
D03*
X674000Y869750D02*
D03*
X692500Y876250D02*
D03*
Y863250D02*
D03*
X729750Y870000D02*
D03*
X748250Y876500D02*
D03*
Y863500D02*
D03*
X784750Y870000D02*
D03*
X803250Y876500D02*
D03*
Y863500D02*
D03*
X889250Y494000D02*
D03*
X870750Y487500D02*
D03*
Y500500D02*
D03*
X331250Y492000D02*
D03*
X312750Y485500D02*
D03*
Y498500D02*
D03*
X366250Y492000D02*
D03*
X347750Y485500D02*
D03*
Y498500D02*
D03*
D62*
X489970Y839720D02*
D03*
Y823220D02*
D03*
X469970Y839720D02*
D03*
Y823220D02*
D03*
X449970Y839720D02*
D03*
Y823220D02*
D03*
X429970Y839720D02*
D03*
Y823220D02*
D03*
X409970Y839720D02*
D03*
Y823220D02*
D03*
X145010Y855580D02*
D03*
Y839080D02*
D03*
X125010Y855580D02*
D03*
Y839080D02*
D03*
X105010Y855580D02*
D03*
Y839080D02*
D03*
X85010Y855580D02*
D03*
Y839080D02*
D03*
X65010Y855580D02*
D03*
Y839080D02*
D03*
X140530Y581020D02*
D03*
Y597520D02*
D03*
X122530Y581020D02*
D03*
Y597520D02*
D03*
X180816Y500360D02*
D03*
Y483860D02*
D03*
X312500Y563500D02*
D03*
Y580000D02*
D03*
X377500Y567500D02*
D03*
Y584000D02*
D03*
X199000Y500360D02*
D03*
Y483860D02*
D03*
X396000Y567500D02*
D03*
Y584000D02*
D03*
X486000Y682250D02*
D03*
Y665750D02*
D03*
X656000Y344250D02*
D03*
Y327750D02*
D03*
X1217000Y514750D02*
D03*
Y531250D02*
D03*
X1215000Y627750D02*
D03*
Y644250D02*
D03*
D63*
X790500Y620500D02*
D03*
X809500D02*
D03*
Y594500D02*
D03*
X800000D02*
D03*
X790500D02*
D03*
D64*
X900500Y475000D02*
D03*
X895500D02*
D03*
X890500D02*
D03*
X885500D02*
D03*
Y451000D02*
D03*
X890500D02*
D03*
X895500D02*
D03*
X900500D02*
D03*
D65*
X877500Y468000D02*
D03*
X877500Y463000D02*
D03*
X877500Y458000D02*
D03*
X908500Y463000D02*
D03*
X908500Y468000D02*
D03*
Y458000D02*
D03*
D66*
X893000Y463000D02*
D03*
D67*
X705046Y584423D02*
D03*
Y605424D02*
D03*
X721046D02*
D03*
Y584423D02*
D03*
D68*
X705046Y594924D02*
D03*
X721046D02*
D03*
D69*
X797000Y530500D02*
D03*
X784000D02*
D03*
Y552500D02*
D03*
X790500D02*
D03*
X797000D02*
D03*
D70*
X1554587Y425574D02*
D03*
X1569387D02*
D03*
X1553600Y236000D02*
D03*
X1568400D02*
D03*
X1553600Y262000D02*
D03*
X1568400D02*
D03*
X1554587Y414174D02*
D03*
X1569387D02*
D03*
X1553600Y303550D02*
D03*
X1568400D02*
D03*
X1489600Y544250D02*
D03*
X1504400D02*
D03*
X1489600Y565750D02*
D03*
X1504400D02*
D03*
X1489600Y576250D02*
D03*
X1504400D02*
D03*
X1489600Y597750D02*
D03*
X1504400D02*
D03*
X1557400Y652000D02*
D03*
X1542600D02*
D03*
D71*
X1270000Y790500D02*
D03*
Y834500D02*
D03*
D72*
X845000Y864800D02*
D03*
Y873200D02*
D03*
D73*
X1285750Y512975D02*
D03*
Y519325D02*
D03*
Y601875D02*
D03*
Y620925D02*
D03*
Y278025D02*
D03*
Y271675D02*
D03*
Y290725D02*
D03*
X1276150Y271675D02*
D03*
Y360575D02*
D03*
X1285750Y430425D02*
D03*
Y436775D02*
D03*
X1276150D02*
D03*
Y430425D02*
D03*
Y424075D02*
D03*
Y411375D02*
D03*
Y405025D02*
D03*
Y417725D02*
D03*
Y398675D02*
D03*
Y392325D02*
D03*
Y385975D02*
D03*
Y379625D02*
D03*
X1285750Y646325D02*
D03*
Y595525D02*
D03*
Y589175D02*
D03*
Y582825D02*
D03*
Y576475D02*
D03*
Y570125D02*
D03*
Y563775D02*
D03*
Y557425D02*
D03*
Y551075D02*
D03*
Y544725D02*
D03*
Y532025D02*
D03*
Y614575D02*
D03*
Y608225D02*
D03*
X1276150Y335175D02*
D03*
X1285750Y309775D02*
D03*
Y316125D02*
D03*
X1276150Y328825D02*
D03*
Y322475D02*
D03*
Y316125D02*
D03*
Y309775D02*
D03*
Y290725D02*
D03*
Y284375D02*
D03*
Y303425D02*
D03*
Y297075D02*
D03*
Y278025D02*
D03*
X1285750Y284375D02*
D03*
Y297075D02*
D03*
Y639975D02*
D03*
Y633625D02*
D03*
Y627275D02*
D03*
X1276150Y646325D02*
D03*
Y639975D02*
D03*
Y633625D02*
D03*
Y627275D02*
D03*
X1285750Y303425D02*
D03*
Y322475D02*
D03*
Y328825D02*
D03*
Y335175D02*
D03*
Y341525D02*
D03*
Y347875D02*
D03*
Y443125D02*
D03*
Y449475D02*
D03*
Y455825D02*
D03*
X1276150D02*
D03*
Y449475D02*
D03*
Y443125D02*
D03*
X1285750Y506625D02*
D03*
Y500275D02*
D03*
Y493925D02*
D03*
Y487575D02*
D03*
Y481225D02*
D03*
Y474875D02*
D03*
Y468525D02*
D03*
Y462175D02*
D03*
X1276150Y493925D02*
D03*
Y487575D02*
D03*
Y474875D02*
D03*
Y468525D02*
D03*
Y462175D02*
D03*
Y500275D02*
D03*
Y481225D02*
D03*
Y373275D02*
D03*
Y366925D02*
D03*
Y354225D02*
D03*
Y347875D02*
D03*
Y341525D02*
D03*
X1285750Y424075D02*
D03*
Y417725D02*
D03*
Y411375D02*
D03*
Y405025D02*
D03*
Y398675D02*
D03*
Y392325D02*
D03*
Y385975D02*
D03*
Y379625D02*
D03*
Y366925D02*
D03*
Y360575D02*
D03*
Y373275D02*
D03*
Y354225D02*
D03*
X1250750Y538375D02*
D03*
Y532025D02*
D03*
Y608225D02*
D03*
Y601875D02*
D03*
Y595525D02*
D03*
Y589175D02*
D03*
Y576475D02*
D03*
Y570125D02*
D03*
Y563775D02*
D03*
Y582825D02*
D03*
Y557425D02*
D03*
Y551075D02*
D03*
Y544725D02*
D03*
X1285750Y525675D02*
D03*
Y538375D02*
D03*
X1276150D02*
D03*
Y532025D02*
D03*
Y525675D02*
D03*
Y519325D02*
D03*
Y512975D02*
D03*
Y506625D02*
D03*
X1260350Y601875D02*
D03*
Y582825D02*
D03*
Y595525D02*
D03*
Y589175D02*
D03*
Y576475D02*
D03*
Y570125D02*
D03*
Y563775D02*
D03*
Y557425D02*
D03*
Y551075D02*
D03*
Y544725D02*
D03*
Y608225D02*
D03*
X1276150Y576475D02*
D03*
Y620925D02*
D03*
Y614575D02*
D03*
Y608225D02*
D03*
Y601875D02*
D03*
Y595525D02*
D03*
Y589175D02*
D03*
Y570125D02*
D03*
Y563775D02*
D03*
Y582825D02*
D03*
Y557425D02*
D03*
Y551075D02*
D03*
Y544725D02*
D03*
X1250750Y646325D02*
D03*
Y639975D02*
D03*
Y633625D02*
D03*
Y627275D02*
D03*
Y620925D02*
D03*
Y614575D02*
D03*
X1260350Y646325D02*
D03*
Y639975D02*
D03*
Y633625D02*
D03*
Y620925D02*
D03*
Y627275D02*
D03*
Y614575D02*
D03*
X1250750Y506625D02*
D03*
Y525675D02*
D03*
Y519325D02*
D03*
Y512975D02*
D03*
X1260350Y532025D02*
D03*
Y525675D02*
D03*
Y538375D02*
D03*
Y519325D02*
D03*
Y512975D02*
D03*
Y506625D02*
D03*
X1250750Y500275D02*
D03*
Y468525D02*
D03*
Y493925D02*
D03*
Y487575D02*
D03*
Y481225D02*
D03*
Y474875D02*
D03*
Y462175D02*
D03*
Y455825D02*
D03*
Y449475D02*
D03*
Y443125D02*
D03*
Y436775D02*
D03*
Y430425D02*
D03*
Y424075D02*
D03*
X1260350Y398675D02*
D03*
Y417725D02*
D03*
Y411375D02*
D03*
Y405025D02*
D03*
Y385975D02*
D03*
Y379625D02*
D03*
Y373275D02*
D03*
Y366925D02*
D03*
Y360575D02*
D03*
Y392325D02*
D03*
Y271675D02*
D03*
X1250750D02*
D03*
Y278025D02*
D03*
X1260350D02*
D03*
X1250750Y417725D02*
D03*
Y398675D02*
D03*
Y411375D02*
D03*
Y405025D02*
D03*
Y392325D02*
D03*
Y385975D02*
D03*
Y379625D02*
D03*
Y373275D02*
D03*
Y366925D02*
D03*
Y360575D02*
D03*
Y347875D02*
D03*
Y341525D02*
D03*
Y335175D02*
D03*
X1260350Y500275D02*
D03*
Y462175D02*
D03*
Y493925D02*
D03*
Y487575D02*
D03*
Y481225D02*
D03*
Y474875D02*
D03*
Y468525D02*
D03*
Y449475D02*
D03*
Y443125D02*
D03*
Y455825D02*
D03*
Y436775D02*
D03*
Y430425D02*
D03*
Y424075D02*
D03*
X1250750Y354225D02*
D03*
Y316125D02*
D03*
Y328825D02*
D03*
Y322475D02*
D03*
Y309775D02*
D03*
Y303425D02*
D03*
Y297075D02*
D03*
Y290725D02*
D03*
Y284375D02*
D03*
X1260350Y354225D02*
D03*
Y309775D02*
D03*
Y347875D02*
D03*
Y341525D02*
D03*
Y335175D02*
D03*
Y328825D02*
D03*
Y322475D02*
D03*
Y316125D02*
D03*
Y290725D02*
D03*
Y284375D02*
D03*
Y303425D02*
D03*
Y297075D02*
D03*
X584630Y284375D02*
D03*
X594230Y278025D02*
D03*
Y271675D02*
D03*
X584630D02*
D03*
Y278025D02*
D03*
Y290725D02*
D03*
Y297075D02*
D03*
X594230Y284375D02*
D03*
Y316125D02*
D03*
Y385975D02*
D03*
Y398675D02*
D03*
Y379625D02*
D03*
Y405025D02*
D03*
Y392325D02*
D03*
Y417725D02*
D03*
Y424075D02*
D03*
Y436775D02*
D03*
Y430425D02*
D03*
Y411375D02*
D03*
Y373275D02*
D03*
X610030Y341525D02*
D03*
X594230Y309775D02*
D03*
X610030Y316125D02*
D03*
Y335175D02*
D03*
Y322475D02*
D03*
Y328825D02*
D03*
Y309775D02*
D03*
X594230Y297075D02*
D03*
Y290725D02*
D03*
Y303425D02*
D03*
Y341525D02*
D03*
Y335175D02*
D03*
Y328825D02*
D03*
X584630Y303425D02*
D03*
X594230Y322475D02*
D03*
X584630Y328825D02*
D03*
Y322475D02*
D03*
Y335175D02*
D03*
Y316125D02*
D03*
Y309775D02*
D03*
X610030Y436775D02*
D03*
Y430425D02*
D03*
Y411375D02*
D03*
Y417725D02*
D03*
Y398675D02*
D03*
Y392325D02*
D03*
Y405025D02*
D03*
Y385975D02*
D03*
Y424075D02*
D03*
Y373275D02*
D03*
Y379625D02*
D03*
Y360575D02*
D03*
Y354225D02*
D03*
Y271675D02*
D03*
Y347875D02*
D03*
Y284375D02*
D03*
Y278025D02*
D03*
Y290725D02*
D03*
Y303425D02*
D03*
Y297075D02*
D03*
Y493925D02*
D03*
Y487575D02*
D03*
Y481225D02*
D03*
Y474875D02*
D03*
Y462175D02*
D03*
Y468525D02*
D03*
Y449475D02*
D03*
Y455825D02*
D03*
Y443125D02*
D03*
X584630Y385975D02*
D03*
Y417725D02*
D03*
Y405025D02*
D03*
Y398675D02*
D03*
Y392325D02*
D03*
Y411375D02*
D03*
Y424075D02*
D03*
Y430425D02*
D03*
Y436775D02*
D03*
Y379625D02*
D03*
X610030Y366925D02*
D03*
X594230Y354225D02*
D03*
Y366925D02*
D03*
Y347875D02*
D03*
Y360575D02*
D03*
X584630Y354225D02*
D03*
Y341525D02*
D03*
Y347875D02*
D03*
Y366925D02*
D03*
Y360575D02*
D03*
Y373275D02*
D03*
X594230Y493925D02*
D03*
Y443125D02*
D03*
Y487575D02*
D03*
Y468525D02*
D03*
Y474875D02*
D03*
Y481225D02*
D03*
Y462175D02*
D03*
Y455825D02*
D03*
Y449475D02*
D03*
X584630Y443125D02*
D03*
Y493925D02*
D03*
Y462175D02*
D03*
Y474875D02*
D03*
Y468525D02*
D03*
Y449475D02*
D03*
Y455825D02*
D03*
Y481225D02*
D03*
Y487575D02*
D03*
Y500275D02*
D03*
X594230Y646325D02*
D03*
Y639975D02*
D03*
Y633625D02*
D03*
X584630Y639975D02*
D03*
Y614575D02*
D03*
Y646325D02*
D03*
Y582825D02*
D03*
Y589175D02*
D03*
Y595525D02*
D03*
Y608225D02*
D03*
Y601875D02*
D03*
Y620925D02*
D03*
Y627275D02*
D03*
Y633625D02*
D03*
X594230Y582825D02*
D03*
Y595525D02*
D03*
Y608225D02*
D03*
Y601875D02*
D03*
Y589175D02*
D03*
Y614575D02*
D03*
Y620925D02*
D03*
Y627275D02*
D03*
X610030Y646325D02*
D03*
Y639975D02*
D03*
Y614575D02*
D03*
Y620925D02*
D03*
Y627275D02*
D03*
Y601875D02*
D03*
Y589175D02*
D03*
Y595525D02*
D03*
Y608225D02*
D03*
Y582825D02*
D03*
Y576475D02*
D03*
Y557425D02*
D03*
Y551075D02*
D03*
Y563775D02*
D03*
Y570125D02*
D03*
X594230Y576475D02*
D03*
Y551075D02*
D03*
Y544725D02*
D03*
Y538375D02*
D03*
Y570125D02*
D03*
Y563775D02*
D03*
Y557425D02*
D03*
Y532025D02*
D03*
Y512975D02*
D03*
Y506625D02*
D03*
Y525675D02*
D03*
Y500275D02*
D03*
Y519325D02*
D03*
X584630Y563775D02*
D03*
Y551075D02*
D03*
Y544725D02*
D03*
Y557425D02*
D03*
Y519325D02*
D03*
Y512975D02*
D03*
Y538375D02*
D03*
Y532025D02*
D03*
Y525675D02*
D03*
Y506625D02*
D03*
Y576475D02*
D03*
Y570125D02*
D03*
X619630Y639975D02*
D03*
X610030Y633625D02*
D03*
X619630Y627275D02*
D03*
Y620925D02*
D03*
Y614575D02*
D03*
Y633625D02*
D03*
Y646325D02*
D03*
X610030Y500275D02*
D03*
Y538375D02*
D03*
Y544725D02*
D03*
Y532025D02*
D03*
Y525675D02*
D03*
Y519325D02*
D03*
Y512975D02*
D03*
Y506625D02*
D03*
X619630Y519325D02*
D03*
Y500275D02*
D03*
Y512975D02*
D03*
Y506625D02*
D03*
Y532025D02*
D03*
Y538375D02*
D03*
Y525675D02*
D03*
Y544725D02*
D03*
Y360575D02*
D03*
Y366925D02*
D03*
Y373275D02*
D03*
Y385975D02*
D03*
Y392325D02*
D03*
Y405025D02*
D03*
Y443125D02*
D03*
Y436775D02*
D03*
Y424075D02*
D03*
Y417725D02*
D03*
Y430425D02*
D03*
Y411375D02*
D03*
Y379625D02*
D03*
Y398675D02*
D03*
Y354225D02*
D03*
Y347875D02*
D03*
Y341525D02*
D03*
Y328825D02*
D03*
Y322475D02*
D03*
Y335175D02*
D03*
Y316125D02*
D03*
Y271675D02*
D03*
Y297075D02*
D03*
Y278025D02*
D03*
Y284375D02*
D03*
Y303425D02*
D03*
Y309775D02*
D03*
Y290725D02*
D03*
Y557425D02*
D03*
Y563775D02*
D03*
Y570125D02*
D03*
Y601875D02*
D03*
Y487575D02*
D03*
Y493925D02*
D03*
Y474875D02*
D03*
Y449475D02*
D03*
Y462175D02*
D03*
Y468525D02*
D03*
Y455825D02*
D03*
Y481225D02*
D03*
Y551075D02*
D03*
Y589175D02*
D03*
Y595525D02*
D03*
Y576475D02*
D03*
Y582825D02*
D03*
Y608225D02*
D03*
D74*
X190360Y827330D02*
D03*
X304660D02*
D03*
D75*
X77130Y638770D02*
D03*
X33930D02*
D03*
D76*
X125000Y529100D02*
D03*
Y485900D02*
D03*
D77*
X289780Y521539D02*
D03*
Y541539D02*
D03*
D78*
X359500Y599750D02*
D03*
X339500D02*
D03*
D79*
X925750Y864000D02*
D03*
X873250D02*
D03*
X925750Y896000D02*
D03*
X873250D02*
D03*
D80*
X82500Y718500D02*
D03*
Y761500D02*
D03*
D81*
X367510Y813330D02*
D03*
X362510D02*
D03*
X357510D02*
D03*
X352510D02*
D03*
X367510Y841330D02*
D03*
X352510D02*
D03*
X357510D02*
D03*
X362510D02*
D03*
D82*
X351010Y822330D02*
D03*
D83*
X355010Y827330D02*
D03*
X365010Y822330D02*
D03*
Y832330D02*
D03*
D84*
X93530Y594670D02*
D03*
X88530D02*
D03*
X83530D02*
D03*
Y579870D02*
D03*
X88530D02*
D03*
X93530D02*
D03*
X349500Y576150D02*
D03*
X344500D02*
D03*
X339500D02*
D03*
Y561350D02*
D03*
X344500D02*
D03*
X349500D02*
D03*
D85*
X267180Y533539D02*
D03*
Y538539D02*
D03*
Y543539D02*
D03*
X252380D02*
D03*
Y538539D02*
D03*
Y533539D02*
D03*
X174916Y518610D02*
D03*
Y528610D02*
D03*
Y523610D02*
D03*
X189715Y518610D02*
D03*
Y528610D02*
D03*
Y523610D02*
D03*
D86*
X384120Y273250D02*
D03*
Y279750D02*
D03*
Y286250D02*
D03*
Y292750D02*
D03*
Y299250D02*
D03*
Y305750D02*
D03*
Y312250D02*
D03*
Y318750D02*
D03*
X442880D02*
D03*
Y312250D02*
D03*
Y305750D02*
D03*
Y299250D02*
D03*
Y292750D02*
D03*
Y286250D02*
D03*
Y279750D02*
D03*
Y273250D02*
D03*
D87*
X292500Y315000D02*
D03*
Y308500D02*
D03*
Y302000D02*
D03*
Y295500D02*
D03*
Y289000D02*
D03*
Y282500D02*
D03*
Y276000D02*
D03*
X351500Y315000D02*
D03*
Y308500D02*
D03*
Y302000D02*
D03*
Y295500D02*
D03*
Y289000D02*
D03*
Y282500D02*
D03*
Y276000D02*
D03*
D88*
X214250Y290250D02*
D03*
Y294250D02*
D03*
Y298250D02*
D03*
X204750D02*
D03*
Y294250D02*
D03*
Y290250D02*
D03*
D89*
X540500Y244500D02*
D03*
Y251000D02*
D03*
Y257500D02*
D03*
X518000Y244500D02*
D03*
Y251000D02*
D03*
Y257500D02*
D03*
D90*
X980000Y35000D02*
D03*
X1000000D02*
D03*
X990000D02*
D03*
X960000D02*
D03*
X950000D02*
D03*
X970000D02*
D03*
X1040000D02*
D03*
X1010000D02*
D03*
X1030000D02*
D03*
X1020000D02*
D03*
X880000D02*
D03*
X890000D02*
D03*
X860000D02*
D03*
X850000D02*
D03*
X870000D02*
D03*
X930000D02*
D03*
X940000D02*
D03*
X900000D02*
D03*
X920000D02*
D03*
X1180000D02*
D03*
X1170000D02*
D03*
X1190000D02*
D03*
X1160000D02*
D03*
X1150000D02*
D03*
X1230000D02*
D03*
X1250000D02*
D03*
X1210000D02*
D03*
X1200000D02*
D03*
X1220000D02*
D03*
X1080000D02*
D03*
X1070000D02*
D03*
X1090000D02*
D03*
X1050000D02*
D03*
X1060000D02*
D03*
X1130000D02*
D03*
X1120000D02*
D03*
X1140000D02*
D03*
X1100000D02*
D03*
X1110000D02*
D03*
X570000D02*
D03*
X590000D02*
D03*
X580000D02*
D03*
X550000D02*
D03*
X560000D02*
D03*
X620000D02*
D03*
X630000D02*
D03*
X610000D02*
D03*
X460000D02*
D03*
X450000D02*
D03*
X470000D02*
D03*
X430000D02*
D03*
X440000D02*
D03*
X500000D02*
D03*
X520000D02*
D03*
X510000D02*
D03*
X480000D02*
D03*
X490000D02*
D03*
X780000D02*
D03*
X770000D02*
D03*
X790000D02*
D03*
X750000D02*
D03*
X760000D02*
D03*
X830000D02*
D03*
X840000D02*
D03*
X800000D02*
D03*
X820000D02*
D03*
X810000D02*
D03*
X670000D02*
D03*
X680000D02*
D03*
X640000D02*
D03*
X650000D02*
D03*
X420000D02*
D03*
X660000D02*
D03*
X720000D02*
D03*
X710000D02*
D03*
X730000D02*
D03*
X690000D02*
D03*
X700000D02*
D03*
D91*
X1240000Y40000D02*
D03*
X910000D02*
D03*
X740000D02*
D03*
X600000D02*
D03*
D92*
X1590484Y407174D02*
D03*
Y432574D02*
D03*
X1590500Y236300D02*
D03*
Y261700D02*
D03*
Y303550D02*
D03*
Y328950D02*
D03*
X27500Y755200D02*
D03*
Y729800D02*
D03*
D93*
X1538300Y630000D02*
D03*
X1563700D02*
D03*
D94*
X113500Y189750D02*
D03*
Y354750D02*
D03*
D95*
X36700Y272250D02*
D03*
D96*
X45700Y189750D02*
D03*
Y354750D02*
D03*
D97*
X1570980Y844140D02*
D03*
X1486980D02*
D03*
D98*
X1570980Y729140D02*
D03*
X1528980D02*
D03*
X1486980D02*
D03*
X1570980Y771140D02*
D03*
X1528980D02*
D03*
X1486980D02*
D03*
X1371500Y788060D02*
D03*
Y835060D02*
D03*
D99*
X1280950Y660350D02*
D03*
X1268250Y257650D02*
D03*
X602130Y257650D02*
D03*
X614830Y660350D02*
D03*
D100*
X1288250Y727250D02*
D03*
X581750Y190750D02*
D03*
Y727250D02*
D03*
X1288250Y190750D02*
D03*
D101*
X1371500Y882060D02*
D03*
M02*
