M48
;Layer_Color=9474304
;FILE_FORMAT=4:4
METRIC,LZ
;TYPE=PLATED
T01F00S00C0.2000
T02F00S00C0.9500
T03F00S00C1.1500
T04F00S00C1.2500
T05F00S00C1.7100
T06F00S00C1.8500
T07F00S00C3.2000
;TYPE=NON_PLATED
T08F00S00C1.4000
T09F00S00C3.0500
%
T01
X013475Y000875
X013675
X013875
X014075
X014275
X014475
X014675
X014875
X015075
X015275
X015475
X015675
X015875
X016075
Y001075
Y001275
Y001475
Y001675
Y001875
Y002075
Y002275
Y002475
Y002675
Y002875
Y003075
Y003275
Y003475
Y003675
X0157227Y0027963
X01547Y00262
Y00236
X0154727Y0022963
X0149727
X0144727
X0139727
X0134727
X0137227Y0027963
X0142227
X0147227
X0152227
X01547Y0030355
X0144727Y0032963
X0139727
X0134727
X0137227Y0017963
X0142227
X0147227
X0152227
X0157227
X0154727Y0012963
X0149727
X0144727
X0139727
X0134727
X013275Y000875
X013075
X012875
X012675
X012555Y000815
X0124975Y0007
X012485Y000615
X0123
X0122
X0121
X012
X0119
X0118
X0117
X0116
X0115
X0114
X0113
X0112
X0111
X011
X0109
X0108
X0107
X0106
X0105
X0104
X0103
X0102
X0101
X01
X0099
X0098
X0097
X0096
X0095
X0094
X0097227Y0007963
X009725Y0012
Y001475
Y0017
Y00195
X010225
Y0017
Y001475
Y0012
X0102227Y0007963
X0107227
X0107Y0012
Y001475
Y0017
Y001925
X0104727Y0022963
X0109727
X0114727
X011475Y001925
X011725Y0017
Y001475
Y0012
X0117227Y0007963
X0122227
X012225Y0012
Y001475
X012195Y001745
X012285
X01224Y001795
Y00186
X012195Y00191
X012285
X012475Y002025
X0124727Y0022963
X012355Y002395
X012265
X01231Y002445
Y00251
X012265Y00256
X012355
X01261Y00266
X01266877Y00270928
X01266893Y00277428
X01268498Y00283727
X01268524Y00290227
X01268251Y00296721
X01268227Y00303221
X0126875Y003097
Y003162
X01267222Y00322518
X01267251Y00329018
X01268Y00338
X01256502Y0032565
X01245Y00335
X01244Y00313
X01256502Y0030025
Y0027485
X0127275Y00265459
X01286Y00266
X01279998Y0028755
X01279977Y00312988
X01293Y00317
X0129207Y0030798
X01292Y0037
X01268Y00371
X01245
X012095Y003705
X011795
X011495
X011225Y0037
X010925
X010625
X01061Y00331
X010675
X010725Y003355
Y003265
X01056
Y003355
X0104727Y0032963
X0109727
X01136Y00317
Y00309
X01142Y00313
X011485
X01154Y0030925
Y00317
X0117825Y00317395
X0118725
X0118275Y00322395
Y00328895
X0117825Y00333895
X0118725
X0117227Y0027963
X0112227
X010265Y00283
Y00292
X010215Y002875
X01015
X0101Y00292
Y00283
X0097227Y0027963
X009575Y003075
Y003175
Y003275
X009475
Y003175
Y003075
X0094727Y0022963
X0099727
X011225Y0017
Y001475
Y0012
X0112227Y0007963
X011975Y002025
X0119727Y0022963
X0129727
X01272Y00168028
X01263
X012675Y00163028
Y00156528
X01263Y00151528
X01272
X009225Y001475
X00875
X0087227Y0007963
X0087Y000615
X0086
X0085
X0084
X0083
X0082
X0081
X008
X0079
X0078
X0077
X0075
X007325Y00061
X007175
X007125
X00715Y0007
Y00085
X00695
Y0007
X006975Y00061
X006725
X00675Y0007
Y00085
X00655Y000825
Y0007
X006575Y00061
X0063767Y00061115
X006325Y00061
X00635Y0007
Y00085
X00615Y0007
X00612889Y00061
X0060575Y0006075
X005825Y00061
X00585Y0007
X005575Y00061
X0055Y000615
X0061Y00105
X00605Y001775
X00615Y00195
X006525Y001825
X006675Y001975
X006825Y002125
X0069727Y0022963
X00658Y0027175
X00626Y00278
Y00297
Y00316
X00641Y00319
X00649
X00657
X00656Y00352
X00641Y00347
X00625374Y00354275
X00605633Y00354169
X00605454Y00347705
X00604209Y00340905
X006Y00335
X006025Y0032
Y003
X00602212Y00281246
X00594Y00266
X00579Y00272
Y00278
X00578968Y002845
X0057Y002875
Y00295
Y0028
Y002725
X00578719Y00303581
X00578744Y00322477
X00579Y00341
X00578617Y0036055
X006Y00361
Y003675
X00626Y00335
X00549Y00251
X00555Y001875
X0056Y001775
X0076Y0015
X0079Y00175
X0075Y00105
X0077227Y0007963
X0082227
X0088Y000615
X0089
X009
X0092
X0092227Y0007963
X008925Y0024
X008525
X009375Y003075
Y003175
Y003275
X0052227Y0027963
X00505Y00267
X00501Y00241
X00502Y00232
X00528Y00228
X0054Y00237
Y0021421
X0053Y001925
X005Y001945
Y00187
X004925
Y001945
Y002045
X0047227Y0017963
X00445Y00175
Y00185
X00435
Y00195
Y00175
Y00165
X00445
Y00155
Y00145
Y00135
Y00125
Y00115
Y00105
X00435
Y00115
Y00125
Y00135
Y00145
Y00155
X00396Y00146
Y00128
Y0011
X00405Y000875
X00385
X00365
X00345
X00325
X00305
X00285
X00265
X00245
X00225
X00205
X00185
X00165
X00145
X0014727Y0012963
X0019727
X0024727
X0029727
X0034727
X0037227Y0017963
X00396Y00182
X00395Y00195
X00396Y00164
X0032227Y0017963
X0027227
X0022227
X0022225Y002107
X0021675Y002155
Y00222
X0022225Y002268
X0021125
X0021125Y002107
X0024727Y0022963
X00265Y0026
X00277
Y00283
X00265
X0022227Y0027963
X00214Y00303
X00205
X00198Y00307
X00182Y00316
X0016Y00315
X00157Y003
X00158604Y00284862
X0017227Y0027963
X00191Y00269
X00188Y00258
X00157Y0024475
X00157005Y00229698
X00157Y0021475
X0017227Y0017963
X00171Y00339
X0016
X00149
X00182
X00193
X00258355Y00358705
X00278Y00352
X00305Y00365
X00345Y0035
X00352Y00322
X00362Y00309
X00361747Y00302
X00371176Y00293324
X00362Y00282
X00374Y00273
X00367Y00257
X0034727Y0022963
X0029727
X00394Y0028
Y00286
X004Y002925
X00396Y00306
X00396Y003125
X00373167Y00318735
X00443Y00325
X00445Y002555
X004525
X0046
X004675
X00477Y00264
X00477552Y00275
X00478Y00286
X0043Y00265
X004565Y0009525
X0049Y00098
Y00091
Y00084
Y00077
X0048Y00065
X005Y00061
X0045Y00062
X0044
Y00068
X0043
Y00062
X00529Y00121
X0012Y00149
X00108
X0009727Y0012963
X00105Y000875
X00085
X00065
X00045
X00025
X00005
X00004926Y001075
Y001275
Y001475
Y001675
Y001875
Y002075
Y002275
Y002475
Y002675
Y002875
Y003075
Y003275
Y003475
Y003675
X00132Y0032
X00139
X00123Y00302
X00124561Y0029225
Y0026725
X00124431Y00252362
Y00237362
X00124561Y0022225
X00125Y000875
X0004727Y0012963
X00045Y0038
Y00405
X0004727Y0042963
X00045Y00457
X00083
X00063Y00496
X00038
X00025
X00004926Y004875
Y005075
Y005275
Y005475
Y005675
Y005875
Y006075
Y006275
Y006475
Y006675
Y006875
Y007075
Y007275
Y007475
Y007675
X0006Y00718
X00076Y00702
X00083
X0009
X0007227Y0067963
X0012227
X001175Y007275
X0013
X00105Y00728
X0009727Y0062963
X00078Y00595
X00067Y00599
X00072Y00584
X00079Y0058
X00071Y00564
X000825Y005475
X00093767Y00547233
X00123Y00554
X0012253Y0057375
X0014053
X0010753Y00578
X000325Y00575
Y005675
X00025
Y00575
Y005825
Y0059
X000325
Y005825
Y005975
X00025
X00038Y00565
X00004926Y004675
Y004475
Y004275
Y004075
Y003875
X0007227Y0037963
Y00405
X001Y0038
X0015Y00445
X0018
Y0042
X00218Y00427
X00215Y00447
X00204Y00459
X00199Y00475
X0019Y00471
X00182
X00174
X00166
Y00478
Y00503
X00175Y00514
X00181Y00509
X0019Y00514
X00199Y00508448
X00223Y00508
X00223076Y00521295
X00221Y00533
X00223Y00543
X00221Y00555
X0022227Y0057963
X00196Y00576
X00196181Y00558502
X00248Y00554
X00243Y00569
X00252Y00529
X00260805Y00527328
X00275Y005315
X00285Y00507448
Y005
Y004925
Y00485
X00295
Y004925
Y005
Y00507448
X00306Y00486
X00318Y00472
X00345Y00465
X00342552Y00485
X00355Y00499
X00359Y0053
X00377Y00536
Y00559
X00362228Y00562694
X00355Y00562552
X00351Y00585
X0037Y005975
Y00605
X003825
Y005975
X00395
Y00605
X00396Y00559
X004225Y0056
X0042227Y0057963
X004475Y005975
X0047227Y0057963
X004725Y0056
Y005425
X0044727Y0052963
X004175Y0053
X0044Y0045
X0047
X0047227Y0047963
X005Y0048
Y005
X0052
X00525Y0053
X0053225Y0053658
X0054
X00536Y0054208
Y0054858
X0054Y0055458
X00532
X00541Y00523
X005275Y005975
X004975
X005275Y006525
Y0066
X0054
Y006525
Y00685
X005275
X00486Y00691
X0047227Y0067963
X0042227
X0037227
X0032227
X00275Y0068
X0029727Y0072963
X0034727
X003275Y007575
X002725
X0024727Y0072963
X001975Y007575
X0039727Y0072963
X0044727
X0029Y006
Y005925
X002825
X00275
Y006
X002825
X00312418Y00555227
X00327425Y00559783
X00247479Y00514288
X0025Y00505
X00257707Y00476347
X00257Y00459
X00267Y00447
X00271Y00427
X00292Y00433
X00241552
X00234Y0047
X0022227Y0037963
X0027227
X0034727Y0042963
X0039727
X0039Y0041
X00427Y0038
X0052227Y0037963
X005225Y00435
X0054525Y004385
X00552Y00437
X00566Y0043
X00571653Y00433653
X00578495Y00434423
X00578062Y00442948
X005985Y00443063
X00598525Y00435972
X00598891Y00429483
X0060538Y00430473
X00604709Y00423935
X00605453Y00417478
X00600681Y00398293
X00604457Y00385905
X006Y00376
X00625028Y0037702
X00626Y003855
X00626586Y00392586
X00635Y003925
X00629Y00425
X00642
X00634495Y00436234
X006375Y004425
X006056Y004446
X00605265Y00451302
X00604693Y00458255
X0060465Y00464754
X00598553Y004625
X00598634Y00455901
X00598826Y00468999
X006Y004775
X00604577Y00486219
X00605Y004935
Y005
X00600554Y00504844
X00603917Y00509033
X00604Y00538
X00599835Y00557452
X00604398Y00563882
X00605504Y00571713
X00601Y005764
Y005829
X00604693Y00588736
X00602061Y00607621
X00602Y00614
Y0062
X006015Y006272
Y006337
X00602Y00641
X00578335Y00640157
X00579Y00621
X00579152Y00614075
X00578368Y00595628
X0056979Y00598047
X0056Y005975
Y00569
X00556Y00561
X00579087Y00563646
X00579Y0057
X00578Y00538
Y00513
X00579Y00486
X00574Y00469
X0054925
X0055021Y00523453
X00626Y0053
X00627Y00552
X00626712Y00557713
X0064175Y005589
X0064725Y005637
Y005702
X0065275Y00575
X0064175
X00626Y00576
X00625689Y00582575
X00626Y00608
Y00627
Y00634
X0062227Y0069
X0067227
X0072227
X0077227
X00774Y00635
X00809Y00631
X00809563Y00585633
X00817Y00578
Y00567
X00805Y00557
Y00551
X00784Y00561
X0077227Y0057963
X00729Y00605
X0067525Y00608
X0066625Y0060775
X00671Y00602924
Y00596424
X0067525Y005915
X006665
X00676Y00583
X00693Y00576
X007Y00569
X00706495Y00537272
X0071962Y00537606
X0072227Y0047963
X00666895Y00479894
X00667Y00469
Y00458
Y00447
X00666Y00436
X00675Y0043
X00691Y00413186
X00695Y00407
X00707Y00402
X00699Y00385
X00698Y00378
X0073Y00392
X00716Y00419
X0074727Y0042963
X008275Y0043
X0082227Y0047963
X00864Y00487
X0087227Y0047963
X00872Y00468
Y00463
Y00458
X00887Y00463
X00899
X00915Y004625
Y00455
X0091875Y004725
Y0048
Y004875
Y00495
X009075Y004975
X00908455Y00472968
X00893Y00481
X008855Y0048075
X00886Y00402
X00878
X00872Y00398
Y00406
X00892
Y00398
X00826Y0053
X00809Y00522
X00784Y00499
X00639Y005
X00627Y00487948
X0065275Y005589
X0064727Y0072963
X0069727
X0079727
X0084727
X0089727
X0092227Y0067963
X0087227
X0082227
X0089727Y0062963
X009Y0059
X00565Y0066
X005525
Y006525
Y00685
X00565
X0054727Y0072963
X00578165Y00411446
X00578881Y00385928
X0057227Y0037963
X00939Y00451
Y00462
X01055Y00455
X010825Y0048
X0117227Y0047963
X0122227
X01244254Y00487535
X01244037Y00506336
X01233Y00515561
X01245227Y00525646
X01255877Y00538159
X01266Y00545
X01267Y00554
X0126947Y00563813
X01266506Y00576456
X01272Y00589
X01266Y00602
X0127Y00615
X01266039Y00627374
X0127Y0064
Y00646
X01296Y00647
Y00632
X01292Y00624
Y00602
X01291461Y0057639
X01296Y00558
X01291Y00551
X01296Y00543
Y00532
X01291494Y00519286
X01291Y005
X01291718Y00481233
X01292097Y00462233
X01292332Y00446
X0129723Y00430484
X01291398Y00424904
X01292Y00405
X0127Y00408
X01268Y00398
X01243
X01244Y00408
Y00428
X01244383Y00449722
Y00468489
X01268Y00467
Y0045
Y00427
Y00485
Y00504
X01269Y00523
X01271Y00532
X01280985Y00538099
X0132Y00543
Y00531
X01329Y00558
Y00576
X01304Y00587
X01243371Y00589016
X01244625Y00563593
X01217Y0054
X01216971Y00506656
X0121Y004275
X012095Y00403
X011795
X0118Y004275
X0115
X011495Y00403
X011025Y004
X01123Y00427
X010275Y004275
X01005Y004025
X0097227Y0057963
X0094727Y0062963
X0097227Y0067963
X0099727Y0072963
X0104727
X0109727
X0114727
X01215Y0062
X01231Y00625
X01205Y00605
X011775Y00575
X0113Y005275
X0132227Y0047963
X01329Y006325
X0132Y006475
X0094727Y0072963
X0134727
X0139727
X0144727
X01416Y00761
X0147227Y0067963
X0152227
X0157227
X01562Y00664
X01564Y00652
X016075Y006475
Y006675
Y006875
Y007075
Y007275
Y007475
Y007675
X0154727Y0072963
X0149727Y0062963
X01485Y006085
X01483Y00598
X01485Y00587
X01483Y00576
Y00566
X01485Y00555
X01483Y00544
X01485Y005335
X01511Y0055
X01512Y00566
Y00576
X01511Y00592
X01589Y00602
X016075Y006075
Y006275
Y005875
Y005675
Y005475
Y005275
Y005075
Y004875
Y004675
Y004475
Y004275
Y004075
Y003875
X0157227Y0037963
X0155Y004035
X01548Y00414174
Y00425574
X0155Y004365
X0149727Y0042963
X0144727
X0139727
X0134727
X0137227Y0047963
X0142227
X0139727Y0052963
X0134727
X0137227Y0057963
X0142227
X0139727Y0062963
X0134727
X01589Y00577
Y00565
X01564Y00535
X0157227Y0047963
X016075Y007875
Y008075
Y008275
Y008475
Y008675
Y008875
X01607425Y009095
X01587425
X01567425
X01547425
X01527425
X01507425
X01487425
X01467425
X01447425
X01427425
X01407425
X01387425
X01367425
X01347425
X01416Y00841
Y00821
Y00801
Y00781
X012775Y008075
X0127
X012625
X0127227Y0087963
X01267425Y009095
X01287425
X01307425
X01327425
X0132227Y0087963
X0122227
X01227425Y009095
X01207425
X01187425
X01167425
X01147425
X01127425
X01107425
X01087425
X01067425
X01047425
X01027425
X01007425
X00987425
X00967425
X00947425
X0097227Y0087963
X0102227
X0107227
X0112227
X0117227
Y0077963
X0112227
X0107227
X0102227
X0097227
X01247425Y009095
X00927425
X00907425
X00887425
X00885Y00896
X00873Y00887
X0087227Y0087963
X00855549Y00880368
X00845Y00879
X00845Y00859
X0081Y00863
X00811221Y00876207
X0082227Y0087963
X00827425Y009095
X00807425
X00782Y00904
X00767425Y009095
X0077227Y0087963
X00756138Y00876458
X00755425Y00863162
X0072227Y0087963
X007Y00876
X00699Y00863
X00707425Y009095
X00727Y00904
X00671
X00647425Y009095
X00616Y00904
X00607425Y009095
X00587425
X00567425
X00547425
X00644Y00876
Y00863
X0062227Y0077963
X0067227
X0072227
X0077227
X0082227
X0087227
X0092227
Y0087963
X00926Y00887
X00914Y00896
X00867425Y009095
X00847425
X0057227Y0077963
X0047227
X0042227
X0037227
X0034651Y0077833
Y0080233
X00354071Y0080493
X00362416Y0080388
X00373Y00806
X00396Y00804
X00392473Y00838615
X0037651Y0083233
X0040991Y0084799
X0042991
X0044991
X0046991
X0048991
X0047227Y0087963
X00467425Y009095
X00447425
X00427425
X00407425
X00387425
X0038751Y0089133
X00375001Y00891366
X0035051Y0089233
X0033751Y0089133
X0032227Y0087963
X00327426Y009095
X00307426
X00287426
X00267426
X00247426
X00227426
X00207426
X00187426
X00167426
X00147426
X00145Y00864
X0016Y00859
X0016851Y0084133
X0032227Y0077963
X00347425Y009095
X00367426
X00395Y00875
X0042227Y0087963
X00487425Y009095
X00507425
X00527425
X0052227Y0087963
X0012227
X00125Y00864
X00105
X00085
X00065
X0007227Y0087963
X000975Y008875
X00107426Y009095
X00127426
X00087426
X00067426
X00047426
X00027426
X00004926
Y008875
Y008675
Y008475
Y008275
Y008075
Y007875
X000375Y007975
X0004727Y0082963
X000375Y008575
Y008875
T02
X0126825Y0025765
X0060213Y0025765
X0061483Y0066035
X0128095Y0066035
T03
X015905Y002363
Y002617
Y0030355
Y0032895
X000275Y007298
Y007552
X015383Y0063
X015637
X01590484Y00432574
Y00407174
T04
X000457Y0018975
Y0035475
T05
X001135Y0018975
Y0035475
T06
X0148698Y0072914
X0152898
X0157098
Y0077114
X0152898
X0148698
X013715Y0078806
Y0083506
Y0088206
T07
X0128825Y0019075
X0058175Y0019075
Y0072725
X0128825Y0072725
T08
X000367Y0027225
T09
X0148698Y0084414
X0157098
M30
